<svg id="Layer_1" data-name="Layer 1" xmlns="http://www.w3.org/2000/svg" xmlns:xlink="http://www.w3.org/1999/xlink" viewBox="0 0 396.08 479.38"><defs><style>.cls-1,.cls-10,.cls-11,.cls-12,.cls-13,.cls-14,.cls-15,.cls-17,.cls-3,.cls-5,.cls-6,.cls-7,.cls-8,.cls-9{fill:none;}.cls-2{clip-path:url(#clip-path);}.cls-15,.cls-3{stroke:#000;stroke-width:0.8px;}.cls-10,.cls-11,.cls-12,.cls-13,.cls-14,.cls-3,.cls-5,.cls-6,.cls-7,.cls-8,.cls-9{stroke-linejoin:round;}.cls-4{clip-path:url(#clip-path-2);}.cls-5{stroke:#ff7f00;}.cls-10,.cls-11,.cls-12,.cls-13,.cls-14,.cls-15,.cls-5,.cls-6,.cls-7,.cls-8,.cls-9{stroke-linecap:square;}.cls-10,.cls-11,.cls-12,.cls-13,.cls-14,.cls-5,.cls-6,.cls-7,.cls-8,.cls-9{stroke-width:5px;}.cls-6{stroke:#e31a1c;}.cls-7{stroke:#fb9a99;}.cls-8{stroke:#984ea3;}.cls-9{stroke:#1f78b4;}.cls-10{stroke:#a6cee3;}.cls-11{stroke:#ffffb3;}.cls-12{stroke:#decbe4;}.cls-13{stroke:#e5d8bd;}.cls-14{stroke:#d9d9d9;}.cls-15,.cls-17{stroke-miterlimit:10;}.cls-16{fill:#fff;}.cls-16,.cls-17{opacity:0.8;}.cls-17{stroke:#ccc;}.cls-18{font-size:12px;font-family:MyriadPro-Regular, Myriad Pro;}.cls-19{letter-spacing:-0.03em;}.cls-20{letter-spacing:-0.04em;}.cls-21{letter-spacing:-0.05em;}.cls-22{letter-spacing:0em;}.cls-23{letter-spacing:0.01em;}</style><clipPath id="clip-path" transform="translate(-8.3 -12.48)"><rect class="cls-1" y="31.55" width="411.08" height="469.45"/></clipPath><clipPath id="clip-path-2" transform="translate(-8.3 -12.48)"><rect class="cls-1" x="33.28" y="42.25" width="279" height="434.88"/></clipPath></defs><title>PassengerTraffic</title><g class="cls-2"><line x1="24.98" y1="464.65" x2="24.98" y2="468.15"/><line class="cls-3" x1="24.98" y1="464.65" x2="24.98" y2="468.15"/><path d="M22.48,490.89h3.44v.83H21.29v-.83l1.53-1.56c.64-.65,1.05-1.07,1.22-1.26a4,4,0,0,0,.66-.9,1.65,1.65,0,0,0,.19-.73,1.21,1.21,0,0,0-.41-.94,1.54,1.54,0,0,0-1.06-.37,3.52,3.52,0,0,0-1,.16,6,6,0,0,0-1.1.49v-1a7.87,7.87,0,0,1,1.11-.36,4.19,4.19,0,0,1,.95-.12,2.7,2.7,0,0,1,1.8.57,1.88,1.88,0,0,1,.68,1.51,2.19,2.19,0,0,1-.17.85,3.79,3.79,0,0,1-.61.95c-.08.1-.34.37-.78.82l-1.84,1.89" transform="translate(-8.3 -12.48)"/><path d="M30.1,484.3a2.14,2.14,0,0,1,1.87,1,6.4,6.4,0,0,1,0,5.62,2.31,2.31,0,0,1-3.75,0,6.49,6.49,0,0,1,0-5.62,2.14,2.14,0,0,1,1.88-1m0,.78a1.23,1.23,0,0,0-1.15.75,6.85,6.85,0,0,0,0,4.5,1.26,1.26,0,0,0,2.3,0,6.85,6.85,0,0,0,0-4.5,1.23,1.23,0,0,0-1.15-.75" transform="translate(-8.3 -12.48)"/><path d="M36.46,484.3a2.14,2.14,0,0,1,1.87,1,6.4,6.4,0,0,1,0,5.62,2.31,2.31,0,0,1-3.75,0,6.49,6.49,0,0,1,0-5.62,2.14,2.14,0,0,1,1.88-1m0,.78a1.23,1.23,0,0,0-1.15.75,6.85,6.85,0,0,0,0,4.5,1.26,1.26,0,0,0,2.3,0,6.85,6.85,0,0,0,0-4.5,1.23,1.23,0,0,0-1.15-.75" transform="translate(-8.3 -12.48)"/><polyline points="32.16 471.96 36.85 471.96 36.85 472.38 34.2 479.25 33.17 479.25 35.66 472.79 32.16 472.79 32.16 471.96"/><line x1="52.88" y1="464.65" x2="52.88" y2="468.15"/><line class="cls-3" x1="52.88" y1="464.65" x2="52.88" y2="468.15"/><path d="M50.38,490.89h3.44v.83H49.19v-.83l1.53-1.56c.64-.65,1.05-1.07,1.22-1.26a4,4,0,0,0,.66-.9,1.65,1.65,0,0,0,.19-.73,1.21,1.21,0,0,0-.41-.94,1.54,1.54,0,0,0-1.06-.37,3.52,3.52,0,0,0-1,.16,6,6,0,0,0-1.1.49v-1a7.87,7.87,0,0,1,1.11-.36,4.19,4.19,0,0,1,.95-.12,2.7,2.7,0,0,1,1.8.57,1.88,1.88,0,0,1,.68,1.51,2.19,2.19,0,0,1-.17.85,3.79,3.79,0,0,1-.61.95c-.08.1-.34.37-.78.82l-1.84,1.89" transform="translate(-8.3 -12.48)"/><path d="M58,484.3a2.14,2.14,0,0,1,1.87,1,6.4,6.4,0,0,1,0,5.62,2.31,2.31,0,0,1-3.75,0,6.49,6.49,0,0,1,0-5.62,2.14,2.14,0,0,1,1.88-1m0,.78a1.23,1.23,0,0,0-1.15.75,6.85,6.85,0,0,0,0,4.5,1.26,1.26,0,0,0,2.3,0,6.85,6.85,0,0,0,0-4.5,1.23,1.23,0,0,0-1.15-.75" transform="translate(-8.3 -12.48)"/><path d="M64.36,484.3a2.14,2.14,0,0,1,1.87,1,6.4,6.4,0,0,1,0,5.62,2.31,2.31,0,0,1-3.75,0,6.49,6.49,0,0,1,0-5.62,2.14,2.14,0,0,1,1.88-1m0,.78a1.23,1.23,0,0,0-1.15.75,6.85,6.85,0,0,0,0,4.5,1.26,1.26,0,0,0,2.3,0,6.85,6.85,0,0,0,0-4.5,1.23,1.23,0,0,0-1.15-.75" transform="translate(-8.3 -12.48)"/><path d="M69.37,486.28a1.12,1.12,0,0,0,.35.89,1.75,1.75,0,0,0,2,0,1.12,1.12,0,0,0,.36-.89,1.1,1.1,0,0,0-.36-.88,1.71,1.71,0,0,0-2,0,1.1,1.1,0,0,0-.35.88m.36,1.56a1.78,1.78,0,0,1-1-.59,1.59,1.59,0,0,1-.35-1.06,1.67,1.67,0,0,1,.62-1.38,2.6,2.6,0,0,1,1.71-.51,2.64,2.64,0,0,1,1.71.51,1.7,1.7,0,0,1,.62,1.38,1.6,1.6,0,0,1-.36,1.06,1.75,1.75,0,0,1-1,.59,2,2,0,0,1,1.11.65,1.83,1.83,0,0,1,.4,1.18,2,2,0,0,1-.65,1.62,3.35,3.35,0,0,1-3.71,0,2,2,0,0,1-.64-1.62,1.78,1.78,0,0,1,.4-1.18,1.94,1.94,0,0,1,1.11-.65m1,.42a1.57,1.57,0,0,0-1.11.38,1.33,1.33,0,0,0-.4,1,1.35,1.35,0,0,0,.4,1,1.57,1.57,0,0,0,1.11.37,1.52,1.52,0,0,0,1.1-.38,1.33,1.33,0,0,0,.41-1,1.36,1.36,0,0,0-.4-1,1.57,1.57,0,0,0-1.11-.38" transform="translate(-8.3 -12.48)"/><line x1="80.78" y1="464.65" x2="80.78" y2="468.15"/><line class="cls-3" x1="80.78" y1="464.65" x2="80.78" y2="468.15"/><path d="M78.28,490.89h3.44v.83H77.09v-.83l1.53-1.56c.64-.65,1-1.07,1.22-1.26a4,4,0,0,0,.66-.9,1.65,1.65,0,0,0,.19-.73,1.21,1.21,0,0,0-.41-.94,1.54,1.54,0,0,0-1.06-.37,3.52,3.52,0,0,0-1,.16,6,6,0,0,0-1.1.49v-1a7.87,7.87,0,0,1,1.11-.36,4.19,4.19,0,0,1,1-.12,2.7,2.7,0,0,1,1.8.57,1.88,1.88,0,0,1,.68,1.51,2.19,2.19,0,0,1-.17.85,3.79,3.79,0,0,1-.61.95c-.08.1-.34.37-.78.82l-1.84,1.89" transform="translate(-8.3 -12.48)"/><path d="M85.9,484.3a2.14,2.14,0,0,1,1.87,1,6.4,6.4,0,0,1,0,5.62,2.31,2.31,0,0,1-3.75,0,6.49,6.49,0,0,1,0-5.62,2.14,2.14,0,0,1,1.88-1m0,.78a1.23,1.23,0,0,0-1.15.75,6.85,6.85,0,0,0,0,4.5,1.26,1.26,0,0,0,2.3,0,6.85,6.85,0,0,0,0-4.5,1.23,1.23,0,0,0-1.15-.75" transform="translate(-8.3 -12.48)"/><path d="M92.26,484.3a2.14,2.14,0,0,1,1.87,1,6.4,6.4,0,0,1,0,5.62,2.31,2.31,0,0,1-3.75,0,6.49,6.49,0,0,1,0-5.62,2.14,2.14,0,0,1,1.88-1m0,.78a1.23,1.23,0,0,0-1.15.75,6.85,6.85,0,0,0,0,4.5,1.26,1.26,0,0,0,2.3,0,6.85,6.85,0,0,0,0-4.5,1.23,1.23,0,0,0-1.15-.75" transform="translate(-8.3 -12.48)"/><path d="M98.5,488.48a1.32,1.32,0,0,0,1-.45,2.18,2.18,0,0,0,0-2.49,1.43,1.43,0,0,0-2.1,0,2.18,2.18,0,0,0,0,2.49,1.32,1.32,0,0,0,1,.45m-2,3.09v-.9a3.36,3.36,0,0,0,.75.27A3.2,3.2,0,0,0,98,491a1.76,1.76,0,0,0,1.48-.65,3.65,3.65,0,0,0,.6-2,2.12,2.12,0,0,1-.72.65,2.05,2.05,0,0,1-1,.22,2.29,2.29,0,0,1-1.74-.66,2.85,2.85,0,0,1,0-3.61,2.37,2.37,0,0,1,1.77-.68,2.21,2.21,0,0,1,1.93,1,5,5,0,0,1,.67,2.81,4.29,4.29,0,0,1-.82,2.75,2.68,2.68,0,0,1-2.2,1,4.76,4.76,0,0,1-.75-.07,4,4,0,0,1-.79-.21" transform="translate(-8.3 -12.48)"/><line x1="108.68" y1="464.65" x2="108.68" y2="468.15"/><line class="cls-3" x1="108.68" y1="464.65" x2="108.68" y2="468.15"/><path d="M106.18,490.89h3.44v.83H105v-.83l1.53-1.56c.64-.65,1-1.07,1.22-1.26a4,4,0,0,0,.66-.9,1.65,1.65,0,0,0,.19-.73,1.21,1.21,0,0,0-.41-.94,1.54,1.54,0,0,0-1.06-.37,3.52,3.52,0,0,0-1,.16,6,6,0,0,0-1.1.49v-1a7.87,7.87,0,0,1,1.11-.36,4.19,4.19,0,0,1,.95-.12,2.7,2.7,0,0,1,1.8.57,1.88,1.88,0,0,1,.68,1.51,2.19,2.19,0,0,1-.17.85,3.79,3.79,0,0,1-.61.95c-.08.1-.34.37-.78.82l-1.84,1.89" transform="translate(-8.3 -12.48)"/><path d="M113.8,484.3a2.14,2.14,0,0,1,1.87,1,6.4,6.4,0,0,1,0,5.62,2.31,2.31,0,0,1-3.75,0,6.49,6.49,0,0,1,0-5.62,2.14,2.14,0,0,1,1.88-1m0,.78a1.23,1.23,0,0,0-1.15.75,6.85,6.85,0,0,0,0,4.5,1.26,1.26,0,0,0,2.3,0,6.85,6.85,0,0,0,0-4.5,1.23,1.23,0,0,0-1.15-.75" transform="translate(-8.3 -12.48)"/><polyline points="109.92 478.42 111.53 478.42 111.53 472.86 109.78 473.21 109.78 472.31 111.52 471.96 112.51 471.96 112.51 478.42 114.12 478.42 114.12 479.25 109.92 479.25 109.92 478.42"/><path d="M126.52,484.3a2.14,2.14,0,0,1,1.87,1,6.4,6.4,0,0,1,0,5.62,2.31,2.31,0,0,1-3.75,0,6.49,6.49,0,0,1,0-5.62,2.14,2.14,0,0,1,1.88-1m0,.78a1.23,1.23,0,0,0-1.15.75,6.85,6.85,0,0,0,0,4.5,1.26,1.26,0,0,0,2.3,0,6.85,6.85,0,0,0,0-4.5,1.23,1.23,0,0,0-1.15-.75" transform="translate(-8.3 -12.48)"/><line x1="136.58" y1="464.65" x2="136.58" y2="468.15"/><line class="cls-3" x1="136.58" y1="464.65" x2="136.58" y2="468.15"/><path d="M134.08,490.89h3.44v.83h-4.63v-.83l1.53-1.56c.64-.65,1.05-1.07,1.22-1.26a4,4,0,0,0,.66-.9,1.65,1.65,0,0,0,.19-.73,1.21,1.21,0,0,0-.41-.94,1.54,1.54,0,0,0-1.06-.37,3.52,3.52,0,0,0-1,.16,6,6,0,0,0-1.1.49v-1a7.87,7.87,0,0,1,1.11-.36,4.19,4.19,0,0,1,.95-.12,2.7,2.7,0,0,1,1.8.57,1.88,1.88,0,0,1,.68,1.51,2.19,2.19,0,0,1-.17.85,3.79,3.79,0,0,1-.61.95c-.08.1-.34.37-.78.82l-1.84,1.89" transform="translate(-8.3 -12.48)"/><path d="M141.7,484.3a2.14,2.14,0,0,1,1.87,1,6.4,6.4,0,0,1,0,5.62,2.31,2.31,0,0,1-3.75,0,6.49,6.49,0,0,1,0-5.62,2.14,2.14,0,0,1,1.88-1m0,.78a1.23,1.23,0,0,0-1.15.75,6.85,6.85,0,0,0,0,4.5,1.26,1.26,0,0,0,2.3,0,6.85,6.85,0,0,0,0-4.5,1.23,1.23,0,0,0-1.15-.75" transform="translate(-8.3 -12.48)"/><polyline points="137.82 478.42 139.43 478.42 139.43 472.86 137.68 473.21 137.68 472.31 139.42 471.96 140.41 471.96 140.41 478.42 142.02 478.42 142.02 479.25 137.82 479.25 137.82 478.42"/><polyline points="144.18 478.42 145.79 478.42 145.79 472.86 144.04 473.21 144.04 472.31 145.78 471.96 146.77 471.96 146.77 478.42 148.38 478.42 148.38 479.25 144.18 479.25 144.18 478.42"/><line x1="164.48" y1="464.65" x2="164.48" y2="468.15"/><line class="cls-3" x1="164.48" y1="464.65" x2="164.48" y2="468.15"/><path d="M162,490.89h3.44v.83h-4.63v-.83l1.53-1.56c.64-.65,1.05-1.07,1.22-1.26a4,4,0,0,0,.66-.9,1.65,1.65,0,0,0,.19-.73,1.21,1.21,0,0,0-.41-.94,1.54,1.54,0,0,0-1.06-.37,3.52,3.52,0,0,0-1,.16,6,6,0,0,0-1.1.49v-1a7.87,7.87,0,0,1,1.11-.36,4.19,4.19,0,0,1,1-.12,2.7,2.7,0,0,1,1.8.57,1.88,1.88,0,0,1,.68,1.51,2.19,2.19,0,0,1-.17.85,3.79,3.79,0,0,1-.61.95c-.08.1-.34.37-.78.82L162,490.89" transform="translate(-8.3 -12.48)"/><path d="M169.6,484.3a2.14,2.14,0,0,1,1.87,1,6.4,6.4,0,0,1,0,5.62,2.31,2.31,0,0,1-3.75,0,6.49,6.49,0,0,1,0-5.62,2.14,2.14,0,0,1,1.88-1m0,.78a1.23,1.23,0,0,0-1.15.75,6.85,6.85,0,0,0,0,4.5,1.26,1.26,0,0,0,2.3,0,6.85,6.85,0,0,0,0-4.5,1.23,1.23,0,0,0-1.15-.75" transform="translate(-8.3 -12.48)"/><polyline points="165.72 478.42 167.33 478.42 167.33 472.86 165.58 473.21 165.58 472.31 167.32 471.96 168.31 471.96 168.31 478.42 169.92 478.42 169.92 479.25 165.72 479.25 165.72 478.42"/><path d="M181.06,490.89h3.44v.83h-4.63v-.83l1.53-1.56c.64-.65,1-1.07,1.22-1.26a4,4,0,0,0,.66-.9,1.65,1.65,0,0,0,.19-.73,1.21,1.21,0,0,0-.41-.94,1.54,1.54,0,0,0-1.06-.37,3.52,3.52,0,0,0-1,.16,6,6,0,0,0-1.1.49v-1a7.87,7.87,0,0,1,1.11-.36,4.19,4.19,0,0,1,.95-.12,2.7,2.7,0,0,1,1.8.57,1.88,1.88,0,0,1,.68,1.51,2.19,2.19,0,0,1-.17.85,3.79,3.79,0,0,1-.61.95c-.08.1-.34.37-.78.82l-1.84,1.89" transform="translate(-8.3 -12.48)"/><line x1="192.38" y1="464.65" x2="192.38" y2="468.15"/><line class="cls-3" x1="192.38" y1="464.65" x2="192.38" y2="468.15"/><path d="M189.88,490.89h3.44v.83h-4.63v-.83l1.53-1.56c.64-.65,1.05-1.07,1.22-1.26a4,4,0,0,0,.66-.9,1.65,1.65,0,0,0,.19-.73,1.21,1.21,0,0,0-.41-.94,1.54,1.54,0,0,0-1.06-.37,3.52,3.52,0,0,0-1,.16,6,6,0,0,0-1.1.49v-1a7.87,7.87,0,0,1,1.11-.36,4.19,4.19,0,0,1,1-.12,2.7,2.7,0,0,1,1.8.57,1.88,1.88,0,0,1,.68,1.51,2.19,2.19,0,0,1-.17.85,3.79,3.79,0,0,1-.61.95c-.08.1-.34.37-.78.82l-1.84,1.89" transform="translate(-8.3 -12.48)"/><path d="M197.5,484.3a2.14,2.14,0,0,1,1.87,1,6.4,6.4,0,0,1,0,5.62,2.31,2.31,0,0,1-3.75,0,6.49,6.49,0,0,1,0-5.62,2.14,2.14,0,0,1,1.88-1m0,.78a1.23,1.23,0,0,0-1.15.75,6.85,6.85,0,0,0,0,4.5,1.26,1.26,0,0,0,2.3,0,6.85,6.85,0,0,0,0-4.5,1.23,1.23,0,0,0-1.15-.75" transform="translate(-8.3 -12.48)"/><polyline points="193.62 478.42 195.23 478.42 195.23 472.86 193.48 473.21 193.48 472.31 195.22 471.96 196.21 471.96 196.21 478.42 197.82 478.42 197.82 479.25 193.62 479.25 193.62 478.42"/><path d="M211.1,487.79a1.87,1.87,0,0,1,1.1.63,1.83,1.83,0,0,1,.4,1.18,2,2,0,0,1-.74,1.67,3.35,3.35,0,0,1-2.11.58,5.17,5.17,0,0,1-.95-.09,5.68,5.68,0,0,1-1-.26v-.95a3.26,3.26,0,0,0,.9.36,4.19,4.19,0,0,0,1,.12,2.33,2.33,0,0,0,1.41-.36,1.26,1.26,0,0,0,.49-1.07,1.22,1.22,0,0,0-.45-1,2,2,0,0,0-1.26-.37h-.85v-.81H210a1.79,1.79,0,0,0,1.11-.29,1,1,0,0,0,.39-.84,1,1,0,0,0-.4-.86,1.89,1.89,0,0,0-1.14-.3,4.59,4.59,0,0,0-.87.09,8.69,8.69,0,0,0-1,.27v-.88a9.56,9.56,0,0,1,1-.23,6,6,0,0,1,.93-.08,2.82,2.82,0,0,1,1.77.51,1.65,1.65,0,0,1,.66,1.38,1.56,1.56,0,0,1-.35,1,1.76,1.76,0,0,1-1,.58" transform="translate(-8.3 -12.48)"/><line x1="220.28" y1="464.65" x2="220.28" y2="468.15"/><line class="cls-3" x1="220.28" y1="464.65" x2="220.28" y2="468.15"/><path d="M217.78,490.89h3.44v.83h-4.63v-.83l1.53-1.56c.64-.65,1-1.07,1.22-1.26a4,4,0,0,0,.66-.9,1.65,1.65,0,0,0,.19-.73,1.21,1.21,0,0,0-.41-.94,1.54,1.54,0,0,0-1.06-.37,3.52,3.52,0,0,0-1,.16,6,6,0,0,0-1.1.49v-1a7.87,7.87,0,0,1,1.11-.36,4.19,4.19,0,0,1,.95-.12,2.7,2.7,0,0,1,1.8.57,1.88,1.88,0,0,1,.68,1.51,2.19,2.19,0,0,1-.17.85,3.79,3.79,0,0,1-.61.95c-.08.1-.34.37-.78.82l-1.84,1.89" transform="translate(-8.3 -12.48)"/><path d="M225.4,484.3a2.14,2.14,0,0,1,1.87,1,6.4,6.4,0,0,1,0,5.62,2.31,2.31,0,0,1-3.75,0,6.49,6.49,0,0,1,0-5.62,2.14,2.14,0,0,1,1.88-1m0,.78a1.23,1.23,0,0,0-1.15.75,6.85,6.85,0,0,0,0,4.5,1.26,1.26,0,0,0,2.3,0,6.85,6.85,0,0,0,0-4.5,1.23,1.23,0,0,0-1.15-.75" transform="translate(-8.3 -12.48)"/><polyline points="221.52 478.42 223.13 478.42 223.13 472.86 221.38 473.21 221.38 472.31 223.12 471.96 224.11 471.96 224.11 478.42 225.72 478.42 225.72 479.25 221.52 479.25 221.52 478.42"/><path d="M238.46,484.43h1.24v4.75h1V490h-1v1.72h-1V490h-3.29v-.95l3-4.62m.26.86-2.49,3.89h2.49v-3.89" transform="translate(-8.3 -12.48)"/><line x1="248.18" y1="464.65" x2="248.18" y2="468.15"/><line class="cls-3" x1="248.18" y1="464.65" x2="248.18" y2="468.15"/><path d="M245.68,490.89h3.44v.83h-4.63v-.83l1.53-1.56c.64-.65,1-1.07,1.22-1.26a4,4,0,0,0,.66-.9,1.65,1.65,0,0,0,.19-.73,1.21,1.21,0,0,0-.41-.94,1.54,1.54,0,0,0-1.06-.37,3.52,3.52,0,0,0-1,.16,6,6,0,0,0-1.1.49v-1a7.87,7.87,0,0,1,1.11-.36,4.19,4.19,0,0,1,.95-.12,2.7,2.7,0,0,1,1.8.57,1.88,1.88,0,0,1,.68,1.51,2.19,2.19,0,0,1-.17.85,3.79,3.79,0,0,1-.61.95c-.08.1-.34.37-.78.82l-1.84,1.89" transform="translate(-8.3 -12.48)"/><path d="M253.3,484.3a2.14,2.14,0,0,1,1.87,1,6.4,6.4,0,0,1,0,5.62,2.31,2.31,0,0,1-3.75,0,6.49,6.49,0,0,1,0-5.62,2.14,2.14,0,0,1,1.88-1m0,.78a1.23,1.23,0,0,0-1.15.75,6.85,6.85,0,0,0,0,4.5,1.26,1.26,0,0,0,2.3,0,6.85,6.85,0,0,0,0-4.5,1.23,1.23,0,0,0-1.15-.75" transform="translate(-8.3 -12.48)"/><polyline points="249.42 478.42 251.03 478.42 251.03 472.86 249.28 473.21 249.28 472.31 251.02 471.96 252.01 471.96 252.01 478.42 253.62 478.42 253.62 479.25 249.42 479.25 249.42 478.42"/><path d="M263.92,484.43h3.87v.83h-3v1.79a2.26,2.26,0,0,1,.43-.11,3.13,3.13,0,0,1,.43,0,2.74,2.74,0,0,1,1.93.67,2.36,2.36,0,0,1,.72,1.81,2.31,2.31,0,0,1-.74,1.83,3,3,0,0,1-2.06.64,7.57,7.57,0,0,1-.94-.07,6.28,6.28,0,0,1-1-.23v-1a3.75,3.75,0,0,0,.91.36,4,4,0,0,0,1,.11,1.92,1.92,0,0,0,1.34-.44,1.73,1.73,0,0,0,0-2.41,1.92,1.92,0,0,0-1.34-.45,3.55,3.55,0,0,0-.79.09,4.44,4.44,0,0,0-.8.27v-3.66" transform="translate(-8.3 -12.48)"/><line x1="276.08" y1="464.65" x2="276.08" y2="468.15"/><line class="cls-3" x1="276.08" y1="464.65" x2="276.08" y2="468.15"/><path d="M273.58,490.89H277v.83h-4.63v-.83l1.53-1.56c.64-.65,1.05-1.07,1.22-1.26a4,4,0,0,0,.66-.9,1.65,1.65,0,0,0,.19-.73,1.21,1.21,0,0,0-.41-.94,1.54,1.54,0,0,0-1.06-.37,3.52,3.52,0,0,0-1,.16,6,6,0,0,0-1.1.49v-1a7.87,7.87,0,0,1,1.11-.36,4.19,4.19,0,0,1,.95-.12,2.7,2.7,0,0,1,1.8.57,1.88,1.88,0,0,1,.68,1.51,2.19,2.19,0,0,1-.17.85,3.79,3.79,0,0,1-.61.95c-.08.1-.34.37-.78.82l-1.84,1.89" transform="translate(-8.3 -12.48)"/><path d="M281.2,484.3a2.14,2.14,0,0,1,1.87,1,6.4,6.4,0,0,1,0,5.62,2.31,2.31,0,0,1-3.75,0,6.49,6.49,0,0,1,0-5.62,2.14,2.14,0,0,1,1.88-1m0,.78a1.23,1.23,0,0,0-1.15.75,6.85,6.85,0,0,0,0,4.5,1.26,1.26,0,0,0,2.3,0,6.85,6.85,0,0,0,0-4.5,1.23,1.23,0,0,0-1.15-.75" transform="translate(-8.3 -12.48)"/><polyline points="277.32 478.42 278.93 478.42 278.93 472.86 277.18 473.21 277.18 472.31 278.92 471.96 279.91 471.96 279.91 478.42 281.52 478.42 281.52 479.25 277.32 479.25 277.32 478.42"/><path d="M296,484.59v.9a3.76,3.76,0,0,0-.75-.27,3.33,3.33,0,0,0-.75-.09,1.78,1.78,0,0,0-1.5.66,3.51,3.51,0,0,0-.58,2,2,2,0,0,1,.72-.65,2.06,2.06,0,0,1,1-.23,2.29,2.29,0,0,1,1.73.67,2.53,2.53,0,0,1,.64,1.81,2.47,2.47,0,0,1-.67,1.8,2.35,2.35,0,0,1-1.76.67,2.2,2.2,0,0,1-1.93-1,4.88,4.88,0,0,1-.67-2.81,4.25,4.25,0,0,1,.82-2.75,2.68,2.68,0,0,1,2.2-1,5,5,0,0,1,.75.07,5.59,5.59,0,0,1,.79.22m-2,3.09a1.33,1.33,0,0,0-1.05.46,2.18,2.18,0,0,0,0,2.49,1.45,1.45,0,0,0,2.1,0,2.18,2.18,0,0,0,0-2.49,1.33,1.33,0,0,0-1-.46" transform="translate(-8.3 -12.48)"/><line x1="303.98" y1="464.65" x2="303.98" y2="468.15"/><line class="cls-3" x1="303.98" y1="464.65" x2="303.98" y2="468.15"/><path d="M301.48,490.89h3.44v.83h-4.63v-.83l1.53-1.56c.64-.65,1.05-1.07,1.22-1.26a4,4,0,0,0,.66-.9,1.65,1.65,0,0,0,.19-.73,1.21,1.21,0,0,0-.41-.94,1.54,1.54,0,0,0-1.06-.37,3.52,3.52,0,0,0-1,.16,6,6,0,0,0-1.1.49v-1a7.87,7.87,0,0,1,1.11-.36,4.19,4.19,0,0,1,.95-.12,2.7,2.7,0,0,1,1.8.57,1.88,1.88,0,0,1,.68,1.51,2.19,2.19,0,0,1-.17.85,3.79,3.79,0,0,1-.61.95c-.08.1-.34.37-.78.82l-1.84,1.89" transform="translate(-8.3 -12.48)"/><path d="M309.1,484.3a2.14,2.14,0,0,1,1.87,1,6.4,6.4,0,0,1,0,5.62,2.31,2.31,0,0,1-3.75,0,6.49,6.49,0,0,1,0-5.62,2.14,2.14,0,0,1,1.88-1m0,.78a1.23,1.23,0,0,0-1.15.75,6.85,6.85,0,0,0,0,4.5,1.26,1.26,0,0,0,2.3,0,6.85,6.85,0,0,0,0-4.5,1.23,1.23,0,0,0-1.15-.75" transform="translate(-8.3 -12.48)"/><polyline points="305.22 478.42 306.83 478.42 306.83 472.86 305.08 473.21 305.08 472.31 306.82 471.96 307.81 471.96 307.81 478.42 309.42 478.42 309.42 479.25 305.22 479.25 305.22 478.42"/><polyline points="311.16 471.96 315.85 471.96 315.85 472.38 313.2 479.25 312.17 479.25 314.66 472.79 311.16 472.79 311.16 471.96"/><line x1="24.98" y1="412.76" x2="21.48" y2="412.76"/><line class="cls-3" x1="24.98" y1="412.76" x2="21.48" y2="412.76"/><path d="M17.08,421.74h1.24v4.75h1v.82h-1V429h-1v-1.72H14.05v-.95l3-4.62m.26.86-2.49,3.89h2.49V422.6" transform="translate(-8.3 -12.48)"/><path d="M23.1,421.61a2.14,2.14,0,0,1,1.87,1,6.4,6.4,0,0,1,0,5.62,2.31,2.31,0,0,1-3.75,0,6.49,6.49,0,0,1,0-5.62,2.14,2.14,0,0,1,1.88-1m0,.78a1.23,1.23,0,0,0-1.15.75,6.85,6.85,0,0,0,0,4.5,1.26,1.26,0,0,0,2.3,0,6.85,6.85,0,0,0,0-4.5,1.23,1.23,0,0,0-1.15-.75" transform="translate(-8.3 -12.48)"/><line x1="24.98" y1="355.92" x2="21.48" y2="355.92"/><line class="cls-3" x1="24.98" y1="355.92" x2="21.48" y2="355.92"/><path d="M14.64,364.9h3.87v.83h-3v1.79a2.26,2.26,0,0,1,.43-.11,3.13,3.13,0,0,1,.43,0,2.74,2.74,0,0,1,1.93.67,2.36,2.36,0,0,1,.72,1.81,2.31,2.31,0,0,1-.74,1.83,3,3,0,0,1-2.06.64,7.57,7.57,0,0,1-.94-.07,6.28,6.28,0,0,1-1-.23v-1a3.75,3.75,0,0,0,.91.36,4,4,0,0,0,1,.11,1.92,1.92,0,0,0,1.34-.44,1.73,1.73,0,0,0,0-2.41,1.92,1.92,0,0,0-1.34-.45,3.55,3.55,0,0,0-.79.09,4.44,4.44,0,0,0-.8.27V364.9" transform="translate(-8.3 -12.48)"/><path d="M23.1,364.77a2.14,2.14,0,0,1,1.87,1,6.4,6.4,0,0,1,0,5.62,2.31,2.31,0,0,1-3.75,0,6.49,6.49,0,0,1,0-5.62,2.14,2.14,0,0,1,1.88-1m0,.78a1.23,1.23,0,0,0-1.15.75,6.85,6.85,0,0,0,0,4.5,1.26,1.26,0,0,0,2.3,0,6.85,6.85,0,0,0,0-4.5,1.23,1.23,0,0,0-1.15-.75" transform="translate(-8.3 -12.48)"/><line x1="24.98" y1="299.08" x2="21.48" y2="299.08"/><line class="cls-3" x1="24.98" y1="299.08" x2="21.48" y2="299.08"/><path d="M18.82,308.22v.9a3.76,3.76,0,0,0-.75-.27,3.33,3.33,0,0,0-.75-.09,1.78,1.78,0,0,0-1.5.66,3.51,3.51,0,0,0-.58,2,2,2,0,0,1,.72-.65,2.06,2.06,0,0,1,1-.23,2.29,2.29,0,0,1,1.73.67,2.53,2.53,0,0,1,.64,1.81,2.47,2.47,0,0,1-.67,1.8,2.35,2.35,0,0,1-1.76.67,2.2,2.2,0,0,1-1.93-1,4.88,4.88,0,0,1-.67-2.81,4.25,4.25,0,0,1,.82-2.75,2.68,2.68,0,0,1,2.2-1A5,5,0,0,1,18,308a5.59,5.59,0,0,1,.79.22m-2,3.09a1.33,1.33,0,0,0-1,.46,2.18,2.18,0,0,0,0,2.49,1.45,1.45,0,0,0,2.1,0,2.18,2.18,0,0,0,0-2.49,1.33,1.33,0,0,0-1.05-.46" transform="translate(-8.3 -12.48)"/><path d="M23.1,307.93a2.14,2.14,0,0,1,1.87,1,6.4,6.4,0,0,1,0,5.62,2.31,2.31,0,0,1-3.75,0,6.49,6.49,0,0,1,0-5.62,2.14,2.14,0,0,1,1.88-1m0,.78a1.23,1.23,0,0,0-1.15.75,6.85,6.85,0,0,0,0,4.5,1.26,1.26,0,0,0,2.3,0,6.85,6.85,0,0,0,0-4.5,1.23,1.23,0,0,0-1.15-.75" transform="translate(-8.3 -12.48)"/><line x1="24.98" y1="242.24" x2="21.48" y2="242.24"/><line class="cls-3" x1="24.98" y1="242.24" x2="21.48" y2="242.24"/><polyline points="6.08 238.75 10.77 238.75 10.77 239.17 8.12 246.04 7.09 246.04 9.58 239.58 6.08 239.58 6.08 238.75"/><path d="M23.1,251.09a2.14,2.14,0,0,1,1.87,1,6.4,6.4,0,0,1,0,5.62,2.31,2.31,0,0,1-3.75,0,6.49,6.49,0,0,1,0-5.62,2.14,2.14,0,0,1,1.88-1m0,.78a1.23,1.23,0,0,0-1.15.75,6.85,6.85,0,0,0,0,4.5,1.26,1.26,0,0,0,2.3,0,6.85,6.85,0,0,0,0-4.5,1.23,1.23,0,0,0-1.15-.75" transform="translate(-8.3 -12.48)"/><line x1="24.98" y1="185.4" x2="21.48" y2="185.4"/><line class="cls-3" x1="24.98" y1="185.4" x2="21.48" y2="185.4"/><path d="M15.39,196.24a1.12,1.12,0,0,0,.35.89,1.46,1.46,0,0,0,1,.31,1.45,1.45,0,0,0,1-.31,1.12,1.12,0,0,0,.36-.89,1.1,1.1,0,0,0-.36-.88,1.71,1.71,0,0,0-2,0,1.1,1.1,0,0,0-.35.88m.36,1.56a1.78,1.78,0,0,1-1-.59,1.59,1.59,0,0,1-.35-1.06,1.67,1.67,0,0,1,.62-1.38,2.6,2.6,0,0,1,1.71-.51,2.64,2.64,0,0,1,1.71.51,1.7,1.7,0,0,1,.62,1.38,1.6,1.6,0,0,1-.36,1.06,1.75,1.75,0,0,1-1,.59,2,2,0,0,1,1.11.65,1.83,1.83,0,0,1,.4,1.18,2,2,0,0,1-.65,1.62,2.73,2.73,0,0,1-1.85.56,2.72,2.72,0,0,1-1.86-.56,2,2,0,0,1-.64-1.62,1.78,1.78,0,0,1,.4-1.18,1.94,1.94,0,0,1,1.11-.65m1,.42a1.57,1.57,0,0,0-1.11.38,1.33,1.33,0,0,0-.4,1,1.35,1.35,0,0,0,.4,1,1.57,1.57,0,0,0,1.11.37,1.52,1.52,0,0,0,1.1-.38,1.33,1.33,0,0,0,.41-1,1.36,1.36,0,0,0-.4-1,1.57,1.57,0,0,0-1.11-.38" transform="translate(-8.3 -12.48)"/><path d="M23.1,194.26a2.14,2.14,0,0,1,1.87,1,6.4,6.4,0,0,1,0,5.62,2.31,2.31,0,0,1-3.75,0,6.49,6.49,0,0,1,0-5.62,2.14,2.14,0,0,1,1.88-1m0,.78a1.23,1.23,0,0,0-1.15.75,6.85,6.85,0,0,0,0,4.5,1.26,1.26,0,0,0,2.3,0,6.85,6.85,0,0,0,0-4.5A1.23,1.23,0,0,0,23.1,195" transform="translate(-8.3 -12.48)"/><line x1="24.98" y1="128.56" x2="21.48" y2="128.56"/><line class="cls-3" x1="24.98" y1="128.56" x2="21.48" y2="128.56"/><path d="M16.62,141.6a1.32,1.32,0,0,0,1.05-.45,2.18,2.18,0,0,0,0-2.49,1.43,1.43,0,0,0-2.1,0,2.18,2.18,0,0,0,0,2.49,1.32,1.32,0,0,0,1.05.45m-2,3.09v-.9a3.36,3.36,0,0,0,.75.27,3.2,3.2,0,0,0,.75.09,1.76,1.76,0,0,0,1.48-.65,3.65,3.65,0,0,0,.6-2,2.12,2.12,0,0,1-.72.65,2.05,2.05,0,0,1-1,.22,2.29,2.29,0,0,1-1.74-.66,2.85,2.85,0,0,1,0-3.61,2.37,2.37,0,0,1,1.77-.68,2.21,2.21,0,0,1,1.93,1,5,5,0,0,1,.67,2.81A4.29,4.29,0,0,1,18.4,144a2.68,2.68,0,0,1-2.2,1,4.76,4.76,0,0,1-.75-.07,4,4,0,0,1-.79-.21" transform="translate(-8.3 -12.48)"/><path d="M23.1,137.42a2.14,2.14,0,0,1,1.87,1A6.4,6.4,0,0,1,25,144a2.31,2.31,0,0,1-3.75,0,6.49,6.49,0,0,1,0-5.62,2.14,2.14,0,0,1,1.88-1m0,.78A1.23,1.23,0,0,0,22,139a6.85,6.85,0,0,0,0,4.5,1.26,1.26,0,0,0,2.3,0,6.85,6.85,0,0,0,0-4.5,1.23,1.23,0,0,0-1.15-.75" transform="translate(-8.3 -12.48)"/><line x1="24.98" y1="71.72" x2="21.48" y2="71.72"/><line class="cls-3" x1="24.98" y1="71.72" x2="21.48" y2="71.72"/><polyline points="0.14 74.69 1.75 74.69 1.75 69.13 0 69.48 0 68.58 1.74 68.23 2.73 68.23 2.73 74.69 4.34 74.69 4.34 75.52 0.14 75.52 0.14 74.69"/><path d="M16.74,80.58a2.14,2.14,0,0,1,1.87,1,6.4,6.4,0,0,1,0,5.62,2.13,2.13,0,0,1-1.87,1,2.13,2.13,0,0,1-1.88-1,6.49,6.49,0,0,1,0-5.62,2.14,2.14,0,0,1,1.88-1m0,.78a1.23,1.23,0,0,0-1.15.75,6.85,6.85,0,0,0,0,4.5,1.26,1.26,0,0,0,2.3,0,6.85,6.85,0,0,0,0-4.5,1.23,1.23,0,0,0-1.15-.75" transform="translate(-8.3 -12.48)"/><path d="M23.1,80.58a2.14,2.14,0,0,1,1.87,1,6.4,6.4,0,0,1,0,5.62,2.31,2.31,0,0,1-3.75,0,6.49,6.49,0,0,1,0-5.62,2.14,2.14,0,0,1,1.88-1m0,.78a1.23,1.23,0,0,0-1.15.75,6.85,6.85,0,0,0,0,4.5,1.26,1.26,0,0,0,2.3,0,6.85,6.85,0,0,0,0-4.5,1.23,1.23,0,0,0-1.15-.75" transform="translate(-8.3 -12.48)"/><g class="cls-4"><line class="cls-5" x1="24.98" y1="132.09" x2="303.98" y2="49.54"/></g><g class="cls-4"><line class="cls-6" x1="24.98" y1="335.55" x2="303.98" y2="95.67"/></g><g class="cls-4"><line class="cls-7" x1="24.98" y1="444.88" x2="303.98" y2="138.55"/></g><g class="cls-4"><line class="cls-8" x1="24.98" y1="260.3" x2="303.98" y2="154.66"/></g><g class="cls-4"><line class="cls-9" x1="24.98" y1="288.3" x2="303.98" y2="159.5"/></g><g class="cls-4"><line class="cls-10" x1="24.98" y1="207.13" x2="303.98" y2="186.38"/></g><g class="cls-4"><line class="cls-11" x1="24.98" y1="253.22" x2="303.98" y2="196.69"/></g><g class="cls-4"><line class="cls-12" x1="24.98" y1="372.73" x2="303.98" y2="227.1"/></g><g class="cls-4"><line class="cls-13" x1="24.98" y1="299.52" x2="303.98" y2="245.25"/></g><g class="cls-4"><line class="cls-14" x1="24.98" y1="368.45" x2="303.98" y2="250.68"/></g><line class="cls-15" x1="24.98" y1="464.65" x2="24.98" y2="29.77"/><line class="cls-15" x1="303.98" y1="464.65" x2="303.98" y2="29.77"/><line class="cls-15" x1="24.98" y1="464.65" x2="303.98" y2="464.65"/><rect class="cls-16" x="336.88" y="172.35" width="58.7" height="149.72" rx="2"/><rect class="cls-17" x="336.88" y="172.35" width="58.7" height="149.72" rx="2"/><line class="cls-5" x1="340.88" y1="180.45" x2="360.88" y2="180.45"/><path d="M380,189.13h1.12l2.78,7.29h-1l-.66-1.87H379l-.66,1.87h-1l2.78-7.29m.56,1-1.34,3.63h2.68l-1.34-3.63" transform="translate(-8.3 -12.48)"/><polyline points="375.7 176.66 381.86 176.66 381.86 177.49 379.27 177.49 379.27 183.95 378.28 183.95 378.28 177.49 375.7 177.49 375.7 176.66"/><polyline points="382.81 176.66 383.8 176.66 383.8 183.12 387.35 183.12 387.35 183.95 382.81 183.95 382.81 176.66"/><line class="cls-6" x1="340.88" y1="195.12" x2="360.88" y2="195.12"/><path d="M378.16,203.8h2.23a2.73,2.73,0,0,1,1.85.56,2.41,2.41,0,0,1,0,3.25,2.73,2.73,0,0,1-1.85.55h-1.24v2.93h-1V203.8m1,.81v2.74h1.24a1.46,1.46,0,0,0,1.06-.35,1.35,1.35,0,0,0,.38-1,1.33,1.33,0,0,0-.38-1,1.46,1.46,0,0,0-1.06-.36h-1.24" transform="translate(-8.3 -12.48)"/><polyline points="375.89 191.33 380.5 191.33 380.5 192.16 376.88 192.16 376.88 194.32 380.35 194.32 380.35 195.15 376.88 195.15 376.88 197.79 380.59 197.79 380.59 198.62 375.89 198.62 375.89 191.33"/><polyline points="382.21 191.33 383.2 191.33 383.2 194.41 386.47 191.33 387.74 191.33 384.12 194.73 388 198.62 386.7 198.62 383.2 195.11 383.2 198.62 382.21 198.62 382.21 191.33"/><line class="cls-7" x1="340.88" y1="209.79" x2="360.88" y2="209.79"/><path d="M378.16,218.48h2a4.64,4.64,0,0,1,3.11.88,4.34,4.34,0,0,1,0,5.53,4.57,4.57,0,0,1-3.1.88h-2v-7.29m1,.81V225h1.19a3.06,3.06,0,0,0,2.21-.68,3.67,3.67,0,0,0,0-4.31,3.11,3.11,0,0,0-2.21-.68h-1.19" transform="translate(-8.3 -12.48)"/><polyline points="377.21 206 378.27 206 380.08 208.71 381.9 206 382.96 206 380.62 209.5 383.12 213.29 382.06 213.29 380.01 210.19 377.94 213.29 376.88 213.29 379.48 209.4 377.21 206"/><path d="M392.71,218.48h2.52A2.84,2.84,0,0,1,397,219a1.61,1.61,0,0,1,.61,1.33,1.66,1.66,0,0,1-.32,1.07,1.38,1.38,0,0,1-.91.49,2,2,0,0,1,1.13.66,1.93,1.93,0,0,1,.4,1.23,1.82,1.82,0,0,1-.67,1.51,2.9,2.9,0,0,1-1.88.53h-2.62v-7.29m1,.81v2.2h1.46a1.76,1.76,0,0,0,1.07-.27,1.13,1.13,0,0,0,0-1.65,1.75,1.75,0,0,0-1.07-.28H393.7m0,3V225h1.58a1.79,1.79,0,0,0,1.18-.33,1.52,1.52,0,0,0,0-2,1.79,1.79,0,0,0-1.18-.33H393.7" transform="translate(-8.3 -12.48)"/><line class="cls-8" x1="340.88" y1="224.46" x2="360.88" y2="224.46"/><polyline points="369.86 220.67 370.85 220.67 370.85 223.66 374.43 223.66 374.43 220.67 375.42 220.67 375.42 227.96 374.43 227.96 374.43 224.49 370.85 224.49 370.85 227.96 369.86 227.96 369.86 220.67"/><polyline points="377.38 220.67 378.71 220.67 381.94 226.77 381.94 220.67 382.9 220.67 382.9 227.96 381.57 227.96 378.34 221.86 378.34 227.96 377.38 227.96 377.38 220.67"/><path d="M393.16,233.15h2a4.64,4.64,0,0,1,3.11.88,4.34,4.34,0,0,1,0,5.53,4.57,4.57,0,0,1-3.1.88h-2v-7.29m1,.81v5.67h1.19a3.06,3.06,0,0,0,2.21-.68,3.67,3.67,0,0,0,0-4.31,3.11,3.11,0,0,0-2.21-.68h-1.19" transform="translate(-8.3 -12.48)"/><line class="cls-9" x1="340.88" y1="239.13" x2="360.88" y2="239.13"/><polyline points="369.86 235.34 370.85 235.34 370.85 241.8 374.4 241.8 374.4 242.63 369.86 242.63 369.86 235.34"/><path d="M385.61,247.82h1.12l2.78,7.29h-1l-.66-1.87h-3.29l-.66,1.87h-1l2.78-7.29m.56,1-1.34,3.63h2.68l-1.34-3.63" transform="translate(-8.3 -12.48)"/><polyline points="381.92 235.34 382.98 235.34 384.79 238.05 386.61 235.34 387.67 235.34 385.33 238.84 387.83 242.63 386.77 242.63 384.72 239.53 382.65 242.63 381.59 242.63 384.19 238.74 381.92 235.34"/><line class="cls-10" x1="340.88" y1="253.81" x2="360.88" y2="253.81"/><path d="M381.12,262.36a3.16,3.16,0,0,1,2.45,1,4.57,4.57,0,0,1,0,5.5,3.46,3.46,0,0,1-4.91,0,4.57,4.57,0,0,1,0-5.5,3.15,3.15,0,0,1,2.46-1m0,.8a2.07,2.07,0,0,0-1.71.8,4.09,4.09,0,0,0,0,4.36,2.22,2.22,0,0,0,3.41,0,4.09,4.09,0,0,0,0-4.36,2.06,2.06,0,0,0-1.7-.8" transform="translate(-8.3 -12.48)"/><path d="M387,263.3v2.59h1.24a1.54,1.54,0,0,0,1.07-.33,1.44,1.44,0,0,0,0-1.93,1.54,1.54,0,0,0-1.07-.33H387m2.47,3.06a1.59,1.59,0,0,1,.62.46,4.82,4.82,0,0,1,.6,1l1,2h-1.06l-.93-1.87a2.74,2.74,0,0,0-.7-1,1.6,1.6,0,0,0-.93-.24H387v3.08h-1v-7.29h2.23a2.87,2.87,0,0,1,1.86.52,2.28,2.28,0,0,1,.3,2.73,1.66,1.66,0,0,1-.93.62" transform="translate(-8.3 -12.48)"/><path d="M393,262.49h2a4.64,4.64,0,0,1,3.11.88,4.34,4.34,0,0,1,0,5.53,4.57,4.57,0,0,1-3.1.88h-2v-7.29m1,.81V269h1.19a3.06,3.06,0,0,0,2.21-.68,3.67,3.67,0,0,0,0-4.31,3.11,3.11,0,0,0-2.21-.68H394" transform="translate(-8.3 -12.48)"/><line class="cls-11" x1="340.88" y1="268.48" x2="360.88" y2="268.48"/><polyline points="369.86 264.69 370.85 264.69 370.85 271.15 374.4 271.15 374.4 271.98 369.86 271.98 369.86 264.69"/><polyline points="375.43 264.69 376.42 264.69 376.42 267.68 380 267.68 380 264.69 380.99 264.69 380.99 271.98 380 271.98 380 268.51 376.42 268.51 376.42 271.98 375.43 271.98 375.43 264.69"/><path d="M392.24,278v2.59h1.24a1.54,1.54,0,0,0,1.07-.33,1.44,1.44,0,0,0,0-1.93,1.54,1.54,0,0,0-1.07-.33h-1.24m2.47,3.06a1.59,1.59,0,0,1,.62.46,4.82,4.82,0,0,1,.6,1l1,2h-1.06l-.93-1.87a2.74,2.74,0,0,0-.7-1,1.6,1.6,0,0,0-.93-.24h-1.07v3.08h-1v-7.29h2.23a2.87,2.87,0,0,1,1.86.52,2.28,2.28,0,0,1,.3,2.73,1.66,1.66,0,0,1-.93.62" transform="translate(-8.3 -12.48)"/><line class="cls-12" x1="340.88" y1="283.15" x2="360.88" y2="283.15"/><polyline points="369.86 279.36 370.85 279.36 370.85 282.35 374.43 282.35 374.43 279.36 375.42 279.36 375.42 286.65 374.43 286.65 374.43 283.18 370.85 283.18 370.85 286.65 369.86 286.65 369.86 279.36"/><polyline points="377.38 279.36 378.37 279.36 378.37 282.44 381.64 279.36 382.91 279.36 379.29 282.76 383.17 286.65 381.87 286.65 378.37 283.14 378.37 286.65 377.38 286.65 377.38 279.36"/><path d="M397.21,298.09v-2H395.6v-.81h2.59v3.13a3.88,3.88,0,0,1-1.26.61,5.38,5.38,0,0,1-1.47.2,3.57,3.57,0,0,1-2.68-1,4.51,4.51,0,0,1,0-5.56,3.58,3.58,0,0,1,2.68-1,5,5,0,0,1,1.35.18,4.7,4.7,0,0,1,1.19.51v1.05a4.39,4.39,0,0,0-1.17-.69,3.52,3.52,0,0,0-1.29-.24,2.54,2.54,0,0,0-2,.75,4,4,0,0,0,0,4.45,2.53,2.53,0,0,0,2,.74,4.45,4.45,0,0,0,.93-.09,2.42,2.42,0,0,0,.74-.28" transform="translate(-8.3 -12.48)"/><line class="cls-13" x1="340.88" y1="297.82" x2="360.88" y2="297.82"/><path d="M383.62,307.07v1a3.9,3.9,0,0,0-1.07-.69,3.19,3.19,0,0,0-1.19-.23,2.4,2.4,0,0,0-1.92.77,4,4,0,0,0,0,4.41,2.39,2.39,0,0,0,1.92.76,3,3,0,0,0,1.19-.23,3.49,3.49,0,0,0,1.07-.69v1a3.81,3.81,0,0,1-1.1.52,4.39,4.39,0,0,1-1.22.17,3.44,3.44,0,0,1-2.61-1,4.51,4.51,0,0,1,0-5.54,3.44,3.44,0,0,1,2.61-1,4.4,4.4,0,0,1,1.23.17,4.19,4.19,0,0,1,1.09.52" transform="translate(-8.3 -12.48)"/><path d="M385.14,306.51h2a4.64,4.64,0,0,1,3.11.88,4.34,4.34,0,0,1,0,5.53,4.57,4.57,0,0,1-3.1.88h-2v-7.29m1,.81V313h1.19a3.06,3.06,0,0,0,2.21-.68,3.67,3.67,0,0,0,0-4.31,3.11,3.11,0,0,0-2.21-.68h-1.19" transform="translate(-8.3 -12.48)"/><path d="M397.81,312.76v-2H396.2V310h2.59v3.13a3.88,3.88,0,0,1-1.26.61,5.38,5.38,0,0,1-1.47.2,3.57,3.57,0,0,1-2.68-1,4.51,4.51,0,0,1,0-5.56,3.58,3.58,0,0,1,2.68-1,5,5,0,0,1,1.35.18,4.7,4.7,0,0,1,1.19.51v1.05a4.39,4.39,0,0,0-1.17-.69,3.52,3.52,0,0,0-1.29-.24,2.54,2.54,0,0,0-2,.75,4,4,0,0,0,0,4.45,2.53,2.53,0,0,0,2,.74,4.45,4.45,0,0,0,.93-.09,2.42,2.42,0,0,0,.74-.28" transform="translate(-8.3 -12.48)"/><line class="cls-14" x1="340.88" y1="312.49" x2="360.88" y2="312.49"/><path d="M380,321.18h1.12l2.78,7.29h-1l-.66-1.87H379l-.66,1.87h-1l2.78-7.29m.56,1-1.34,3.63h2.68l-1.34-3.63" transform="translate(-8.3 -12.48)"/><polyline points="376.7 308.7 378.17 308.7 380.03 313.66 381.9 308.7 383.37 308.7 383.37 315.99 382.41 315.99 382.41 309.59 380.53 314.59 379.54 314.59 377.66 309.59 377.66 315.99 376.7 315.99 376.7 308.7"/><path d="M398,321.42v1a6.42,6.42,0,0,0-1.06-.4,4.24,4.24,0,0,0-1-.13,2.2,2.2,0,0,0-1.25.31,1,1,0,0,0-.43.89.88.88,0,0,0,.29.73,2.41,2.41,0,0,0,1.1.4l.6.12a3.06,3.06,0,0,1,1.62.74,2,2,0,0,1,.53,1.42,1.89,1.89,0,0,1-.71,1.6,3.42,3.42,0,0,1-2.08.54,6.32,6.32,0,0,1-1.11-.11,6.4,6.4,0,0,1-1.2-.34v-1a5.33,5.33,0,0,0,1.17.51,3.75,3.75,0,0,0,1.14.17,2.21,2.21,0,0,0,1.3-.33,1.11,1.11,0,0,0,.46-1,1.08,1.08,0,0,0-.33-.84,2.28,2.28,0,0,0-1.08-.45l-.6-.12a3.1,3.1,0,0,1-1.6-.69,1.69,1.69,0,0,1-.49-1.3,1.84,1.84,0,0,1,.68-1.52,2.89,2.89,0,0,1,1.88-.56,6.27,6.27,0,0,1,1,.09,8.34,8.34,0,0,1,1.09.28" transform="translate(-8.3 -12.48)"/></g><text class="cls-18" transform="translate(2.7 10.04)"><tspan class="cls-19">P</tspan><tspan x="6.07" y="0">assenger</tspan><tspan class="cls-20" x="50.68" y="0"> </tspan><tspan class="cls-21" x="52.73" y="0">T</tspan><tspan class="cls-22" x="58.15" y="0">r</tspan><tspan x="62.02" y="0">affic</tspan><tspan x="0" y="14.4">(</tspan><tspan class="cls-23" x="3.41" y="14.4">M</tspan><tspan x="13.2" y="14.4">illion)</tspan></text></svg>