<svg id="Layer_1" data-name="Layer 1" xmlns="http://www.w3.org/2000/svg" xmlns:xlink="http://www.w3.org/1999/xlink" viewBox="0 0 397.38 483.38"><defs><style>.cls-1,.cls-10,.cls-11,.cls-12,.cls-13,.cls-14,.cls-15,.cls-17,.cls-3,.cls-5,.cls-6,.cls-7,.cls-8,.cls-9{fill:none;}.cls-2{clip-path:url(#clip-path);}.cls-15,.cls-3{stroke:#000;stroke-width:0.8px;}.cls-10,.cls-11,.cls-12,.cls-13,.cls-14,.cls-3,.cls-5,.cls-6,.cls-7,.cls-8,.cls-9{stroke-linejoin:round;}.cls-4{clip-path:url(#clip-path-2);}.cls-5{stroke:#1f77b4;}.cls-10,.cls-11,.cls-12,.cls-13,.cls-14,.cls-15,.cls-5,.cls-6,.cls-7,.cls-8,.cls-9{stroke-linecap:square;}.cls-10,.cls-11,.cls-12,.cls-13,.cls-14,.cls-5,.cls-6,.cls-7,.cls-8,.cls-9{stroke-width:5px;}.cls-6{stroke:#ff7f0e;}.cls-7{stroke:#2ca02c;}.cls-8{stroke:#d62728;}.cls-9{stroke:#9467bd;}.cls-10{stroke:#8c564b;}.cls-11{stroke:#e377c2;}.cls-12{stroke:#7f7f7f;}.cls-13{stroke:#bcbd22;}.cls-14{stroke:#17becf;}.cls-15,.cls-17{stroke-miterlimit:10;}.cls-16{fill:#fff;}.cls-16,.cls-17{opacity:0.8;}.cls-17{stroke:#ccc;}.cls-18{font-size:12px;font-family:MyriadPro-Regular, Myriad Pro;}.cls-19{letter-spacing:-0.03em;}.cls-20{letter-spacing:-0.04em;}.cls-21{letter-spacing:-0.05em;}.cls-22{letter-spacing:0em;}.cls-23{letter-spacing:0.01em;}</style><clipPath id="clip-path" transform="translate(-7 -10.48)"><rect class="cls-1" y="33.55" width="411.08" height="469.45"/></clipPath><clipPath id="clip-path-2" transform="translate(-7 -10.48)"><rect class="cls-1" x="33.28" y="44.25" width="279" height="434.88"/></clipPath></defs><title>PassengerTraffic</title><g class="cls-2"><line x1="26.28" y1="468.65" x2="26.28" y2="472.15"/><line class="cls-3" x1="26.28" y1="468.65" x2="26.28" y2="472.15"/><path d="M22.48,492.89h3.44v.83H21.29v-.83l1.53-1.56c.64-.65,1.05-1.07,1.22-1.26a4,4,0,0,0,.66-.9,1.65,1.65,0,0,0,.19-.73,1.21,1.21,0,0,0-.41-.94,1.54,1.54,0,0,0-1.06-.37,3.52,3.52,0,0,0-1,.16,6,6,0,0,0-1.1.49v-1a7.87,7.87,0,0,1,1.11-.36,4.19,4.19,0,0,1,.95-.12,2.7,2.7,0,0,1,1.8.57,1.88,1.88,0,0,1,.68,1.51,2.19,2.19,0,0,1-.17.85,3.79,3.79,0,0,1-.61.95c-.08.1-.34.37-.78.82l-1.84,1.89" transform="translate(-7 -10.48)"/><path d="M30.1,486.3a2.14,2.14,0,0,1,1.87,1,6.4,6.4,0,0,1,0,5.62,2.31,2.31,0,0,1-3.75,0,6.49,6.49,0,0,1,0-5.62,2.14,2.14,0,0,1,1.88-1m0,.78a1.23,1.23,0,0,0-1.15.75,6.85,6.85,0,0,0,0,4.5,1.26,1.26,0,0,0,2.3,0,6.85,6.85,0,0,0,0-4.5,1.23,1.23,0,0,0-1.15-.75" transform="translate(-7 -10.48)"/><path d="M36.46,486.3a2.14,2.14,0,0,1,1.87,1,6.4,6.4,0,0,1,0,5.62,2.31,2.31,0,0,1-3.75,0,6.49,6.49,0,0,1,0-5.62,2.14,2.14,0,0,1,1.88-1m0,.78a1.23,1.23,0,0,0-1.15.75,6.85,6.85,0,0,0,0,4.5,1.26,1.26,0,0,0,2.3,0,6.85,6.85,0,0,0,0-4.5,1.23,1.23,0,0,0-1.15-.75" transform="translate(-7 -10.48)"/><polyline points="33.46 475.96 38.15 475.96 38.15 476.38 35.5 483.25 34.47 483.25 36.96 476.79 33.46 476.79 33.46 475.96"/><line x1="54.18" y1="468.65" x2="54.18" y2="472.15"/><line class="cls-3" x1="54.18" y1="468.65" x2="54.18" y2="472.15"/><path d="M50.38,492.89h3.44v.83H49.19v-.83l1.53-1.56c.64-.65,1.05-1.07,1.22-1.26a4,4,0,0,0,.66-.9,1.65,1.65,0,0,0,.19-.73,1.21,1.21,0,0,0-.41-.94,1.54,1.54,0,0,0-1.06-.37,3.52,3.52,0,0,0-1,.16,6,6,0,0,0-1.1.49v-1a7.87,7.87,0,0,1,1.11-.36,4.19,4.19,0,0,1,.95-.12,2.7,2.7,0,0,1,1.8.57,1.88,1.88,0,0,1,.68,1.51,2.19,2.19,0,0,1-.17.85,3.79,3.79,0,0,1-.61.95c-.08.1-.34.37-.78.82l-1.84,1.89" transform="translate(-7 -10.48)"/><path d="M58,486.3a2.14,2.14,0,0,1,1.87,1,6.4,6.4,0,0,1,0,5.62,2.31,2.31,0,0,1-3.75,0,6.49,6.49,0,0,1,0-5.62,2.14,2.14,0,0,1,1.88-1m0,.78a1.23,1.23,0,0,0-1.15.75,6.85,6.85,0,0,0,0,4.5,1.26,1.26,0,0,0,2.3,0,6.85,6.85,0,0,0,0-4.5,1.23,1.23,0,0,0-1.15-.75" transform="translate(-7 -10.48)"/><path d="M64.36,486.3a2.14,2.14,0,0,1,1.87,1,6.4,6.4,0,0,1,0,5.62,2.31,2.31,0,0,1-3.75,0,6.49,6.49,0,0,1,0-5.62,2.14,2.14,0,0,1,1.88-1m0,.78a1.23,1.23,0,0,0-1.15.75,6.85,6.85,0,0,0,0,4.5,1.26,1.26,0,0,0,2.3,0,6.85,6.85,0,0,0,0-4.5,1.23,1.23,0,0,0-1.15-.75" transform="translate(-7 -10.48)"/><path d="M69.37,488.28a1.12,1.12,0,0,0,.35.89,1.75,1.75,0,0,0,2,0,1.12,1.12,0,0,0,.36-.89,1.1,1.1,0,0,0-.36-.88,1.71,1.71,0,0,0-2,0,1.1,1.1,0,0,0-.35.88m.36,1.56a1.78,1.78,0,0,1-1-.59,1.59,1.59,0,0,1-.35-1.06,1.67,1.67,0,0,1,.62-1.38,2.6,2.6,0,0,1,1.71-.51,2.64,2.64,0,0,1,1.71.51,1.7,1.7,0,0,1,.62,1.38,1.6,1.6,0,0,1-.36,1.06,1.75,1.75,0,0,1-1,.59,2,2,0,0,1,1.11.65,1.83,1.83,0,0,1,.4,1.18,2,2,0,0,1-.65,1.62,3.35,3.35,0,0,1-3.71,0,2,2,0,0,1-.64-1.62,1.78,1.78,0,0,1,.4-1.18,1.94,1.94,0,0,1,1.11-.65m1,.42a1.57,1.57,0,0,0-1.11.38,1.33,1.33,0,0,0-.4,1,1.35,1.35,0,0,0,.4,1,1.57,1.57,0,0,0,1.11.37,1.52,1.52,0,0,0,1.1-.38,1.33,1.33,0,0,0,.41-1,1.36,1.36,0,0,0-.4-1,1.57,1.57,0,0,0-1.11-.38" transform="translate(-7 -10.48)"/><line x1="82.08" y1="468.65" x2="82.08" y2="472.15"/><line class="cls-3" x1="82.08" y1="468.65" x2="82.08" y2="472.15"/><path d="M78.28,492.89h3.44v.83H77.09v-.83l1.53-1.56c.64-.65,1-1.07,1.22-1.26a4,4,0,0,0,.66-.9,1.65,1.65,0,0,0,.19-.73,1.21,1.21,0,0,0-.41-.94,1.54,1.54,0,0,0-1.06-.37,3.52,3.52,0,0,0-1,.16,6,6,0,0,0-1.1.49v-1a7.87,7.87,0,0,1,1.11-.36,4.19,4.19,0,0,1,1-.12,2.7,2.7,0,0,1,1.8.57,1.88,1.88,0,0,1,.68,1.51,2.19,2.19,0,0,1-.17.85,3.79,3.79,0,0,1-.61.95c-.08.1-.34.37-.78.82l-1.84,1.89" transform="translate(-7 -10.48)"/><path d="M85.9,486.3a2.14,2.14,0,0,1,1.87,1,6.4,6.4,0,0,1,0,5.62,2.31,2.31,0,0,1-3.75,0,6.49,6.49,0,0,1,0-5.62,2.14,2.14,0,0,1,1.88-1m0,.78a1.23,1.23,0,0,0-1.15.75,6.85,6.85,0,0,0,0,4.5,1.26,1.26,0,0,0,2.3,0,6.85,6.85,0,0,0,0-4.5,1.23,1.23,0,0,0-1.15-.75" transform="translate(-7 -10.48)"/><path d="M92.26,486.3a2.14,2.14,0,0,1,1.87,1,6.4,6.4,0,0,1,0,5.62,2.31,2.31,0,0,1-3.75,0,6.49,6.49,0,0,1,0-5.62,2.14,2.14,0,0,1,1.88-1m0,.78a1.23,1.23,0,0,0-1.15.75,6.85,6.85,0,0,0,0,4.5,1.26,1.26,0,0,0,2.3,0,6.85,6.85,0,0,0,0-4.5,1.23,1.23,0,0,0-1.15-.75" transform="translate(-7 -10.48)"/><path d="M98.5,490.48a1.32,1.32,0,0,0,1-.45,2.18,2.18,0,0,0,0-2.49,1.43,1.43,0,0,0-2.1,0,2.18,2.18,0,0,0,0,2.49,1.32,1.32,0,0,0,1,.45m-2,3.09v-.9a3.36,3.36,0,0,0,.75.27A3.2,3.2,0,0,0,98,493a1.76,1.76,0,0,0,1.48-.65,3.65,3.65,0,0,0,.6-2,2.12,2.12,0,0,1-.72.65,2.05,2.05,0,0,1-1,.22,2.29,2.29,0,0,1-1.74-.66,2.85,2.85,0,0,1,0-3.61,2.37,2.37,0,0,1,1.77-.68,2.21,2.21,0,0,1,1.93,1,5,5,0,0,1,.67,2.81,4.29,4.29,0,0,1-.82,2.75,2.68,2.68,0,0,1-2.2,1,4.76,4.76,0,0,1-.75-.07,4,4,0,0,1-.79-.21" transform="translate(-7 -10.48)"/><line x1="109.98" y1="468.65" x2="109.98" y2="472.15"/><line class="cls-3" x1="109.98" y1="468.65" x2="109.98" y2="472.15"/><path d="M106.18,492.89h3.44v.83H105v-.83l1.53-1.56c.64-.65,1-1.07,1.22-1.26a4,4,0,0,0,.66-.9,1.65,1.65,0,0,0,.19-.73,1.21,1.21,0,0,0-.41-.94,1.54,1.54,0,0,0-1.06-.37,3.52,3.52,0,0,0-1,.16,6,6,0,0,0-1.1.49v-1a7.87,7.87,0,0,1,1.11-.36,4.19,4.19,0,0,1,.95-.12,2.7,2.7,0,0,1,1.8.57,1.88,1.88,0,0,1,.68,1.51,2.19,2.19,0,0,1-.17.85,3.79,3.79,0,0,1-.61.95c-.08.1-.34.37-.78.82l-1.84,1.89" transform="translate(-7 -10.48)"/><path d="M113.8,486.3a2.14,2.14,0,0,1,1.87,1,6.4,6.4,0,0,1,0,5.62,2.31,2.31,0,0,1-3.75,0,6.49,6.49,0,0,1,0-5.62,2.14,2.14,0,0,1,1.88-1m0,.78a1.23,1.23,0,0,0-1.15.75,6.85,6.85,0,0,0,0,4.5,1.26,1.26,0,0,0,2.3,0,6.85,6.85,0,0,0,0-4.5,1.23,1.23,0,0,0-1.15-.75" transform="translate(-7 -10.48)"/><polyline points="111.22 482.42 112.83 482.42 112.83 476.86 111.08 477.21 111.08 476.31 112.82 475.96 113.81 475.96 113.81 482.42 115.42 482.42 115.42 483.25 111.22 483.25 111.22 482.42"/><path d="M126.52,486.3a2.14,2.14,0,0,1,1.87,1,6.4,6.4,0,0,1,0,5.62,2.31,2.31,0,0,1-3.75,0,6.49,6.49,0,0,1,0-5.62,2.14,2.14,0,0,1,1.88-1m0,.78a1.23,1.23,0,0,0-1.15.75,6.85,6.85,0,0,0,0,4.5,1.26,1.26,0,0,0,2.3,0,6.85,6.85,0,0,0,0-4.5,1.23,1.23,0,0,0-1.15-.75" transform="translate(-7 -10.48)"/><line x1="137.88" y1="468.65" x2="137.88" y2="472.15"/><line class="cls-3" x1="137.88" y1="468.65" x2="137.88" y2="472.15"/><path d="M134.08,492.89h3.44v.83h-4.63v-.83l1.53-1.56c.64-.65,1.05-1.07,1.22-1.26a4,4,0,0,0,.66-.9,1.65,1.65,0,0,0,.19-.73,1.21,1.21,0,0,0-.41-.94,1.54,1.54,0,0,0-1.06-.37,3.52,3.52,0,0,0-1,.16,6,6,0,0,0-1.1.49v-1a7.87,7.87,0,0,1,1.11-.36,4.19,4.19,0,0,1,.95-.12,2.7,2.7,0,0,1,1.8.57,1.88,1.88,0,0,1,.68,1.51,2.19,2.19,0,0,1-.17.85,3.79,3.79,0,0,1-.61.95c-.08.1-.34.37-.78.82l-1.84,1.89" transform="translate(-7 -10.48)"/><path d="M141.7,486.3a2.14,2.14,0,0,1,1.87,1,6.4,6.4,0,0,1,0,5.62,2.31,2.31,0,0,1-3.75,0,6.49,6.49,0,0,1,0-5.62,2.14,2.14,0,0,1,1.88-1m0,.78a1.23,1.23,0,0,0-1.15.75,6.85,6.85,0,0,0,0,4.5,1.26,1.26,0,0,0,2.3,0,6.85,6.85,0,0,0,0-4.5,1.23,1.23,0,0,0-1.15-.75" transform="translate(-7 -10.48)"/><polyline points="139.12 482.42 140.73 482.42 140.73 476.86 138.98 477.21 138.98 476.31 140.72 475.96 141.71 475.96 141.71 482.42 143.32 482.42 143.32 483.25 139.12 483.25 139.12 482.42"/><polyline points="145.48 482.42 147.09 482.42 147.09 476.86 145.34 477.21 145.34 476.31 147.08 475.96 148.07 475.96 148.07 482.42 149.68 482.42 149.68 483.25 145.48 483.25 145.48 482.42"/><line x1="165.78" y1="468.65" x2="165.78" y2="472.15"/><line class="cls-3" x1="165.78" y1="468.65" x2="165.78" y2="472.15"/><path d="M162,492.89h3.44v.83h-4.63v-.83l1.53-1.56c.64-.65,1.05-1.07,1.22-1.26a4,4,0,0,0,.66-.9,1.65,1.65,0,0,0,.19-.73,1.21,1.21,0,0,0-.41-.94,1.54,1.54,0,0,0-1.06-.37,3.52,3.52,0,0,0-1,.16,6,6,0,0,0-1.1.49v-1a7.87,7.87,0,0,1,1.11-.36,4.19,4.19,0,0,1,1-.12,2.7,2.7,0,0,1,1.8.57,1.88,1.88,0,0,1,.68,1.51,2.19,2.19,0,0,1-.17.85,3.79,3.79,0,0,1-.61.95c-.08.1-.34.37-.78.82L162,492.89" transform="translate(-7 -10.48)"/><path d="M169.6,486.3a2.14,2.14,0,0,1,1.87,1,6.4,6.4,0,0,1,0,5.62,2.31,2.31,0,0,1-3.75,0,6.49,6.49,0,0,1,0-5.62,2.14,2.14,0,0,1,1.88-1m0,.78a1.23,1.23,0,0,0-1.15.75,6.85,6.85,0,0,0,0,4.5,1.26,1.26,0,0,0,2.3,0,6.85,6.85,0,0,0,0-4.5,1.23,1.23,0,0,0-1.15-.75" transform="translate(-7 -10.48)"/><polyline points="167.02 482.42 168.63 482.42 168.63 476.86 166.88 477.21 166.88 476.31 168.62 475.96 169.61 475.96 169.61 482.42 171.22 482.42 171.22 483.25 167.02 483.25 167.02 482.42"/><path d="M181.06,492.89h3.44v.83h-4.63v-.83l1.53-1.56c.64-.65,1-1.07,1.22-1.26a4,4,0,0,0,.66-.9,1.65,1.65,0,0,0,.19-.73,1.21,1.21,0,0,0-.41-.94,1.54,1.54,0,0,0-1.06-.37,3.52,3.52,0,0,0-1,.16,6,6,0,0,0-1.1.49v-1a7.87,7.87,0,0,1,1.11-.36,4.19,4.19,0,0,1,.95-.12,2.7,2.7,0,0,1,1.8.57,1.88,1.88,0,0,1,.68,1.51,2.19,2.19,0,0,1-.17.85,3.79,3.79,0,0,1-.61.95c-.08.1-.34.37-.78.82l-1.84,1.89" transform="translate(-7 -10.48)"/><line x1="193.68" y1="468.65" x2="193.68" y2="472.15"/><line class="cls-3" x1="193.68" y1="468.65" x2="193.68" y2="472.15"/><path d="M189.88,492.89h3.44v.83h-4.63v-.83l1.53-1.56c.64-.65,1.05-1.07,1.22-1.26a4,4,0,0,0,.66-.9,1.65,1.65,0,0,0,.19-.73,1.21,1.21,0,0,0-.41-.94,1.54,1.54,0,0,0-1.06-.37,3.52,3.52,0,0,0-1,.16,6,6,0,0,0-1.1.49v-1a7.87,7.87,0,0,1,1.11-.36,4.19,4.19,0,0,1,1-.12,2.7,2.7,0,0,1,1.8.57,1.88,1.88,0,0,1,.68,1.51,2.19,2.19,0,0,1-.17.85,3.79,3.79,0,0,1-.61.95c-.08.1-.34.37-.78.82l-1.84,1.89" transform="translate(-7 -10.48)"/><path d="M197.5,486.3a2.14,2.14,0,0,1,1.87,1,6.4,6.4,0,0,1,0,5.62,2.31,2.31,0,0,1-3.75,0,6.49,6.49,0,0,1,0-5.62,2.14,2.14,0,0,1,1.88-1m0,.78a1.23,1.23,0,0,0-1.15.75,6.85,6.85,0,0,0,0,4.5,1.26,1.26,0,0,0,2.3,0,6.85,6.85,0,0,0,0-4.5,1.23,1.23,0,0,0-1.15-.75" transform="translate(-7 -10.48)"/><polyline points="194.92 482.42 196.53 482.42 196.53 476.86 194.78 477.21 194.78 476.31 196.52 475.96 197.51 475.96 197.51 482.42 199.12 482.42 199.12 483.25 194.92 483.25 194.92 482.42"/><path d="M211.1,489.79a1.87,1.87,0,0,1,1.1.63,1.83,1.83,0,0,1,.4,1.18,2,2,0,0,1-.74,1.67,3.35,3.35,0,0,1-2.11.58,5.17,5.17,0,0,1-.95-.09,5.68,5.68,0,0,1-1-.26v-.95a3.26,3.26,0,0,0,.9.36,4.19,4.19,0,0,0,1,.12,2.33,2.33,0,0,0,1.41-.36,1.26,1.26,0,0,0,.49-1.07,1.22,1.22,0,0,0-.45-1,2,2,0,0,0-1.26-.37h-.85v-.81H210a1.79,1.79,0,0,0,1.11-.29,1,1,0,0,0,.39-.84,1,1,0,0,0-.4-.86,1.89,1.89,0,0,0-1.14-.3,4.59,4.59,0,0,0-.87.09,8.69,8.69,0,0,0-1,.27v-.88a9.56,9.56,0,0,1,1-.23,6,6,0,0,1,.93-.08,2.82,2.82,0,0,1,1.77.51,1.65,1.65,0,0,1,.66,1.38,1.56,1.56,0,0,1-.35,1,1.76,1.76,0,0,1-1,.58" transform="translate(-7 -10.48)"/><line x1="221.58" y1="468.65" x2="221.58" y2="472.15"/><line class="cls-3" x1="221.58" y1="468.65" x2="221.58" y2="472.15"/><path d="M217.78,492.89h3.44v.83h-4.63v-.83l1.53-1.56c.64-.65,1-1.07,1.22-1.26a4,4,0,0,0,.66-.9,1.65,1.65,0,0,0,.19-.73,1.21,1.21,0,0,0-.41-.94,1.54,1.54,0,0,0-1.06-.37,3.52,3.52,0,0,0-1,.16,6,6,0,0,0-1.1.49v-1a7.87,7.87,0,0,1,1.11-.36,4.19,4.19,0,0,1,.95-.12,2.7,2.7,0,0,1,1.8.57,1.88,1.88,0,0,1,.68,1.51,2.19,2.19,0,0,1-.17.85,3.79,3.79,0,0,1-.61.95c-.08.1-.34.37-.78.82l-1.84,1.89" transform="translate(-7 -10.48)"/><path d="M225.4,486.3a2.14,2.14,0,0,1,1.87,1,6.4,6.4,0,0,1,0,5.62,2.31,2.31,0,0,1-3.75,0,6.49,6.49,0,0,1,0-5.62,2.14,2.14,0,0,1,1.88-1m0,.78a1.23,1.23,0,0,0-1.15.75,6.85,6.85,0,0,0,0,4.5,1.26,1.26,0,0,0,2.3,0,6.85,6.85,0,0,0,0-4.5,1.23,1.23,0,0,0-1.15-.75" transform="translate(-7 -10.48)"/><polyline points="222.82 482.42 224.43 482.42 224.43 476.86 222.68 477.21 222.68 476.31 224.42 475.96 225.41 475.96 225.41 482.42 227.02 482.42 227.02 483.25 222.82 483.25 222.82 482.42"/><path d="M238.46,486.43h1.24v4.75h1V492h-1v1.72h-1V492h-3.29v-.95l3-4.62m.26.86-2.49,3.89h2.49v-3.89" transform="translate(-7 -10.48)"/><line x1="249.48" y1="468.65" x2="249.48" y2="472.15"/><line class="cls-3" x1="249.48" y1="468.65" x2="249.48" y2="472.15"/><path d="M245.68,492.89h3.44v.83h-4.63v-.83l1.53-1.56c.64-.65,1-1.07,1.22-1.26a4,4,0,0,0,.66-.9,1.65,1.65,0,0,0,.19-.73,1.21,1.21,0,0,0-.41-.94,1.54,1.54,0,0,0-1.06-.37,3.52,3.52,0,0,0-1,.16,6,6,0,0,0-1.1.49v-1a7.87,7.87,0,0,1,1.11-.36,4.19,4.19,0,0,1,.95-.12,2.7,2.7,0,0,1,1.8.57,1.88,1.88,0,0,1,.68,1.51,2.19,2.19,0,0,1-.17.85,3.79,3.79,0,0,1-.61.95c-.08.1-.34.37-.78.82l-1.84,1.89" transform="translate(-7 -10.48)"/><path d="M253.3,486.3a2.14,2.14,0,0,1,1.87,1,6.4,6.4,0,0,1,0,5.62,2.31,2.31,0,0,1-3.75,0,6.49,6.49,0,0,1,0-5.62,2.14,2.14,0,0,1,1.88-1m0,.78a1.23,1.23,0,0,0-1.15.75,6.85,6.85,0,0,0,0,4.5,1.26,1.26,0,0,0,2.3,0,6.85,6.85,0,0,0,0-4.5,1.23,1.23,0,0,0-1.15-.75" transform="translate(-7 -10.48)"/><polyline points="250.72 482.42 252.33 482.42 252.33 476.86 250.58 477.21 250.58 476.31 252.32 475.96 253.31 475.96 253.31 482.42 254.92 482.42 254.92 483.25 250.72 483.25 250.72 482.42"/><path d="M263.92,486.43h3.87v.83h-3v1.79a2.26,2.26,0,0,1,.43-.11,3.13,3.13,0,0,1,.43,0,2.74,2.74,0,0,1,1.93.67,2.36,2.36,0,0,1,.72,1.81,2.31,2.31,0,0,1-.74,1.83,3,3,0,0,1-2.06.64,7.57,7.57,0,0,1-.94-.07,6.28,6.28,0,0,1-1-.23v-1a3.75,3.75,0,0,0,.91.36,4,4,0,0,0,1,.11,1.92,1.92,0,0,0,1.34-.44,1.73,1.73,0,0,0,0-2.41,1.92,1.92,0,0,0-1.34-.45,3.55,3.55,0,0,0-.79.09,4.44,4.44,0,0,0-.8.27v-3.66" transform="translate(-7 -10.48)"/><line x1="277.38" y1="468.65" x2="277.38" y2="472.15"/><line class="cls-3" x1="277.38" y1="468.65" x2="277.38" y2="472.15"/><path d="M273.58,492.89H277v.83h-4.63v-.83l1.53-1.56c.64-.65,1.05-1.07,1.22-1.26a4,4,0,0,0,.66-.9,1.65,1.65,0,0,0,.19-.73,1.21,1.21,0,0,0-.41-.94,1.54,1.54,0,0,0-1.06-.37,3.52,3.52,0,0,0-1,.16,6,6,0,0,0-1.1.49v-1a7.87,7.87,0,0,1,1.11-.36,4.19,4.19,0,0,1,.95-.12,2.7,2.7,0,0,1,1.8.57,1.88,1.88,0,0,1,.68,1.51,2.19,2.19,0,0,1-.17.85,3.79,3.79,0,0,1-.61.95c-.08.1-.34.37-.78.82l-1.84,1.89" transform="translate(-7 -10.48)"/><path d="M281.2,486.3a2.14,2.14,0,0,1,1.87,1,6.4,6.4,0,0,1,0,5.62,2.31,2.31,0,0,1-3.75,0,6.49,6.49,0,0,1,0-5.62,2.14,2.14,0,0,1,1.88-1m0,.78a1.23,1.23,0,0,0-1.15.75,6.85,6.85,0,0,0,0,4.5,1.26,1.26,0,0,0,2.3,0,6.85,6.85,0,0,0,0-4.5,1.23,1.23,0,0,0-1.15-.75" transform="translate(-7 -10.48)"/><polyline points="278.62 482.42 280.23 482.42 280.23 476.86 278.48 477.21 278.48 476.31 280.22 475.96 281.21 475.96 281.21 482.42 282.82 482.42 282.82 483.25 278.62 483.25 278.62 482.42"/><path d="M296,486.59v.9a3.76,3.76,0,0,0-.75-.27,3.33,3.33,0,0,0-.75-.09,1.78,1.78,0,0,0-1.5.66,3.51,3.51,0,0,0-.58,2,2,2,0,0,1,.72-.65,2.06,2.06,0,0,1,1-.23,2.29,2.29,0,0,1,1.73.67,2.53,2.53,0,0,1,.64,1.81,2.47,2.47,0,0,1-.67,1.8,2.35,2.35,0,0,1-1.76.67,2.2,2.2,0,0,1-1.93-1,4.88,4.88,0,0,1-.67-2.81,4.25,4.25,0,0,1,.82-2.75,2.68,2.68,0,0,1,2.2-1,5,5,0,0,1,.75.07,5.59,5.59,0,0,1,.79.22m-2,3.09a1.33,1.33,0,0,0-1.05.46,2.18,2.18,0,0,0,0,2.49,1.45,1.45,0,0,0,2.1,0,2.18,2.18,0,0,0,0-2.49,1.33,1.33,0,0,0-1-.46" transform="translate(-7 -10.48)"/><line x1="305.28" y1="468.65" x2="305.28" y2="472.15"/><line class="cls-3" x1="305.28" y1="468.65" x2="305.28" y2="472.15"/><path d="M301.48,492.89h3.44v.83h-4.63v-.83l1.53-1.56c.64-.65,1.05-1.07,1.22-1.26a4,4,0,0,0,.66-.9,1.65,1.65,0,0,0,.19-.73,1.21,1.21,0,0,0-.41-.94,1.54,1.54,0,0,0-1.06-.37,3.52,3.52,0,0,0-1,.16,6,6,0,0,0-1.1.49v-1a7.87,7.87,0,0,1,1.11-.36,4.19,4.19,0,0,1,.95-.12,2.7,2.7,0,0,1,1.8.57,1.88,1.88,0,0,1,.68,1.51,2.19,2.19,0,0,1-.17.85,3.79,3.79,0,0,1-.61.95c-.08.1-.34.37-.78.82l-1.84,1.89" transform="translate(-7 -10.48)"/><path d="M309.1,486.3a2.14,2.14,0,0,1,1.87,1,6.4,6.4,0,0,1,0,5.62,2.31,2.31,0,0,1-3.75,0,6.49,6.49,0,0,1,0-5.62,2.14,2.14,0,0,1,1.88-1m0,.78a1.23,1.23,0,0,0-1.15.75,6.85,6.85,0,0,0,0,4.5,1.26,1.26,0,0,0,2.3,0,6.85,6.85,0,0,0,0-4.5,1.23,1.23,0,0,0-1.15-.75" transform="translate(-7 -10.48)"/><polyline points="306.52 482.42 308.13 482.42 308.13 476.86 306.38 477.21 306.38 476.31 308.12 475.96 309.11 475.96 309.11 482.42 310.72 482.42 310.72 483.25 306.52 483.25 306.52 482.42"/><polyline points="312.46 475.96 317.15 475.96 317.15 476.38 314.5 483.25 313.47 483.25 315.96 476.79 312.46 476.79 312.46 475.96"/><line x1="26.28" y1="416.76" x2="22.78" y2="416.76"/><line class="cls-3" x1="26.28" y1="416.76" x2="22.78" y2="416.76"/><path d="M17.08,423.74h1.24v4.75h1v.82h-1V431h-1v-1.72H14.05v-.95l3-4.62m.26.86-2.49,3.89h2.49V424.6" transform="translate(-7 -10.48)"/><path d="M23.1,423.61a2.14,2.14,0,0,1,1.87,1,6.4,6.4,0,0,1,0,5.62,2.31,2.31,0,0,1-3.75,0,6.49,6.49,0,0,1,0-5.62,2.14,2.14,0,0,1,1.88-1m0,.78a1.23,1.23,0,0,0-1.15.75,6.85,6.85,0,0,0,0,4.5,1.26,1.26,0,0,0,2.3,0,6.85,6.85,0,0,0,0-4.5,1.23,1.23,0,0,0-1.15-.75" transform="translate(-7 -10.48)"/><line x1="26.28" y1="359.92" x2="22.78" y2="359.92"/><line class="cls-3" x1="26.28" y1="359.92" x2="22.78" y2="359.92"/><path d="M14.64,366.9h3.87v.83h-3v1.79a2.26,2.26,0,0,1,.43-.11,3.13,3.13,0,0,1,.43,0,2.74,2.74,0,0,1,1.93.67,2.36,2.36,0,0,1,.72,1.81,2.31,2.31,0,0,1-.74,1.83,3,3,0,0,1-2.06.64,7.57,7.57,0,0,1-.94-.07,6.28,6.28,0,0,1-1-.23v-1a3.75,3.75,0,0,0,.91.36,4,4,0,0,0,1,.11,1.92,1.92,0,0,0,1.34-.44,1.73,1.73,0,0,0,0-2.41,1.92,1.92,0,0,0-1.34-.45,3.55,3.55,0,0,0-.79.09,4.44,4.44,0,0,0-.8.27V366.9" transform="translate(-7 -10.48)"/><path d="M23.1,366.77a2.14,2.14,0,0,1,1.87,1,6.4,6.4,0,0,1,0,5.62,2.31,2.31,0,0,1-3.75,0,6.49,6.49,0,0,1,0-5.62,2.14,2.14,0,0,1,1.88-1m0,.78a1.23,1.23,0,0,0-1.15.75,6.85,6.85,0,0,0,0,4.5,1.26,1.26,0,0,0,2.3,0,6.85,6.85,0,0,0,0-4.5,1.23,1.23,0,0,0-1.15-.75" transform="translate(-7 -10.48)"/><line x1="26.28" y1="303.08" x2="22.78" y2="303.08"/><line class="cls-3" x1="26.28" y1="303.08" x2="22.78" y2="303.08"/><path d="M18.82,310.22v.9a3.76,3.76,0,0,0-.75-.27,3.33,3.33,0,0,0-.75-.09,1.78,1.78,0,0,0-1.5.66,3.51,3.51,0,0,0-.58,2,2,2,0,0,1,.72-.65,2.06,2.06,0,0,1,1-.23,2.29,2.29,0,0,1,1.73.67,2.53,2.53,0,0,1,.64,1.81,2.47,2.47,0,0,1-.67,1.8,2.35,2.35,0,0,1-1.76.67,2.2,2.2,0,0,1-1.93-1,4.88,4.88,0,0,1-.67-2.81,4.25,4.25,0,0,1,.82-2.75,2.68,2.68,0,0,1,2.2-1A5,5,0,0,1,18,310a5.59,5.59,0,0,1,.79.22m-2,3.09a1.33,1.33,0,0,0-1,.46,2.18,2.18,0,0,0,0,2.49,1.45,1.45,0,0,0,2.1,0,2.18,2.18,0,0,0,0-2.49,1.33,1.33,0,0,0-1.05-.46" transform="translate(-7 -10.48)"/><path d="M23.1,309.93a2.14,2.14,0,0,1,1.87,1,6.4,6.4,0,0,1,0,5.62,2.31,2.31,0,0,1-3.75,0,6.49,6.49,0,0,1,0-5.62,2.14,2.14,0,0,1,1.88-1m0,.78a1.23,1.23,0,0,0-1.15.75,6.85,6.85,0,0,0,0,4.5,1.26,1.26,0,0,0,2.3,0,6.85,6.85,0,0,0,0-4.5,1.23,1.23,0,0,0-1.15-.75" transform="translate(-7 -10.48)"/><line x1="26.28" y1="246.24" x2="22.78" y2="246.24"/><line class="cls-3" x1="26.28" y1="246.24" x2="22.78" y2="246.24"/><polyline points="7.38 242.75 12.07 242.75 12.07 243.17 9.42 250.04 8.39 250.04 10.88 243.58 7.38 243.58 7.38 242.75"/><path d="M23.1,253.09a2.14,2.14,0,0,1,1.87,1,6.4,6.4,0,0,1,0,5.62,2.31,2.31,0,0,1-3.75,0,6.49,6.49,0,0,1,0-5.62,2.14,2.14,0,0,1,1.88-1m0,.78a1.23,1.23,0,0,0-1.15.75,6.85,6.85,0,0,0,0,4.5,1.26,1.26,0,0,0,2.3,0,6.85,6.85,0,0,0,0-4.5,1.23,1.23,0,0,0-1.15-.75" transform="translate(-7 -10.48)"/><line x1="26.28" y1="189.4" x2="22.78" y2="189.4"/><line class="cls-3" x1="26.28" y1="189.4" x2="22.78" y2="189.4"/><path d="M15.39,198.24a1.12,1.12,0,0,0,.35.89,1.46,1.46,0,0,0,1,.31,1.45,1.45,0,0,0,1-.31,1.12,1.12,0,0,0,.36-.89,1.1,1.1,0,0,0-.36-.88,1.71,1.71,0,0,0-2,0,1.1,1.1,0,0,0-.35.88m.36,1.56a1.78,1.78,0,0,1-1-.59,1.59,1.59,0,0,1-.35-1.06,1.67,1.67,0,0,1,.62-1.38,2.6,2.6,0,0,1,1.71-.51,2.64,2.64,0,0,1,1.71.51,1.7,1.7,0,0,1,.62,1.38,1.6,1.6,0,0,1-.36,1.06,1.75,1.75,0,0,1-1,.59,2,2,0,0,1,1.11.65,1.83,1.83,0,0,1,.4,1.18,2,2,0,0,1-.65,1.62,2.73,2.73,0,0,1-1.85.56,2.72,2.72,0,0,1-1.86-.56,2,2,0,0,1-.64-1.62,1.78,1.78,0,0,1,.4-1.18,1.94,1.94,0,0,1,1.11-.65m1,.42a1.57,1.57,0,0,0-1.11.38,1.33,1.33,0,0,0-.4,1,1.35,1.35,0,0,0,.4,1,1.57,1.57,0,0,0,1.11.37,1.52,1.52,0,0,0,1.1-.38,1.33,1.33,0,0,0,.41-1,1.36,1.36,0,0,0-.4-1,1.57,1.57,0,0,0-1.11-.38" transform="translate(-7 -10.48)"/><path d="M23.1,196.26a2.14,2.14,0,0,1,1.87,1,6.4,6.4,0,0,1,0,5.62,2.31,2.31,0,0,1-3.75,0,6.49,6.49,0,0,1,0-5.62,2.14,2.14,0,0,1,1.88-1m0,.78a1.23,1.23,0,0,0-1.15.75,6.85,6.85,0,0,0,0,4.5,1.26,1.26,0,0,0,2.3,0,6.85,6.85,0,0,0,0-4.5A1.23,1.23,0,0,0,23.1,197" transform="translate(-7 -10.48)"/><line x1="26.28" y1="132.56" x2="22.78" y2="132.56"/><line class="cls-3" x1="26.28" y1="132.56" x2="22.78" y2="132.56"/><path d="M16.62,143.6a1.32,1.32,0,0,0,1.05-.45,2.18,2.18,0,0,0,0-2.49,1.43,1.43,0,0,0-2.1,0,2.18,2.18,0,0,0,0,2.49,1.32,1.32,0,0,0,1.05.45m-2,3.09v-.9a3.36,3.36,0,0,0,.75.27,3.2,3.2,0,0,0,.75.09,1.76,1.76,0,0,0,1.48-.65,3.65,3.65,0,0,0,.6-2,2.12,2.12,0,0,1-.72.65,2.05,2.05,0,0,1-1,.22,2.29,2.29,0,0,1-1.74-.66,2.85,2.85,0,0,1,0-3.61,2.37,2.37,0,0,1,1.77-.68,2.21,2.21,0,0,1,1.93,1,5,5,0,0,1,.67,2.81A4.29,4.29,0,0,1,18.4,146a2.68,2.68,0,0,1-2.2,1,4.76,4.76,0,0,1-.75-.07,4,4,0,0,1-.79-.21" transform="translate(-7 -10.48)"/><path d="M23.1,139.42a2.14,2.14,0,0,1,1.87,1A6.4,6.4,0,0,1,25,146a2.31,2.31,0,0,1-3.75,0,6.49,6.49,0,0,1,0-5.62,2.14,2.14,0,0,1,1.88-1m0,.78A1.23,1.23,0,0,0,22,141a6.85,6.85,0,0,0,0,4.5,1.26,1.26,0,0,0,2.3,0,6.85,6.85,0,0,0,0-4.5,1.23,1.23,0,0,0-1.15-.75" transform="translate(-7 -10.48)"/><line x1="26.28" y1="75.72" x2="22.78" y2="75.72"/><line class="cls-3" x1="26.28" y1="75.72" x2="22.78" y2="75.72"/><polyline points="1.44 78.69 3.05 78.69 3.05 73.13 1.3 73.48 1.3 72.58 3.04 72.23 4.03 72.23 4.03 78.69 5.64 78.69 5.64 79.52 1.44 79.52 1.44 78.69"/><path d="M16.74,82.58a2.14,2.14,0,0,1,1.87,1,6.4,6.4,0,0,1,0,5.62,2.13,2.13,0,0,1-1.87,1,2.13,2.13,0,0,1-1.88-1,6.49,6.49,0,0,1,0-5.62,2.14,2.14,0,0,1,1.88-1m0,.78a1.23,1.23,0,0,0-1.15.75,6.85,6.85,0,0,0,0,4.5,1.26,1.26,0,0,0,2.3,0,6.85,6.85,0,0,0,0-4.5,1.23,1.23,0,0,0-1.15-.75" transform="translate(-7 -10.48)"/><path d="M23.1,82.58a2.14,2.14,0,0,1,1.87,1,6.4,6.4,0,0,1,0,5.62,2.31,2.31,0,0,1-3.75,0,6.49,6.49,0,0,1,0-5.62,2.14,2.14,0,0,1,1.88-1m0,.78a1.23,1.23,0,0,0-1.15.75,6.85,6.85,0,0,0,0,4.5,1.26,1.26,0,0,0,2.3,0,6.85,6.85,0,0,0,0-4.5,1.23,1.23,0,0,0-1.15-.75" transform="translate(-7 -10.48)"/><g class="cls-4"><line class="cls-5" x1="26.28" y1="136.09" x2="305.28" y2="53.54"/></g><g class="cls-4"><line class="cls-6" x1="26.28" y1="339.55" x2="305.28" y2="99.67"/></g><g class="cls-4"><line class="cls-7" x1="26.28" y1="448.88" x2="305.28" y2="142.55"/></g><g class="cls-4"><line class="cls-8" x1="26.28" y1="264.3" x2="305.28" y2="158.66"/></g><g class="cls-4"><line class="cls-9" x1="26.28" y1="292.3" x2="305.28" y2="163.5"/></g><g class="cls-4"><line class="cls-10" x1="26.28" y1="211.13" x2="305.28" y2="190.38"/></g><g class="cls-4"><line class="cls-11" x1="26.28" y1="257.22" x2="305.28" y2="200.69"/></g><g class="cls-4"><line class="cls-12" x1="26.28" y1="376.73" x2="305.28" y2="231.1"/></g><g class="cls-4"><line class="cls-13" x1="26.28" y1="303.52" x2="305.28" y2="249.25"/></g><g class="cls-4"><line class="cls-14" x1="26.28" y1="372.45" x2="305.28" y2="254.68"/></g><line class="cls-15" x1="26.28" y1="468.65" x2="26.28" y2="33.77"/><line class="cls-15" x1="305.28" y1="468.65" x2="305.28" y2="33.77"/><line class="cls-15" x1="26.28" y1="468.65" x2="305.28" y2="468.65"/><rect class="cls-16" x="338.18" y="176.35" width="58.7" height="149.72" rx="2"/><rect class="cls-17" x="338.18" y="176.35" width="58.7" height="149.72" rx="2"/><line class="cls-5" x1="342.18" y1="184.45" x2="362.18" y2="184.45"/><path d="M380,191.13h1.12l2.78,7.29h-1l-.66-1.87H379l-.66,1.87h-1l2.78-7.29m.56,1-1.34,3.63h2.68l-1.34-3.63" transform="translate(-7 -10.48)"/><polyline points="377 180.66 383.16 180.66 383.16 181.49 380.57 181.49 380.57 187.95 379.58 187.95 379.58 181.49 377 181.49 377 180.66"/><polyline points="384.11 180.66 385.1 180.66 385.1 187.12 388.65 187.12 388.65 187.95 384.11 187.95 384.11 180.66"/><line class="cls-6" x1="342.18" y1="199.12" x2="362.18" y2="199.12"/><path d="M378.16,205.8h2.23a2.73,2.73,0,0,1,1.85.56,2.41,2.41,0,0,1,0,3.25,2.73,2.73,0,0,1-1.85.55h-1.24v2.93h-1V205.8m1,.81v2.74h1.24a1.46,1.46,0,0,0,1.06-.35,1.35,1.35,0,0,0,.38-1,1.33,1.33,0,0,0-.38-1,1.46,1.46,0,0,0-1.06-.36h-1.24" transform="translate(-7 -10.48)"/><polyline points="377.19 195.33 381.8 195.33 381.8 196.16 378.18 196.16 378.18 198.32 381.65 198.32 381.65 199.15 378.18 199.15 378.18 201.79 381.89 201.79 381.89 202.62 377.19 202.62 377.19 195.33"/><polyline points="383.51 195.33 384.5 195.33 384.5 198.41 387.77 195.33 389.04 195.33 385.42 198.73 389.3 202.62 388 202.62 384.5 199.11 384.5 202.62 383.51 202.62 383.51 195.33"/><line class="cls-7" x1="342.18" y1="213.79" x2="362.18" y2="213.79"/><path d="M378.16,220.48h2a4.64,4.64,0,0,1,3.11.88,4.34,4.34,0,0,1,0,5.53,4.57,4.57,0,0,1-3.1.88h-2v-7.29m1,.81V227h1.19a3.06,3.06,0,0,0,2.21-.68,3.67,3.67,0,0,0,0-4.31,3.11,3.11,0,0,0-2.21-.68h-1.19" transform="translate(-7 -10.48)"/><polyline points="378.51 210 379.57 210 381.38 212.71 383.2 210 384.26 210 381.92 213.5 384.42 217.29 383.36 217.29 381.31 214.19 379.24 217.29 378.18 217.29 380.78 213.4 378.51 210"/><path d="M392.71,220.48h2.52A2.84,2.84,0,0,1,397,221a1.61,1.61,0,0,1,.61,1.33,1.66,1.66,0,0,1-.32,1.07,1.38,1.38,0,0,1-.91.49,2,2,0,0,1,1.13.66,1.93,1.93,0,0,1,.4,1.23,1.82,1.82,0,0,1-.67,1.51,2.9,2.9,0,0,1-1.88.53h-2.62v-7.29m1,.81v2.2h1.46a1.76,1.76,0,0,0,1.07-.27,1.13,1.13,0,0,0,0-1.65,1.75,1.75,0,0,0-1.07-.28H393.7m0,3V227h1.58a1.79,1.79,0,0,0,1.18-.33,1.52,1.52,0,0,0,0-2,1.79,1.79,0,0,0-1.18-.33H393.7" transform="translate(-7 -10.48)"/><line class="cls-8" x1="342.18" y1="228.46" x2="362.18" y2="228.46"/><polyline points="371.16 224.67 372.15 224.67 372.15 227.66 375.73 227.66 375.73 224.67 376.72 224.67 376.72 231.96 375.73 231.96 375.73 228.49 372.15 228.49 372.15 231.96 371.16 231.96 371.16 224.67"/><polyline points="378.68 224.67 380.01 224.67 383.24 230.77 383.24 224.67 384.2 224.67 384.2 231.96 382.87 231.96 379.64 225.86 379.64 231.96 378.68 231.96 378.68 224.67"/><path d="M393.16,235.15h2a4.64,4.64,0,0,1,3.11.88,4.34,4.34,0,0,1,0,5.53,4.57,4.57,0,0,1-3.1.88h-2v-7.29m1,.81v5.67h1.19a3.06,3.06,0,0,0,2.21-.68,3.67,3.67,0,0,0,0-4.31,3.11,3.11,0,0,0-2.21-.68h-1.19" transform="translate(-7 -10.48)"/><line class="cls-9" x1="342.18" y1="243.13" x2="362.18" y2="243.13"/><polyline points="371.16 239.34 372.15 239.34 372.15 245.8 375.7 245.8 375.7 246.63 371.16 246.63 371.16 239.34"/><path d="M385.61,249.82h1.12l2.78,7.29h-1l-.66-1.87h-3.29l-.66,1.87h-1l2.78-7.29m.56,1-1.34,3.63h2.68l-1.34-3.63" transform="translate(-7 -10.48)"/><polyline points="383.22 239.34 384.28 239.34 386.09 242.05 387.91 239.34 388.97 239.34 386.63 242.84 389.13 246.63 388.07 246.63 386.02 243.53 383.95 246.63 382.89 246.63 385.49 242.74 383.22 239.34"/><line class="cls-10" x1="342.18" y1="257.81" x2="362.18" y2="257.81"/><path d="M381.12,264.36a3.16,3.16,0,0,1,2.45,1,4.57,4.57,0,0,1,0,5.5,3.46,3.46,0,0,1-4.91,0,4.57,4.57,0,0,1,0-5.5,3.15,3.15,0,0,1,2.46-1m0,.8a2.07,2.07,0,0,0-1.71.8,4.09,4.09,0,0,0,0,4.36,2.22,2.22,0,0,0,3.41,0,4.09,4.09,0,0,0,0-4.36,2.06,2.06,0,0,0-1.7-.8" transform="translate(-7 -10.48)"/><path d="M387,265.3v2.59h1.24a1.54,1.54,0,0,0,1.07-.33,1.44,1.44,0,0,0,0-1.93,1.54,1.54,0,0,0-1.07-.33H387m2.47,3.06a1.59,1.59,0,0,1,.62.46,4.82,4.82,0,0,1,.6,1l1,2h-1.06l-.93-1.87a2.74,2.74,0,0,0-.7-1,1.6,1.6,0,0,0-.93-.24H387v3.08h-1v-7.29h2.23a2.87,2.87,0,0,1,1.86.52,2.28,2.28,0,0,1,.3,2.73,1.66,1.66,0,0,1-.93.62" transform="translate(-7 -10.48)"/><path d="M393,264.49h2a4.64,4.64,0,0,1,3.11.88,4.34,4.34,0,0,1,0,5.53,4.57,4.57,0,0,1-3.1.88h-2v-7.29m1,.81V271h1.19a3.06,3.06,0,0,0,2.21-.68,3.67,3.67,0,0,0,0-4.31,3.11,3.11,0,0,0-2.21-.68H394" transform="translate(-7 -10.48)"/><line class="cls-11" x1="342.18" y1="272.48" x2="362.18" y2="272.48"/><polyline points="371.16 268.69 372.15 268.69 372.15 275.15 375.7 275.15 375.7 275.98 371.16 275.98 371.16 268.69"/><polyline points="376.73 268.69 377.72 268.69 377.72 271.68 381.3 271.68 381.3 268.69 382.29 268.69 382.29 275.98 381.3 275.98 381.3 272.51 377.72 272.51 377.72 275.98 376.73 275.98 376.73 268.69"/><path d="M392.24,280v2.59h1.24a1.54,1.54,0,0,0,1.07-.33,1.44,1.44,0,0,0,0-1.93,1.54,1.54,0,0,0-1.07-.33h-1.24m2.47,3.06a1.59,1.59,0,0,1,.62.46,4.82,4.82,0,0,1,.6,1l1,2h-1.06l-.93-1.87a2.74,2.74,0,0,0-.7-1,1.6,1.6,0,0,0-.93-.24h-1.07v3.08h-1v-7.29h2.23a2.87,2.87,0,0,1,1.86.52,2.28,2.28,0,0,1,.3,2.73,1.66,1.66,0,0,1-.93.62" transform="translate(-7 -10.48)"/><line class="cls-12" x1="342.18" y1="287.15" x2="362.18" y2="287.15"/><polyline points="371.16 283.36 372.15 283.36 372.15 286.35 375.73 286.35 375.73 283.36 376.72 283.36 376.72 290.65 375.73 290.65 375.73 287.18 372.15 287.18 372.15 290.65 371.16 290.65 371.16 283.36"/><polyline points="378.68 283.36 379.67 283.36 379.67 286.44 382.94 283.36 384.21 283.36 380.59 286.76 384.47 290.65 383.17 290.65 379.67 287.14 379.67 290.65 378.68 290.65 378.68 283.36"/><path d="M397.21,300.09v-2H395.6v-.81h2.59v3.13a3.88,3.88,0,0,1-1.26.61,5.38,5.38,0,0,1-1.47.2,3.57,3.57,0,0,1-2.68-1,4.51,4.51,0,0,1,0-5.56,3.58,3.58,0,0,1,2.68-1,5,5,0,0,1,1.35.18,4.7,4.7,0,0,1,1.19.51v1.05a4.39,4.39,0,0,0-1.17-.69,3.52,3.52,0,0,0-1.29-.24,2.54,2.54,0,0,0-2,.75,4,4,0,0,0,0,4.45,2.53,2.53,0,0,0,2,.74,4.45,4.45,0,0,0,.93-.09,2.42,2.42,0,0,0,.74-.28" transform="translate(-7 -10.48)"/><line class="cls-13" x1="342.18" y1="301.82" x2="362.18" y2="301.82"/><path d="M383.62,309.07v1a3.9,3.9,0,0,0-1.07-.69,3.19,3.19,0,0,0-1.19-.23,2.4,2.4,0,0,0-1.92.77,4,4,0,0,0,0,4.41,2.39,2.39,0,0,0,1.92.76,3,3,0,0,0,1.19-.23,3.49,3.49,0,0,0,1.07-.69v1a3.81,3.81,0,0,1-1.1.52,4.39,4.39,0,0,1-1.22.17,3.44,3.44,0,0,1-2.61-1,4.51,4.51,0,0,1,0-5.54,3.44,3.44,0,0,1,2.61-1,4.4,4.4,0,0,1,1.23.17,4.19,4.19,0,0,1,1.09.52" transform="translate(-7 -10.48)"/><path d="M385.14,308.51h2a4.64,4.64,0,0,1,3.11.88,4.34,4.34,0,0,1,0,5.53,4.57,4.57,0,0,1-3.1.88h-2v-7.29m1,.81V315h1.19a3.06,3.06,0,0,0,2.21-.68,3.67,3.67,0,0,0,0-4.31,3.11,3.11,0,0,0-2.21-.68h-1.19" transform="translate(-7 -10.48)"/><path d="M397.81,314.76v-2H396.2V312h2.59v3.13a3.88,3.88,0,0,1-1.26.61,5.38,5.38,0,0,1-1.47.2,3.57,3.57,0,0,1-2.68-1,4.51,4.51,0,0,1,0-5.56,3.58,3.58,0,0,1,2.68-1,5,5,0,0,1,1.35.18,4.7,4.7,0,0,1,1.19.51v1.05a4.39,4.39,0,0,0-1.17-.69,3.52,3.52,0,0,0-1.29-.24,2.54,2.54,0,0,0-2,.75,4,4,0,0,0,0,4.45,2.53,2.53,0,0,0,2,.74,4.45,4.45,0,0,0,.93-.09,2.42,2.42,0,0,0,.74-.28" transform="translate(-7 -10.48)"/><line class="cls-14" x1="342.18" y1="316.49" x2="362.18" y2="316.49"/><path d="M380,323.18h1.12l2.78,7.29h-1l-.66-1.87H379l-.66,1.87h-1l2.78-7.29m.56,1-1.34,3.63h2.68l-1.34-3.63" transform="translate(-7 -10.48)"/><polyline points="378 312.7 379.47 312.7 381.33 317.66 383.2 312.7 384.67 312.7 384.67 319.99 383.71 319.99 383.71 313.59 381.83 318.59 380.84 318.59 378.96 313.59 378.96 319.99 378 319.99 378 312.7"/><path d="M398,323.42v1a6.42,6.42,0,0,0-1.06-.4,4.24,4.24,0,0,0-1-.13,2.2,2.2,0,0,0-1.25.31,1,1,0,0,0-.43.89.88.88,0,0,0,.29.73,2.41,2.41,0,0,0,1.1.4l.6.12a3.06,3.06,0,0,1,1.62.74,2,2,0,0,1,.53,1.42,1.89,1.89,0,0,1-.71,1.6,3.42,3.42,0,0,1-2.08.54,6.32,6.32,0,0,1-1.11-.11,6.4,6.4,0,0,1-1.2-.34v-1a5.33,5.33,0,0,0,1.17.51,3.75,3.75,0,0,0,1.14.17,2.21,2.21,0,0,0,1.3-.33,1.11,1.11,0,0,0,.46-1,1.08,1.08,0,0,0-.33-.84,2.28,2.28,0,0,0-1.08-.45l-.6-.12a3.1,3.1,0,0,1-1.6-.69,1.69,1.69,0,0,1-.49-1.3,1.84,1.84,0,0,1,.68-1.52,2.89,2.89,0,0,1,1.88-.56,6.27,6.27,0,0,1,1,.09,8.34,8.34,0,0,1,1.09.28" transform="translate(-7 -10.48)"/></g><text class="cls-18" transform="translate(0 10.04)"><tspan class="cls-19">P</tspan><tspan x="6.07" y="0">assenger</tspan><tspan class="cls-20" x="50.68" y="0"> </tspan><tspan class="cls-21" x="52.73" y="0">T</tspan><tspan class="cls-22" x="58.15" y="0">r</tspan><tspan x="62.02" y="0">affic</tspan><tspan x="0" y="14.4">(</tspan><tspan class="cls-23" x="3.41" y="14.4">M</tspan><tspan x="13.2" y="14.4">illion)</tspan></text></svg>