<?xml version="1.0" encoding="utf-8"?>
<!-- Generator: Adobe Illustrator 23.0.4, SVG Export Plug-In . SVG Version: 6.00 Build 0)  -->
<svg version="1.1" id="Layer_1" xmlns="http://www.w3.org/2000/svg" xmlns:xlink="http://www.w3.org/1999/xlink" x="0px" y="0px"
	 viewBox="0 0 407 484.3" style="enable-background:new 0 0 407 484.3;" xml:space="preserve">
<style type="text/css">
	.st0{clip-path:url(#SVGID_2_);fill:none;}
	.st1{clip-path:url(#SVGID_4_);fill:none;stroke:#000000;stroke-width:0.8;stroke-linejoin:round;stroke-miterlimit:10;}
	.st2{clip-path:url(#SVGID_6_);}
	.st3{clip-path:url(#SVGID_8_);}
	.st4{clip-path:url(#SVGID_10_);fill:none;}
	.st5{clip-path:url(#SVGID_12_);fill:none;stroke:#000000;stroke-width:0.8;stroke-linejoin:round;stroke-miterlimit:10;}
	.st6{clip-path:url(#SVGID_14_);}
	.st7{clip-path:url(#SVGID_16_);}
	.st8{clip-path:url(#SVGID_18_);fill:none;}
	.st9{clip-path:url(#SVGID_20_);fill:none;stroke:#000000;stroke-width:0.8;stroke-linejoin:round;stroke-miterlimit:10;}
	.st10{clip-path:url(#SVGID_22_);}
	.st11{clip-path:url(#SVGID_24_);}
	.st12{clip-path:url(#SVGID_26_);fill:none;}
	.st13{clip-path:url(#SVGID_28_);fill:none;stroke:#000000;stroke-width:0.8;stroke-linejoin:round;stroke-miterlimit:10;}
	.st14{clip-path:url(#SVGID_30_);}
	.st15{clip-path:url(#SVGID_32_);}
	.st16{clip-path:url(#SVGID_34_);fill:none;}
	.st17{clip-path:url(#SVGID_36_);fill:none;stroke:#000000;stroke-width:0.8;stroke-linejoin:round;stroke-miterlimit:10;}
	.st18{clip-path:url(#SVGID_38_);}
	.st19{clip-path:url(#SVGID_40_);}
	.st20{clip-path:url(#SVGID_42_);fill:none;}
	.st21{clip-path:url(#SVGID_44_);fill:none;stroke:#000000;stroke-width:0.8;stroke-linejoin:round;stroke-miterlimit:10;}
	.st22{clip-path:url(#SVGID_46_);}
	.st23{clip-path:url(#SVGID_48_);}
	.st24{clip-path:url(#SVGID_50_);fill:none;}
	.st25{clip-path:url(#SVGID_52_);fill:none;stroke:#000000;stroke-width:0.8;stroke-linejoin:round;stroke-miterlimit:10;}
	.st26{clip-path:url(#SVGID_54_);}
	.st27{clip-path:url(#SVGID_56_);}
	.st28{clip-path:url(#SVGID_58_);}
	.st29{clip-path:url(#SVGID_60_);}
	
		.st30{clip-path:url(#SVGID_62_);fill:none;stroke:#FF7F00;stroke-width:5;stroke-linecap:square;stroke-linejoin:round;stroke-miterlimit:10;}
	.st31{clip-path:url(#SVGID_64_);}
	
		.st32{clip-path:url(#SVGID_66_);fill:none;stroke:#E31A1C;stroke-width:5;stroke-linecap:square;stroke-linejoin:round;stroke-miterlimit:10;}
	.st33{clip-path:url(#SVGID_68_);}
	
		.st34{clip-path:url(#SVGID_70_);fill:none;stroke:#FB9A99;stroke-width:5;stroke-linecap:square;stroke-linejoin:round;stroke-miterlimit:10;}
	.st35{clip-path:url(#SVGID_72_);}
	
		.st36{clip-path:url(#SVGID_74_);fill:none;stroke:#984EA3;stroke-width:5;stroke-linecap:square;stroke-linejoin:round;stroke-miterlimit:10;}
	.st37{clip-path:url(#SVGID_76_);}
	
		.st38{clip-path:url(#SVGID_78_);fill:none;stroke:#1F78B4;stroke-width:5;stroke-linecap:square;stroke-linejoin:round;stroke-miterlimit:10;}
	.st39{clip-path:url(#SVGID_80_);}
	
		.st40{clip-path:url(#SVGID_82_);fill:none;stroke:#A6CEE3;stroke-width:5;stroke-linecap:square;stroke-linejoin:round;stroke-miterlimit:10;}
	.st41{clip-path:url(#SVGID_84_);}
	
		.st42{clip-path:url(#SVGID_86_);fill:none;stroke:#FFFFB3;stroke-width:5;stroke-linecap:square;stroke-linejoin:round;stroke-miterlimit:10;}
	.st43{clip-path:url(#SVGID_88_);}
	
		.st44{clip-path:url(#SVGID_90_);fill:none;stroke:#DECBE4;stroke-width:5;stroke-linecap:square;stroke-linejoin:round;stroke-miterlimit:10;}
	.st45{clip-path:url(#SVGID_92_);}
	
		.st46{clip-path:url(#SVGID_94_);fill:none;stroke:#E5D8BD;stroke-width:5;stroke-linecap:square;stroke-linejoin:round;stroke-miterlimit:10;}
	.st47{clip-path:url(#SVGID_96_);}
	
		.st48{clip-path:url(#SVGID_98_);fill:none;stroke:#D9D9D9;stroke-width:5;stroke-linecap:square;stroke-linejoin:round;stroke-miterlimit:10;}
	.st49{clip-path:url(#SVGID_100_);fill:none;stroke:#000000;stroke-width:0.8;stroke-linecap:square;stroke-miterlimit:10;}
	.st50{clip-path:url(#SVGID_102_);fill:none;stroke:#000000;stroke-width:0.8;stroke-linecap:square;stroke-miterlimit:10;}
	.st51{clip-path:url(#SVGID_104_);fill:none;stroke:#000000;stroke-width:0.8;stroke-linecap:square;stroke-miterlimit:10;}
	.st52{clip-path:url(#SVGID_106_);}
	.st53{opacity:0.8;fill:#FFFFFF;enable-background:new    ;}
	.st54{opacity:0.8;fill:none;stroke:#CCCCCC;stroke-miterlimit:10;enable-background:new    ;}
	
		.st55{clip-path:url(#SVGID_108_);fill:none;stroke:#FF7F00;stroke-width:5;stroke-linecap:square;stroke-linejoin:round;stroke-miterlimit:10;}
	.st56{clip-path:url(#SVGID_110_);}
	.st57{clip-path:url(#SVGID_112_);}
	.st58{clip-path:url(#SVGID_114_);}
	
		.st59{clip-path:url(#SVGID_116_);fill:none;stroke:#E31A1C;stroke-width:5;stroke-linecap:square;stroke-linejoin:round;stroke-miterlimit:10;}
	.st60{clip-path:url(#SVGID_118_);}
	.st61{clip-path:url(#SVGID_120_);}
	.st62{clip-path:url(#SVGID_122_);}
	
		.st63{clip-path:url(#SVGID_124_);fill:none;stroke:#FB9A99;stroke-width:5;stroke-linecap:square;stroke-linejoin:round;stroke-miterlimit:10;}
	.st64{clip-path:url(#SVGID_126_);}
	.st65{clip-path:url(#SVGID_128_);}
	.st66{clip-path:url(#SVGID_130_);}
	
		.st67{clip-path:url(#SVGID_132_);fill:none;stroke:#984EA3;stroke-width:5;stroke-linecap:square;stroke-linejoin:round;stroke-miterlimit:10;}
	.st68{clip-path:url(#SVGID_134_);}
	.st69{clip-path:url(#SVGID_136_);}
	.st70{clip-path:url(#SVGID_138_);}
	
		.st71{clip-path:url(#SVGID_140_);fill:none;stroke:#1F78B4;stroke-width:5;stroke-linecap:square;stroke-linejoin:round;stroke-miterlimit:10;}
	.st72{clip-path:url(#SVGID_142_);}
	.st73{clip-path:url(#SVGID_144_);}
	.st74{clip-path:url(#SVGID_146_);}
	
		.st75{clip-path:url(#SVGID_148_);fill:none;stroke:#A6CEE3;stroke-width:5;stroke-linecap:square;stroke-linejoin:round;stroke-miterlimit:10;}
	.st76{clip-path:url(#SVGID_150_);}
	.st77{clip-path:url(#SVGID_152_);}
	.st78{clip-path:url(#SVGID_154_);}
	
		.st79{clip-path:url(#SVGID_156_);fill:none;stroke:#FFFFB3;stroke-width:5;stroke-linecap:square;stroke-linejoin:round;stroke-miterlimit:10;}
	.st80{clip-path:url(#SVGID_158_);}
	.st81{clip-path:url(#SVGID_160_);}
	.st82{clip-path:url(#SVGID_162_);}
	
		.st83{clip-path:url(#SVGID_164_);fill:none;stroke:#DECBE4;stroke-width:5;stroke-linecap:square;stroke-linejoin:round;stroke-miterlimit:10;}
	.st84{clip-path:url(#SVGID_166_);}
	.st85{clip-path:url(#SVGID_168_);}
	.st86{clip-path:url(#SVGID_170_);}
	
		.st87{clip-path:url(#SVGID_172_);fill:none;stroke:#E5D8BD;stroke-width:5;stroke-linecap:square;stroke-linejoin:round;stroke-miterlimit:10;}
	.st88{clip-path:url(#SVGID_174_);}
	.st89{clip-path:url(#SVGID_176_);}
	.st90{clip-path:url(#SVGID_178_);}
	
		.st91{clip-path:url(#SVGID_180_);fill:none;stroke:#D9D9D9;stroke-width:5;stroke-linecap:square;stroke-linejoin:round;stroke-miterlimit:10;}
	.st92{clip-path:url(#SVGID_182_);}
	.st93{clip-path:url(#SVGID_184_);}
	.st94{clip-path:url(#SVGID_186_);}
	.st95{clip-path:url(#SVGID_188_);}
	.st96{clip-path:url(#SVGID_190_);}
	.st97{clip-path:url(#SVGID_192_);}
	.st98{clip-path:url(#SVGID_194_);}
	.st99{clip-path:url(#SVGID_196_);}
	.st100{fill:none;}
	.st101{font-family:'ArialMT';}
	.st102{font-size:12px;}
	.st103{font-family:'MyriadPro-Regular';}
</style>
<g>
	<g>
		<defs>
			<rect id="SVGID_1_" y="13" width="411.1" height="456.3"/>
		</defs>
		<clipPath id="SVGID_2_">
			<use xlink:href="#SVGID_1_"  style="overflow:visible;"/>
		</clipPath>
		<line class="st0" x1="33.3" y1="406.7" x2="29.8" y2="406.7"/>
	</g>
	<g>
		<defs>
			<rect id="SVGID_3_" y="13" width="411.1" height="456.3"/>
		</defs>
		<clipPath id="SVGID_4_">
			<use xlink:href="#SVGID_3_"  style="overflow:visible;"/>
		</clipPath>
		<line class="st1" x1="33.3" y1="406.7" x2="29.8" y2="406.7"/>
	</g>
	<g>
		<defs>
			<rect id="SVGID_5_" y="13" width="411.1" height="456.3"/>
		</defs>
		<clipPath id="SVGID_6_">
			<use xlink:href="#SVGID_5_"  style="overflow:visible;"/>
		</clipPath>
		<path class="st2" d="M17.1,403.2h1.2v4.7h1v0.8h-1v1.7h-1v-1.7H14v-0.9L17.1,403.2 M17.3,404.1l-2.5,3.9h2.5V404.1"/>
	</g>
	<g>
		<defs>
			<rect id="SVGID_7_" y="13" width="411.1" height="456.3"/>
		</defs>
		<clipPath id="SVGID_8_">
			<use xlink:href="#SVGID_7_"  style="overflow:visible;"/>
		</clipPath>
		<path class="st3" d="M23.1,403.1c0.8,0,1.4,0.3,1.9,1c0.4,0.7,0.7,1.6,0.7,2.8c0,1.2-0.2,2.2-0.7,2.8c-0.4,0.6-1.1,1-1.9,1
			s-1.5-0.3-1.9-1c-0.4-0.6-0.6-1.6-0.6-2.8c0-1.2,0.2-2.2,0.6-2.8C21.6,403.4,22.3,403.1,23.1,403.1 M23.1,403.8
			c-0.5,0-0.9,0.2-1.1,0.8s-0.4,1.3-0.4,2.3s0.1,1.8,0.4,2.2s0.6,0.8,1.1,0.8s0.9-0.2,1.1-0.8c0.2-0.5,0.4-1.2,0.4-2.2
			s-0.1-1.8-0.4-2.3C24,404.1,23.6,403.8,23.1,403.8"/>
	</g>
	<g>
		<defs>
			<rect id="SVGID_9_" y="13" width="411.1" height="456.3"/>
		</defs>
		<clipPath id="SVGID_10_">
			<use xlink:href="#SVGID_9_"  style="overflow:visible;"/>
		</clipPath>
		<line class="st4" x1="33.3" y1="349.8" x2="29.8" y2="349.8"/>
	</g>
	<g>
		<defs>
			<rect id="SVGID_11_" y="13" width="411.1" height="456.3"/>
		</defs>
		<clipPath id="SVGID_12_">
			<use xlink:href="#SVGID_11_"  style="overflow:visible;"/>
		</clipPath>
		<line class="st5" x1="33.3" y1="349.8" x2="29.8" y2="349.8"/>
	</g>
	<g>
		<defs>
			<rect id="SVGID_13_" y="13" width="411.1" height="456.3"/>
		</defs>
		<clipPath id="SVGID_14_">
			<use xlink:href="#SVGID_13_"  style="overflow:visible;"/>
		</clipPath>
		<path class="st6" d="M14.6,346.4h3.9v0.8h-3v1.8c0.1-0.1,0.3-0.1,0.4-0.1c0.1,0,0.3,0,0.4,0c0.8,0,1.4,0.2,1.9,0.7
			s0.7,1.1,0.7,1.8c0,0.8-0.2,1.4-0.7,1.8s-1.2,0.6-2.1,0.6c-0.3,0-0.6,0-0.9-0.1c-0.3,0-0.6-0.1-1-0.2v-1c0.3,0.2,0.6,0.3,0.9,0.4
			c0.3,0.1,0.6,0.1,1,0.1c0.6,0,1-0.1,1.3-0.4s0.5-0.7,0.5-1.2s-0.2-0.9-0.5-1.2c-0.3-0.3-0.8-0.5-1.3-0.5c-0.3,0-0.5,0-0.8,0.1
			s-0.5,0.1-0.8,0.3v-3.7"/>
	</g>
	<g>
		<defs>
			<rect id="SVGID_15_" y="13" width="411.1" height="456.3"/>
		</defs>
		<clipPath id="SVGID_16_">
			<use xlink:href="#SVGID_15_"  style="overflow:visible;"/>
		</clipPath>
		<path class="st7" d="M23.1,346.2c0.8,0,1.4,0.3,1.9,1c0.4,0.6,0.7,1.6,0.7,2.8c0,1.2-0.2,2.2-0.7,2.8c-0.4,0.6-1.1,1-1.9,1
			s-1.5-0.3-1.9-1c-0.4-0.6-0.6-1.6-0.6-2.8c0-1.2,0.2-2.2,0.6-2.8C21.6,346.6,22.3,346.2,23.1,346.2 M23.1,347
			c-0.5,0-0.9,0.2-1.1,0.8s-0.4,1.2-0.4,2.2s0.1,1.8,0.4,2.2s0.6,0.8,1.1,0.8s0.9-0.2,1.1-0.8c0.2-0.5,0.4-1.2,0.4-2.2
			s-0.1-1.8-0.4-2.2C24,347.3,23.6,347,23.1,347"/>
	</g>
	<g>
		<defs>
			<rect id="SVGID_17_" y="13" width="411.1" height="456.3"/>
		</defs>
		<clipPath id="SVGID_18_">
			<use xlink:href="#SVGID_17_"  style="overflow:visible;"/>
		</clipPath>
		<line class="st8" x1="33.3" y1="293" x2="29.8" y2="293"/>
	</g>
	<g>
		<defs>
			<rect id="SVGID_19_" y="13" width="411.1" height="456.3"/>
		</defs>
		<clipPath id="SVGID_20_">
			<use xlink:href="#SVGID_19_"  style="overflow:visible;"/>
		</clipPath>
		<line class="st9" x1="33.3" y1="293" x2="29.8" y2="293"/>
	</g>
	<g>
		<defs>
			<rect id="SVGID_21_" y="13" width="411.1" height="456.3"/>
		</defs>
		<clipPath id="SVGID_22_">
			<use xlink:href="#SVGID_21_"  style="overflow:visible;"/>
		</clipPath>
		<path class="st10" d="M18.8,289.7v0.9c-0.2-0.1-0.5-0.2-0.8-0.3c-0.3-0.1-0.5-0.1-0.8-0.1c-0.7,0-1.2,0.2-1.5,0.7
			c-0.3,0.4-0.5,1.1-0.6,2c0.2-0.3,0.4-0.5,0.7-0.6c0.3-0.2,0.6-0.2,1-0.2c0.7,0,1.3,0.2,1.7,0.7c0.4,0.4,0.6,1,0.6,1.8
			s-0.2,1.3-0.7,1.8s-1,0.7-1.8,0.7c-0.8,0-1.5-0.3-1.9-1c-0.4-0.6-0.7-1.6-0.7-2.8c0-1.1,0.3-2.1,0.8-2.8c0.5-0.7,1.3-1,2.2-1
			c0.2,0,0.5,0,0.8,0.1C18.3,289.5,18.5,289.6,18.8,289.7 M16.9,292.8c-0.4,0-0.8,0.2-1.1,0.5c-0.3,0.3-0.4,0.7-0.4,1.2
			s0.1,0.9,0.4,1.2c0.3,0.3,0.6,0.4,1.1,0.4s0.8-0.1,1-0.4c0.3-0.3,0.4-0.7,0.4-1.2s-0.1-0.9-0.4-1.2
			C17.6,292.9,17.3,292.8,16.9,292.8"/>
	</g>
	<g>
		<defs>
			<rect id="SVGID_23_" y="13" width="411.1" height="456.3"/>
		</defs>
		<clipPath id="SVGID_24_">
			<use xlink:href="#SVGID_23_"  style="overflow:visible;"/>
		</clipPath>
		<path class="st11" d="M23.1,289.4c0.8,0,1.4,0.3,1.9,1c0.4,0.6,0.7,1.6,0.7,2.8c0,1.2-0.2,2.2-0.7,2.8c-0.4,0.6-1.1,1-1.9,1
			s-1.5-0.3-1.9-1c-0.4-0.6-0.6-1.6-0.6-2.8c0-1.2,0.2-2.2,0.6-2.8C21.6,289.7,22.3,289.4,23.1,289.4 M23.1,290.2
			c-0.5,0-0.9,0.2-1.1,0.8s-0.4,1.2-0.4,2.2s0.1,1.8,0.4,2.2s0.6,0.8,1.1,0.8s0.9-0.2,1.1-0.8c0.2-0.5,0.4-1.2,0.4-2.2
			s-0.1-1.8-0.4-2.2C24,290.4,23.6,290.2,23.1,290.2"/>
	</g>
	<g>
		<defs>
			<rect id="SVGID_25_" y="13" width="411.1" height="456.3"/>
		</defs>
		<clipPath id="SVGID_26_">
			<use xlink:href="#SVGID_25_"  style="overflow:visible;"/>
		</clipPath>
		<line class="st12" x1="33.3" y1="236.2" x2="29.8" y2="236.2"/>
	</g>
	<g>
		<defs>
			<rect id="SVGID_27_" y="13" width="411.1" height="456.3"/>
		</defs>
		<clipPath id="SVGID_28_">
			<use xlink:href="#SVGID_27_"  style="overflow:visible;"/>
		</clipPath>
		<line class="st13" x1="33.3" y1="236.2" x2="29.8" y2="236.2"/>
	</g>
	<g>
		<defs>
			<rect id="SVGID_29_" y="13" width="411.1" height="456.3"/>
		</defs>
		<clipPath id="SVGID_30_">
			<use xlink:href="#SVGID_29_"  style="overflow:visible;"/>
		</clipPath>
		<polyline class="st14" points="14.4,232.7 19.1,232.7 19.1,233.1 16.4,240 15.4,240 17.9,233.5 14.4,233.5 14.4,232.7 		"/>
	</g>
	<g>
		<defs>
			<rect id="SVGID_31_" y="13" width="411.1" height="456.3"/>
		</defs>
		<clipPath id="SVGID_32_">
			<use xlink:href="#SVGID_31_"  style="overflow:visible;"/>
		</clipPath>
		<path class="st15" d="M23.1,232.5c0.8,0,1.4,0.3,1.9,1c0.4,0.6,0.7,1.6,0.7,2.8s-0.2,2.2-0.7,2.8c-0.4,0.6-1.1,1-1.9,1
			s-1.5-0.3-1.9-1c-0.4-0.6-0.6-1.6-0.6-2.8s0.2-2.2,0.6-2.8S22.3,232.5,23.1,232.5 M23.1,233.3c-0.5,0-0.9,0.2-1.1,0.8
			s-0.4,1.2-0.4,2.2s0.1,1.8,0.4,2.2s0.6,0.8,1.1,0.8s0.9-0.2,1.1-0.8c0.2-0.5,0.4-1.2,0.4-2.2s-0.1-1.8-0.4-2.2
			C24,233.6,23.6,233.3,23.1,233.3"/>
	</g>
	<g>
		<defs>
			<rect id="SVGID_33_" y="13" width="411.1" height="456.3"/>
		</defs>
		<clipPath id="SVGID_34_">
			<use xlink:href="#SVGID_33_"  style="overflow:visible;"/>
		</clipPath>
		<line class="st16" x1="33.3" y1="179.3" x2="29.8" y2="179.3"/>
	</g>
	<g>
		<defs>
			<rect id="SVGID_35_" y="13" width="411.1" height="456.3"/>
		</defs>
		<clipPath id="SVGID_36_">
			<use xlink:href="#SVGID_35_"  style="overflow:visible;"/>
		</clipPath>
		<line class="st17" x1="33.3" y1="179.3" x2="29.8" y2="179.3"/>
	</g>
	<g>
		<defs>
			<rect id="SVGID_37_" y="13" width="411.1" height="456.3"/>
		</defs>
		<clipPath id="SVGID_38_">
			<use xlink:href="#SVGID_37_"  style="overflow:visible;"/>
		</clipPath>
		<path class="st18" d="M15.4,177.7c0,0.4,0.1,0.7,0.4,0.9c0.2,0.2,0.6,0.3,1,0.3s0.8-0.1,1-0.3s0.4-0.5,0.4-0.9s-0.1-0.7-0.4-0.9
			c-0.2-0.2-0.6-0.3-1-0.3s-0.8,0.1-1,0.3S15.4,177.3,15.4,177.7 M15.7,179.2c-0.4-0.1-0.8-0.3-1-0.6s-0.3-0.6-0.3-1.1
			c0-0.6,0.2-1,0.6-1.4c0.4-0.3,1-0.5,1.7-0.5s1.3,0.2,1.7,0.5c0.4,0.3,0.6,0.8,0.6,1.4c0,0.4-0.1,0.8-0.4,1.1s-0.6,0.5-1,0.6
			c0.5,0.1,0.8,0.3,1.1,0.6c0.3,0.3,0.4,0.7,0.4,1.2c0,0.7-0.2,1.2-0.7,1.6c-0.4,0.4-1,0.6-1.8,0.6c-0.8,0-1.4-0.2-1.9-0.6
			c-0.4-0.4-0.6-0.9-0.6-1.6c0-0.5,0.1-0.9,0.4-1.2C14.9,179.6,15.3,179.4,15.7,179.2 M16.7,179.7c-0.5,0-0.8,0.1-1.1,0.4
			c-0.3,0.2-0.4,0.6-0.4,1s0.1,0.8,0.4,1c0.3,0.2,0.6,0.4,1.1,0.4s0.8-0.1,1.1-0.4c0.3-0.2,0.4-0.6,0.4-1s-0.1-0.8-0.4-1
			C17.6,179.8,17.2,179.7,16.7,179.7"/>
	</g>
	<g>
		<defs>
			<rect id="SVGID_39_" y="13" width="411.1" height="456.3"/>
		</defs>
		<clipPath id="SVGID_40_">
			<use xlink:href="#SVGID_39_"  style="overflow:visible;"/>
		</clipPath>
		<path class="st19" d="M23.1,175.7c0.8,0,1.4,0.3,1.9,1c0.4,0.7,0.7,1.6,0.7,2.8s-0.2,2.2-0.7,2.8c-0.4,0.6-1.1,1-1.9,1
			s-1.5-0.3-1.9-1c-0.4-0.6-0.6-1.6-0.6-2.8s0.2-2.2,0.6-2.8C21.6,176,22.3,175.7,23.1,175.7 M23.1,176.5c-0.5,0-0.9,0.2-1.1,0.8
			s-0.4,1.2-0.4,2.2s0.1,1.8,0.4,2.2s0.6,0.8,1.1,0.8s0.9-0.2,1.1-0.8c0.2-0.5,0.4-1.2,0.4-2.2s-0.1-1.8-0.4-2.2
			C24,176.7,23.6,176.5,23.1,176.5"/>
	</g>
	<g>
		<defs>
			<rect id="SVGID_41_" y="13" width="411.1" height="456.3"/>
		</defs>
		<clipPath id="SVGID_42_">
			<use xlink:href="#SVGID_41_"  style="overflow:visible;"/>
		</clipPath>
		<line class="st20" x1="33.3" y1="122.5" x2="29.8" y2="122.5"/>
	</g>
	<g>
		<defs>
			<rect id="SVGID_43_" y="13" width="411.1" height="456.3"/>
		</defs>
		<clipPath id="SVGID_44_">
			<use xlink:href="#SVGID_43_"  style="overflow:visible;"/>
		</clipPath>
		<line class="st21" x1="33.3" y1="122.5" x2="29.8" y2="122.5"/>
	</g>
	<g>
		<defs>
			<rect id="SVGID_45_" y="13" width="411.1" height="456.3"/>
		</defs>
		<clipPath id="SVGID_46_">
			<use xlink:href="#SVGID_45_"  style="overflow:visible;"/>
		</clipPath>
		<path class="st22" d="M16.6,123c0.4,0,0.8-0.2,1-0.5s0.4-0.7,0.4-1.2s-0.1-0.9-0.4-1.2c-0.3-0.3-0.6-0.5-1-0.5s-0.8,0.2-1.1,0.5
			s-0.4,0.7-0.4,1.2s0.1,1,0.4,1.2S16.2,123,16.6,123 M14.7,126.1v-0.9c0.2,0.1,0.5,0.2,0.8,0.3c0.2,0.1,0.5,0.1,0.7,0.1
			c0.6,0,1.1-0.2,1.5-0.6c0.3-0.4,0.5-1.1,0.6-2c-0.2,0.3-0.4,0.5-0.7,0.6c-0.3,0.1-0.6,0.2-1,0.2c-0.7,0-1.3-0.2-1.7-0.7
			s-0.6-1-0.6-1.8c0-0.7,0.2-1.3,0.7-1.8c0.4-0.5,1-0.7,1.8-0.7s1.5,0.3,1.9,1s0.7,1.6,0.7,2.8c0,1.2-0.3,2.1-0.8,2.8
			c-0.6,0.7-1.3,1-2.2,1c-0.2,0-0.5,0-0.8-0.1C15.2,126.3,14.9,126.2,14.7,126.1"/>
	</g>
	<g>
		<defs>
			<rect id="SVGID_47_" y="13" width="411.1" height="456.3"/>
		</defs>
		<clipPath id="SVGID_48_">
			<use xlink:href="#SVGID_47_"  style="overflow:visible;"/>
		</clipPath>
		<path class="st23" d="M23.1,118.9c0.8,0,1.4,0.3,1.9,1c0.4,0.7,0.7,1.6,0.7,2.8c0,1.2-0.2,2.2-0.7,2.8c-0.4,0.6-1.1,1-1.9,1
			s-1.5-0.3-1.9-1c-0.4-0.6-0.6-1.6-0.6-2.8c0-1.2,0.2-2.2,0.6-2.8C21.6,119.2,22.3,118.9,23.1,118.9 M23.1,119.6
			c-0.5,0-0.9,0.2-1.1,0.8s-0.4,1.2-0.4,2.2s0.1,1.8,0.4,2.2s0.6,0.8,1.1,0.8s0.9-0.2,1.1-0.8c0.2-0.5,0.4-1.2,0.4-2.2
			s-0.1-1.8-0.4-2.2C24,119.9,23.6,119.6,23.1,119.6"/>
	</g>
	<g>
		<defs>
			<rect id="SVGID_49_" y="13" width="411.1" height="456.3"/>
		</defs>
		<clipPath id="SVGID_50_">
			<use xlink:href="#SVGID_49_"  style="overflow:visible;"/>
		</clipPath>
		<line class="st24" x1="33.3" y1="65.7" x2="29.8" y2="65.7"/>
	</g>
	<g>
		<defs>
			<rect id="SVGID_51_" y="13" width="411.1" height="456.3"/>
		</defs>
		<clipPath id="SVGID_52_">
			<use xlink:href="#SVGID_51_"  style="overflow:visible;"/>
		</clipPath>
		<line class="st25" x1="33.3" y1="65.7" x2="29.8" y2="65.7"/>
	</g>
	<g>
		<defs>
			<rect id="SVGID_53_" y="13" width="411.1" height="456.3"/>
		</defs>
		<clipPath id="SVGID_54_">
			<use xlink:href="#SVGID_53_"  style="overflow:visible;"/>
		</clipPath>
		<polyline class="st26" points="8.4,68.6 10.1,68.6 10.1,63.1 8.3,63.4 8.3,62.5 10,62.2 11,62.2 11,68.6 12.6,68.6 12.6,69.4 
			8.4,69.4 8.4,68.6 		"/>
	</g>
	<g>
		<defs>
			<rect id="SVGID_55_" y="13" width="411.1" height="456.3"/>
		</defs>
		<clipPath id="SVGID_56_">
			<use xlink:href="#SVGID_55_"  style="overflow:visible;"/>
		</clipPath>
		<path class="st27" d="M16.7,62c0.8,0,1.4,0.3,1.9,1c0.4,0.7,0.6,1.6,0.6,2.8c0,1.2-0.2,2.2-0.6,2.8s-1.1,1-1.9,1
			c-0.8,0-1.5-0.3-1.9-1c-0.4-0.6-0.6-1.6-0.6-2.8c0-1.2,0.2-2.2,0.6-2.8C15.3,62.4,15.9,62,16.7,62 M16.7,62.8
			c-0.5,0-0.9,0.2-1.2,0.8c-0.3,0.5-0.4,1.2-0.4,2.2s0.1,1.8,0.4,2.2c0.3,0.5,0.6,0.8,1.2,0.8c0.5,0,0.9-0.2,1.1-0.8
			c0.2-0.5,0.4-1.2,0.4-2.2s-0.1-1.8-0.4-2.2C17.6,63.1,17.3,62.8,16.7,62.8"/>
	</g>
	<g>
		<defs>
			<rect id="SVGID_57_" y="13" width="411.1" height="456.3"/>
		</defs>
		<clipPath id="SVGID_58_">
			<use xlink:href="#SVGID_57_"  style="overflow:visible;"/>
		</clipPath>
		<path class="st28" d="M23.1,62c0.8,0,1.4,0.3,1.9,1c0.4,0.7,0.7,1.6,0.7,2.8c0,1.2-0.2,2.2-0.7,2.8c-0.4,0.6-1.1,1-1.9,1
			s-1.5-0.3-1.9-1c-0.4-0.6-0.6-1.6-0.6-2.8c0-1.2,0.2-2.2,0.6-2.8C21.7,62.4,22.3,62,23.1,62 M23.1,62.8c-0.5,0-0.9,0.2-1.1,0.8
			s-0.4,1.2-0.4,2.2s0.1,1.8,0.4,2.2s0.6,0.8,1.1,0.8s0.9-0.2,1.1-0.8c0.2-0.5,0.4-1.2,0.4-2.2s-0.1-1.8-0.4-2.2
			C24,63.1,23.6,62.8,23.1,62.8"/>
	</g>
	<g>
		<defs>
			<rect id="SVGID_59_" y="13" width="411.1" height="456.3"/>
		</defs>
		<clipPath id="SVGID_60_">
			<use xlink:href="#SVGID_59_"  style="overflow:visible;"/>
		</clipPath>
		<g class="st29">
			<g>
				<defs>
					<rect id="SVGID_61_" x="33.3" y="23.7" width="279" height="434.9"/>
				</defs>
				<clipPath id="SVGID_62_">
					<use xlink:href="#SVGID_61_"  style="overflow:visible;"/>
				</clipPath>
				<line class="st30" x1="33.3" y1="126" x2="312.3" y2="43.5"/>
			</g>
		</g>
	</g>
	<g>
		<defs>
			<rect id="SVGID_63_" y="13" width="411.1" height="456.3"/>
		</defs>
		<clipPath id="SVGID_64_">
			<use xlink:href="#SVGID_63_"  style="overflow:visible;"/>
		</clipPath>
		<g class="st31">
			<g>
				<defs>
					<rect id="SVGID_65_" x="33.3" y="23.7" width="279" height="434.9"/>
				</defs>
				<clipPath id="SVGID_66_">
					<use xlink:href="#SVGID_65_"  style="overflow:visible;"/>
				</clipPath>
				<line class="st32" x1="33.3" y1="329.5" x2="312.3" y2="89.6"/>
			</g>
		</g>
	</g>
	<g>
		<defs>
			<rect id="SVGID_67_" y="13" width="411.1" height="456.3"/>
		</defs>
		<clipPath id="SVGID_68_">
			<use xlink:href="#SVGID_67_"  style="overflow:visible;"/>
		</clipPath>
		<g class="st33">
			<g>
				<defs>
					<rect id="SVGID_69_" x="33.3" y="23.7" width="279" height="434.9"/>
				</defs>
				<clipPath id="SVGID_70_">
					<use xlink:href="#SVGID_69_"  style="overflow:visible;"/>
				</clipPath>
				<line class="st34" x1="33.3" y1="438.8" x2="312.3" y2="132.5"/>
			</g>
		</g>
	</g>
	<g>
		<defs>
			<rect id="SVGID_71_" y="13" width="411.1" height="456.3"/>
		</defs>
		<clipPath id="SVGID_72_">
			<use xlink:href="#SVGID_71_"  style="overflow:visible;"/>
		</clipPath>
		<g class="st35">
			<g>
				<defs>
					<rect id="SVGID_73_" x="33.3" y="23.7" width="279" height="434.9"/>
				</defs>
				<clipPath id="SVGID_74_">
					<use xlink:href="#SVGID_73_"  style="overflow:visible;"/>
				</clipPath>
				<line class="st36" x1="33.3" y1="254.2" x2="312.3" y2="148.6"/>
			</g>
		</g>
	</g>
	<g>
		<defs>
			<rect id="SVGID_75_" y="13" width="411.1" height="456.3"/>
		</defs>
		<clipPath id="SVGID_76_">
			<use xlink:href="#SVGID_75_"  style="overflow:visible;"/>
		</clipPath>
		<g class="st37">
			<g>
				<defs>
					<rect id="SVGID_77_" x="33.3" y="23.7" width="279" height="434.9"/>
				</defs>
				<clipPath id="SVGID_78_">
					<use xlink:href="#SVGID_77_"  style="overflow:visible;"/>
				</clipPath>
				<line class="st38" x1="33.3" y1="282.2" x2="312.3" y2="153.4"/>
			</g>
		</g>
	</g>
	<g>
		<defs>
			<rect id="SVGID_79_" y="13" width="411.1" height="456.3"/>
		</defs>
		<clipPath id="SVGID_80_">
			<use xlink:href="#SVGID_79_"  style="overflow:visible;"/>
		</clipPath>
		<g class="st39">
			<g>
				<defs>
					<rect id="SVGID_81_" x="33.3" y="23.7" width="279" height="434.9"/>
				</defs>
				<clipPath id="SVGID_82_">
					<use xlink:href="#SVGID_81_"  style="overflow:visible;"/>
				</clipPath>
				<line class="st40" x1="33.3" y1="201.1" x2="312.3" y2="180.3"/>
			</g>
		</g>
	</g>
	<g>
		<defs>
			<rect id="SVGID_83_" y="13" width="411.1" height="456.3"/>
		</defs>
		<clipPath id="SVGID_84_">
			<use xlink:href="#SVGID_83_"  style="overflow:visible;"/>
		</clipPath>
		<g class="st41">
			<g>
				<defs>
					<rect id="SVGID_85_" x="33.3" y="23.7" width="279" height="434.9"/>
				</defs>
				<clipPath id="SVGID_86_">
					<use xlink:href="#SVGID_85_"  style="overflow:visible;"/>
				</clipPath>
				<line class="st42" x1="33.3" y1="247.1" x2="312.3" y2="190.6"/>
			</g>
		</g>
	</g>
	<g>
		<defs>
			<rect id="SVGID_87_" y="13" width="411.1" height="456.3"/>
		</defs>
		<clipPath id="SVGID_88_">
			<use xlink:href="#SVGID_87_"  style="overflow:visible;"/>
		</clipPath>
		<g class="st43">
			<g>
				<defs>
					<rect id="SVGID_89_" x="33.3" y="23.7" width="279" height="434.9"/>
				</defs>
				<clipPath id="SVGID_90_">
					<use xlink:href="#SVGID_89_"  style="overflow:visible;"/>
				</clipPath>
				<line class="st44" x1="33.3" y1="366.7" x2="312.3" y2="221"/>
			</g>
		</g>
	</g>
	<g>
		<defs>
			<rect id="SVGID_91_" y="13" width="411.1" height="456.3"/>
		</defs>
		<clipPath id="SVGID_92_">
			<use xlink:href="#SVGID_91_"  style="overflow:visible;"/>
		</clipPath>
		<g class="st45">
			<g>
				<defs>
					<rect id="SVGID_93_" x="33.3" y="23.7" width="279" height="434.9"/>
				</defs>
				<clipPath id="SVGID_94_">
					<use xlink:href="#SVGID_93_"  style="overflow:visible;"/>
				</clipPath>
				<line class="st46" x1="33.3" y1="293.5" x2="312.3" y2="239.2"/>
			</g>
		</g>
	</g>
	<g>
		<defs>
			<rect id="SVGID_95_" y="13" width="411.1" height="456.3"/>
		</defs>
		<clipPath id="SVGID_96_">
			<use xlink:href="#SVGID_95_"  style="overflow:visible;"/>
		</clipPath>
		<g class="st47">
			<g>
				<defs>
					<rect id="SVGID_97_" x="33.3" y="23.7" width="279" height="434.9"/>
				</defs>
				<clipPath id="SVGID_98_">
					<use xlink:href="#SVGID_97_"  style="overflow:visible;"/>
				</clipPath>
				<line class="st48" x1="33.3" y1="362.4" x2="312.3" y2="244.6"/>
			</g>
		</g>
	</g>
	<g>
		<defs>
			<rect id="SVGID_99_" y="13" width="411.1" height="456.3"/>
		</defs>
		<clipPath id="SVGID_100_">
			<use xlink:href="#SVGID_99_"  style="overflow:visible;"/>
		</clipPath>
		<line class="st49" x1="33.3" y1="458.6" x2="33.3" y2="23.7"/>
	</g>
	<g>
		<defs>
			<rect id="SVGID_101_" y="13" width="411.1" height="456.3"/>
		</defs>
		<clipPath id="SVGID_102_">
			<use xlink:href="#SVGID_101_"  style="overflow:visible;"/>
		</clipPath>
		<line class="st50" x1="312.3" y1="458.6" x2="312.3" y2="23.7"/>
	</g>
	<g>
		<defs>
			<rect id="SVGID_103_" y="13" width="411.1" height="456.3"/>
		</defs>
		<clipPath id="SVGID_104_">
			<use xlink:href="#SVGID_103_"  style="overflow:visible;"/>
		</clipPath>
		<line class="st51" x1="33.3" y1="458.6" x2="312.3" y2="458.6"/>
	</g>
	<g>
		<defs>
			<rect id="SVGID_105_" y="13" width="411.1" height="456.3"/>
		</defs>
		<clipPath id="SVGID_106_">
			<use xlink:href="#SVGID_105_"  style="overflow:visible;"/>
		</clipPath>
		<g class="st52">
			<path class="st53" d="M347.2,316h54.7c1.3,0,2-0.7,2-2V168.3c0-1.3-0.7-2-2-2h-54.7c-1.3,0-2,0.7-2,2V314
				C345.2,315.3,345.8,316,347.2,316z"/>
			<path class="st54" d="M347.2,316h54.7c1.3,0,2-0.7,2-2V168.3c0-1.3-0.7-2-2-2h-54.7c-1.3,0-2,0.7-2,2V314
				C345.2,315.3,345.8,316,347.2,316z"/>
		</g>
	</g>
	<g>
		<defs>
			<rect id="SVGID_107_" y="13" width="411.1" height="456.3"/>
		</defs>
		<clipPath id="SVGID_108_">
			<use xlink:href="#SVGID_107_"  style="overflow:visible;"/>
		</clipPath>
		<line class="st55" x1="349.2" y1="174.4" x2="369.2" y2="174.4"/>
	</g>
	<g>
		<defs>
			<rect id="SVGID_109_" y="13" width="411.1" height="456.3"/>
		</defs>
		<clipPath id="SVGID_110_">
			<use xlink:href="#SVGID_109_"  style="overflow:visible;"/>
		</clipPath>
		<path class="st56" d="M380,170.6h1.1l2.8,7.3h-1l-0.7-1.9H379l-0.7,1.9h-1L380,170.6 M380.6,171.6l-1.3,3.6h2.7L380.6,171.6"/>
	</g>
	<g>
		<defs>
			<rect id="SVGID_111_" y="13" width="411.1" height="456.3"/>
		</defs>
		<clipPath id="SVGID_112_">
			<use xlink:href="#SVGID_111_"  style="overflow:visible;"/>
		</clipPath>
		<polyline class="st57" points="384,170.6 390.2,170.6 390.2,171.4 387.6,171.4 387.6,177.9 386.6,177.9 386.6,171.4 384,171.4 
			384,170.6 		"/>
	</g>
	<g>
		<defs>
			<rect id="SVGID_113_" y="13" width="411.1" height="456.3"/>
		</defs>
		<clipPath id="SVGID_114_">
			<use xlink:href="#SVGID_113_"  style="overflow:visible;"/>
		</clipPath>
		<polyline class="st58" points="391.1,170.6 392.1,170.6 392.1,177 395.6,177 395.6,177.9 391.1,177.9 391.1,170.6 		"/>
	</g>
	<g>
		<defs>
			<rect id="SVGID_115_" y="13" width="411.1" height="456.3"/>
		</defs>
		<clipPath id="SVGID_116_">
			<use xlink:href="#SVGID_115_"  style="overflow:visible;"/>
		</clipPath>
		<line class="st59" x1="349.2" y1="189" x2="369.2" y2="189"/>
	</g>
	<g>
		<defs>
			<rect id="SVGID_117_" y="13" width="411.1" height="456.3"/>
		</defs>
		<clipPath id="SVGID_118_">
			<use xlink:href="#SVGID_117_"  style="overflow:visible;"/>
		</clipPath>
		<path class="st60" d="M378.2,185.3h2.2c0.8,0,1.4,0.2,1.9,0.6c0.4,0.4,0.6,0.9,0.6,1.6c0,0.7-0.2,1.3-0.6,1.6
			c-0.4,0.4-1,0.6-1.9,0.6h-1.2v2.9h-1V185.3 M379.1,186.1v2.7h1.2c0.5,0,0.8-0.1,1.1-0.4s0.4-0.6,0.4-1s-0.1-0.8-0.4-1
			s-0.6-0.4-1.1-0.4L379.1,186.1"/>
	</g>
	<g>
		<defs>
			<rect id="SVGID_119_" y="13" width="411.1" height="456.3"/>
		</defs>
		<clipPath id="SVGID_120_">
			<use xlink:href="#SVGID_119_"  style="overflow:visible;"/>
		</clipPath>
		<polyline class="st61" points="384.2,185.3 388.8,185.3 388.8,186.1 385.2,186.1 385.2,188.2 388.6,188.2 388.6,189.1 
			385.2,189.1 385.2,191.7 388.9,191.7 388.9,192.5 384.2,192.5 384.2,185.3 		"/>
	</g>
	<g>
		<defs>
			<rect id="SVGID_121_" y="13" width="411.1" height="456.3"/>
		</defs>
		<clipPath id="SVGID_122_">
			<use xlink:href="#SVGID_121_"  style="overflow:visible;"/>
		</clipPath>
		<polyline class="st62" points="390.5,185.3 391.5,185.3 391.5,188.3 394.8,185.3 396,185.3 392.4,188.7 396.3,192.5 395,192.5 
			391.5,189 391.5,192.5 390.5,192.5 390.5,185.3 		"/>
	</g>
	<g>
		<defs>
			<rect id="SVGID_123_" y="13" width="411.1" height="456.3"/>
		</defs>
		<clipPath id="SVGID_124_">
			<use xlink:href="#SVGID_123_"  style="overflow:visible;"/>
		</clipPath>
		<line class="st63" x1="349.2" y1="203.7" x2="369.2" y2="203.7"/>
	</g>
	<g>
		<defs>
			<rect id="SVGID_125_" y="13" width="411.1" height="456.3"/>
		</defs>
		<clipPath id="SVGID_126_">
			<use xlink:href="#SVGID_125_"  style="overflow:visible;"/>
		</clipPath>
		<path class="st64" d="M378.2,199.9h2c1.4,0,2.4,0.3,3.1,0.9c0.7,0.6,1,1.5,1,2.8s-0.3,2.2-1,2.8s-1.7,0.9-3.1,0.9h-2V199.9
			 M379.1,200.7v5.7h1.2c1,0,1.7-0.2,2.2-0.7s0.7-1.2,0.7-2.2s-0.2-1.7-0.7-2.1c-0.5-0.5-1.2-0.7-2.2-0.7H379.1"/>
	</g>
	<g>
		<defs>
			<rect id="SVGID_127_" y="13" width="411.1" height="456.3"/>
		</defs>
		<clipPath id="SVGID_128_">
			<use xlink:href="#SVGID_127_"  style="overflow:visible;"/>
		</clipPath>
		<polyline class="st65" points="385.5,199.9 386.6,199.9 388.4,202.6 390.2,199.9 391.3,199.9 388.9,203.4 391.4,207.2 
			390.4,207.2 388.3,204.1 386.2,207.2 385.2,207.2 387.8,203.3 385.5,199.9 		"/>
	</g>
	<g>
		<defs>
			<rect id="SVGID_129_" y="13" width="411.1" height="456.3"/>
		</defs>
		<clipPath id="SVGID_130_">
			<use xlink:href="#SVGID_129_"  style="overflow:visible;"/>
		</clipPath>
		<path class="st66" d="M392.7,199.9h2.5c0.8,0,1.3,0.2,1.7,0.5c0.4,0.3,0.6,0.8,0.6,1.3c0,0.4-0.1,0.8-0.3,1.1
			c-0.2,0.3-0.5,0.4-0.9,0.5c0.5,0.1,0.9,0.3,1.1,0.7c0.3,0.3,0.4,0.7,0.4,1.2c0,0.7-0.2,1.2-0.7,1.5c-0.4,0.4-1.1,0.5-1.9,0.5h-2.6
			L392.7,199.9 M393.7,200.7v2.2h1.5c0.5,0,0.8-0.1,1.1-0.3c0.2-0.2,0.4-0.5,0.4-0.8c0-0.4-0.1-0.6-0.4-0.8
			c-0.2-0.2-0.6-0.3-1.1-0.3L393.7,200.7 M393.7,203.7v2.7h1.6c0.5,0,0.9-0.1,1.2-0.3c0.2-0.2,0.4-0.5,0.4-1s-0.1-0.8-0.4-1
			s-0.7-0.3-1.2-0.3L393.7,203.7"/>
	</g>
	<g>
		<defs>
			<rect id="SVGID_131_" y="13" width="411.1" height="456.3"/>
		</defs>
		<clipPath id="SVGID_132_">
			<use xlink:href="#SVGID_131_"  style="overflow:visible;"/>
		</clipPath>
		<line class="st67" x1="349.2" y1="218.4" x2="369.2" y2="218.4"/>
	</g>
	<g>
		<defs>
			<rect id="SVGID_133_" y="13" width="411.1" height="456.3"/>
		</defs>
		<clipPath id="SVGID_134_">
			<use xlink:href="#SVGID_133_"  style="overflow:visible;"/>
		</clipPath>
		<polyline class="st68" points="378.2,214.6 379.1,214.6 379.1,217.6 382.7,217.6 382.7,214.6 383.7,214.6 383.7,221.9 
			382.7,221.9 382.7,218.4 379.1,218.4 379.1,221.9 378.2,221.9 378.2,214.6 		"/>
	</g>
	<g>
		<defs>
			<rect id="SVGID_135_" y="13" width="411.1" height="456.3"/>
		</defs>
		<clipPath id="SVGID_136_">
			<use xlink:href="#SVGID_135_"  style="overflow:visible;"/>
		</clipPath>
		<polyline class="st69" points="385.7,214.6 387,214.6 390.2,220.7 390.2,214.6 391.2,214.6 391.2,221.9 389.9,221.9 386.6,215.8 
			386.6,221.9 385.7,221.9 385.7,214.6 		"/>
	</g>
	<g>
		<defs>
			<rect id="SVGID_137_" y="13" width="411.1" height="456.3"/>
		</defs>
		<clipPath id="SVGID_138_">
			<use xlink:href="#SVGID_137_"  style="overflow:visible;"/>
		</clipPath>
		<path class="st70" d="M393.2,214.6h2c1.4,0,2.4,0.3,3.1,0.9c0.7,0.6,1,1.5,1,2.8s-0.3,2.2-1,2.8s-1.7,0.9-3.1,0.9h-2V214.6
			 M394.1,215.4v5.7h1.2c1,0,1.7-0.2,2.2-0.7s0.7-1.2,0.7-2.2s-0.2-1.7-0.7-2.2c-0.5-0.4-1.2-0.7-2.2-0.7L394.1,215.4"/>
	</g>
	<g>
		<defs>
			<rect id="SVGID_139_" y="13" width="411.1" height="456.3"/>
		</defs>
		<clipPath id="SVGID_140_">
			<use xlink:href="#SVGID_139_"  style="overflow:visible;"/>
		</clipPath>
		<line class="st71" x1="349.2" y1="233.1" x2="369.2" y2="233.1"/>
	</g>
	<g>
		<defs>
			<rect id="SVGID_141_" y="13" width="411.1" height="456.3"/>
		</defs>
		<clipPath id="SVGID_142_">
			<use xlink:href="#SVGID_141_"  style="overflow:visible;"/>
		</clipPath>
		<polyline class="st72" points="378.2,229.3 379.1,229.3 379.1,235.7 382.7,235.7 382.7,236.6 378.2,236.6 378.2,229.3 		"/>
	</g>
	<g>
		<defs>
			<rect id="SVGID_143_" y="13" width="411.1" height="456.3"/>
		</defs>
		<clipPath id="SVGID_144_">
			<use xlink:href="#SVGID_143_"  style="overflow:visible;"/>
		</clipPath>
		<path class="st73" d="M385.6,229.3h1.1l2.8,7.3h-1l-0.7-1.9h-3.3l-0.7,1.9h-1L385.6,229.3 M386.2,230.2l-1.3,3.6h2.7L386.2,230.2"
			/>
	</g>
	<g>
		<defs>
			<rect id="SVGID_145_" y="13" width="411.1" height="456.3"/>
		</defs>
		<clipPath id="SVGID_146_">
			<use xlink:href="#SVGID_145_"  style="overflow:visible;"/>
		</clipPath>
		<polyline class="st74" points="390.2,229.3 391.3,229.3 393.1,232 394.9,229.3 396,229.3 393.6,232.8 396.1,236.6 395.1,236.6 
			393,233.5 390.9,236.6 389.9,236.6 392.5,232.7 390.2,229.3 		"/>
	</g>
	<g>
		<defs>
			<rect id="SVGID_147_" y="13" width="411.1" height="456.3"/>
		</defs>
		<clipPath id="SVGID_148_">
			<use xlink:href="#SVGID_147_"  style="overflow:visible;"/>
		</clipPath>
		<line class="st75" x1="349.2" y1="247.7" x2="369.2" y2="247.7"/>
	</g>
	<g>
		<defs>
			<rect id="SVGID_149_" y="13" width="411.1" height="456.3"/>
		</defs>
		<clipPath id="SVGID_150_">
			<use xlink:href="#SVGID_149_"  style="overflow:visible;"/>
		</clipPath>
		<path class="st76" d="M381.1,243.8c1,0,1.8,0.3,2.5,1c0.6,0.7,0.9,1.6,0.9,2.8s-0.3,2.1-0.9,2.8s-1.4,1-2.5,1c-1,0-1.9-0.3-2.5-1
			s-0.9-1.6-0.9-2.8c0-1.1,0.3-2.1,0.9-2.8C379.3,244.2,380.1,243.8,381.1,243.8 M381.1,244.6c-0.7,0-1.3,0.3-1.7,0.8
			c-0.4,0.5-0.6,1.3-0.6,2.2s0.2,1.6,0.6,2.2c0.4,0.5,1,0.8,1.7,0.8s1.3-0.3,1.7-0.8c0.4-0.5,0.6-1.3,0.6-2.2s-0.2-1.6-0.6-2.2
			C382.4,244.9,381.8,244.6,381.1,244.6"/>
	</g>
	<g>
		<defs>
			<rect id="SVGID_151_" y="13" width="411.1" height="456.3"/>
		</defs>
		<clipPath id="SVGID_152_">
			<use xlink:href="#SVGID_151_"  style="overflow:visible;"/>
		</clipPath>
		<path class="st77" d="M387,244.8v2.6h1.2c0.5,0,0.8-0.1,1.1-0.3s0.4-0.5,0.4-1c0-0.4-0.1-0.7-0.4-1c-0.2-0.2-0.6-0.3-1.1-0.3H387
			 M389.5,247.8c0.2,0.1,0.4,0.2,0.6,0.5c0.2,0.2,0.4,0.6,0.6,1l1,2h-1.1l-0.9-1.9c-0.2-0.5-0.5-0.8-0.7-1s-0.5-0.2-0.9-0.2H387v3.1
			h-1V244h2.2c0.8,0,1.5,0.2,1.9,0.5c0.4,0.4,0.6,0.9,0.6,1.6c0,0.5-0.1,0.9-0.3,1.2C390.2,247.5,389.9,247.7,389.5,247.8"/>
	</g>
	<g>
		<defs>
			<rect id="SVGID_153_" y="13" width="411.1" height="456.3"/>
		</defs>
		<clipPath id="SVGID_154_">
			<use xlink:href="#SVGID_153_"  style="overflow:visible;"/>
		</clipPath>
		<path class="st78" d="M393,243.9h2c1.4,0,2.4,0.3,3.1,0.9c0.7,0.6,1,1.5,1,2.8s-0.3,2.2-1,2.8s-1.7,0.9-3.1,0.9h-2V243.9
			 M394,244.8v5.7h1.2c1,0,1.7-0.2,2.2-0.7s0.7-1.2,0.7-2.2s-0.2-1.7-0.7-2.2c-0.5-0.4-1.2-0.7-2.2-0.7L394,244.8"/>
	</g>
	<g>
		<defs>
			<rect id="SVGID_155_" y="13" width="411.1" height="456.3"/>
		</defs>
		<clipPath id="SVGID_156_">
			<use xlink:href="#SVGID_155_"  style="overflow:visible;"/>
		</clipPath>
		<line class="st79" x1="349.2" y1="262.4" x2="369.2" y2="262.4"/>
	</g>
	<g>
		<defs>
			<rect id="SVGID_157_" y="13" width="411.1" height="456.3"/>
		</defs>
		<clipPath id="SVGID_158_">
			<use xlink:href="#SVGID_157_"  style="overflow:visible;"/>
		</clipPath>
		<polyline class="st80" points="378.2,258.6 379.1,258.6 379.1,265.1 382.7,265.1 382.7,265.9 378.2,265.9 378.2,258.6 		"/>
	</g>
	<g>
		<defs>
			<rect id="SVGID_159_" y="13" width="411.1" height="456.3"/>
		</defs>
		<clipPath id="SVGID_160_">
			<use xlink:href="#SVGID_159_"  style="overflow:visible;"/>
		</clipPath>
		<polyline class="st81" points="383.7,258.6 384.7,258.6 384.7,261.6 388.3,261.6 388.3,258.6 389.3,258.6 389.3,265.9 
			388.3,265.9 388.3,262.4 384.7,262.4 384.7,265.9 383.7,265.9 383.7,258.6 		"/>
	</g>
	<g>
		<defs>
			<rect id="SVGID_161_" y="13" width="411.1" height="456.3"/>
		</defs>
		<clipPath id="SVGID_162_">
			<use xlink:href="#SVGID_161_"  style="overflow:visible;"/>
		</clipPath>
		<path class="st82" d="M392.2,259.4v2.6h1.2c0.5,0,0.8-0.1,1.1-0.3c0.3-0.2,0.4-0.5,0.4-1c0-0.4-0.1-0.7-0.4-1
			c-0.2-0.2-0.6-0.3-1.1-0.3H392.2 M394.7,262.5c0.2,0.1,0.4,0.2,0.6,0.5c0.2,0.2,0.4,0.6,0.6,1l1,2h-1.1l-0.9-1.9
			c-0.2-0.5-0.5-0.8-0.7-1s-0.5-0.2-0.9-0.2h-1.1v3.1h-1v-7.3h2.2c0.8,0,1.5,0.2,1.9,0.5c0.4,0.4,0.6,0.9,0.6,1.6
			c0,0.5-0.1,0.9-0.3,1.2C395.4,262.2,395.1,262.4,394.7,262.5"/>
	</g>
	<g>
		<defs>
			<rect id="SVGID_163_" y="13" width="411.1" height="456.3"/>
		</defs>
		<clipPath id="SVGID_164_">
			<use xlink:href="#SVGID_163_"  style="overflow:visible;"/>
		</clipPath>
		<line class="st83" x1="349.2" y1="277.1" x2="369.2" y2="277.1"/>
	</g>
	<g>
		<defs>
			<rect id="SVGID_165_" y="13" width="411.1" height="456.3"/>
		</defs>
		<clipPath id="SVGID_166_">
			<use xlink:href="#SVGID_165_"  style="overflow:visible;"/>
		</clipPath>
		<polyline class="st84" points="378.2,273.3 379.1,273.3 379.1,276.3 382.7,276.3 382.7,273.3 383.7,273.3 383.7,280.6 
			382.7,280.6 382.7,277.1 379.1,277.1 379.1,280.6 378.2,280.6 378.2,273.3 		"/>
	</g>
	<g>
		<defs>
			<rect id="SVGID_167_" y="13" width="411.1" height="456.3"/>
		</defs>
		<clipPath id="SVGID_168_">
			<use xlink:href="#SVGID_167_"  style="overflow:visible;"/>
		</clipPath>
		<polyline class="st85" points="385.7,273.3 386.7,273.3 386.7,276.4 389.9,273.3 391.2,273.3 387.6,276.7 391.5,280.6 
			390.2,280.6 386.7,277.1 386.7,280.6 385.7,280.6 385.7,273.3 		"/>
	</g>
	<g>
		<defs>
			<rect id="SVGID_169_" y="13" width="411.1" height="456.3"/>
		</defs>
		<clipPath id="SVGID_170_">
			<use xlink:href="#SVGID_169_"  style="overflow:visible;"/>
		</clipPath>
		<path class="st86" d="M397.2,279.5v-2h-1.6v-0.8h2.6v3.1c-0.4,0.3-0.8,0.5-1.3,0.6s-1,0.2-1.5,0.2c-1.1,0-2-0.3-2.7-1
			c-0.6-0.7-1-1.6-1-2.8c0-1.2,0.3-2.1,1-2.8c0.6-0.7,1.5-1,2.7-1c0.5,0,0.9,0.1,1.3,0.2s0.8,0.3,1.2,0.5v1
			c-0.4-0.3-0.8-0.5-1.2-0.7c-0.4-0.2-0.8-0.2-1.3-0.2c-0.9,0-1.6,0.2-2,0.8c-0.4,0.5-0.7,1.2-0.7,2.2s0.2,1.7,0.7,2.2
			c0.4,0.5,1.1,0.7,2,0.7c0.3,0,0.6,0,0.9-0.1S397,279.7,397.2,279.5"/>
	</g>
	<g>
		<defs>
			<rect id="SVGID_171_" y="13" width="411.1" height="456.3"/>
		</defs>
		<clipPath id="SVGID_172_">
			<use xlink:href="#SVGID_171_"  style="overflow:visible;"/>
		</clipPath>
		<line class="st87" x1="349.2" y1="291.7" x2="369.2" y2="291.7"/>
	</g>
	<g>
		<defs>
			<rect id="SVGID_173_" y="13" width="411.1" height="456.3"/>
		</defs>
		<clipPath id="SVGID_174_">
			<use xlink:href="#SVGID_173_"  style="overflow:visible;"/>
		</clipPath>
		<path class="st88" d="M383.6,288.5v1c-0.3-0.3-0.7-0.5-1.1-0.7s-0.8-0.2-1.2-0.2c-0.8,0-1.5,0.3-1.9,0.8s-0.7,1.2-0.7,2.2
			s0.2,1.7,0.7,2.2c0.4,0.5,1.1,0.8,1.9,0.8c0.4,0,0.8-0.1,1.2-0.2c0.4-0.1,0.7-0.4,1.1-0.7v1c-0.4,0.2-0.7,0.4-1.1,0.5
			s-0.8,0.2-1.2,0.2c-1.1,0-2-0.3-2.6-1s-1-1.6-1-2.8c0-1.2,0.3-2.1,1-2.8c0.6-0.7,1.5-1,2.6-1c0.4,0,0.9,0.1,1.2,0.2
			C382.9,288.1,383.3,288.3,383.6,288.5"/>
	</g>
	<g>
		<defs>
			<rect id="SVGID_175_" y="13" width="411.1" height="456.3"/>
		</defs>
		<clipPath id="SVGID_176_">
			<use xlink:href="#SVGID_175_"  style="overflow:visible;"/>
		</clipPath>
		<path class="st89" d="M385.1,288h2c1.4,0,2.4,0.3,3.1,0.9s1,1.5,1,2.8s-0.3,2.2-1,2.8c-0.7,0.6-1.7,0.9-3.1,0.9h-2V288
			 M386.1,288.8v5.7h1.2c1,0,1.7-0.2,2.2-0.7s0.7-1.2,0.7-2.2s-0.2-1.7-0.7-2.1s-1.2-0.7-2.2-0.7L386.1,288.8"/>
	</g>
	<g>
		<defs>
			<rect id="SVGID_177_" y="13" width="411.1" height="456.3"/>
		</defs>
		<clipPath id="SVGID_178_">
			<use xlink:href="#SVGID_177_"  style="overflow:visible;"/>
		</clipPath>
		<path class="st90" d="M397.8,294.2v-2h-1.6v-0.8h2.6v3.1c-0.4,0.3-0.8,0.5-1.3,0.6s-1,0.2-1.5,0.2c-1.1,0-2-0.3-2.7-1
			c-0.6-0.7-1-1.6-1-2.8c0-1.2,0.3-2.1,1-2.8c0.6-0.7,1.5-1,2.7-1c0.5,0,0.9,0.1,1.3,0.2s0.8,0.3,1.2,0.5v1
			c-0.4-0.3-0.8-0.5-1.2-0.7c-0.4-0.2-0.8-0.2-1.3-0.2c-0.9,0-1.6,0.2-2,0.8c-0.4,0.5-0.7,1.2-0.7,2.2s0.2,1.7,0.7,2.2
			c0.4,0.5,1.1,0.7,2,0.7c0.3,0,0.6,0,0.9-0.1S397.6,294.3,397.8,294.2"/>
	</g>
	<g>
		<defs>
			<rect id="SVGID_179_" y="13" width="411.1" height="456.3"/>
		</defs>
		<clipPath id="SVGID_180_">
			<use xlink:href="#SVGID_179_"  style="overflow:visible;"/>
		</clipPath>
		<line class="st91" x1="349.2" y1="306.4" x2="369.2" y2="306.4"/>
	</g>
	<g>
		<defs>
			<rect id="SVGID_181_" y="13" width="411.1" height="456.3"/>
		</defs>
		<clipPath id="SVGID_182_">
			<use xlink:href="#SVGID_181_"  style="overflow:visible;"/>
		</clipPath>
		<path class="st92" d="M380,302.6h1.1l2.8,7.3h-1l-0.7-1.9H379l-0.7,1.9h-1L380,302.6 M380.6,303.6l-1.3,3.6h2.7L380.6,303.6"/>
	</g>
	<g>
		<defs>
			<rect id="SVGID_183_" y="13" width="411.1" height="456.3"/>
		</defs>
		<clipPath id="SVGID_184_">
			<use xlink:href="#SVGID_183_"  style="overflow:visible;"/>
		</clipPath>
		<polyline class="st93" points="385,302.6 386.5,302.6 388.3,307.6 390.2,302.6 391.7,302.6 391.7,309.9 390.7,309.9 390.7,303.5 
			388.8,308.5 387.8,308.5 386,303.5 386,309.9 385,309.9 385,302.6 		"/>
	</g>
	<g>
		<defs>
			<rect id="SVGID_185_" y="13" width="411.1" height="456.3"/>
		</defs>
		<clipPath id="SVGID_186_">
			<use xlink:href="#SVGID_185_"  style="overflow:visible;"/>
		</clipPath>
		<path class="st94" d="M398,302.9v1c-0.4-0.2-0.7-0.3-1.1-0.4c-0.3-0.1-0.7-0.1-1-0.1c-0.5,0-1,0.1-1.2,0.3
			c-0.3,0.2-0.4,0.5-0.4,0.9c0,0.3,0.1,0.6,0.3,0.7c0.2,0.2,0.6,0.3,1.1,0.4l0.6,0.1c0.7,0.1,1.3,0.4,1.6,0.7
			c0.3,0.4,0.5,0.8,0.5,1.4c0,0.7-0.2,1.2-0.7,1.6s-1.2,0.5-2.1,0.5c-0.4,0-0.7,0-1.1-0.1s-0.8-0.2-1.2-0.3v-1
			c0.4,0.2,0.8,0.4,1.2,0.5c0.4,0.1,0.8,0.2,1.1,0.2c0.6,0,1-0.1,1.3-0.3c0.3-0.2,0.5-0.5,0.5-0.9s-0.1-0.6-0.3-0.8
			c-0.2-0.2-0.6-0.3-1.1-0.4l-0.6-0.1c-0.7-0.1-1.3-0.4-1.6-0.7c-0.3-0.3-0.5-0.7-0.5-1.3c0-0.6,0.2-1.1,0.7-1.5s1.1-0.6,1.9-0.6
			c0.3,0,0.7,0,1,0.1C397.3,302.7,397.6,302.8,398,302.9"/>
	</g>
</g>
<g>
	<g>
		<defs>
			<rect id="SVGID_187_" y="791" width="469" height="15"/>
		</defs>
		<clipPath id="SVGID_188_">
			<use xlink:href="#SVGID_187_"  style="overflow:visible;"/>
		</clipPath>
		<g class="st95">
			<text transform="matrix(1 0 0 1 0 802)" class="st102" style="font-family:'TimesNewRomanPSMT';">!&quot;#!$&quot;#%&amp;&apos;&quot;%</text>
		</g>
	</g>
</g>
<g>
	<g>
		<defs>
			<rect id="SVGID_189_" y="791" width="469" height="15"/>
		</defs>
		<clipPath id="SVGID_190_">
			<use xlink:href="#SVGID_189_"  style="overflow:visible;"/>
		</clipPath>
		<g class="st96">
			<text transform="matrix(1 0 0 1 55.9629 802)" class="st102" style="font-family:'TimesNewRomanPSMT';">()</text>
		</g>
	</g>
</g>
<g>
	<g>
		<defs>
			<rect id="SVGID_191_" y="791" width="469" height="15"/>
		</defs>
		<clipPath id="SVGID_192_">
			<use xlink:href="#SVGID_191_"  style="overflow:visible;"/>
		</clipPath>
		<g class="st97">
			<text transform="matrix(1 0 0 1 67.9629 802)" class="st102" style="font-family:'TimesNewRomanPSMT';">*+!,-%.$+#/%</text>
		</g>
	</g>
</g>
<g>
	<g>
		<defs>
			<rect id="SVGID_193_" y="791" width="469" height="15"/>
		</defs>
		<clipPath id="SVGID_194_">
			<use xlink:href="#SVGID_193_"  style="overflow:visible;"/>
		</clipPath>
		<g class="st98">
			<text transform="matrix(1 0 0 1 137.2793 802)" class="st102" style="font-family:'TimesNewRomanPSMT';">,0%12#%/$+#%*#$&quot;</text>
		</g>
	</g>
</g>
<g>
	<g>
		<defs>
			<rect id="SVGID_195_" y="791" width="469" height="15"/>
		</defs>
		<clipPath id="SVGID_196_">
			<use xlink:href="#SVGID_195_"  style="overflow:visible;"/>
		</clipPath>
		<g class="st99">
			<text transform="matrix(1 0 0 1 215.5781 802)" class="st102" style="font-family:'TimesNewRomanPSMT';">%</text>
		</g>
	</g>
</g>
<rect x="315" y="85.3" class="st100" width="65" height="31"/>
<text transform="matrix(1 0 0 1 315 93.8)" class="st101 st102">PEK</text>
<rect x="20.7" y="466" class="st100" width="40" height="10.5"/>
<text transform="matrix(1 0 0 1 20.7219 474.4995)" class="st101 st102">2007</text>
<rect x="295" y="466" class="st100" width="40" height="10.5"/>
<text transform="matrix(1 0 0 1 295 474.4995)" class="st101 st102">2017</text>
<rect x="2.7" y="7" class="st100" width="76" height="32"/>
<text transform="matrix(1 0 0 1 2.7 15.52)" class="st103 st102">Million</text>
</svg>
