<svg id="Layer_1" data-name="Layer 1" xmlns="http://www.w3.org/2000/svg" xmlns:xlink="http://www.w3.org/1999/xlink" viewBox="0 0 863 401.29"><defs><style>.cls-1,.cls-10,.cls-21,.cls-4,.cls-6,.cls-7{fill:none;}.cls-2{clip-path:url(#clip-path);}.cls-3{clip-path:url(#clip-path-2);}.cls-4{stroke:gray;}.cls-21,.cls-4,.cls-7{stroke-linecap:square;}.cls-10,.cls-4,.cls-6,.cls-7{stroke-linejoin:round;}.cls-4,.cls-7{stroke-width:2px;}.cls-5{fill:#555;}.cls-6{stroke:#555;stroke-width:0.8px;}.cls-10,.cls-7{stroke:blue;}.cls-8{clip-path:url(#clip-path-20);}.cls-9{fill:#fff;}.cls-11{clip-path:url(#clip-path-21);}.cls-12{clip-path:url(#clip-path-22);}.cls-13{clip-path:url(#clip-path-23);}.cls-14{clip-path:url(#clip-path-24);}.cls-15{clip-path:url(#clip-path-25);}.cls-16{clip-path:url(#clip-path-26);}.cls-17{clip-path:url(#clip-path-27);}.cls-18{clip-path:url(#clip-path-28);}.cls-19{clip-path:url(#clip-path-29);}.cls-20{clip-path:url(#clip-path-30);}.cls-21{stroke:#fff;stroke-miterlimit:10;}.cls-22{font-size:18px;font-family:MyriadPro-Regular, Myriad Pro;}</style><clipPath id="clip-path" transform="translate(-25 -9.48)"><rect class="cls-1" x="-85" y="-50" width="1080" height="504"/></clipPath><clipPath id="clip-path-2" transform="translate(-25 -9.48)"><rect class="cls-1" x="50" y="10.48" width="837" height="380.52"/></clipPath><clipPath id="clip-path-20" transform="translate(-25 -9.48)"><rect class="cls-1" x="85.05" y="157.62" width="6" height="6"/></clipPath><clipPath id="clip-path-21" transform="translate(-25 -9.48)"><rect class="cls-1" x="161.14" y="140.52" width="6" height="6"/></clipPath><clipPath id="clip-path-22" transform="translate(-25 -9.48)"><rect class="cls-1" x="237.23" y="24.78" width="6" height="6"/></clipPath><clipPath id="clip-path-23" transform="translate(-25 -9.48)"><rect class="cls-1" x="313.32" y="108.96" width="6" height="6"/></clipPath><clipPath id="clip-path-24" transform="translate(-25 -9.48)"><rect class="cls-1" x="389.41" y="114.22" width="6" height="6"/></clipPath><clipPath id="clip-path-25" transform="translate(-25 -9.48)"><rect class="cls-1" x="465.5" y="136.58" width="6" height="6"/></clipPath><clipPath id="clip-path-26" transform="translate(-25 -9.48)"><rect class="cls-1" x="541.59" y="201.03" width="6" height="6"/></clipPath><clipPath id="clip-path-27" transform="translate(-25 -9.48)"><rect class="cls-1" x="617.68" y="276" width="6" height="6"/></clipPath><clipPath id="clip-path-28" transform="translate(-25 -9.48)"><rect class="cls-1" x="693.77" y="311.51" width="6" height="6"/></clipPath><clipPath id="clip-path-29" transform="translate(-25 -9.48)"><rect class="cls-1" x="769.86" y="328.61" width="6" height="6"/></clipPath><clipPath id="clip-path-30" transform="translate(-25 -9.48)"><rect class="cls-1" x="845.95" y="370.7" width="6" height="6"/></clipPath></defs><title>Graphic3-ChineseGrowth</title><g class="cls-2"><g class="cls-3"><line class="cls-4" x1="63.04" y1="381.52" x2="63.04" y2="1"/></g><line class="cls-5" x1="63.04" y1="381.52" x2="63.04" y2="385.02"/><line class="cls-6" x1="63.04" y1="381.52" x2="63.04" y2="385.02"/><path class="cls-5" d="M59.75,408.15h5.16v1.24H58v-1.24l2.29-2.34c1-1,1.58-1.61,1.83-1.89a6.25,6.25,0,0,0,1-1.35,2.51,2.51,0,0,0,.29-1.1,1.81,1.81,0,0,0-.62-1.41,2.29,2.29,0,0,0-1.59-.55,5.3,5.3,0,0,0-1.47.24,8.81,8.81,0,0,0-1.65.73V399a11.86,11.86,0,0,1,1.67-.54,6.27,6.27,0,0,1,1.42-.18,4,4,0,0,1,2.7.86,2.8,2.8,0,0,1,1,2.26,3.39,3.39,0,0,1-.25,1.28,6,6,0,0,1-.92,1.42q-.18.23-1.17,1.23l-2.76,2.84" transform="translate(-25 -9.48)"/><path class="cls-5" d="M71.18,398.26A3.22,3.22,0,0,1,74,399.72a9.64,9.64,0,0,1,0,8.43,3.47,3.47,0,0,1-5.63,0,9.73,9.73,0,0,1,0-8.43,3.21,3.21,0,0,1,2.82-1.46m0,1.17a1.85,1.85,0,0,0-1.72,1.13,10.28,10.28,0,0,0,0,6.75,1.89,1.89,0,0,0,3.45,0,10.28,10.28,0,0,0,0-6.75,1.86,1.86,0,0,0-1.73-1.13" transform="translate(-25 -9.48)"/><path class="cls-5" d="M80.72,398.26a3.22,3.22,0,0,1,2.81,1.46,9.64,9.64,0,0,1,0,8.43,3.47,3.47,0,0,1-5.63,0,9.73,9.73,0,0,1,0-8.43,3.21,3.21,0,0,1,2.82-1.46m0,1.17A1.85,1.85,0,0,0,79,400.56a10.28,10.28,0,0,0,0,6.75,1.89,1.89,0,0,0,3.45,0,10.28,10.28,0,0,0,0-6.75,1.86,1.86,0,0,0-1.73-1.13" transform="translate(-25 -9.48)"/><polyline class="cls-5" points="61.72 388.98 68.76 388.98 68.76 389.61 64.78 399.91 63.24 399.91 66.97 390.22 61.72 390.22 61.72 388.98"/><polyline class="cls-5" points="73.84 388.98 75.09 388.98 71.28 401.29 70.03 401.29 73.84 388.98"/><path class="cls-5" d="M104.86,398.26a3.21,3.21,0,0,1,2.8,1.46,9.55,9.55,0,0,1,0,8.43,3.46,3.46,0,0,1-5.62,0,9.73,9.73,0,0,1,0-8.43,3.2,3.2,0,0,1,2.82-1.46m0,1.17a1.86,1.86,0,0,0-1.73,1.13,10.28,10.28,0,0,0,0,6.75,1.89,1.89,0,0,0,3.45,0,10.28,10.28,0,0,0,0-6.75,1.85,1.85,0,0,0-1.72-1.13" transform="translate(-25 -9.48)"/><path class="cls-5" d="M112.37,401.23a1.7,1.7,0,0,0,.53,1.34,2.64,2.64,0,0,0,3,0,1.7,1.7,0,0,0,.54-1.34,1.66,1.66,0,0,0-.54-1.32,2.55,2.55,0,0,0-3,0,1.65,1.65,0,0,0-.53,1.32m.54,2.34a2.68,2.68,0,0,1-1.48-.88,2.4,2.4,0,0,1-.53-1.59,2.51,2.51,0,0,1,.93-2.07,4.66,4.66,0,0,1,5.13,0,2.54,2.54,0,0,1,.93,2.07,2.41,2.41,0,0,1-.54,1.59,2.65,2.65,0,0,1-1.47.88,3.06,3.06,0,0,1,1.67,1,2.75,2.75,0,0,1,.6,1.77,3,3,0,0,1-1,2.43,5,5,0,0,1-5.56,0,3,3,0,0,1-1-2.43,2.64,2.64,0,0,1,.6-1.77,2.92,2.92,0,0,1,1.66-1m1.49.63a2.39,2.39,0,0,0-1.67.57,2,2,0,0,0-.6,1.55,2,2,0,0,0,.6,1.56,2.39,2.39,0,0,0,1.67.55,2.29,2.29,0,0,0,1.65-.57,2,2,0,0,0,.61-1.54,2.06,2.06,0,0,0-.6-1.55,2.37,2.37,0,0,0-1.66-.57" transform="translate(-25 -9.48)"/><g class="cls-3"><line class="cls-4" x1="139.14" y1="381.52" x2="139.14" y2="1"/></g><line class="cls-5" x1="139.14" y1="381.52" x2="139.14" y2="385.02"/><line class="cls-6" x1="139.14" y1="381.52" x2="139.14" y2="385.02"/><path class="cls-5" d="M135.84,408.15H141v1.24h-6.94v-1.24l2.29-2.34c1-1,1.58-1.61,1.83-1.89a6.25,6.25,0,0,0,1-1.35,2.51,2.51,0,0,0,.29-1.1,1.81,1.81,0,0,0-.62-1.41,2.29,2.29,0,0,0-1.59-.55,5.3,5.3,0,0,0-1.47.24,8.81,8.81,0,0,0-1.65.73V399a11.86,11.86,0,0,1,1.67-.54,6.27,6.27,0,0,1,1.42-.18,4,4,0,0,1,2.7.86,2.8,2.8,0,0,1,1,2.26,3.39,3.39,0,0,1-.25,1.28,6,6,0,0,1-.92,1.42q-.18.23-1.17,1.23l-2.76,2.84" transform="translate(-25 -9.48)"/><path class="cls-5" d="M147.27,398.26a3.22,3.22,0,0,1,2.81,1.46,9.64,9.64,0,0,1,0,8.43,3.47,3.47,0,0,1-5.63,0,9.73,9.73,0,0,1,0-8.43,3.21,3.21,0,0,1,2.82-1.46m0,1.17a1.85,1.85,0,0,0-1.72,1.13,10.28,10.28,0,0,0,0,6.75,1.89,1.89,0,0,0,3.45,0,10.28,10.28,0,0,0,0-6.75,1.86,1.86,0,0,0-1.73-1.13" transform="translate(-25 -9.48)"/><path class="cls-5" d="M156.81,398.26a3.22,3.22,0,0,1,2.81,1.46,9.64,9.64,0,0,1,0,8.43,3.47,3.47,0,0,1-5.63,0,9.73,9.73,0,0,1,0-8.43,3.21,3.21,0,0,1,2.82-1.46m0,1.17a1.85,1.85,0,0,0-1.72,1.13,10.28,10.28,0,0,0,0,6.75,1.89,1.89,0,0,0,3.45,0,10.28,10.28,0,0,0,0-6.75,1.86,1.86,0,0,0-1.73-1.13" transform="translate(-25 -9.48)"/><path class="cls-5" d="M164.33,401.23a1.69,1.69,0,0,0,.52,1.34,2.66,2.66,0,0,0,3,0,1.7,1.7,0,0,0,.54-1.34,1.66,1.66,0,0,0-.54-1.32,2.57,2.57,0,0,0-3,0,1.65,1.65,0,0,0-.52,1.32m.54,2.34a2.71,2.71,0,0,1-1.49-.88,2.4,2.4,0,0,1-.52-1.59,2.51,2.51,0,0,1,.93-2.07,3.89,3.89,0,0,1,2.56-.77,4,4,0,0,1,2.57.77,2.57,2.57,0,0,1,.93,2.07,2.41,2.41,0,0,1-.54,1.59,2.65,2.65,0,0,1-1.47.88,3,3,0,0,1,1.66,1,2.75,2.75,0,0,1,.6,1.77,3.06,3.06,0,0,1-1,2.43,5,5,0,0,1-5.57,0,3.06,3.06,0,0,1-1-2.43,2.69,2.69,0,0,1,.6-1.77,3,3,0,0,1,1.67-1m1.48.63a2.37,2.37,0,0,0-1.66.57,2,2,0,0,0-.6,1.55,2,2,0,0,0,.6,1.56,2.36,2.36,0,0,0,1.66.55,2.27,2.27,0,0,0,1.65-.57,2,2,0,0,0,.62-1.54,2.06,2.06,0,0,0-.6-1.55,2.39,2.39,0,0,0-1.67-.57" transform="translate(-25 -9.48)"/><polyline class="cls-5" points="149.93 388.98 151.18 388.98 147.37 401.29 146.12 401.29 149.93 388.98"/><path class="cls-5" d="M181,398.26a3.21,3.21,0,0,1,2.8,1.46,9.55,9.55,0,0,1,0,8.43,3.46,3.46,0,0,1-5.62,0,9.73,9.73,0,0,1,0-8.43,3.2,3.2,0,0,1,2.82-1.46m0,1.17a1.86,1.86,0,0,0-1.73,1.13,10.28,10.28,0,0,0,0,6.75,1.89,1.89,0,0,0,3.45,0,10.28,10.28,0,0,0,0-6.75,1.85,1.85,0,0,0-1.72-1.13" transform="translate(-25 -9.48)"/><path class="cls-5" d="M190.31,404.53a2,2,0,0,0,1.57-.67,3.26,3.26,0,0,0,0-3.74,2,2,0,0,0-1.57-.69,2,2,0,0,0-1.58.69,3.3,3.3,0,0,0,0,3.74,2,2,0,0,0,1.58.67m-2.94,4.64v-1.35a5,5,0,0,0,1.12.4,4.86,4.86,0,0,0,1.13.14,2.64,2.64,0,0,0,2.22-1,5.47,5.47,0,0,0,.9-3,3.24,3.24,0,0,1-1.08,1,3.17,3.17,0,0,1-1.44.33,3.44,3.44,0,0,1-2.61-1,4.27,4.27,0,0,1,0-5.42,3.58,3.58,0,0,1,2.66-1,3.31,3.31,0,0,1,2.89,1.46,7.48,7.48,0,0,1,1,4.21,6.45,6.45,0,0,1-1.23,4.13,4,4,0,0,1-3.3,1.53,7.21,7.21,0,0,1-1.13-.11,5.88,5.88,0,0,1-1.18-.31" transform="translate(-25 -9.48)"/><g class="cls-3"><line class="cls-4" x1="215.23" y1="381.52" x2="215.23" y2="1"/></g><line class="cls-5" x1="215.23" y1="381.52" x2="215.23" y2="385.02"/><line class="cls-6" x1="215.23" y1="381.52" x2="215.23" y2="385.02"/><path class="cls-5" d="M211.94,408.15h5.16v1.24h-6.95v-1.24l2.3-2.34q1.44-1.47,1.83-1.89a6.25,6.25,0,0,0,1-1.35,2.49,2.49,0,0,0,.28-1.1,1.83,1.83,0,0,0-.61-1.41,2.31,2.31,0,0,0-1.59-.55,5.24,5.24,0,0,0-1.47.24,8.53,8.53,0,0,0-1.65.73V399a11.76,11.76,0,0,1,1.66-.54,6.29,6.29,0,0,1,1.43-.18,4.07,4.07,0,0,1,2.7.86,2.83,2.83,0,0,1,1,2.26,3.22,3.22,0,0,1-.26,1.28,5.57,5.57,0,0,1-.91,1.42q-.18.23-1.17,1.23l-2.76,2.84" transform="translate(-25 -9.48)"/><path class="cls-5" d="M223.37,398.26a3.21,3.21,0,0,1,2.8,1.46,9.55,9.55,0,0,1,0,8.43,3.46,3.46,0,0,1-5.62,0,9.73,9.73,0,0,1,0-8.43,3.2,3.2,0,0,1,2.82-1.46m0,1.17a1.86,1.86,0,0,0-1.73,1.13,10.28,10.28,0,0,0,0,6.75,1.89,1.89,0,0,0,3.45,0,10.28,10.28,0,0,0,0-6.75,1.85,1.85,0,0,0-1.72-1.13" transform="translate(-25 -9.48)"/><path class="cls-5" d="M232.91,398.26a3.21,3.21,0,0,1,2.8,1.46,9.55,9.55,0,0,1,0,8.43,3.46,3.46,0,0,1-5.62,0,9.73,9.73,0,0,1,0-8.43,3.2,3.2,0,0,1,2.82-1.46m0,1.17a1.86,1.86,0,0,0-1.73,1.13,10.28,10.28,0,0,0,0,6.75,1.89,1.89,0,0,0,3.45,0,10.28,10.28,0,0,0,0-6.75,1.85,1.85,0,0,0-1.72-1.13" transform="translate(-25 -9.48)"/><path class="cls-5" d="M242.27,404.53a2,2,0,0,0,1.57-.67,3.26,3.26,0,0,0,0-3.74,2,2,0,0,0-1.57-.69,2,2,0,0,0-1.58.69,3.3,3.3,0,0,0,0,3.74,2,2,0,0,0,1.58.67m-2.94,4.64v-1.35a5,5,0,0,0,1.12.4,4.86,4.86,0,0,0,1.13.14,2.64,2.64,0,0,0,2.22-1,5.47,5.47,0,0,0,.9-3,3.24,3.24,0,0,1-1.08,1,3.17,3.17,0,0,1-1.44.33,3.44,3.44,0,0,1-2.61-1,4.27,4.27,0,0,1,0-5.42,3.58,3.58,0,0,1,2.66-1,3.31,3.31,0,0,1,2.89,1.46,7.48,7.48,0,0,1,1,4.21,6.45,6.45,0,0,1-1.23,4.13,4,4,0,0,1-3.3,1.53,7.21,7.21,0,0,1-1.13-.11,5.88,5.88,0,0,1-1.18-.31" transform="translate(-25 -9.48)"/><polyline class="cls-5" points="226.02 388.98 227.27 388.98 223.46 401.29 222.21 401.29 226.02 388.98"/><polyline class="cls-5" points="229.13 398.67 231.54 398.67 231.54 390.33 228.92 390.85 228.92 389.5 231.53 388.98 233.01 388.98 233.01 398.67 235.43 398.67 235.43 399.91 229.13 399.91 229.13 398.67"/><path class="cls-5" d="M266.58,398.26a3.22,3.22,0,0,1,2.81,1.46,9.64,9.64,0,0,1,0,8.43,3.47,3.47,0,0,1-5.63,0,9.73,9.73,0,0,1,0-8.43,3.21,3.21,0,0,1,2.82-1.46m0,1.17a1.85,1.85,0,0,0-1.72,1.13,10.28,10.28,0,0,0,0,6.75,1.89,1.89,0,0,0,3.45,0,10.28,10.28,0,0,0,0-6.75,1.86,1.86,0,0,0-1.73-1.13" transform="translate(-25 -9.48)"/><g class="cls-3"><line class="cls-4" x1="291.32" y1="381.52" x2="291.32" y2="1"/></g><line class="cls-5" x1="291.32" y1="381.52" x2="291.32" y2="385.02"/><line class="cls-6" x1="291.32" y1="381.52" x2="291.32" y2="385.02"/><path class="cls-5" d="M288,408.15h5.16v1.24h-6.95v-1.24l2.3-2.34q1.44-1.47,1.83-1.89a6.25,6.25,0,0,0,1-1.35,2.49,2.49,0,0,0,.28-1.1,1.83,1.83,0,0,0-.61-1.41,2.31,2.31,0,0,0-1.59-.55,5.24,5.24,0,0,0-1.47.24,8.53,8.53,0,0,0-1.65.73V399a11.76,11.76,0,0,1,1.66-.54,6.29,6.29,0,0,1,1.43-.18,4.07,4.07,0,0,1,2.7.86,2.83,2.83,0,0,1,1,2.26,3.22,3.22,0,0,1-.26,1.28,5.57,5.57,0,0,1-.91,1.42q-.18.23-1.17,1.23L288,408.15" transform="translate(-25 -9.48)"/><path class="cls-5" d="M299.46,398.26a3.21,3.21,0,0,1,2.8,1.46,9.55,9.55,0,0,1,0,8.43,3.46,3.46,0,0,1-5.62,0,9.73,9.73,0,0,1,0-8.43,3.2,3.2,0,0,1,2.82-1.46m0,1.17a1.86,1.86,0,0,0-1.73,1.13,10.28,10.28,0,0,0,0,6.75,1.89,1.89,0,0,0,3.45,0,10.28,10.28,0,0,0,0-6.75,1.85,1.85,0,0,0-1.72-1.13" transform="translate(-25 -9.48)"/><polyline class="cls-5" points="281.08 398.67 283.5 398.67 283.5 390.33 280.88 390.85 280.88 389.5 283.49 388.98 284.97 388.98 284.97 398.67 287.38 398.67 287.38 399.91 281.08 399.91 281.08 398.67"/><path class="cls-5" d="M318.54,398.26a3.21,3.21,0,0,1,2.8,1.46,9.55,9.55,0,0,1,0,8.43,3.46,3.46,0,0,1-5.62,0,9.73,9.73,0,0,1,0-8.43,3.2,3.2,0,0,1,2.82-1.46m0,1.17a1.86,1.86,0,0,0-1.73,1.13,10.28,10.28,0,0,0,0,6.75,1.89,1.89,0,0,0,3.45,0,10.28,10.28,0,0,0,0-6.75,1.85,1.85,0,0,0-1.72-1.13" transform="translate(-25 -9.48)"/><polyline class="cls-5" points="302.12 388.98 303.36 388.98 299.55 401.29 298.31 401.29 302.12 388.98"/><polyline class="cls-5" points="305.22 398.67 307.63 398.67 307.63 390.33 305.01 390.85 305.01 389.5 307.62 388.98 309.11 388.98 309.11 398.67 311.52 398.67 311.52 399.91 305.22 399.91 305.22 398.67"/><polyline class="cls-5" points="314.76 398.67 317.18 398.67 317.18 390.33 314.55 390.85 314.55 389.5 317.16 388.98 318.64 388.98 318.64 398.67 321.06 398.67 321.06 399.91 314.76 399.91 314.76 398.67"/><g class="cls-3"><line class="cls-4" x1="367.41" y1="381.52" x2="367.41" y2="1"/></g><line class="cls-5" x1="367.41" y1="381.52" x2="367.41" y2="385.02"/><line class="cls-6" x1="367.41" y1="381.52" x2="367.41" y2="385.02"/><path class="cls-5" d="M364.12,408.15h5.16v1.24h-6.95v-1.24l2.3-2.34q1.44-1.47,1.83-1.89a6.25,6.25,0,0,0,1-1.35,2.49,2.49,0,0,0,.28-1.1,1.83,1.83,0,0,0-.61-1.41,2.31,2.31,0,0,0-1.59-.55,5.24,5.24,0,0,0-1.47.24,8.53,8.53,0,0,0-1.65.73V399a11.76,11.76,0,0,1,1.66-.54,6.29,6.29,0,0,1,1.43-.18,4.07,4.07,0,0,1,2.7.86,2.83,2.83,0,0,1,1,2.26,3.22,3.22,0,0,1-.26,1.28,5.57,5.57,0,0,1-.91,1.42q-.18.23-1.17,1.23l-2.76,2.84" transform="translate(-25 -9.48)"/><path class="cls-5" d="M375.55,398.26a3.21,3.21,0,0,1,2.8,1.46,9.55,9.55,0,0,1,0,8.43,3.46,3.46,0,0,1-5.62,0,9.73,9.73,0,0,1,0-8.43,3.2,3.2,0,0,1,2.82-1.46m0,1.17a1.86,1.86,0,0,0-1.73,1.13,10.28,10.28,0,0,0,0,6.75,1.89,1.89,0,0,0,3.45,0,10.28,10.28,0,0,0,0-6.75,1.85,1.85,0,0,0-1.72-1.13" transform="translate(-25 -9.48)"/><polyline class="cls-5" points="357.18 398.67 359.59 398.67 359.59 390.33 356.97 390.85 356.97 389.5 359.58 388.98 361.06 388.98 361.06 398.67 363.48 398.67 363.48 399.91 357.18 399.91 357.18 398.67"/><polyline class="cls-5" points="366.72 398.67 369.13 398.67 369.13 390.33 366.51 390.85 366.51 389.5 369.12 388.98 370.6 388.98 370.6 398.67 373.02 398.67 373.02 399.91 366.72 399.91 366.72 398.67"/><polyline class="cls-5" points="378.21 388.98 379.45 388.98 375.64 401.29 374.4 401.29 378.21 388.98"/><polyline class="cls-5" points="381.31 398.67 383.73 398.67 383.73 390.33 381.1 390.85 381.1 389.5 383.71 388.98 385.2 388.98 385.2 398.67 387.61 398.67 387.61 399.91 381.31 399.91 381.31 398.67"/><path class="cls-5" d="M416.87,408.15H422v1.24h-6.94v-1.24l2.29-2.34c1-1,1.58-1.61,1.83-1.89a6.25,6.25,0,0,0,1-1.35,2.51,2.51,0,0,0,.29-1.1,1.81,1.81,0,0,0-.62-1.41,2.29,2.29,0,0,0-1.59-.55,5.3,5.3,0,0,0-1.47.24,8.81,8.81,0,0,0-1.65.73V399a11.86,11.86,0,0,1,1.67-.54,6.27,6.27,0,0,1,1.42-.18,4,4,0,0,1,2.7.86,2.8,2.8,0,0,1,1,2.26,3.39,3.39,0,0,1-.25,1.28,6,6,0,0,1-.92,1.42q-.18.23-1.17,1.23l-2.76,2.84" transform="translate(-25 -9.48)"/><g class="cls-3"><line class="cls-4" x1="443.5" y1="381.52" x2="443.5" y2="1"/></g><line class="cls-5" x1="443.5" y1="381.52" x2="443.5" y2="385.02"/><line class="cls-6" x1="443.5" y1="381.52" x2="443.5" y2="385.02"/><path class="cls-5" d="M440.21,408.15h5.16v1.24h-6.95v-1.24l2.3-2.34q1.44-1.47,1.83-1.89a6.25,6.25,0,0,0,1-1.35,2.49,2.49,0,0,0,.28-1.1,1.83,1.83,0,0,0-.61-1.41,2.31,2.31,0,0,0-1.59-.55,5.24,5.24,0,0,0-1.47.24,8.53,8.53,0,0,0-1.65.73V399a11.76,11.76,0,0,1,1.66-.54,6.29,6.29,0,0,1,1.43-.18,4.07,4.07,0,0,1,2.7.86,2.83,2.83,0,0,1,1,2.26,3.22,3.22,0,0,1-.26,1.28,5.57,5.57,0,0,1-.91,1.42q-.18.23-1.17,1.23l-2.76,2.84" transform="translate(-25 -9.48)"/><path class="cls-5" d="M451.64,398.26a3.21,3.21,0,0,1,2.8,1.46,9.55,9.55,0,0,1,0,8.43,3.46,3.46,0,0,1-5.62,0,9.73,9.73,0,0,1,0-8.43,3.2,3.2,0,0,1,2.82-1.46m0,1.17a1.86,1.86,0,0,0-1.73,1.13,10.28,10.28,0,0,0,0,6.75,1.89,1.89,0,0,0,3.45,0,10.28,10.28,0,0,0,0-6.75,1.85,1.85,0,0,0-1.72-1.13" transform="translate(-25 -9.48)"/><polyline class="cls-5" points="433.27 398.67 435.68 398.67 435.68 390.33 433.06 390.85 433.06 389.5 435.67 388.98 437.15 388.98 437.15 398.67 439.57 398.67 439.57 399.91 433.27 399.91 433.27 398.67"/><path class="cls-5" d="M468.83,408.15H474v1.24H467v-1.24l2.3-2.34q1.44-1.47,1.83-1.89a6.25,6.25,0,0,0,1-1.35,2.49,2.49,0,0,0,.28-1.1,1.83,1.83,0,0,0-.61-1.41,2.31,2.31,0,0,0-1.59-.55,5.24,5.24,0,0,0-1.47.24,8.53,8.53,0,0,0-1.65.73V399a11.76,11.76,0,0,1,1.66-.54,6.29,6.29,0,0,1,1.43-.18,4.07,4.07,0,0,1,2.7.86,2.83,2.83,0,0,1,1,2.26,3.22,3.22,0,0,1-.26,1.28,5.57,5.57,0,0,1-.91,1.42q-.18.23-1.17,1.23l-2.76,2.84" transform="translate(-25 -9.48)"/><polyline class="cls-5" points="454.3 388.98 455.54 388.98 451.73 401.29 450.49 401.29 454.3 388.98"/><polyline class="cls-5" points="457.4 398.67 459.82 398.67 459.82 390.33 457.19 390.85 457.19 389.5 459.8 388.98 461.29 388.98 461.29 398.67 463.7 398.67 463.7 399.91 457.4 399.91 457.4 398.67"/><path class="cls-5" d="M496.17,403.5a2.78,2.78,0,0,1,1.65.94,2.75,2.75,0,0,1,.6,1.77,3,3,0,0,1-1.11,2.51,5.05,5.05,0,0,1-3.16.87,7.78,7.78,0,0,1-1.43-.14,8.11,8.11,0,0,1-1.5-.39v-1.42a5,5,0,0,0,1.35.54,6.29,6.29,0,0,0,1.53.18,3.51,3.51,0,0,0,2.12-.54,1.9,1.9,0,0,0,.73-1.61,1.82,1.82,0,0,0-.67-1.5,3,3,0,0,0-1.89-.55h-1.28v-1.22h1.34a2.67,2.67,0,0,0,1.66-.43,1.48,1.48,0,0,0,.59-1.26,1.54,1.54,0,0,0-.6-1.29,2.85,2.85,0,0,0-1.71-.45,6.91,6.91,0,0,0-1.31.13,13.67,13.67,0,0,0-1.53.41v-1.32a15.76,15.76,0,0,1,1.58-.35,9.67,9.67,0,0,1,1.39-.12,4.25,4.25,0,0,1,2.66.77,2.48,2.48,0,0,1,1,2.07,2.31,2.31,0,0,1-.53,1.53,2.62,2.62,0,0,1-1.47.87" transform="translate(-25 -9.48)"/><g class="cls-3"><line class="cls-4" x1="519.59" y1="381.52" x2="519.59" y2="1"/></g><line class="cls-5" x1="519.59" y1="381.52" x2="519.59" y2="385.02"/><line class="cls-6" x1="519.59" y1="381.52" x2="519.59" y2="385.02"/><path class="cls-5" d="M516.3,408.15h5.16v1.24h-7v-1.24l2.3-2.34q1.44-1.47,1.83-1.89a6.25,6.25,0,0,0,1-1.35,2.49,2.49,0,0,0,.28-1.1,1.83,1.83,0,0,0-.61-1.41,2.31,2.31,0,0,0-1.59-.55,5.24,5.24,0,0,0-1.47.24,8.53,8.53,0,0,0-1.65.73V399a11.76,11.76,0,0,1,1.66-.54,6.29,6.29,0,0,1,1.43-.18,4.07,4.07,0,0,1,2.7.86,2.83,2.83,0,0,1,1,2.26,3.22,3.22,0,0,1-.26,1.28,5.57,5.57,0,0,1-.91,1.42q-.18.23-1.17,1.23l-2.76,2.84" transform="translate(-25 -9.48)"/><path class="cls-5" d="M527.73,398.26a3.21,3.21,0,0,1,2.8,1.46,9.55,9.55,0,0,1,0,8.43,3.46,3.46,0,0,1-5.62,0,9.73,9.73,0,0,1,0-8.43,3.2,3.2,0,0,1,2.82-1.46m0,1.17a1.86,1.86,0,0,0-1.73,1.13,10.28,10.28,0,0,0,0,6.75,1.89,1.89,0,0,0,3.45,0,10.28,10.28,0,0,0,0-6.75,1.85,1.85,0,0,0-1.72-1.13" transform="translate(-25 -9.48)"/><polyline class="cls-5" points="509.36 398.67 511.77 398.67 511.77 390.33 509.15 390.85 509.15 389.5 511.76 388.98 513.24 388.98 513.24 398.67 515.66 398.67 515.66 399.91 509.36 399.91 509.36 398.67"/><path class="cls-5" d="M548.13,403.5a2.81,2.81,0,0,1,1.65.94,2.75,2.75,0,0,1,.6,1.77,3.06,3.06,0,0,1-1.11,2.51,5.07,5.07,0,0,1-3.17.87,7.76,7.76,0,0,1-1.42-.14,8.11,8.11,0,0,1-1.5-.39v-1.42a4.77,4.77,0,0,0,1.35.54,6.29,6.29,0,0,0,1.53.18,3.47,3.47,0,0,0,2.11-.54,1.9,1.9,0,0,0,.74-1.61,1.83,1.83,0,0,0-.68-1.5,3,3,0,0,0-1.89-.55h-1.27v-1.22h1.33a2.7,2.7,0,0,0,1.67-.43,1.47,1.47,0,0,0,.58-1.26,1.54,1.54,0,0,0-.6-1.29,2.81,2.81,0,0,0-1.71-.45,6.81,6.81,0,0,0-1.3.13,12.61,12.61,0,0,0-1.53.41v-1.32a15.6,15.6,0,0,1,1.57-.35,9.81,9.81,0,0,1,1.4-.12,4.22,4.22,0,0,1,2.65.77,2.48,2.48,0,0,1,1,2.07,2.36,2.36,0,0,1-.52,1.53,2.66,2.66,0,0,1-1.47.87" transform="translate(-25 -9.48)"/><polyline class="cls-5" points="530.39 388.98 531.63 388.98 527.82 401.29 526.58 401.29 530.39 388.98"/><polyline class="cls-5" points="533.49 398.67 535.91 398.67 535.91 390.33 533.28 390.85 533.28 389.5 535.89 388.98 537.38 388.98 537.38 398.67 539.79 398.67 539.79 399.91 533.49 399.91 533.49 398.67"/><path class="cls-5" d="M571.45,398.46h1.86v7.12h1.56v1.23h-1.56v2.58h-1.47v-2.58h-4.93v-1.42l4.54-6.93m.39,1.29-3.73,5.83h3.73v-5.83" transform="translate(-25 -9.48)"/><g class="cls-3"><line class="cls-4" x1="595.68" y1="381.52" x2="595.68" y2="1"/></g><line class="cls-5" x1="595.68" y1="381.52" x2="595.68" y2="385.02"/><line class="cls-6" x1="595.68" y1="381.52" x2="595.68" y2="385.02"/><path class="cls-5" d="M592.39,408.15h5.16v1.24H590.6v-1.24l2.3-2.34q1.44-1.47,1.83-1.89a6.25,6.25,0,0,0,1-1.35,2.49,2.49,0,0,0,.28-1.1,1.83,1.83,0,0,0-.61-1.41,2.31,2.31,0,0,0-1.59-.55,5.24,5.24,0,0,0-1.47.24,8.53,8.53,0,0,0-1.65.73V399a11.76,11.76,0,0,1,1.66-.54,6.29,6.29,0,0,1,1.43-.18,4.07,4.07,0,0,1,2.7.86,2.83,2.83,0,0,1,1,2.26,3.22,3.22,0,0,1-.26,1.28,5.57,5.57,0,0,1-.91,1.42q-.18.23-1.17,1.23l-2.76,2.84" transform="translate(-25 -9.48)"/><path class="cls-5" d="M603.82,398.26a3.21,3.21,0,0,1,2.8,1.46,9.55,9.55,0,0,1,0,8.43,3.46,3.46,0,0,1-5.62,0,9.73,9.73,0,0,1,0-8.43,3.2,3.2,0,0,1,2.82-1.46m0,1.17a1.86,1.86,0,0,0-1.73,1.13,10.28,10.28,0,0,0,0,6.75,1.89,1.89,0,0,0,3.45,0,10.28,10.28,0,0,0,0-6.75,1.85,1.85,0,0,0-1.72-1.13" transform="translate(-25 -9.48)"/><polyline class="cls-5" points="585.45 398.67 587.86 398.67 587.86 390.33 585.24 390.85 585.24 389.5 587.85 388.98 589.33 388.98 589.33 398.67 591.75 398.67 591.75 399.91 585.45 399.91 585.45 398.67"/><path class="cls-5" d="M623.41,398.46h1.86v7.12h1.56v1.23h-1.56v2.58H623.8v-2.58h-4.94v-1.42l4.55-6.93m.39,1.29-3.73,5.83h3.73v-5.83" transform="translate(-25 -9.48)"/><polyline class="cls-5" points="606.48 388.98 607.72 388.98 603.91 401.29 602.67 401.29 606.48 388.98"/><polyline class="cls-5" points="609.58 398.67 612 398.67 612 390.33 609.37 390.85 609.37 389.5 611.98 388.98 613.47 388.98 613.47 398.67 615.88 398.67 615.88 399.91 609.58 399.91 609.58 398.67"/><path class="cls-5" d="M643.89,398.46h5.8v1.24h-4.45v2.69a3,3,0,0,1,.64-.17,4.76,4.76,0,0,1,.65-.06,4.12,4.12,0,0,1,2.89,1,3.52,3.52,0,0,1,1.08,2.71,3.46,3.46,0,0,1-1.11,2.75,4.56,4.56,0,0,1-3.09,1,11.45,11.45,0,0,1-1.41-.11,9.39,9.39,0,0,1-1.47-.34v-1.49a5.75,5.75,0,0,0,1.37.54,5.89,5.89,0,0,0,1.48.17,2.87,2.87,0,0,0,2-.66,2.58,2.58,0,0,0,0-3.62,2.87,2.87,0,0,0-2-.67,5.27,5.27,0,0,0-1.18.13,6.55,6.55,0,0,0-1.2.41v-5.49" transform="translate(-25 -9.48)"/><g class="cls-3"><line class="cls-4" x1="671.77" y1="381.52" x2="671.77" y2="1"/></g><line class="cls-5" x1="671.77" y1="381.52" x2="671.77" y2="385.02"/><line class="cls-6" x1="671.77" y1="381.52" x2="671.77" y2="385.02"/><path class="cls-5" d="M668.48,408.15h5.16v1.24H666.7v-1.24l2.29-2.34c1-1,1.58-1.61,1.83-1.89a6.25,6.25,0,0,0,1-1.35,2.51,2.51,0,0,0,.29-1.1,1.81,1.81,0,0,0-.62-1.41,2.29,2.29,0,0,0-1.59-.55,5.3,5.3,0,0,0-1.47.24,8.81,8.81,0,0,0-1.65.73V399a11.86,11.86,0,0,1,1.67-.54,6.27,6.27,0,0,1,1.42-.18,4,4,0,0,1,2.7.86,2.8,2.8,0,0,1,1,2.26,3.39,3.39,0,0,1-.25,1.28,6,6,0,0,1-.92,1.42q-.18.23-1.17,1.23l-2.76,2.84" transform="translate(-25 -9.48)"/><path class="cls-5" d="M679.91,398.26a3.22,3.22,0,0,1,2.81,1.46,9.64,9.64,0,0,1,0,8.43,3.47,3.47,0,0,1-5.63,0,9.73,9.73,0,0,1,0-8.43,3.21,3.21,0,0,1,2.82-1.46m0,1.17a1.85,1.85,0,0,0-1.72,1.13,10.28,10.28,0,0,0,0,6.75,1.89,1.89,0,0,0,3.45,0,10.28,10.28,0,0,0,0-6.75,1.86,1.86,0,0,0-1.73-1.13" transform="translate(-25 -9.48)"/><polyline class="cls-5" points="661.54 398.67 663.96 398.67 663.96 390.33 661.33 390.85 661.33 389.5 663.94 388.98 665.42 388.98 665.42 398.67 667.84 398.67 667.84 399.91 661.54 399.91 661.54 398.67"/><path class="cls-5" d="M695.84,398.46h5.81v1.24h-4.46v2.69a3.12,3.12,0,0,1,.65-.17,4.62,4.62,0,0,1,.64-.06,4.12,4.12,0,0,1,2.9,1,4,4,0,0,1,0,5.46,4.57,4.57,0,0,1-3.09,1,11.3,11.3,0,0,1-1.41-.11,9.39,9.39,0,0,1-1.47-.34v-1.49a5.52,5.52,0,0,0,1.36.54,6,6,0,0,0,1.49.17,2.88,2.88,0,0,0,2-.66,2.61,2.61,0,0,0,0-3.62,2.89,2.89,0,0,0-2-.67,5.36,5.36,0,0,0-1.19.13,6.82,6.82,0,0,0-1.2.41v-5.49" transform="translate(-25 -9.48)"/><polyline class="cls-5" points="682.57 388.98 683.82 388.98 680 401.29 678.76 401.29 682.57 388.98"/><polyline class="cls-5" points="685.67 398.67 688.09 398.67 688.09 390.33 685.47 390.85 685.47 389.5 688.08 388.98 689.56 388.98 689.56 398.67 691.98 398.67 691.98 399.91 685.67 399.91 685.67 398.67"/><path class="cls-5" d="M726.25,398.7v1.35a5.71,5.71,0,0,0-1.13-.41,4.94,4.94,0,0,0-1.12-.13,2.67,2.67,0,0,0-2.25,1,5.25,5.25,0,0,0-.87,3,2.79,2.79,0,0,1,1.08-1,3,3,0,0,1,1.44-.35,3.43,3.43,0,0,1,2.59,1,3.78,3.78,0,0,1,1,2.71,3.69,3.69,0,0,1-1,2.7,3.52,3.52,0,0,1-2.64,1,3.31,3.31,0,0,1-2.9-1.44,7.37,7.37,0,0,1-1-4.22,6.34,6.34,0,0,1,1.23-4.12,4,4,0,0,1,3.3-1.55,7.44,7.44,0,0,1,1.12.11,7.66,7.66,0,0,1,1.19.33m-2.94,4.63a2,2,0,0,0-1.58.69,3.3,3.3,0,0,0,0,3.74,2,2,0,0,0,1.58.67,2,2,0,0,0,1.57-.67,3.26,3.26,0,0,0,0-3.74,2,2,0,0,0-1.57-.69" transform="translate(-25 -9.48)"/><g class="cls-3"><line class="cls-4" x1="747.86" y1="381.52" x2="747.86" y2="1"/></g><line class="cls-5" x1="747.86" y1="381.52" x2="747.86" y2="385.02"/><line class="cls-6" x1="747.86" y1="381.52" x2="747.86" y2="385.02"/><path class="cls-5" d="M744.57,408.15h5.16v1.24h-6.94v-1.24l2.29-2.34c1-1,1.58-1.61,1.83-1.89a6.25,6.25,0,0,0,1-1.35,2.51,2.51,0,0,0,.29-1.1,1.81,1.81,0,0,0-.62-1.41,2.29,2.29,0,0,0-1.59-.55,5.3,5.3,0,0,0-1.47.24,8.81,8.81,0,0,0-1.65.73V399a11.86,11.86,0,0,1,1.67-.54,6.27,6.27,0,0,1,1.42-.18,4,4,0,0,1,2.7.86,2.8,2.8,0,0,1,1,2.26,3.39,3.39,0,0,1-.25,1.28,6,6,0,0,1-.92,1.42q-.18.23-1.17,1.23l-2.76,2.84" transform="translate(-25 -9.48)"/><path class="cls-5" d="M756,398.26a3.22,3.22,0,0,1,2.81,1.46,9.64,9.64,0,0,1,0,8.43,3.47,3.47,0,0,1-5.63,0,9.73,9.73,0,0,1,0-8.43,3.21,3.21,0,0,1,2.82-1.46m0,1.17a1.85,1.85,0,0,0-1.72,1.13,10.28,10.28,0,0,0,0,6.75,1.89,1.89,0,0,0,3.45,0,10.28,10.28,0,0,0,0-6.75,1.86,1.86,0,0,0-1.73-1.13" transform="translate(-25 -9.48)"/><polyline class="cls-5" points="737.63 398.67 740.05 398.67 740.05 390.33 737.42 390.85 737.42 389.5 740.03 388.98 741.52 388.98 741.52 398.67 743.93 398.67 743.93 399.91 737.63 399.91 737.63 398.67"/><path class="cls-5" d="M778.2,398.7v1.35a5.62,5.62,0,0,0-1.12-.41,5,5,0,0,0-1.13-.13,2.67,2.67,0,0,0-2.25,1,5.25,5.25,0,0,0-.87,3,2.94,2.94,0,0,1,1.08-1,3.07,3.07,0,0,1,1.44-.35,3.44,3.44,0,0,1,2.6,1,3.78,3.78,0,0,1,1,2.71,3.69,3.69,0,0,1-1,2.7,3.5,3.5,0,0,1-2.64,1,3.29,3.29,0,0,1-2.89-1.44,7.29,7.29,0,0,1-1-4.22,6.4,6.4,0,0,1,1.23-4.12,4,4,0,0,1,3.3-1.55,7.57,7.57,0,0,1,1.13.11,7.87,7.87,0,0,1,1.18.33m-2.94,4.63a2,2,0,0,0-1.57.69,3.26,3.26,0,0,0,0,3.74,2,2,0,0,0,1.57.67,2,2,0,0,0,1.58-.67,3.3,3.3,0,0,0,0-3.74,2,2,0,0,0-1.58-.69" transform="translate(-25 -9.48)"/><polyline class="cls-5" points="758.66 388.98 759.91 388.98 756.1 401.29 754.85 401.29 758.66 388.98"/><polyline class="cls-5" points="761.77 398.67 764.18 398.67 764.18 390.33 761.56 390.85 761.56 389.5 764.17 388.98 765.65 388.98 765.65 398.67 768.07 398.67 768.07 399.91 761.77 399.91 761.77 398.67"/><polyline class="cls-5" points="770.68 388.98 777.71 388.98 777.71 389.61 773.74 399.91 772.19 399.91 775.93 390.22 770.68 390.22 770.68 388.98"/><g class="cls-3"><line class="cls-4" x1="823.95" y1="381.52" x2="823.95" y2="1"/></g><line class="cls-5" x1="823.95" y1="381.52" x2="823.95" y2="385.02"/><line class="cls-6" x1="823.95" y1="381.52" x2="823.95" y2="385.02"/><path class="cls-5" d="M820.66,408.15h5.16v1.24h-6.94v-1.24l2.29-2.34c1-1,1.58-1.61,1.83-1.89a6.25,6.25,0,0,0,1-1.35,2.51,2.51,0,0,0,.29-1.1,1.81,1.81,0,0,0-.62-1.41,2.29,2.29,0,0,0-1.59-.55,5.3,5.3,0,0,0-1.47.24,8.81,8.81,0,0,0-1.65.73V399a11.86,11.86,0,0,1,1.67-.54,6.27,6.27,0,0,1,1.42-.18,4,4,0,0,1,2.7.86,2.8,2.8,0,0,1,1,2.26,3.39,3.39,0,0,1-.25,1.28,6,6,0,0,1-.92,1.42q-.18.23-1.17,1.23l-2.76,2.84" transform="translate(-25 -9.48)"/><path class="cls-5" d="M832.09,398.26a3.22,3.22,0,0,1,2.81,1.46,9.64,9.64,0,0,1,0,8.43,3.47,3.47,0,0,1-5.63,0,9.73,9.73,0,0,1,0-8.43,3.21,3.21,0,0,1,2.82-1.46m0,1.17a1.85,1.85,0,0,0-1.72,1.13,10.28,10.28,0,0,0,0,6.75,1.89,1.89,0,0,0,3.45,0,10.28,10.28,0,0,0,0-6.75,1.86,1.86,0,0,0-1.73-1.13" transform="translate(-25 -9.48)"/><polyline class="cls-5" points="813.72 398.67 816.14 398.67 816.14 390.33 813.51 390.85 813.51 389.5 816.12 388.98 817.61 388.98 817.61 398.67 820.02 398.67 820.02 399.91 813.72 399.91 813.72 398.67"/><polyline class="cls-5" points="822.63 388.98 829.67 388.98 829.67 389.61 825.69 399.91 824.15 399.91 827.88 390.22 822.63 390.22 822.63 388.98"/><polyline class="cls-5" points="834.75 388.98 836 388.98 832.19 401.29 830.94 401.29 834.75 388.98"/><polyline class="cls-5" points="837.86 398.67 840.27 398.67 840.27 390.33 837.65 390.85 837.65 389.5 840.26 388.98 841.74 388.98 841.74 398.67 844.16 398.67 844.16 399.91 837.86 399.91 837.86 398.67"/><path class="cls-5" d="M873.28,401.23a1.7,1.7,0,0,0,.53,1.34,2.64,2.64,0,0,0,3,0,1.7,1.7,0,0,0,.54-1.34,1.66,1.66,0,0,0-.54-1.32,2.55,2.55,0,0,0-3,0,1.65,1.65,0,0,0-.53,1.32m.54,2.34a2.68,2.68,0,0,1-1.48-.88,2.4,2.4,0,0,1-.53-1.59,2.51,2.51,0,0,1,.93-2.07,4.66,4.66,0,0,1,5.13,0,2.54,2.54,0,0,1,.93,2.07,2.41,2.41,0,0,1-.54,1.59,2.65,2.65,0,0,1-1.47.88,3.06,3.06,0,0,1,1.67,1,2.75,2.75,0,0,1,.6,1.77,3,3,0,0,1-1,2.43,5,5,0,0,1-5.56,0,3,3,0,0,1-1-2.43,2.64,2.64,0,0,1,.6-1.77,2.92,2.92,0,0,1,1.66-1m1.49.63a2.39,2.39,0,0,0-1.67.57,2,2,0,0,0-.6,1.55,2,2,0,0,0,.6,1.56,2.39,2.39,0,0,0,1.67.55,2.29,2.29,0,0,0,1.65-.57,2,2,0,0,0,.61-1.54,2.06,2.06,0,0,0-.6-1.55,2.37,2.37,0,0,0-1.66-.57" transform="translate(-25 -9.48)"/><g class="cls-3"><line class="cls-4" x1="25" y1="345.81" x2="862" y2="345.81"/></g><line class="cls-5" x1="25" y1="345.81" x2="21.5" y2="345.81"/><line class="cls-6" x1="25" y1="345.81" x2="21.5" y2="345.81"/><path class="cls-5" d="M35.07,350.05h5.81v1.24H36.42V354a3.12,3.12,0,0,1,.65-.17,4.62,4.62,0,0,1,.64-.06,4.12,4.12,0,0,1,2.9,1,4,4,0,0,1,0,5.46,4.57,4.57,0,0,1-3.09,1,11.3,11.3,0,0,1-1.41-.11,9.39,9.39,0,0,1-1.47-.34v-1.49a5.52,5.52,0,0,0,1.36.54,6,6,0,0,0,1.49.17,2.88,2.88,0,0,0,2-.66,2.61,2.61,0,0,0,0-3.62,2.89,2.89,0,0,0-2-.67,5.36,5.36,0,0,0-1.19.13,6.82,6.82,0,0,0-1.2.41v-5.49" transform="translate(-25 -9.48)"/><g class="cls-3"><line class="cls-4" x1="25" y1="280.04" x2="862" y2="280.04"/></g><line class="cls-5" x1="25" y1="280.04" x2="21.5" y2="280.04"/><line class="cls-6" x1="25" y1="280.04" x2="21.5" y2="280.04"/><polyline class="cls-5" points="0.77 284.49 3.18 284.49 3.18 276.15 0.56 276.68 0.56 275.33 3.17 274.8 4.65 274.8 4.65 284.49 7.07 284.49 7.07 285.74 0.77 285.74 0.77 284.49"/><path class="cls-5" d="M38.22,284.09a3.21,3.21,0,0,1,2.8,1.45,7.63,7.63,0,0,1,1,4.22A7.53,7.53,0,0,1,41,294a3.46,3.46,0,0,1-5.62,0,7.54,7.54,0,0,1-1-4.21,7.64,7.64,0,0,1,1-4.22,3.19,3.19,0,0,1,2.82-1.45m0,1.17a1.85,1.85,0,0,0-1.73,1.12,10.28,10.28,0,0,0,0,6.75,1.88,1.88,0,0,0,3.45,0,10.28,10.28,0,0,0,0-6.75,1.84,1.84,0,0,0-1.72-1.12" transform="translate(-25 -9.48)"/><g class="cls-3"><line class="cls-4" x1="25" y1="214.28" x2="862" y2="214.28"/></g><line class="cls-5" x1="25" y1="214.28" x2="21.5" y2="214.28"/><line class="cls-6" x1="25" y1="214.28" x2="21.5" y2="214.28"/><polyline class="cls-5" points="0.77 218.73 3.18 218.73 3.18 210.39 0.56 210.91 0.56 209.56 3.17 209.04 4.65 209.04 4.65 218.73 7.07 218.73 7.07 219.97 0.77 219.97 0.77 218.73"/><path class="cls-5" d="M35.07,218.52h5.8v1.24H36.42v2.69a3,3,0,0,1,.64-.17,4.76,4.76,0,0,1,.65-.06,4.12,4.12,0,0,1,2.89,1,3.52,3.52,0,0,1,1.08,2.71,3.46,3.46,0,0,1-1.11,2.75,4.56,4.56,0,0,1-3.09,1,11.45,11.45,0,0,1-1.41-.11,9.39,9.39,0,0,1-1.47-.34v-1.49a5.75,5.75,0,0,0,1.37.54,5.89,5.89,0,0,0,1.48.17,2.87,2.87,0,0,0,2-.66,2.58,2.58,0,0,0,0-3.62,2.87,2.87,0,0,0-2-.67,5.27,5.27,0,0,0-1.18.13,6.55,6.55,0,0,0-1.2.41v-5.49" transform="translate(-25 -9.48)"/><g class="cls-3"><line class="cls-4" x1="25" y1="148.51" x2="862" y2="148.51"/></g><line class="cls-5" x1="25" y1="148.51" x2="21.5" y2="148.51"/><line class="cls-6" x1="25" y1="148.51" x2="21.5" y2="148.51"/><path class="cls-5" d="M26.79,162.44H32v1.25H25v-1.25l2.3-2.34q1.44-1.46,1.83-1.89a5.8,5.8,0,0,0,1-1.35,2.45,2.45,0,0,0,.28-1.09,1.83,1.83,0,0,0-.61-1.41,2.32,2.32,0,0,0-1.59-.56,5.24,5.24,0,0,0-1.47.24,9.28,9.28,0,0,0-1.65.74v-1.5a11.76,11.76,0,0,1,1.66-.54,6.29,6.29,0,0,1,1.43-.18,4.06,4.06,0,0,1,2.7.85,2.83,2.83,0,0,1,1,2.27,3.17,3.17,0,0,1-.26,1.27,5.43,5.43,0,0,1-.91,1.43c-.12.15-.51.55-1.17,1.23l-2.76,2.83" transform="translate(-25 -9.48)"/><path class="cls-5" d="M38.22,152.56A3.21,3.21,0,0,1,41,154a7.63,7.63,0,0,1,1,4.22,7.53,7.53,0,0,1-1,4.21,3.46,3.46,0,0,1-5.62,0,7.54,7.54,0,0,1-1-4.21,7.64,7.64,0,0,1,1-4.22,3.19,3.19,0,0,1,2.82-1.45m0,1.17a1.85,1.85,0,0,0-1.73,1.12,10.28,10.28,0,0,0,0,6.75,1.88,1.88,0,0,0,3.45,0,10.28,10.28,0,0,0,0-6.75,1.84,1.84,0,0,0-1.72-1.12" transform="translate(-25 -9.48)"/><g class="cls-3"><line class="cls-4" x1="25" y1="82.75" x2="862" y2="82.75"/></g><line class="cls-5" x1="25" y1="82.75" x2="21.5" y2="82.75"/><line class="cls-6" x1="25" y1="82.75" x2="21.5" y2="82.75"/><path class="cls-5" d="M26.79,96.68H32v1.24H25V96.68l2.3-2.34q1.44-1.47,1.83-1.89a6.25,6.25,0,0,0,1-1.35A2.49,2.49,0,0,0,30.4,90a1.83,1.83,0,0,0-.61-1.41A2.31,2.31,0,0,0,28.2,88a5.24,5.24,0,0,0-1.47.24,8.53,8.53,0,0,0-1.65.73v-1.5A11.76,11.76,0,0,1,26.74,87a6.29,6.29,0,0,1,1.43-.18,4.07,4.07,0,0,1,2.7.86,2.83,2.83,0,0,1,1,2.26,3.22,3.22,0,0,1-.26,1.28,5.57,5.57,0,0,1-.91,1.42q-.18.23-1.17,1.23l-2.76,2.84" transform="translate(-25 -9.48)"/><path class="cls-5" d="M35.07,87h5.8v1.24H36.42v2.69a3,3,0,0,1,.64-.17,4.76,4.76,0,0,1,.65-.06,4.12,4.12,0,0,1,2.89,1,3.52,3.52,0,0,1,1.08,2.71,3.46,3.46,0,0,1-1.11,2.75,4.56,4.56,0,0,1-3.09,1A11.45,11.45,0,0,1,36.07,98a9.39,9.39,0,0,1-1.47-.34V96.18a5.75,5.75,0,0,0,1.37.54,5.89,5.89,0,0,0,1.48.17,2.87,2.87,0,0,0,2-.66,2.58,2.58,0,0,0,0-3.62,2.87,2.87,0,0,0-2-.67,5.27,5.27,0,0,0-1.18.13,6.55,6.55,0,0,0-1.2.41V87" transform="translate(-25 -9.48)"/><g class="cls-3"><line class="cls-4" x1="25" y1="16.98" x2="862" y2="16.98"/></g><line class="cls-5" x1="25" y1="16.98" x2="21.5" y2="16.98"/><line class="cls-6" x1="25" y1="16.98" x2="21.5" y2="16.98"/><path class="cls-5" d="M30,26.26a2.82,2.82,0,0,1,1.65.95,2.75,2.75,0,0,1,.6,1.77,3,3,0,0,1-1.11,2.5,5,5,0,0,1-3.17.87,7.73,7.73,0,0,1-1.42-.13,9,9,0,0,1-1.5-.39V30.4a4.77,4.77,0,0,0,1.35.54,6.29,6.29,0,0,0,1.53.18A3.47,3.47,0,0,0,30,30.58a1.9,1.9,0,0,0,.74-1.6,1.83,1.83,0,0,0-.68-1.5,3,3,0,0,0-1.89-.56H26.94V25.71h1.33a2.7,2.7,0,0,0,1.67-.44A1.45,1.45,0,0,0,30.52,24a1.55,1.55,0,0,0-.6-1.29,2.81,2.81,0,0,0-1.71-.45,6.87,6.87,0,0,0-1.3.14,12.46,12.46,0,0,0-1.53.4V21.49A13.13,13.13,0,0,1,27,21.15a8.54,8.54,0,0,1,1.4-.12,4.21,4.21,0,0,1,2.65.76,2.48,2.48,0,0,1,1,2.07,2.36,2.36,0,0,1-.52,1.53,2.66,2.66,0,0,1-1.47.87" transform="translate(-25 -9.48)"/><path class="cls-5" d="M38.22,21A3.21,3.21,0,0,1,41,22.48a7.63,7.63,0,0,1,1,4.22,7.53,7.53,0,0,1-1,4.21,3.46,3.46,0,0,1-5.62,0,7.54,7.54,0,0,1-1-4.21,7.64,7.64,0,0,1,1-4.22A3.19,3.19,0,0,1,38.22,21m0,1.17a1.85,1.85,0,0,0-1.73,1.12,7.62,7.62,0,0,0-.57,3.38,7.57,7.57,0,0,0,.57,3.37,1.88,1.88,0,0,0,3.45,0,7.72,7.72,0,0,0,.57-3.37,7.77,7.77,0,0,0-.57-3.38,1.84,1.84,0,0,0-1.72-1.12" transform="translate(-25 -9.48)"/><g class="cls-3"><polyline class="cls-7" points="63.04 151.14 139.13 134.04 215.23 18.3 291.32 102.48 367.41 107.74 443.5 130.1 519.59 194.55 595.68 269.52 671.77 305.04 747.86 322.13 823.95 364.22"/><g class="cls-8"><path class="cls-9" d="M88.05,163.12a2.49,2.49,0,1,0-1.77-.73A2.48,2.48,0,0,0,88.05,163.12Z" transform="translate(-25 -9.48)"/><path class="cls-10" d="M88.05,163.12a2.49,2.49,0,1,0-1.77-.73A2.48,2.48,0,0,0,88.05,163.12Z" transform="translate(-25 -9.48)"/></g><g class="cls-11"><path class="cls-9" d="M164.14,146a2.47,2.47,0,0,0,1.76-.73,2.5,2.5,0,1,0-3.53-3.53,2.5,2.5,0,0,0,1.77,4.26Z" transform="translate(-25 -9.48)"/><path class="cls-10" d="M164.14,146a2.47,2.47,0,0,0,1.76-.73,2.5,2.5,0,1,0-3.53-3.53,2.5,2.5,0,0,0,1.77,4.26Z" transform="translate(-25 -9.48)"/></g><g class="cls-12"><path class="cls-9" d="M240.23,30.28a2.5,2.5,0,1,0,0-5,2.5,2.5,0,0,0,0,5Z" transform="translate(-25 -9.48)"/><path class="cls-10" d="M240.23,30.28a2.5,2.5,0,1,0,0-5,2.5,2.5,0,0,0,0,5Z" transform="translate(-25 -9.48)"/></g><g class="cls-13"><path class="cls-9" d="M316.32,114.46a2.5,2.5,0,1,0-1.77-4.27,2.5,2.5,0,0,0,0,3.53A2.52,2.52,0,0,0,316.32,114.46Z" transform="translate(-25 -9.48)"/><path class="cls-10" d="M316.32,114.46a2.5,2.5,0,1,0-1.77-4.27,2.5,2.5,0,0,0,0,3.53A2.52,2.52,0,0,0,316.32,114.46Z" transform="translate(-25 -9.48)"/></g><g class="cls-14"><path class="cls-9" d="M392.41,119.72a2.55,2.55,0,0,0,1.77-.73,2.5,2.5,0,1,0-3.54,0A2.55,2.55,0,0,0,392.41,119.72Z" transform="translate(-25 -9.48)"/><path class="cls-10" d="M392.41,119.72a2.55,2.55,0,0,0,1.77-.73,2.5,2.5,0,1,0-3.54,0A2.55,2.55,0,0,0,392.41,119.72Z" transform="translate(-25 -9.48)"/></g><g class="cls-15"><path class="cls-9" d="M468.5,142.08a2.55,2.55,0,0,0,1.77-.73,2.5,2.5,0,1,0-3.54,0A2.55,2.55,0,0,0,468.5,142.08Z" transform="translate(-25 -9.48)"/><path class="cls-10" d="M468.5,142.08a2.55,2.55,0,0,0,1.77-.73,2.5,2.5,0,1,0-3.54,0A2.55,2.55,0,0,0,468.5,142.08Z" transform="translate(-25 -9.48)"/></g><g class="cls-16"><path class="cls-9" d="M544.59,206.53a2.55,2.55,0,0,0,1.77-.73,2.5,2.5,0,1,0-3.54,0A2.55,2.55,0,0,0,544.59,206.53Z" transform="translate(-25 -9.48)"/><path class="cls-10" d="M544.59,206.53a2.55,2.55,0,0,0,1.77-.73,2.5,2.5,0,1,0-3.54,0A2.55,2.55,0,0,0,544.59,206.53Z" transform="translate(-25 -9.48)"/></g><g class="cls-17"><path class="cls-9" d="M620.68,281.5a2.5,2.5,0,1,0-1.77-4.27,2.51,2.51,0,0,0,0,3.54A2.51,2.51,0,0,0,620.68,281.5Z" transform="translate(-25 -9.48)"/><path class="cls-10" d="M620.68,281.5a2.5,2.5,0,1,0-1.77-4.27,2.51,2.51,0,0,0,0,3.54A2.51,2.51,0,0,0,620.68,281.5Z" transform="translate(-25 -9.48)"/></g><g class="cls-18"><path class="cls-9" d="M696.77,317a2.51,2.51,0,1,0-1.76-.73A2.49,2.49,0,0,0,696.77,317Z" transform="translate(-25 -9.48)"/><path class="cls-10" d="M696.77,317a2.51,2.51,0,1,0-1.76-.73A2.49,2.49,0,0,0,696.77,317Z" transform="translate(-25 -9.48)"/></g><g class="cls-19"><path class="cls-9" d="M772.86,334.11a2.51,2.51,0,1,0-1.76-.73A2.49,2.49,0,0,0,772.86,334.11Z" transform="translate(-25 -9.48)"/><path class="cls-10" d="M772.86,334.11a2.51,2.51,0,1,0-1.76-.73A2.49,2.49,0,0,0,772.86,334.11Z" transform="translate(-25 -9.48)"/></g><g class="cls-20"><path class="cls-9" d="M849,376.2a2.51,2.51,0,1,0-1.76-.73A2.49,2.49,0,0,0,849,376.2Z" transform="translate(-25 -9.48)"/><path class="cls-10" d="M849,376.2a2.51,2.51,0,1,0-1.76-.73A2.49,2.49,0,0,0,849,376.2Z" transform="translate(-25 -9.48)"/></g></g><line class="cls-21" x1="25" y1="381.52" x2="25" y2="1"/><line class="cls-21" x1="862" y1="381.52" x2="862" y2="1"/><line class="cls-21" x1="25" y1="381.52" x2="862" y2="381.52"/><line class="cls-21" x1="25" y1="1" x2="862" y2="1"/></g><text class="cls-22" transform="translate(19 21.78)">%</text></svg>