<?xml version="1.0" encoding="utf-8"?>
<!-- Generator: Adobe Illustrator 23.0.4, SVG Export Plug-In . SVG Version: 6.00 Build 0)  -->
<svg version="1.1" id="Layer_1" xmlns="http://www.w3.org/2000/svg" xmlns:xlink="http://www.w3.org/1999/xlink" x="0px" y="0px"
	 viewBox="0 0 1173.67 614.36" style="enable-background:new 0 0 1173.67 614.36;" xml:space="preserve">
<style type="text/css">
	.st0{clip-path:url(#SVGID_2_);}
	
		.st1{clip-path:url(#SVGID_4_);fill:none;stroke:#FFFFFF;stroke-width:0.8;stroke-linecap:square;stroke-linejoin:round;stroke-miterlimit:10;}
	.st2{clip-path:url(#SVGID_2_);fill:#555555;}
	.st3{clip-path:url(#SVGID_2_);fill:none;stroke:#555555;stroke-width:0.8;stroke-linejoin:round;stroke-miterlimit:10;}
	
		.st4{clip-path:url(#SVGID_6_);fill:none;stroke:#FFFFFF;stroke-width:0.8;stroke-linecap:square;stroke-linejoin:round;stroke-miterlimit:10;}
	
		.st5{clip-path:url(#SVGID_8_);fill:none;stroke:#FFFFFF;stroke-width:0.8;stroke-linecap:square;stroke-linejoin:round;stroke-miterlimit:10;}
	
		.st6{clip-path:url(#SVGID_10_);fill:none;stroke:#FFFFFF;stroke-width:0.8;stroke-linecap:square;stroke-linejoin:round;stroke-miterlimit:10;}
	
		.st7{clip-path:url(#SVGID_12_);fill:none;stroke:#FFFFFF;stroke-width:0.8;stroke-linecap:square;stroke-linejoin:round;stroke-miterlimit:10;}
	
		.st8{clip-path:url(#SVGID_14_);fill:none;stroke:#FFFFFF;stroke-width:0.8;stroke-linecap:square;stroke-linejoin:round;stroke-miterlimit:10;}
	
		.st9{clip-path:url(#SVGID_16_);fill:none;stroke:#FFFFFF;stroke-width:0.8;stroke-linecap:square;stroke-linejoin:round;stroke-miterlimit:10;}
	
		.st10{clip-path:url(#SVGID_18_);fill:none;stroke:#FFFFFF;stroke-width:0.8;stroke-linecap:square;stroke-linejoin:round;stroke-miterlimit:10;}
	
		.st11{clip-path:url(#SVGID_20_);fill:none;stroke:#FFFFFF;stroke-width:0.8;stroke-linecap:square;stroke-linejoin:round;stroke-miterlimit:10;}
	
		.st12{clip-path:url(#SVGID_22_);fill:none;stroke:#FFFFFF;stroke-width:0.8;stroke-linecap:square;stroke-linejoin:round;stroke-miterlimit:10;}
	
		.st13{clip-path:url(#SVGID_24_);fill:none;stroke:#FFFFFF;stroke-width:0.8;stroke-linecap:square;stroke-linejoin:round;stroke-miterlimit:10;}
	
		.st14{clip-path:url(#SVGID_26_);fill:none;stroke:#FFFFFF;stroke-width:0.8;stroke-linecap:square;stroke-linejoin:round;stroke-miterlimit:10;}
	
		.st15{clip-path:url(#SVGID_28_);fill:none;stroke:#FFFFFF;stroke-width:0.8;stroke-linecap:square;stroke-linejoin:round;stroke-miterlimit:10;}
	
		.st16{clip-path:url(#SVGID_30_);fill:none;stroke:#FFFFFF;stroke-width:0.8;stroke-linecap:square;stroke-linejoin:round;stroke-miterlimit:10;}
	
		.st17{clip-path:url(#SVGID_32_);fill:none;stroke:#FFFFFF;stroke-width:0.8;stroke-linecap:square;stroke-linejoin:round;stroke-miterlimit:10;}
	
		.st18{clip-path:url(#SVGID_34_);fill:none;stroke:#FFFFFF;stroke-width:0.8;stroke-linecap:square;stroke-linejoin:round;stroke-miterlimit:10;}
	
		.st19{clip-path:url(#SVGID_36_);fill:none;stroke:#1B9E77;stroke-width:5;stroke-linecap:square;stroke-linejoin:round;stroke-miterlimit:10;}
	
		.st20{clip-path:url(#SVGID_38_);fill:none;stroke:#D95F02;stroke-width:5;stroke-linecap:square;stroke-linejoin:round;stroke-miterlimit:10;}
	
		.st21{clip-path:url(#SVGID_40_);fill:none;stroke:#7570B3;stroke-width:5;stroke-linecap:square;stroke-linejoin:round;stroke-miterlimit:10;}
	.st22{clip-path:url(#SVGID_2_);fill:none;stroke:#FFFFFF;stroke-linecap:square;stroke-miterlimit:10;}
</style>
<g>
	<defs>
		<rect id="SVGID_1_" x="-122.33" y="-44.79" width="1440" height="720"/>
	</defs>
	<clipPath id="SVGID_2_">
		<use xlink:href="#SVGID_1_"  style="overflow:visible;"/>
	</clipPath>
	<g class="st0">
		<defs>
			<rect id="SVGID_3_" x="57.67" y="41.61" width="1116" height="543.6"/>
		</defs>
		<clipPath id="SVGID_4_">
			<use xlink:href="#SVGID_3_"  style="overflow:visible;"/>
		</clipPath>
		<line class="st1" x1="108.4" y1="585.21" x2="108.4" y2="41.61"/>
	</g>
	<line class="st2" x1="108.4" y1="585.21" x2="108.4" y2="588.71"/>
	<line class="st3" x1="108.4" y1="585.21" x2="108.4" y2="588.71"/>
	<path class="st2" d="M89.56,598.98H93v0.83h-4.63v-0.83c0.37-0.38,0.88-0.9,1.53-1.56c0.64-0.65,1.05-1.07,1.22-1.26
		c0.32-0.35,0.54-0.65,0.66-0.9c0.12-0.24,0.19-0.49,0.19-0.73c0-0.38-0.14-0.7-0.41-0.94c-0.27-0.24-0.62-0.37-1.06-0.37
		c-0.31,0-0.64,0.06-0.98,0.16c-0.34,0.11-0.71,0.27-1.1,0.49v-1c0.4-0.16,0.77-0.28,1.11-0.36c0.34-0.08,0.66-0.12,0.95-0.12
		c0.75,0,1.35,0.19,1.8,0.57c0.45,0.38,0.68,0.88,0.68,1.51c0,0.3-0.06,0.59-0.17,0.85c-0.11,0.27-0.31,0.59-0.61,0.95
		c-0.08,0.1-0.34,0.37-0.78,0.82C90.96,597.54,90.35,598.17,89.56,598.98"/>
	<path class="st2" d="M97.18,592.39c0.81,0,1.43,0.33,1.87,0.97c0.43,0.65,0.65,1.59,0.65,2.81c0,1.23-0.22,2.17-0.65,2.81
		c-0.44,0.64-1.06,0.96-1.87,0.96c-0.82,0-1.45-0.32-1.88-0.96c-0.43-0.64-0.64-1.58-0.64-2.81c0-1.22,0.21-2.16,0.64-2.81
		C95.73,592.72,96.36,592.39,97.18,592.39 M97.18,593.17c-0.51,0-0.89,0.25-1.15,0.75s-0.38,1.25-0.38,2.25s0.12,1.75,0.38,2.25
		s0.64,0.75,1.15,0.75c0.51,0,0.89-0.25,1.15-0.75c0.25-0.5,0.38-1.25,0.38-2.25s-0.13-1.75-0.38-2.25
		C98.07,593.42,97.69,593.17,97.18,593.17"/>
	<path class="st2" d="M103.54,592.39c0.81,0,1.43,0.33,1.87,0.97c0.43,0.65,0.65,1.59,0.65,2.81c0,1.23-0.22,2.17-0.65,2.81
		c-0.44,0.64-1.06,0.96-1.87,0.96c-0.82,0-1.45-0.32-1.88-0.96c-0.43-0.64-0.64-1.58-0.64-2.81c0-1.22,0.21-2.16,0.64-2.81
		C102.09,592.72,102.72,592.39,103.54,592.39 M103.54,593.17c-0.51,0-0.89,0.25-1.15,0.75s-0.38,1.25-0.38,2.25s0.12,1.75,0.38,2.25
		s0.64,0.75,1.15,0.75c0.51,0,0.89-0.25,1.15-0.75c0.25-0.5,0.38-1.25,0.38-2.25s-0.13-1.75-0.38-2.25
		C104.43,593.42,104.05,593.17,103.54,593.17"/>
	<polyline class="st2" points="107.54,592.52 112.23,592.52 112.23,592.94 109.58,599.81 108.55,599.81 111.04,593.35 
		107.54,593.35 107.54,592.52 	"/>
	<polyline class="st2" points="115.62,592.52 116.45,592.52 113.91,600.73 113.08,600.73 115.62,592.52 	"/>
	<path class="st2" d="M119.63,592.39c0.81,0,1.43,0.33,1.87,0.97c0.43,0.65,0.65,1.59,0.65,2.81c0,1.23-0.22,2.17-0.65,2.81
		c-0.44,0.64-1.06,0.96-1.87,0.96c-0.82,0-1.45-0.32-1.88-0.96c-0.43-0.64-0.64-1.58-0.64-2.81c0-1.22,0.21-2.16,0.64-2.81
		C118.18,592.72,118.81,592.39,119.63,592.39 M119.63,593.17c-0.51,0-0.89,0.25-1.15,0.75s-0.38,1.25-0.38,2.25s0.12,1.75,0.38,2.25
		s0.64,0.75,1.15,0.75c0.51,0,0.89-0.25,1.15-0.75c0.25-0.5,0.38-1.25,0.38-2.25s-0.13-1.75-0.38-2.25
		C120.52,593.42,120.14,593.17,119.63,593.17"/>
	<path class="st2" d="M124.64,594.37c0,0.38,0.11,0.68,0.35,0.89c0.24,0.21,0.57,0.31,1,0.31c0.42,0,0.75-0.1,0.99-0.31
		c0.24-0.21,0.36-0.51,0.36-0.89s-0.12-0.67-0.36-0.88c-0.24-0.21-0.57-0.32-0.99-0.32c-0.43,0-0.76,0.11-1,0.32
		C124.75,593.7,124.64,593.99,124.64,594.37 M125,595.93c-0.42-0.1-0.75-0.3-0.99-0.59c-0.24-0.29-0.35-0.64-0.35-1.06
		c0-0.58,0.2-1.04,0.62-1.38c0.41-0.34,0.98-0.51,1.71-0.51c0.72,0,1.29,0.17,1.71,0.51c0.41,0.34,0.62,0.8,0.62,1.38
		c0,0.42-0.12,0.77-0.36,1.06c-0.24,0.29-0.56,0.49-0.98,0.59c0.47,0.11,0.84,0.33,1.11,0.65c0.26,0.32,0.4,0.72,0.4,1.18
		c0,0.71-0.22,1.25-0.65,1.62c-0.44,0.38-1.05,0.56-1.85,0.56c-0.81,0-1.43-0.18-1.86-0.56c-0.43-0.37-0.64-0.91-0.64-1.62
		c0-0.46,0.13-0.86,0.4-1.18C124.15,596.26,124.52,596.04,125,595.93 M125.99,596.35c-0.47,0-0.84,0.13-1.11,0.38
		c-0.27,0.25-0.4,0.59-0.4,1.03s0.13,0.79,0.4,1.04c0.27,0.25,0.64,0.37,1.11,0.37c0.46,0,0.83-0.12,1.1-0.38
		c0.27-0.25,0.41-0.59,0.41-1.03s-0.14-0.78-0.4-1.03C126.83,596.48,126.46,596.35,125.99,596.35"/>
	<g class="st0">
		<defs>
			<rect id="SVGID_5_" x="57.67" y="41.61" width="1116" height="543.6"/>
		</defs>
		<clipPath id="SVGID_6_">
			<use xlink:href="#SVGID_5_"  style="overflow:visible;"/>
		</clipPath>
		<line class="st4" x1="209.86" y1="585.21" x2="209.86" y2="41.61"/>
	</g>
	<line class="st2" x1="209.86" y1="585.21" x2="209.86" y2="588.71"/>
	<line class="st3" x1="209.86" y1="585.21" x2="209.86" y2="588.71"/>
	<path class="st2" d="M191.01,598.98h3.44v0.83h-4.63v-0.83c0.37-0.38,0.88-0.9,1.53-1.56c0.64-0.65,1.05-1.07,1.22-1.26
		c0.32-0.35,0.54-0.65,0.66-0.9c0.12-0.24,0.19-0.49,0.19-0.73c0-0.38-0.14-0.7-0.41-0.94c-0.27-0.24-0.62-0.37-1.06-0.37
		c-0.31,0-0.64,0.06-0.98,0.16c-0.34,0.11-0.71,0.27-1.1,0.49v-1c0.4-0.16,0.77-0.28,1.11-0.36c0.34-0.08,0.66-0.12,0.95-0.12
		c0.75,0,1.35,0.19,1.8,0.57c0.45,0.38,0.68,0.88,0.68,1.51c0,0.3-0.06,0.59-0.17,0.85c-0.11,0.27-0.31,0.59-0.61,0.95
		c-0.08,0.1-0.34,0.37-0.78,0.82C192.41,597.54,191.8,598.17,191.01,598.98"/>
	<path class="st2" d="M198.63,592.39c0.81,0,1.43,0.33,1.87,0.97c0.43,0.65,0.65,1.59,0.65,2.81c0,1.23-0.22,2.17-0.65,2.81
		c-0.44,0.64-1.06,0.96-1.87,0.96c-0.82,0-1.45-0.32-1.88-0.96c-0.43-0.64-0.64-1.58-0.64-2.81c0-1.22,0.21-2.16,0.64-2.81
		C197.18,592.72,197.81,592.39,198.63,592.39 M198.63,593.17c-0.51,0-0.89,0.25-1.15,0.75s-0.38,1.25-0.38,2.25s0.12,1.75,0.38,2.25
		s0.64,0.75,1.15,0.75c0.51,0,0.89-0.25,1.15-0.75c0.25-0.5,0.38-1.25,0.38-2.25s-0.13-1.75-0.38-2.25
		C199.52,593.42,199.14,593.17,198.63,593.17"/>
	<path class="st2" d="M204.99,592.39c0.81,0,1.43,0.33,1.87,0.97c0.43,0.65,0.65,1.59,0.65,2.81c0,1.23-0.22,2.17-0.65,2.81
		c-0.44,0.64-1.06,0.96-1.87,0.96c-0.82,0-1.45-0.32-1.88-0.96c-0.43-0.64-0.64-1.58-0.64-2.81c0-1.22,0.21-2.16,0.64-2.81
		C203.54,592.72,204.17,592.39,204.99,592.39 M204.99,593.17c-0.51,0-0.89,0.25-1.15,0.75s-0.38,1.25-0.38,2.25s0.12,1.75,0.38,2.25
		s0.64,0.75,1.15,0.75c0.51,0,0.89-0.25,1.15-0.75c0.25-0.5,0.38-1.25,0.38-2.25s-0.13-1.75-0.38-2.25
		C205.88,593.42,205.5,593.17,204.99,593.17"/>
	<path class="st2" d="M210,594.37c0,0.38,0.11,0.68,0.35,0.89c0.24,0.21,0.57,0.31,1,0.31c0.42,0,0.75-0.1,0.99-0.31
		c0.24-0.21,0.36-0.51,0.36-0.89s-0.12-0.67-0.36-0.88c-0.24-0.21-0.57-0.32-0.99-0.32c-0.43,0-0.76,0.11-1,0.32
		C210.11,593.7,210,593.99,210,594.37 M210.36,595.93c-0.42-0.1-0.75-0.3-0.99-0.59c-0.24-0.29-0.35-0.64-0.35-1.06
		c0-0.58,0.2-1.04,0.62-1.38c0.41-0.34,0.98-0.51,1.71-0.51c0.72,0,1.29,0.17,1.71,0.51c0.41,0.34,0.62,0.8,0.62,1.38
		c0,0.42-0.12,0.77-0.36,1.06c-0.24,0.29-0.56,0.49-0.98,0.59c0.47,0.11,0.84,0.33,1.11,0.65c0.26,0.32,0.4,0.72,0.4,1.18
		c0,0.71-0.22,1.25-0.65,1.62c-0.44,0.38-1.05,0.56-1.85,0.56c-0.81,0-1.43-0.18-1.86-0.56c-0.43-0.37-0.64-0.91-0.64-1.62
		c0-0.46,0.13-0.86,0.4-1.18C209.51,596.26,209.88,596.04,210.36,595.93 M211.35,596.35c-0.47,0-0.84,0.13-1.11,0.38
		c-0.27,0.25-0.4,0.59-0.4,1.03s0.13,0.79,0.4,1.04c0.27,0.25,0.64,0.37,1.11,0.37c0.46,0,0.83-0.12,1.1-0.38
		c0.27-0.25,0.41-0.59,0.41-1.03s-0.14-0.78-0.4-1.03C212.19,596.48,211.82,596.35,211.35,596.35"/>
	<polyline class="st2" points="217.07,592.52 217.9,592.52 215.36,600.73 214.53,600.73 217.07,592.52 	"/>
	<path class="st2" d="M221.08,592.39c0.81,0,1.43,0.33,1.87,0.97c0.43,0.65,0.65,1.59,0.65,2.81c0,1.23-0.22,2.17-0.65,2.81
		c-0.44,0.64-1.06,0.96-1.87,0.96c-0.82,0-1.45-0.32-1.88-0.96c-0.43-0.64-0.64-1.58-0.64-2.81c0-1.22,0.21-2.16,0.64-2.81
		C219.63,592.72,220.26,592.39,221.08,592.39 M221.08,593.17c-0.51,0-0.89,0.25-1.15,0.75s-0.38,1.25-0.38,2.25s0.12,1.75,0.38,2.25
		s0.64,0.75,1.15,0.75c0.51,0,0.89-0.25,1.15-0.75c0.25-0.5,0.38-1.25,0.38-2.25s-0.13-1.75-0.38-2.25
		C221.97,593.42,221.59,593.17,221.08,593.17"/>
	<path class="st2" d="M227.32,596.57c0.44,0,0.79-0.15,1.05-0.45c0.26-0.3,0.39-0.72,0.39-1.25c0-0.52-0.13-0.94-0.39-1.24
		c-0.26-0.3-0.61-0.46-1.05-0.46s-0.79,0.16-1.05,0.46c-0.26,0.3-0.39,0.72-0.39,1.24c0,0.53,0.13,0.95,0.39,1.25
		C226.53,596.42,226.88,596.57,227.32,596.57 M225.36,599.66v-0.9c0.24,0.12,0.49,0.21,0.75,0.27c0.25,0.06,0.5,0.09,0.75,0.09
		c0.64,0,1.14-0.21,1.48-0.65c0.34-0.44,0.54-1.1,0.6-2c-0.2,0.28-0.44,0.5-0.72,0.65c-0.29,0.15-0.61,0.22-0.96,0.22
		c-0.74,0-1.32-0.22-1.74-0.66c-0.42-0.44-0.63-1.04-0.63-1.81c0-0.74,0.22-1.34,0.66-1.8c0.44-0.45,1.03-0.68,1.77-0.68
		c0.84,0,1.49,0.33,1.93,0.97c0.44,0.65,0.67,1.59,0.67,2.81c0,1.16-0.28,2.07-0.82,2.75c-0.55,0.68-1.28,1.02-2.2,1.02
		c-0.25,0-0.5-0.03-0.75-0.07C225.89,599.83,225.63,599.76,225.36,599.66"/>
	<g class="st0">
		<defs>
			<rect id="SVGID_7_" x="57.67" y="41.61" width="1116" height="543.6"/>
		</defs>
		<clipPath id="SVGID_8_">
			<use xlink:href="#SVGID_7_"  style="overflow:visible;"/>
		</clipPath>
		<line class="st5" x1="311.31" y1="585.21" x2="311.31" y2="41.61"/>
	</g>
	<line class="st2" x1="311.31" y1="585.21" x2="311.31" y2="588.71"/>
	<line class="st3" x1="311.31" y1="585.21" x2="311.31" y2="588.71"/>
	<path class="st2" d="M292.46,598.98h3.44v0.83h-4.63v-0.83c0.37-0.38,0.88-0.9,1.53-1.56c0.64-0.65,1.05-1.07,1.22-1.26
		c0.32-0.35,0.54-0.65,0.66-0.9c0.12-0.24,0.19-0.49,0.19-0.73c0-0.38-0.14-0.7-0.41-0.94c-0.27-0.24-0.62-0.37-1.06-0.37
		c-0.31,0-0.64,0.06-0.98,0.16c-0.34,0.11-0.71,0.27-1.1,0.49v-1c0.4-0.16,0.77-0.28,1.11-0.36c0.34-0.08,0.66-0.12,0.95-0.12
		c0.75,0,1.35,0.19,1.8,0.57c0.45,0.38,0.68,0.88,0.68,1.51c0,0.3-0.06,0.59-0.17,0.85c-0.11,0.27-0.31,0.59-0.61,0.95
		c-0.08,0.1-0.34,0.37-0.78,0.82C293.86,597.54,293.25,598.17,292.46,598.98"/>
	<path class="st2" d="M300.08,592.39c0.81,0,1.43,0.33,1.87,0.97c0.43,0.65,0.65,1.59,0.65,2.81c0,1.23-0.22,2.17-0.65,2.81
		c-0.44,0.64-1.06,0.96-1.87,0.96c-0.82,0-1.45-0.32-1.88-0.96c-0.43-0.64-0.64-1.58-0.64-2.81c0-1.22,0.21-2.16,0.64-2.81
		C298.63,592.72,299.26,592.39,300.08,592.39 M300.08,593.17c-0.51,0-0.89,0.25-1.15,0.75s-0.38,1.25-0.38,2.25s0.12,1.75,0.38,2.25
		s0.64,0.75,1.15,0.75c0.51,0,0.89-0.25,1.15-0.75c0.25-0.5,0.38-1.25,0.38-2.25s-0.13-1.75-0.38-2.25
		C300.97,593.42,300.59,593.17,300.08,593.17"/>
	<path class="st2" d="M306.44,592.39c0.81,0,1.43,0.33,1.87,0.97c0.43,0.65,0.65,1.59,0.65,2.81c0,1.23-0.22,2.17-0.65,2.81
		c-0.44,0.64-1.06,0.96-1.87,0.96c-0.82,0-1.45-0.32-1.88-0.96c-0.43-0.64-0.64-1.58-0.64-2.81c0-1.22,0.21-2.16,0.64-2.81
		C304.99,592.72,305.62,592.39,306.44,592.39 M306.44,593.17c-0.51,0-0.89,0.25-1.15,0.75s-0.38,1.25-0.38,2.25s0.12,1.75,0.38,2.25
		s0.64,0.75,1.15,0.75c0.51,0,0.89-0.25,1.15-0.75c0.25-0.5,0.38-1.25,0.38-2.25s-0.13-1.75-0.38-2.25
		C307.33,593.42,306.95,593.17,306.44,593.17"/>
	<path class="st2" d="M312.68,596.57c0.44,0,0.79-0.15,1.05-0.45c0.26-0.3,0.39-0.72,0.39-1.25c0-0.52-0.13-0.94-0.39-1.24
		c-0.26-0.3-0.61-0.46-1.05-0.46s-0.79,0.16-1.05,0.46c-0.26,0.3-0.39,0.72-0.39,1.24c0,0.53,0.13,0.95,0.39,1.25
		C311.89,596.42,312.24,596.57,312.68,596.57 M310.72,599.66v-0.9c0.24,0.12,0.49,0.21,0.75,0.27c0.25,0.06,0.5,0.09,0.75,0.09
		c0.64,0,1.14-0.21,1.48-0.65c0.34-0.44,0.54-1.1,0.6-2c-0.2,0.28-0.44,0.5-0.72,0.65c-0.29,0.15-0.61,0.22-0.96,0.22
		c-0.74,0-1.32-0.22-1.74-0.66c-0.42-0.44-0.63-1.04-0.63-1.81c0-0.74,0.22-1.34,0.66-1.8c0.44-0.45,1.03-0.68,1.77-0.68
		c0.84,0,1.49,0.33,1.93,0.97c0.44,0.65,0.67,1.59,0.67,2.81c0,1.16-0.28,2.07-0.82,2.75c-0.55,0.68-1.28,1.02-2.2,1.02
		c-0.25,0-0.5-0.03-0.75-0.07C311.25,599.83,310.99,599.76,310.72,599.66"/>
	<polyline class="st2" points="318.52,592.52 319.35,592.52 316.81,600.73 315.98,600.73 318.52,592.52 	"/>
	<polyline class="st2" points="320.6,598.98 322.21,598.98 322.21,593.42 320.46,593.77 320.46,592.87 322.2,592.52 323.18,592.52 
		323.18,598.98 324.8,598.98 324.8,599.81 320.6,599.81 320.6,598.98 	"/>
	<path class="st2" d="M328.9,592.39c0.81,0,1.43,0.33,1.87,0.97c0.43,0.65,0.65,1.59,0.65,2.81c0,1.23-0.22,2.17-0.65,2.81
		c-0.44,0.64-1.06,0.96-1.87,0.96c-0.82,0-1.45-0.32-1.88-0.96c-0.43-0.64-0.64-1.58-0.64-2.81c0-1.22,0.21-2.16,0.64-2.81
		C327.45,592.72,328.08,592.39,328.9,592.39 M328.9,593.17c-0.51,0-0.89,0.25-1.15,0.75s-0.38,1.25-0.38,2.25s0.12,1.75,0.38,2.25
		s0.64,0.75,1.15,0.75c0.51,0,0.89-0.25,1.15-0.75c0.25-0.5,0.38-1.25,0.38-2.25s-0.13-1.75-0.38-2.25
		C329.79,593.42,329.41,593.17,328.9,593.17"/>
	<g class="st0">
		<defs>
			<rect id="SVGID_9_" x="57.67" y="41.61" width="1116" height="543.6"/>
		</defs>
		<clipPath id="SVGID_10_">
			<use xlink:href="#SVGID_9_"  style="overflow:visible;"/>
		</clipPath>
		<line class="st6" x1="412.77" y1="585.21" x2="412.77" y2="41.61"/>
	</g>
	<line class="st2" x1="412.77" y1="585.21" x2="412.77" y2="588.71"/>
	<line class="st3" x1="412.77" y1="585.21" x2="412.77" y2="588.71"/>
	<path class="st2" d="M393.92,598.98h3.44v0.83h-4.63v-0.83c0.37-0.38,0.88-0.9,1.53-1.56c0.64-0.65,1.05-1.07,1.22-1.26
		c0.32-0.35,0.54-0.65,0.66-0.9c0.12-0.24,0.19-0.49,0.19-0.73c0-0.38-0.14-0.7-0.41-0.94c-0.27-0.24-0.62-0.37-1.06-0.37
		c-0.31,0-0.64,0.06-0.98,0.16c-0.34,0.11-0.71,0.27-1.1,0.49v-1c0.4-0.16,0.77-0.28,1.11-0.36c0.34-0.08,0.66-0.12,0.95-0.12
		c0.75,0,1.35,0.19,1.8,0.57c0.45,0.38,0.68,0.88,0.68,1.51c0,0.3-0.06,0.59-0.17,0.85c-0.11,0.27-0.31,0.59-0.61,0.95
		c-0.08,0.1-0.34,0.37-0.78,0.82C395.32,597.54,394.71,598.17,393.92,598.98"/>
	<path class="st2" d="M401.54,592.39c0.81,0,1.43,0.33,1.87,0.97c0.43,0.65,0.65,1.59,0.65,2.81c0,1.23-0.22,2.17-0.65,2.81
		c-0.44,0.64-1.06,0.96-1.87,0.96c-0.82,0-1.45-0.32-1.88-0.96s-0.64-1.58-0.64-2.81c0-1.22,0.21-2.16,0.64-2.81
		C400.09,592.72,400.72,592.39,401.54,592.39 M401.54,593.17c-0.51,0-0.89,0.25-1.15,0.75c-0.26,0.5-0.38,1.25-0.38,2.25
		s0.12,1.75,0.38,2.25c0.26,0.5,0.64,0.75,1.15,0.75s0.89-0.25,1.15-0.75c0.25-0.5,0.38-1.25,0.38-2.25s-0.13-1.75-0.38-2.25
		C402.43,593.42,402.05,593.17,401.54,593.17"/>
	<polyline class="st2" points="405.96,598.98 407.57,598.98 407.57,593.42 405.82,593.77 405.82,592.87 407.56,592.52 
		408.55,592.52 408.55,598.98 410.16,598.98 410.16,599.81 405.96,599.81 405.96,598.98 	"/>
	<path class="st2" d="M414.26,592.39c0.81,0,1.43,0.33,1.87,0.97c0.43,0.65,0.65,1.59,0.65,2.81c0,1.23-0.22,2.17-0.65,2.81
		c-0.44,0.64-1.06,0.96-1.87,0.96c-0.82,0-1.45-0.32-1.88-0.96s-0.64-1.58-0.64-2.81c0-1.22,0.21-2.16,0.64-2.81
		C412.81,592.72,413.44,592.39,414.26,592.39 M414.26,593.17c-0.51,0-0.89,0.25-1.15,0.75c-0.26,0.5-0.38,1.25-0.38,2.25
		s0.12,1.75,0.38,2.25c0.26,0.5,0.64,0.75,1.15,0.75s0.89-0.25,1.15-0.75c0.25-0.5,0.38-1.25,0.38-2.25s-0.13-1.75-0.38-2.25
		C415.15,593.42,414.77,593.17,414.26,593.17"/>
	<polyline class="st2" points="419.98,592.52 420.81,592.52 418.27,600.73 417.44,600.73 419.98,592.52 	"/>
	<polyline class="st2" points="422.05,598.98 423.66,598.98 423.66,593.42 421.91,593.77 421.91,592.87 423.65,592.52 
		424.64,592.52 424.64,598.98 426.25,598.98 426.25,599.81 422.05,599.81 422.05,598.98 	"/>
	<polyline class="st2" points="428.41,598.98 430.02,598.98 430.02,593.42 428.27,593.77 428.27,592.87 430.01,592.52 431,592.52 
		431,598.98 432.61,598.98 432.61,599.81 428.41,599.81 428.41,598.98 	"/>
	<g class="st0">
		<defs>
			<rect id="SVGID_11_" x="57.67" y="41.61" width="1116" height="543.6"/>
		</defs>
		<clipPath id="SVGID_12_">
			<use xlink:href="#SVGID_11_"  style="overflow:visible;"/>
		</clipPath>
		<line class="st7" x1="514.22" y1="585.21" x2="514.22" y2="41.61"/>
	</g>
	<line class="st2" x1="514.22" y1="585.21" x2="514.22" y2="588.71"/>
	<line class="st3" x1="514.22" y1="585.21" x2="514.22" y2="588.71"/>
	<path class="st2" d="M495.37,598.98h3.44v0.83h-4.63v-0.83c0.37-0.38,0.88-0.9,1.53-1.56c0.64-0.65,1.05-1.07,1.22-1.26
		c0.32-0.35,0.54-0.65,0.66-0.9c0.12-0.24,0.19-0.49,0.19-0.73c0-0.38-0.14-0.7-0.41-0.94c-0.27-0.24-0.62-0.37-1.06-0.37
		c-0.31,0-0.64,0.06-0.98,0.16c-0.34,0.11-0.71,0.27-1.1,0.49v-1c0.4-0.16,0.77-0.28,1.11-0.36c0.34-0.08,0.66-0.12,0.95-0.12
		c0.75,0,1.35,0.19,1.8,0.57c0.45,0.38,0.68,0.88,0.68,1.51c0,0.3-0.06,0.59-0.17,0.85c-0.11,0.27-0.31,0.59-0.61,0.95
		c-0.08,0.1-0.34,0.37-0.78,0.82C496.77,597.54,496.16,598.17,495.37,598.98"/>
	<path class="st2" d="M502.99,592.39c0.81,0,1.43,0.33,1.87,0.97c0.43,0.65,0.65,1.59,0.65,2.81c0,1.23-0.22,2.17-0.65,2.81
		c-0.44,0.64-1.06,0.96-1.87,0.96c-0.82,0-1.45-0.32-1.88-0.96s-0.64-1.58-0.64-2.81c0-1.22,0.21-2.16,0.64-2.81
		C501.54,592.72,502.17,592.39,502.99,592.39 M502.99,593.17c-0.51,0-0.89,0.25-1.15,0.75c-0.26,0.5-0.38,1.25-0.38,2.25
		s0.12,1.75,0.38,2.25c0.26,0.5,0.64,0.75,1.15,0.75s0.89-0.25,1.15-0.75c0.25-0.5,0.38-1.25,0.38-2.25s-0.13-1.75-0.38-2.25
		C503.88,593.42,503.5,593.17,502.99,593.17"/>
	<polyline class="st2" points="507.41,598.98 509.02,598.98 509.02,593.42 507.27,593.77 507.27,592.87 509.01,592.52 510,592.52 
		510,598.98 511.61,598.98 511.61,599.81 507.41,599.81 507.41,598.98 	"/>
	<polyline class="st2" points="513.77,598.98 515.38,598.98 515.38,593.42 513.63,593.77 513.63,592.87 515.37,592.52 
		516.36,592.52 516.36,598.98 517.97,598.98 517.97,599.81 513.77,599.81 513.77,598.98 	"/>
	<polyline class="st2" points="521.43,592.52 522.26,592.52 519.72,600.73 518.89,600.73 521.43,592.52 	"/>
	<polyline class="st2" points="523.5,598.98 525.11,598.98 525.11,593.42 523.36,593.77 523.36,592.87 525.1,592.52 526.09,592.52 
		526.09,598.98 527.7,598.98 527.7,599.81 523.5,599.81 523.5,598.98 	"/>
	<path class="st2" d="M530.54,598.98h3.44v0.83h-4.63v-0.83c0.37-0.38,0.88-0.9,1.53-1.56c0.64-0.65,1.05-1.07,1.22-1.26
		c0.32-0.35,0.54-0.65,0.66-0.9c0.12-0.24,0.19-0.49,0.19-0.73c0-0.38-0.14-0.7-0.41-0.94c-0.27-0.24-0.62-0.37-1.06-0.37
		c-0.31,0-0.64,0.06-0.98,0.16c-0.34,0.11-0.71,0.27-1.1,0.49v-1c0.4-0.16,0.77-0.28,1.11-0.36c0.34-0.08,0.66-0.12,0.95-0.12
		c0.75,0,1.35,0.19,1.8,0.57c0.45,0.38,0.68,0.88,0.68,1.51c0,0.3-0.06,0.59-0.17,0.85c-0.11,0.27-0.31,0.59-0.61,0.95
		c-0.08,0.1-0.34,0.37-0.78,0.82C531.94,597.54,531.33,598.17,530.54,598.98"/>
	<g class="st0">
		<defs>
			<rect id="SVGID_13_" x="57.67" y="41.61" width="1116" height="543.6"/>
		</defs>
		<clipPath id="SVGID_14_">
			<use xlink:href="#SVGID_13_"  style="overflow:visible;"/>
		</clipPath>
		<line class="st8" x1="615.67" y1="585.21" x2="615.67" y2="41.61"/>
	</g>
	<line class="st2" x1="615.67" y1="585.21" x2="615.67" y2="588.71"/>
	<line class="st3" x1="615.67" y1="585.21" x2="615.67" y2="588.71"/>
	<path class="st2" d="M596.83,598.98h3.44v0.83h-4.63v-0.83c0.37-0.38,0.88-0.9,1.53-1.56c0.64-0.65,1.05-1.07,1.22-1.26
		c0.32-0.35,0.54-0.65,0.66-0.9c0.12-0.24,0.19-0.49,0.19-0.73c0-0.38-0.14-0.7-0.41-0.94c-0.27-0.24-0.62-0.37-1.06-0.37
		c-0.31,0-0.64,0.06-0.98,0.16c-0.34,0.11-0.71,0.27-1.1,0.49v-1c0.4-0.16,0.77-0.28,1.11-0.36c0.34-0.08,0.66-0.12,0.95-0.12
		c0.75,0,1.35,0.19,1.8,0.57c0.45,0.38,0.68,0.88,0.68,1.51c0,0.3-0.06,0.59-0.17,0.85c-0.11,0.27-0.31,0.59-0.61,0.95
		c-0.08,0.1-0.34,0.37-0.78,0.82C598.23,597.54,597.62,598.17,596.83,598.98"/>
	<path class="st2" d="M604.45,592.39c0.81,0,1.43,0.33,1.87,0.97c0.43,0.65,0.65,1.59,0.65,2.81c0,1.23-0.22,2.17-0.65,2.81
		c-0.44,0.64-1.06,0.96-1.87,0.96c-0.82,0-1.45-0.32-1.88-0.96s-0.64-1.58-0.64-2.81c0-1.22,0.21-2.16,0.64-2.81
		C603,592.72,603.63,592.39,604.45,592.39 M604.45,593.17c-0.51,0-0.89,0.25-1.15,0.75c-0.26,0.5-0.38,1.25-0.38,2.25
		s0.12,1.75,0.38,2.25c0.26,0.5,0.64,0.75,1.15,0.75s0.89-0.25,1.15-0.75c0.25-0.5,0.38-1.25,0.38-2.25s-0.13-1.75-0.38-2.25
		C605.34,593.42,604.96,593.17,604.45,593.17"/>
	<polyline class="st2" points="608.87,598.98 610.48,598.98 610.48,593.42 608.73,593.77 608.73,592.87 610.47,592.52 
		611.46,592.52 611.46,598.98 613.07,598.98 613.07,599.81 608.87,599.81 608.87,598.98 	"/>
	<path class="st2" d="M615.91,598.98h3.44v0.83h-4.63v-0.83c0.37-0.38,0.88-0.9,1.53-1.56c0.64-0.65,1.05-1.07,1.22-1.26
		c0.32-0.35,0.54-0.65,0.66-0.9c0.12-0.24,0.19-0.49,0.19-0.73c0-0.38-0.14-0.7-0.41-0.94c-0.27-0.24-0.62-0.37-1.06-0.37
		c-0.31,0-0.64,0.06-0.98,0.16c-0.34,0.11-0.71,0.27-1.1,0.49v-1c0.4-0.16,0.77-0.28,1.11-0.36c0.34-0.08,0.66-0.12,0.95-0.12
		c0.75,0,1.35,0.19,1.8,0.57c0.45,0.38,0.68,0.88,0.68,1.51c0,0.3-0.06,0.59-0.17,0.85c-0.11,0.27-0.31,0.59-0.61,0.95
		c-0.08,0.1-0.34,0.37-0.78,0.82C617.31,597.54,616.7,598.17,615.91,598.98"/>
	<polyline class="st2" points="622.89,592.52 623.72,592.52 621.18,600.73 620.35,600.73 622.89,592.52 	"/>
	<polyline class="st2" points="624.96,598.98 626.57,598.98 626.57,593.42 624.82,593.77 624.82,592.87 626.56,592.52 
		627.55,592.52 627.55,598.98 629.16,598.98 629.16,599.81 624.96,599.81 624.96,598.98 	"/>
	<path class="st2" d="M634.14,595.88c0.47,0.1,0.84,0.31,1.1,0.63c0.26,0.32,0.4,0.72,0.4,1.18c0,0.72-0.25,1.28-0.74,1.67
		c-0.5,0.39-1.2,0.58-2.11,0.58c-0.31,0-0.63-0.03-0.95-0.09c-0.32-0.05-0.66-0.14-1-0.26v-0.95c0.27,0.16,0.57,0.28,0.9,0.36
		c0.32,0.08,0.66,0.12,1.02,0.12c0.62,0,1.09-0.12,1.41-0.36c0.32-0.24,0.49-0.6,0.49-1.07c0-0.42-0.15-0.76-0.45-1
		s-0.72-0.37-1.26-0.37h-0.85v-0.81h0.89c0.48,0,0.85-0.09,1.11-0.29c0.26-0.19,0.39-0.47,0.39-0.84s-0.14-0.66-0.4-0.86
		c-0.27-0.2-0.65-0.3-1.14-0.3c-0.27,0-0.56,0.03-0.87,0.09s-0.65,0.15-1.02,0.27v-0.88c0.37-0.1,0.72-0.18,1.05-0.23
		c0.32-0.05,0.63-0.08,0.93-0.08c0.74,0,1.33,0.17,1.77,0.51c0.44,0.34,0.66,0.8,0.66,1.38c0,0.4-0.12,0.74-0.35,1.02
		C634.89,595.58,634.56,595.78,634.14,595.88"/>
	<g class="st0">
		<defs>
			<rect id="SVGID_15_" x="57.67" y="41.61" width="1116" height="543.6"/>
		</defs>
		<clipPath id="SVGID_16_">
			<use xlink:href="#SVGID_15_"  style="overflow:visible;"/>
		</clipPath>
		<line class="st9" x1="717.13" y1="585.21" x2="717.13" y2="41.61"/>
	</g>
	<line class="st2" x1="717.13" y1="585.21" x2="717.13" y2="588.71"/>
	<line class="st3" x1="717.13" y1="585.21" x2="717.13" y2="588.71"/>
	<path class="st2" d="M698.28,598.98h3.44v0.83h-4.63v-0.83c0.37-0.38,0.88-0.9,1.53-1.56c0.64-0.65,1.05-1.07,1.22-1.26
		c0.32-0.35,0.54-0.65,0.66-0.9c0.12-0.24,0.19-0.49,0.19-0.73c0-0.38-0.14-0.7-0.41-0.94c-0.27-0.24-0.62-0.37-1.06-0.37
		c-0.31,0-0.64,0.06-0.98,0.16c-0.34,0.11-0.71,0.27-1.1,0.49v-1c0.4-0.16,0.77-0.28,1.11-0.36c0.34-0.08,0.66-0.12,0.95-0.12
		c0.75,0,1.35,0.19,1.8,0.57c0.45,0.38,0.68,0.88,0.68,1.51c0,0.3-0.06,0.59-0.17,0.85c-0.11,0.27-0.31,0.59-0.61,0.95
		c-0.08,0.1-0.34,0.37-0.78,0.82C699.68,597.54,699.07,598.17,698.28,598.98"/>
	<path class="st2" d="M705.9,592.39c0.81,0,1.43,0.33,1.87,0.97c0.43,0.65,0.65,1.59,0.65,2.81c0,1.23-0.22,2.17-0.65,2.81
		c-0.44,0.64-1.06,0.96-1.87,0.96c-0.82,0-1.45-0.32-1.88-0.96s-0.64-1.58-0.64-2.81c0-1.22,0.21-2.16,0.64-2.81
		C704.45,592.72,705.08,592.39,705.9,592.39 M705.9,593.17c-0.51,0-0.89,0.25-1.15,0.75c-0.26,0.5-0.38,1.25-0.38,2.25
		s0.12,1.75,0.38,2.25c0.26,0.5,0.64,0.75,1.15,0.75s0.89-0.25,1.15-0.75c0.25-0.5,0.38-1.25,0.38-2.25s-0.13-1.75-0.38-2.25
		C706.79,593.42,706.41,593.17,705.9,593.17"/>
	<polyline class="st2" points="710.32,598.98 711.93,598.98 711.93,593.42 710.18,593.77 710.18,592.87 711.92,592.52 
		712.91,592.52 712.91,598.98 714.52,598.98 714.52,599.81 710.32,599.81 710.32,598.98 	"/>
	<path class="st2" d="M719.5,595.88c0.47,0.1,0.84,0.31,1.1,0.63c0.26,0.32,0.4,0.72,0.4,1.18c0,0.72-0.25,1.28-0.74,1.67
		c-0.5,0.39-1.2,0.58-2.11,0.58c-0.31,0-0.63-0.03-0.95-0.09c-0.32-0.05-0.66-0.14-1-0.26v-0.95c0.27,0.16,0.57,0.28,0.9,0.36
		c0.32,0.08,0.66,0.12,1.02,0.12c0.62,0,1.09-0.12,1.41-0.36c0.32-0.24,0.49-0.6,0.49-1.07c0-0.42-0.15-0.76-0.45-1
		s-0.72-0.37-1.26-0.37h-0.85v-0.81h0.89c0.48,0,0.85-0.09,1.11-0.29c0.26-0.19,0.39-0.47,0.39-0.84s-0.14-0.66-0.4-0.86
		c-0.27-0.2-0.65-0.3-1.14-0.3c-0.27,0-0.56,0.03-0.87,0.09s-0.65,0.15-1.02,0.27v-0.88c0.37-0.1,0.72-0.18,1.05-0.23
		c0.32-0.05,0.63-0.08,0.93-0.08c0.74,0,1.33,0.17,1.77,0.51c0.44,0.34,0.66,0.8,0.66,1.38c0,0.4-0.12,0.74-0.35,1.02
		C720.25,595.58,719.92,595.78,719.5,595.88"/>
	<polyline class="st2" points="724.34,592.52 725.17,592.52 722.63,600.73 721.8,600.73 724.34,592.52 	"/>
	<polyline class="st2" points="726.41,598.98 728.02,598.98 728.02,593.42 726.27,593.77 726.27,592.87 728.01,592.52 729,592.52 
		729,598.98 730.61,598.98 730.61,599.81 726.41,599.81 726.41,598.98 	"/>
	<path class="st2" d="M735.05,592.52h1.24v4.75h1.04v0.82h-1.04v1.72h-0.98v-1.72h-3.29v-0.95L735.05,592.52 M735.31,593.38
		l-2.49,3.89h2.49V593.38"/>
	<g class="st0">
		<defs>
			<rect id="SVGID_17_" x="57.67" y="41.61" width="1116" height="543.6"/>
		</defs>
		<clipPath id="SVGID_18_">
			<use xlink:href="#SVGID_17_"  style="overflow:visible;"/>
		</clipPath>
		<line class="st10" x1="818.58" y1="585.21" x2="818.58" y2="41.61"/>
	</g>
	<line class="st2" x1="818.58" y1="585.21" x2="818.58" y2="588.71"/>
	<line class="st3" x1="818.58" y1="585.21" x2="818.58" y2="588.71"/>
	<path class="st2" d="M799.74,598.98h3.44v0.83h-4.63v-0.83c0.37-0.38,0.88-0.9,1.53-1.56c0.64-0.65,1.05-1.07,1.22-1.26
		c0.32-0.35,0.54-0.65,0.66-0.9c0.12-0.24,0.19-0.49,0.19-0.73c0-0.38-0.14-0.7-0.41-0.94c-0.27-0.24-0.62-0.37-1.06-0.37
		c-0.31,0-0.64,0.06-0.98,0.16c-0.34,0.11-0.71,0.27-1.1,0.49v-1c0.4-0.16,0.77-0.28,1.11-0.36c0.34-0.08,0.66-0.12,0.95-0.12
		c0.75,0,1.35,0.19,1.8,0.57c0.45,0.38,0.68,0.88,0.68,1.51c0,0.3-0.06,0.59-0.17,0.85c-0.11,0.27-0.31,0.59-0.61,0.95
		c-0.08,0.1-0.34,0.37-0.78,0.82C801.14,597.54,800.53,598.17,799.74,598.98"/>
	<path class="st2" d="M807.36,592.39c0.81,0,1.43,0.33,1.87,0.97c0.43,0.65,0.65,1.59,0.65,2.81c0,1.23-0.22,2.17-0.65,2.81
		c-0.44,0.64-1.06,0.96-1.87,0.96c-0.82,0-1.45-0.32-1.88-0.96s-0.64-1.58-0.64-2.81c0-1.22,0.21-2.16,0.64-2.81
		C805.91,592.72,806.54,592.39,807.36,592.39 M807.36,593.17c-0.51,0-0.89,0.25-1.15,0.75c-0.26,0.5-0.38,1.25-0.38,2.25
		s0.12,1.75,0.38,2.25c0.26,0.5,0.64,0.75,1.15,0.75s0.89-0.25,1.15-0.75c0.25-0.5,0.38-1.25,0.38-2.25s-0.13-1.75-0.38-2.25
		C808.25,593.42,807.87,593.17,807.36,593.17"/>
	<polyline class="st2" points="811.78,598.98 813.39,598.98 813.39,593.42 811.64,593.77 811.64,592.87 813.38,592.52 
		814.37,592.52 814.37,598.98 815.98,598.98 815.98,599.81 811.78,599.81 811.78,598.98 	"/>
	<path class="st2" d="M820.42,592.52h1.24v4.75h1.04v0.82h-1.04v1.72h-0.98v-1.72h-3.29v-0.95L820.42,592.52 M820.68,593.38
		l-2.49,3.89h2.49V593.38"/>
	<polyline class="st2" points="825.8,592.52 826.63,592.52 824.09,600.73 823.26,600.73 825.8,592.52 	"/>
	<polyline class="st2" points="827.87,598.98 829.48,598.98 829.48,593.42 827.73,593.77 827.73,592.87 829.47,592.52 
		830.46,592.52 830.46,598.98 832.07,598.98 832.07,599.81 827.87,599.81 827.87,598.98 	"/>
	<path class="st2" d="M834.07,592.52h3.87v0.83h-2.97v1.79c0.14-0.05,0.29-0.09,0.43-0.11c0.14-0.02,0.29-0.04,0.43-0.04
		c0.81,0,1.45,0.23,1.93,0.67c0.48,0.45,0.72,1.05,0.72,1.81c0,0.79-0.25,1.4-0.74,1.83s-1.18,0.64-2.06,0.64
		c-0.31,0-0.62-0.03-0.94-0.07c-0.32-0.05-0.64-0.12-0.98-0.23v-0.99c0.29,0.16,0.59,0.28,0.91,0.36c0.31,0.08,0.64,0.11,0.99,0.11
		c0.56,0,1.01-0.14,1.34-0.44c0.32-0.3,0.49-0.7,0.49-1.21c0-0.5-0.17-0.9-0.49-1.2c-0.33-0.3-0.78-0.45-1.34-0.45
		c-0.26,0-0.53,0.03-0.79,0.09s-0.53,0.15-0.8,0.27V592.52"/>
	<g class="st0">
		<defs>
			<rect id="SVGID_19_" x="57.67" y="41.61" width="1116" height="543.6"/>
		</defs>
		<clipPath id="SVGID_20_">
			<use xlink:href="#SVGID_19_"  style="overflow:visible;"/>
		</clipPath>
		<line class="st11" x1="920.04" y1="585.21" x2="920.04" y2="41.61"/>
	</g>
	<line class="st2" x1="920.04" y1="585.21" x2="920.04" y2="588.71"/>
	<line class="st3" x1="920.04" y1="585.21" x2="920.04" y2="588.71"/>
	<path class="st2" d="M901.19,598.98h3.44v0.83H900v-0.83c0.37-0.38,0.88-0.9,1.53-1.56c0.64-0.65,1.05-1.07,1.22-1.26
		c0.32-0.35,0.54-0.65,0.66-0.9c0.12-0.24,0.19-0.49,0.19-0.73c0-0.38-0.14-0.7-0.41-0.94c-0.27-0.24-0.62-0.37-1.06-0.37
		c-0.31,0-0.64,0.06-0.98,0.16c-0.34,0.11-0.71,0.27-1.1,0.49v-1c0.4-0.16,0.77-0.28,1.11-0.36c0.34-0.08,0.66-0.12,0.95-0.12
		c0.75,0,1.35,0.19,1.8,0.57c0.45,0.38,0.68,0.88,0.68,1.51c0,0.3-0.06,0.59-0.17,0.85c-0.11,0.27-0.31,0.59-0.61,0.95
		c-0.08,0.1-0.34,0.37-0.78,0.82C902.59,597.54,901.98,598.17,901.19,598.98"/>
	<path class="st2" d="M908.81,592.39c0.81,0,1.43,0.33,1.87,0.97c0.43,0.65,0.65,1.59,0.65,2.81c0,1.23-0.22,2.17-0.65,2.81
		c-0.44,0.64-1.06,0.96-1.87,0.96c-0.82,0-1.45-0.32-1.88-0.96c-0.43-0.64-0.64-1.58-0.64-2.81c0-1.22,0.21-2.16,0.64-2.81
		C907.36,592.72,907.99,592.39,908.81,592.39 M908.81,593.17c-0.51,0-0.89,0.25-1.15,0.75s-0.38,1.25-0.38,2.25s0.12,1.75,0.38,2.25
		s0.64,0.75,1.15,0.75c0.51,0,0.89-0.25,1.15-0.75c0.25-0.5,0.38-1.25,0.38-2.25s-0.13-1.75-0.38-2.25
		C909.7,593.42,909.32,593.17,908.81,593.17"/>
	<polyline class="st2" points="913.23,598.98 914.84,598.98 914.84,593.42 913.09,593.77 913.09,592.87 914.83,592.52 
		915.82,592.52 915.82,598.98 917.43,598.98 917.43,599.81 913.23,599.81 913.23,598.98 	"/>
	<path class="st2" d="M919.43,592.52h3.87v0.83h-2.97v1.79c0.14-0.05,0.29-0.09,0.43-0.11c0.14-0.02,0.29-0.04,0.43-0.04
		c0.81,0,1.45,0.23,1.93,0.67c0.48,0.45,0.72,1.05,0.72,1.81c0,0.79-0.25,1.4-0.74,1.83s-1.18,0.64-2.06,0.64
		c-0.31,0-0.62-0.03-0.94-0.07c-0.32-0.05-0.64-0.12-0.98-0.23v-0.99c0.29,0.16,0.59,0.28,0.91,0.36c0.31,0.08,0.64,0.11,0.99,0.11
		c0.56,0,1.01-0.14,1.34-0.44c0.32-0.3,0.49-0.7,0.49-1.21c0-0.5-0.17-0.9-0.49-1.2c-0.33-0.3-0.78-0.45-1.34-0.45
		c-0.26,0-0.53,0.03-0.79,0.09s-0.53,0.15-0.8,0.27V592.52"/>
	<polyline class="st2" points="927.25,592.52 928.08,592.52 925.54,600.73 924.71,600.73 927.25,592.52 	"/>
	<polyline class="st2" points="929.32,598.98 930.93,598.98 930.93,593.42 929.18,593.77 929.18,592.87 930.92,592.52 
		931.91,592.52 931.91,598.98 933.52,598.98 933.52,599.81 929.32,599.81 929.32,598.98 	"/>
	<path class="st2" d="M939.7,592.68v0.9c-0.25-0.12-0.5-0.21-0.75-0.27c-0.26-0.06-0.51-0.09-0.75-0.09c-0.66,0-1.16,0.22-1.5,0.66
		s-0.54,1.11-0.58,1.99c0.19-0.28,0.43-0.5,0.72-0.65c0.29-0.15,0.61-0.23,0.96-0.23c0.73,0,1.31,0.23,1.73,0.67
		c0.42,0.44,0.64,1.05,0.64,1.81c0,0.75-0.23,1.35-0.67,1.8c-0.44,0.45-1.03,0.67-1.76,0.67c-0.84,0-1.49-0.32-1.93-0.96
		c-0.45-0.64-0.67-1.58-0.67-2.81c0-1.15,0.27-2.07,0.82-2.75c0.54-0.68,1.28-1.03,2.2-1.03c0.24,0,0.49,0.03,0.75,0.07
		C939.16,592.51,939.42,592.58,939.7,592.68 M937.74,595.77c-0.44,0-0.79,0.16-1.05,0.46s-0.39,0.72-0.39,1.24
		c0,0.53,0.13,0.95,0.39,1.25c0.26,0.3,0.61,0.45,1.05,0.45c0.44,0,0.79-0.15,1.05-0.45c0.26-0.3,0.39-0.72,0.39-1.25
		c0-0.52-0.13-0.94-0.39-1.24S938.18,595.77,937.74,595.77"/>
	<g class="st0">
		<defs>
			<rect id="SVGID_21_" x="57.67" y="41.61" width="1116" height="543.6"/>
		</defs>
		<clipPath id="SVGID_22_">
			<use xlink:href="#SVGID_21_"  style="overflow:visible;"/>
		</clipPath>
		<line class="st12" x1="1021.49" y1="585.21" x2="1021.49" y2="41.61"/>
	</g>
	<line class="st2" x1="1021.49" y1="585.21" x2="1021.49" y2="588.71"/>
	<line class="st3" x1="1021.49" y1="585.21" x2="1021.49" y2="588.71"/>
	<path class="st2" d="M1002.65,598.98h3.44v0.83h-4.63v-0.83c0.37-0.38,0.88-0.9,1.53-1.56c0.64-0.65,1.05-1.07,1.22-1.26
		c0.32-0.35,0.54-0.65,0.66-0.9c0.12-0.24,0.19-0.49,0.19-0.73c0-0.38-0.14-0.7-0.41-0.94c-0.27-0.24-0.62-0.37-1.06-0.37
		c-0.31,0-0.64,0.06-0.98,0.16c-0.34,0.11-0.71,0.27-1.1,0.49v-1c0.4-0.16,0.77-0.28,1.11-0.36c0.34-0.08,0.66-0.12,0.95-0.12
		c0.75,0,1.35,0.19,1.8,0.57c0.45,0.38,0.68,0.88,0.68,1.51c0,0.3-0.06,0.59-0.17,0.85c-0.11,0.27-0.31,0.59-0.61,0.95
		c-0.08,0.1-0.34,0.37-0.78,0.82C1004.05,597.54,1003.44,598.17,1002.65,598.98"/>
	<path class="st2" d="M1010.27,592.39c0.81,0,1.43,0.33,1.87,0.97c0.43,0.65,0.65,1.59,0.65,2.81c0,1.23-0.22,2.17-0.65,2.81
		c-0.44,0.64-1.06,0.96-1.87,0.96c-0.82,0-1.45-0.32-1.88-0.96c-0.43-0.64-0.64-1.58-0.64-2.81c0-1.22,0.21-2.16,0.64-2.81
		C1008.82,592.72,1009.45,592.39,1010.27,592.39 M1010.27,593.17c-0.51,0-0.89,0.25-1.15,0.75s-0.38,1.25-0.38,2.25
		s0.12,1.75,0.38,2.25s0.64,0.75,1.15,0.75c0.51,0,0.89-0.25,1.15-0.75c0.25-0.5,0.38-1.25,0.38-2.25s-0.13-1.75-0.38-2.25
		C1011.16,593.42,1010.78,593.17,1010.27,593.17"/>
	<polyline class="st2" points="1014.69,598.98 1016.3,598.98 1016.3,593.42 1014.55,593.77 1014.55,592.87 1016.29,592.52 
		1017.28,592.52 1017.28,598.98 1018.89,598.98 1018.89,599.81 1014.69,599.81 1014.69,598.98 	"/>
	<path class="st2" d="M1025.07,592.68v0.9c-0.25-0.12-0.5-0.21-0.75-0.27c-0.26-0.06-0.51-0.09-0.75-0.09
		c-0.66,0-1.16,0.22-1.5,0.66s-0.54,1.11-0.58,1.99c0.19-0.28,0.43-0.5,0.72-0.65c0.29-0.15,0.61-0.23,0.96-0.23
		c0.73,0,1.31,0.23,1.73,0.67c0.42,0.44,0.64,1.05,0.64,1.81c0,0.75-0.23,1.35-0.67,1.8c-0.44,0.45-1.03,0.67-1.76,0.67
		c-0.84,0-1.49-0.32-1.93-0.96c-0.45-0.64-0.67-1.58-0.67-2.81c0-1.15,0.27-2.07,0.82-2.75c0.54-0.68,1.28-1.03,2.2-1.03
		c0.24,0,0.49,0.03,0.75,0.07C1024.53,592.51,1024.79,592.58,1025.07,592.68 M1023.11,595.77c-0.44,0-0.79,0.16-1.05,0.46
		s-0.39,0.72-0.39,1.24c0,0.53,0.13,0.95,0.39,1.25c0.26,0.3,0.61,0.45,1.05,0.45c0.44,0,0.79-0.15,1.05-0.45
		c0.26-0.3,0.39-0.72,0.39-1.25c0-0.52-0.13-0.94-0.39-1.24C1023.9,595.93,1023.55,595.77,1023.11,595.77"/>
	<polyline class="st2" points="1028.71,592.52 1029.54,592.52 1027,600.73 1026.17,600.73 1028.71,592.52 	"/>
	<polyline class="st2" points="1030.78,598.98 1032.39,598.98 1032.39,593.42 1030.64,593.77 1030.64,592.87 1032.38,592.52 
		1033.37,592.52 1033.37,598.98 1034.98,598.98 1034.98,599.81 1030.78,599.81 1030.78,598.98 	"/>
	<polyline class="st2" points="1036.72,592.52 1041.41,592.52 1041.41,592.94 1038.76,599.81 1037.73,599.81 1040.22,593.35 
		1036.72,593.35 1036.72,592.52 	"/>
	<g class="st0">
		<defs>
			<rect id="SVGID_23_" x="57.67" y="41.61" width="1116" height="543.6"/>
		</defs>
		<clipPath id="SVGID_24_">
			<use xlink:href="#SVGID_23_"  style="overflow:visible;"/>
		</clipPath>
		<line class="st13" x1="1122.95" y1="585.21" x2="1122.95" y2="41.61"/>
	</g>
	<line class="st2" x1="1122.95" y1="585.21" x2="1122.95" y2="588.71"/>
	<line class="st3" x1="1122.95" y1="585.21" x2="1122.95" y2="588.71"/>
	<path class="st2" d="M1104.1,598.98h3.44v0.83h-4.63v-0.83c0.37-0.38,0.88-0.9,1.53-1.56c0.64-0.65,1.05-1.07,1.22-1.26
		c0.32-0.35,0.54-0.65,0.66-0.9c0.12-0.24,0.19-0.49,0.19-0.73c0-0.38-0.14-0.7-0.41-0.94c-0.27-0.24-0.62-0.37-1.06-0.37
		c-0.31,0-0.64,0.06-0.98,0.16c-0.34,0.11-0.71,0.27-1.1,0.49v-1c0.4-0.16,0.77-0.28,1.11-0.36c0.34-0.08,0.66-0.12,0.95-0.12
		c0.75,0,1.35,0.19,1.8,0.57c0.45,0.38,0.68,0.88,0.68,1.51c0,0.3-0.06,0.59-0.17,0.85c-0.11,0.27-0.31,0.59-0.61,0.95
		c-0.08,0.1-0.34,0.37-0.78,0.82C1105.5,597.54,1104.89,598.17,1104.1,598.98"/>
	<path class="st2" d="M1111.72,592.39c0.81,0,1.43,0.33,1.87,0.97c0.43,0.65,0.65,1.59,0.65,2.81c0,1.23-0.22,2.17-0.65,2.81
		c-0.44,0.64-1.06,0.96-1.87,0.96c-0.82,0-1.45-0.32-1.88-0.96c-0.43-0.64-0.64-1.58-0.64-2.81c0-1.22,0.21-2.16,0.64-2.81
		C1110.27,592.72,1110.9,592.39,1111.72,592.39 M1111.72,593.17c-0.51,0-0.89,0.25-1.15,0.75s-0.38,1.25-0.38,2.25
		s0.12,1.75,0.38,2.25s0.64,0.75,1.15,0.75c0.51,0,0.89-0.25,1.15-0.75c0.25-0.5,0.38-1.25,0.38-2.25s-0.13-1.75-0.38-2.25
		C1112.61,593.42,1112.23,593.17,1111.72,593.17"/>
	<polyline class="st2" points="1116.14,598.98 1117.75,598.98 1117.75,593.42 1116,593.77 1116,592.87 1117.74,592.52 
		1118.73,592.52 1118.73,598.98 1120.34,598.98 1120.34,599.81 1116.14,599.81 1116.14,598.98 	"/>
	<polyline class="st2" points="1122.08,592.52 1126.77,592.52 1126.77,592.94 1124.12,599.81 1123.09,599.81 1125.58,593.35 
		1122.08,593.35 1122.08,592.52 	"/>
	<polyline class="st2" points="1130.16,592.52 1130.99,592.52 1128.45,600.73 1127.62,600.73 1130.16,592.52 	"/>
	<polyline class="st2" points="1132.23,598.98 1133.84,598.98 1133.84,593.42 1132.09,593.77 1132.09,592.87 1133.83,592.52 
		1134.82,592.52 1134.82,598.98 1136.43,598.98 1136.43,599.81 1132.23,599.81 1132.23,598.98 	"/>
	<path class="st2" d="M1139.18,594.37c0,0.38,0.11,0.68,0.35,0.89c0.24,0.21,0.57,0.31,1,0.31c0.42,0,0.75-0.1,0.99-0.31
		c0.24-0.21,0.36-0.51,0.36-0.89s-0.12-0.67-0.36-0.88s-0.57-0.32-0.99-0.32c-0.43,0-0.76,0.11-1,0.32
		C1139.29,593.7,1139.18,593.99,1139.18,594.37 M1139.54,595.93c-0.42-0.1-0.75-0.3-0.99-0.59c-0.24-0.29-0.35-0.64-0.35-1.06
		c0-0.58,0.2-1.04,0.62-1.38c0.41-0.34,0.98-0.51,1.71-0.51c0.72,0,1.29,0.17,1.71,0.51c0.41,0.34,0.62,0.8,0.62,1.38
		c0,0.42-0.12,0.77-0.36,1.06c-0.24,0.29-0.56,0.49-0.98,0.59c0.47,0.11,0.84,0.33,1.11,0.65c0.26,0.32,0.4,0.72,0.4,1.18
		c0,0.71-0.22,1.25-0.65,1.62c-0.44,0.38-1.05,0.56-1.85,0.56c-0.81,0-1.43-0.18-1.86-0.56c-0.43-0.37-0.64-0.91-0.64-1.62
		c0-0.46,0.13-0.86,0.4-1.18C1138.69,596.26,1139.06,596.04,1139.54,595.93 M1140.53,596.35c-0.47,0-0.84,0.13-1.11,0.38
		c-0.27,0.25-0.4,0.59-0.4,1.03s0.13,0.79,0.4,1.04c0.27,0.25,0.64,0.37,1.11,0.37c0.46,0,0.83-0.12,1.1-0.38
		c0.27-0.25,0.41-0.59,0.41-1.03s-0.14-0.78-0.4-1.03C1141.37,596.48,1141,596.35,1140.53,596.35"/>
	<g class="st0">
		<defs>
			<rect id="SVGID_25_" x="57.67" y="41.61" width="1116" height="543.6"/>
		</defs>
		<clipPath id="SVGID_26_">
			<use xlink:href="#SVGID_25_"  style="overflow:visible;"/>
		</clipPath>
		<line class="st14" x1="57.67" y1="493.53" x2="1173.67" y2="493.53"/>
	</g>
	<line class="st2" x1="57.67" y1="493.53" x2="54.17" y2="493.53"/>
	<line class="st3" x1="57.67" y1="493.53" x2="54.17" y2="493.53"/>
	<path class="st2" d="M22.4,490.04h1.24v4.75h1.04v0.82h-1.04v1.72h-0.98v-1.72h-3.29v-0.95L22.4,490.04 M22.66,490.9l-2.49,3.89
		h2.49V490.9"/>
	<path class="st2" d="M28.42,489.91c0.81,0,1.43,0.33,1.87,0.97c0.43,0.65,0.65,1.59,0.65,2.81c0,1.23-0.22,2.17-0.65,2.81
		c-0.44,0.64-1.06,0.96-1.87,0.96c-0.82,0-1.45-0.32-1.88-0.96c-0.43-0.64-0.64-1.58-0.64-2.81c0-1.22,0.21-2.16,0.64-2.81
		C26.97,490.24,27.6,489.91,28.42,489.91 M28.42,490.69c-0.51,0-0.89,0.25-1.15,0.75s-0.38,1.25-0.38,2.25s0.12,1.75,0.38,2.25
		s0.64,0.75,1.15,0.75c0.51,0,0.89-0.25,1.15-0.75c0.25-0.5,0.38-1.25,0.38-2.25s-0.13-1.75-0.38-2.25
		C29.31,490.94,28.93,490.69,28.42,490.69"/>
	<path class="st2" d="M34.78,489.91c0.81,0,1.43,0.33,1.87,0.97c0.43,0.65,0.65,1.59,0.65,2.81c0,1.23-0.22,2.17-0.65,2.81
		c-0.44,0.64-1.06,0.96-1.87,0.96c-0.82,0-1.45-0.32-1.88-0.96c-0.43-0.64-0.64-1.58-0.64-2.81c0-1.22,0.21-2.16,0.64-2.81
		C33.33,490.24,33.96,489.91,34.78,489.91 M34.78,490.69c-0.51,0-0.89,0.25-1.15,0.75s-0.38,1.25-0.38,2.25s0.12,1.75,0.38,2.25
		s0.64,0.75,1.15,0.75c0.51,0,0.89-0.25,1.15-0.75c0.25-0.5,0.38-1.25,0.38-2.25s-0.13-1.75-0.38-2.25
		C35.67,490.94,35.29,490.69,34.78,490.69"/>
	<path class="st2" d="M41.14,489.91c0.81,0,1.43,0.33,1.87,0.97c0.43,0.65,0.65,1.59,0.65,2.81c0,1.23-0.22,2.17-0.65,2.81
		c-0.44,0.64-1.06,0.96-1.87,0.96c-0.82,0-1.45-0.32-1.88-0.96c-0.43-0.64-0.64-1.58-0.64-2.81c0-1.22,0.21-2.16,0.64-2.81
		C39.69,490.24,40.32,489.91,41.14,489.91 M41.14,490.69c-0.51,0-0.89,0.25-1.15,0.75s-0.38,1.25-0.38,2.25s0.12,1.75,0.38,2.25
		s0.64,0.75,1.15,0.75c0.51,0,0.89-0.25,1.15-0.75c0.25-0.5,0.38-1.25,0.38-2.25s-0.13-1.75-0.38-2.25
		C42.03,490.94,41.65,490.69,41.14,490.69"/>
	<path class="st2" d="M47.5,489.91c0.81,0,1.43,0.33,1.87,0.97c0.43,0.65,0.65,1.59,0.65,2.81c0,1.23-0.22,2.17-0.65,2.81
		c-0.44,0.64-1.06,0.96-1.87,0.96c-0.82,0-1.45-0.32-1.88-0.96c-0.43-0.64-0.64-1.58-0.64-2.81c0-1.22,0.21-2.16,0.64-2.81
		C46.05,490.24,46.68,489.91,47.5,489.91 M47.5,490.69c-0.51,0-0.89,0.25-1.15,0.75s-0.38,1.25-0.38,2.25s0.12,1.75,0.38,2.25
		s0.64,0.75,1.15,0.75c0.51,0,0.89-0.25,1.15-0.75c0.25-0.5,0.38-1.25,0.38-2.25s-0.13-1.75-0.38-2.25
		C48.39,490.94,48.01,490.69,47.5,490.69"/>
	<g class="st0">
		<defs>
			<rect id="SVGID_27_" x="57.67" y="41.61" width="1116" height="543.6"/>
		</defs>
		<clipPath id="SVGID_28_">
			<use xlink:href="#SVGID_27_"  style="overflow:visible;"/>
		</clipPath>
		<line class="st15" x1="57.67" y1="394.77" x2="1173.67" y2="394.77"/>
	</g>
	<line class="st2" x1="57.67" y1="394.77" x2="54.17" y2="394.77"/>
	<line class="st3" x1="57.67" y1="394.77" x2="54.17" y2="394.77"/>
	<path class="st2" d="M24.14,391.44v0.9c-0.25-0.12-0.5-0.21-0.75-0.27c-0.26-0.06-0.51-0.09-0.75-0.09c-0.66,0-1.16,0.22-1.5,0.66
		c-0.34,0.44-0.54,1.11-0.58,1.99c0.19-0.28,0.43-0.5,0.72-0.65c0.29-0.15,0.61-0.23,0.96-0.23c0.73,0,1.31,0.23,1.73,0.67
		s0.64,1.05,0.64,1.81c0,0.75-0.23,1.35-0.67,1.8c-0.44,0.45-1.03,0.67-1.76,0.67c-0.84,0-1.49-0.32-1.93-0.96
		c-0.45-0.64-0.67-1.58-0.67-2.81c0-1.15,0.27-2.07,0.82-2.75c0.54-0.68,1.28-1.03,2.2-1.03c0.24,0,0.49,0.03,0.75,0.07
		C23.6,391.27,23.86,391.34,24.14,391.44 M22.18,394.53c-0.44,0-0.79,0.16-1.05,0.46c-0.26,0.3-0.39,0.72-0.39,1.24
		c0,0.53,0.13,0.95,0.39,1.25c0.26,0.3,0.61,0.45,1.05,0.45s0.79-0.15,1.05-0.45c0.26-0.3,0.39-0.72,0.39-1.25
		c0-0.52-0.13-0.94-0.39-1.24C22.97,394.69,22.62,394.53,22.18,394.53"/>
	<path class="st2" d="M28.42,391.15c0.81,0,1.43,0.33,1.87,0.97c0.43,0.65,0.65,1.59,0.65,2.81c0,1.23-0.22,2.17-0.65,2.81
		c-0.44,0.64-1.06,0.96-1.87,0.96c-0.82,0-1.45-0.32-1.88-0.96c-0.43-0.64-0.64-1.58-0.64-2.81c0-1.22,0.21-2.16,0.64-2.81
		C26.97,391.48,27.6,391.15,28.42,391.15 M28.42,391.93c-0.51,0-0.89,0.25-1.15,0.75s-0.38,1.25-0.38,2.25s0.12,1.75,0.38,2.25
		s0.64,0.75,1.15,0.75c0.51,0,0.89-0.25,1.15-0.75c0.25-0.5,0.38-1.25,0.38-2.25s-0.13-1.75-0.38-2.25
		C29.31,392.18,28.93,391.93,28.42,391.93"/>
	<path class="st2" d="M34.78,391.15c0.81,0,1.43,0.33,1.87,0.97c0.43,0.65,0.65,1.59,0.65,2.81c0,1.23-0.22,2.17-0.65,2.81
		c-0.44,0.64-1.06,0.96-1.87,0.96c-0.82,0-1.45-0.32-1.88-0.96c-0.43-0.64-0.64-1.58-0.64-2.81c0-1.22,0.21-2.16,0.64-2.81
		C33.33,391.48,33.96,391.15,34.78,391.15 M34.78,391.93c-0.51,0-0.89,0.25-1.15,0.75s-0.38,1.25-0.38,2.25s0.12,1.75,0.38,2.25
		s0.64,0.75,1.15,0.75c0.51,0,0.89-0.25,1.15-0.75c0.25-0.5,0.38-1.25,0.38-2.25s-0.13-1.75-0.38-2.25
		C35.67,392.18,35.29,391.93,34.78,391.93"/>
	<path class="st2" d="M41.14,391.15c0.81,0,1.43,0.33,1.87,0.97c0.43,0.65,0.65,1.59,0.65,2.81c0,1.23-0.22,2.17-0.65,2.81
		c-0.44,0.64-1.06,0.96-1.87,0.96c-0.82,0-1.45-0.32-1.88-0.96c-0.43-0.64-0.64-1.58-0.64-2.81c0-1.22,0.21-2.16,0.64-2.81
		C39.69,391.48,40.32,391.15,41.14,391.15 M41.14,391.93c-0.51,0-0.89,0.25-1.15,0.75s-0.38,1.25-0.38,2.25s0.12,1.75,0.38,2.25
		s0.64,0.75,1.15,0.75c0.51,0,0.89-0.25,1.15-0.75c0.25-0.5,0.38-1.25,0.38-2.25s-0.13-1.75-0.38-2.25
		C42.03,392.18,41.65,391.93,41.14,391.93"/>
	<path class="st2" d="M47.5,391.15c0.81,0,1.43,0.33,1.87,0.97c0.43,0.65,0.65,1.59,0.65,2.81c0,1.23-0.22,2.17-0.65,2.81
		c-0.44,0.64-1.06,0.96-1.87,0.96c-0.82,0-1.45-0.32-1.88-0.96c-0.43-0.64-0.64-1.58-0.64-2.81c0-1.22,0.21-2.16,0.64-2.81
		C46.05,391.48,46.68,391.15,47.5,391.15 M47.5,391.93c-0.51,0-0.89,0.25-1.15,0.75s-0.38,1.25-0.38,2.25s0.12,1.75,0.38,2.25
		s0.64,0.75,1.15,0.75c0.51,0,0.89-0.25,1.15-0.75c0.25-0.5,0.38-1.25,0.38-2.25s-0.13-1.75-0.38-2.25
		C48.39,392.18,48.01,391.93,47.5,391.93"/>
	<g class="st0">
		<defs>
			<rect id="SVGID_29_" x="57.67" y="41.61" width="1116" height="543.6"/>
		</defs>
		<clipPath id="SVGID_30_">
			<use xlink:href="#SVGID_29_"  style="overflow:visible;"/>
		</clipPath>
		<line class="st16" x1="57.67" y1="296.01" x2="1173.67" y2="296.01"/>
	</g>
	<line class="st2" x1="57.67" y1="296.01" x2="54.17" y2="296.01"/>
	<line class="st3" x1="57.67" y1="296.01" x2="54.17" y2="296.01"/>
	<path class="st2" d="M20.71,294.37c0,0.38,0.11,0.68,0.35,0.89c0.24,0.21,0.57,0.31,1,0.31c0.42,0,0.75-0.1,0.99-0.31
		c0.24-0.21,0.36-0.51,0.36-0.89s-0.12-0.67-0.36-0.88s-0.57-0.32-0.99-0.32c-0.43,0-0.76,0.11-1,0.32
		C20.82,293.7,20.71,293.99,20.71,294.37 M21.07,295.93c-0.42-0.1-0.75-0.3-0.99-0.59c-0.24-0.29-0.35-0.64-0.35-1.06
		c0-0.58,0.2-1.04,0.62-1.38c0.41-0.34,0.98-0.51,1.71-0.51c0.72,0,1.29,0.17,1.71,0.51c0.41,0.34,0.62,0.8,0.62,1.38
		c0,0.42-0.12,0.77-0.36,1.06c-0.24,0.29-0.56,0.49-0.98,0.59c0.47,0.11,0.84,0.33,1.11,0.65c0.26,0.32,0.4,0.72,0.4,1.18
		c0,0.71-0.22,1.25-0.65,1.62c-0.44,0.38-1.05,0.56-1.85,0.56c-0.81,0-1.43-0.18-1.86-0.56c-0.43-0.37-0.64-0.91-0.64-1.62
		c0-0.46,0.13-0.86,0.4-1.18C20.22,296.26,20.59,296.04,21.07,295.93 M22.06,296.35c-0.47,0-0.84,0.13-1.11,0.38
		c-0.27,0.25-0.4,0.59-0.4,1.03s0.13,0.79,0.4,1.04c0.27,0.25,0.64,0.37,1.11,0.37c0.46,0,0.83-0.12,1.1-0.38
		c0.27-0.25,0.41-0.59,0.41-1.03s-0.14-0.78-0.4-1.03C22.9,296.48,22.53,296.35,22.06,296.35"/>
	<path class="st2" d="M28.42,292.39c0.81,0,1.43,0.33,1.87,0.97c0.43,0.65,0.65,1.59,0.65,2.81c0,1.23-0.22,2.17-0.65,2.81
		c-0.44,0.64-1.06,0.96-1.87,0.96c-0.82,0-1.45-0.32-1.88-0.96c-0.43-0.64-0.64-1.58-0.64-2.81c0-1.22,0.21-2.16,0.64-2.81
		C26.97,292.72,27.6,292.39,28.42,292.39 M28.42,293.17c-0.51,0-0.89,0.25-1.15,0.75s-0.38,1.25-0.38,2.25s0.12,1.75,0.38,2.25
		s0.64,0.75,1.15,0.75c0.51,0,0.89-0.25,1.15-0.75c0.25-0.5,0.38-1.25,0.38-2.25s-0.13-1.75-0.38-2.25
		C29.31,293.42,28.93,293.17,28.42,293.17"/>
	<path class="st2" d="M34.78,292.39c0.81,0,1.43,0.33,1.87,0.97c0.43,0.65,0.65,1.59,0.65,2.81c0,1.23-0.22,2.17-0.65,2.81
		c-0.44,0.64-1.06,0.96-1.87,0.96c-0.82,0-1.45-0.32-1.88-0.96c-0.43-0.64-0.64-1.58-0.64-2.81c0-1.22,0.21-2.16,0.64-2.81
		C33.33,292.72,33.96,292.39,34.78,292.39 M34.78,293.17c-0.51,0-0.89,0.25-1.15,0.75s-0.38,1.25-0.38,2.25s0.12,1.75,0.38,2.25
		s0.64,0.75,1.15,0.75c0.51,0,0.89-0.25,1.15-0.75c0.25-0.5,0.38-1.25,0.38-2.25s-0.13-1.75-0.38-2.25
		C35.67,293.42,35.29,293.17,34.78,293.17"/>
	<path class="st2" d="M41.14,292.39c0.81,0,1.43,0.33,1.87,0.97c0.43,0.65,0.65,1.59,0.65,2.81c0,1.23-0.22,2.17-0.65,2.81
		c-0.44,0.64-1.06,0.96-1.87,0.96c-0.82,0-1.45-0.32-1.88-0.96c-0.43-0.64-0.64-1.58-0.64-2.81c0-1.22,0.21-2.16,0.64-2.81
		C39.69,292.72,40.32,292.39,41.14,292.39 M41.14,293.17c-0.51,0-0.89,0.25-1.15,0.75s-0.38,1.25-0.38,2.25s0.12,1.75,0.38,2.25
		s0.64,0.75,1.15,0.75c0.51,0,0.89-0.25,1.15-0.75c0.25-0.5,0.38-1.25,0.38-2.25s-0.13-1.75-0.38-2.25
		C42.03,293.42,41.65,293.17,41.14,293.17"/>
	<path class="st2" d="M47.5,292.39c0.81,0,1.43,0.33,1.87,0.97c0.43,0.65,0.65,1.59,0.65,2.81c0,1.23-0.22,2.17-0.65,2.81
		c-0.44,0.64-1.06,0.96-1.87,0.96c-0.82,0-1.45-0.32-1.88-0.96c-0.43-0.64-0.64-1.58-0.64-2.81c0-1.22,0.21-2.16,0.64-2.81
		C46.05,292.72,46.68,292.39,47.5,292.39 M47.5,293.17c-0.51,0-0.89,0.25-1.15,0.75s-0.38,1.25-0.38,2.25s0.12,1.75,0.38,2.25
		s0.64,0.75,1.15,0.75c0.51,0,0.89-0.25,1.15-0.75c0.25-0.5,0.38-1.25,0.38-2.25s-0.13-1.75-0.38-2.25
		C48.39,293.42,48.01,293.17,47.5,293.17"/>
	<g class="st0">
		<defs>
			<rect id="SVGID_31_" x="57.67" y="41.61" width="1116" height="543.6"/>
		</defs>
		<clipPath id="SVGID_32_">
			<use xlink:href="#SVGID_31_"  style="overflow:visible;"/>
		</clipPath>
		<line class="st17" x1="57.67" y1="197.26" x2="1173.67" y2="197.26"/>
	</g>
	<line class="st2" x1="57.67" y1="197.26" x2="54.17" y2="197.26"/>
	<line class="st3" x1="57.67" y1="197.26" x2="54.17" y2="197.26"/>
	<polyline class="st2" points="13.76,200.22 15.37,200.22 15.37,194.66 13.62,195.01 13.62,194.11 15.36,193.76 16.35,193.76 
		16.35,200.22 17.96,200.22 17.96,201.05 13.76,201.05 13.76,200.22 	"/>
	<path class="st2" d="M22.06,193.63c0.81,0,1.43,0.33,1.87,0.97c0.43,0.65,0.65,1.59,0.65,2.81c0,1.23-0.22,2.17-0.65,2.81
		c-0.44,0.64-1.06,0.96-1.87,0.96c-0.82,0-1.45-0.32-1.88-0.96c-0.43-0.64-0.64-1.58-0.64-2.81c0-1.22,0.21-2.16,0.64-2.81
		C20.61,193.96,21.24,193.63,22.06,193.63 M22.06,194.41c-0.51,0-0.89,0.25-1.15,0.75s-0.38,1.25-0.38,2.25s0.12,1.75,0.38,2.25
		s0.64,0.75,1.15,0.75c0.51,0,0.89-0.25,1.15-0.75c0.25-0.5,0.38-1.25,0.38-2.25s-0.13-1.75-0.38-2.25
		C22.95,194.66,22.57,194.41,22.06,194.41"/>
	<path class="st2" d="M28.42,193.63c0.81,0,1.43,0.33,1.87,0.97c0.43,0.65,0.65,1.59,0.65,2.81c0,1.23-0.22,2.17-0.65,2.81
		c-0.44,0.64-1.06,0.96-1.87,0.96c-0.82,0-1.45-0.32-1.88-0.96c-0.43-0.64-0.64-1.58-0.64-2.81c0-1.22,0.21-2.16,0.64-2.81
		C26.97,193.96,27.6,193.63,28.42,193.63 M28.42,194.41c-0.51,0-0.89,0.25-1.15,0.75s-0.38,1.25-0.38,2.25s0.12,1.75,0.38,2.25
		s0.64,0.75,1.15,0.75c0.51,0,0.89-0.25,1.15-0.75c0.25-0.5,0.38-1.25,0.38-2.25s-0.13-1.75-0.38-2.25
		C29.31,194.66,28.93,194.41,28.42,194.41"/>
	<path class="st2" d="M34.78,193.63c0.81,0,1.43,0.33,1.87,0.97c0.43,0.65,0.65,1.59,0.65,2.81c0,1.23-0.22,2.17-0.65,2.81
		c-0.44,0.64-1.06,0.96-1.87,0.96c-0.82,0-1.45-0.32-1.88-0.96c-0.43-0.64-0.64-1.58-0.64-2.81c0-1.22,0.21-2.16,0.64-2.81
		C33.33,193.96,33.96,193.63,34.78,193.63 M34.78,194.41c-0.51,0-0.89,0.25-1.15,0.75s-0.38,1.25-0.38,2.25s0.12,1.75,0.38,2.25
		s0.64,0.75,1.15,0.75c0.51,0,0.89-0.25,1.15-0.75c0.25-0.5,0.38-1.25,0.38-2.25s-0.13-1.75-0.38-2.25
		C35.67,194.66,35.29,194.41,34.78,194.41"/>
	<path class="st2" d="M41.14,193.63c0.81,0,1.43,0.33,1.87,0.97c0.43,0.65,0.65,1.59,0.65,2.81c0,1.23-0.22,2.17-0.65,2.81
		c-0.44,0.64-1.06,0.96-1.87,0.96c-0.82,0-1.45-0.32-1.88-0.96c-0.43-0.64-0.64-1.58-0.64-2.81c0-1.22,0.21-2.16,0.64-2.81
		C39.69,193.96,40.32,193.63,41.14,193.63 M41.14,194.41c-0.51,0-0.89,0.25-1.15,0.75s-0.38,1.25-0.38,2.25s0.12,1.75,0.38,2.25
		s0.64,0.75,1.15,0.75c0.51,0,0.89-0.25,1.15-0.75c0.25-0.5,0.38-1.25,0.38-2.25s-0.13-1.75-0.38-2.25
		C42.03,194.66,41.65,194.41,41.14,194.41"/>
	<path class="st2" d="M47.5,193.63c0.81,0,1.43,0.33,1.87,0.97c0.43,0.65,0.65,1.59,0.65,2.81c0,1.23-0.22,2.17-0.65,2.81
		c-0.44,0.64-1.06,0.96-1.87,0.96c-0.82,0-1.45-0.32-1.88-0.96c-0.43-0.64-0.64-1.58-0.64-2.81c0-1.22,0.21-2.16,0.64-2.81
		C46.05,193.96,46.68,193.63,47.5,193.63 M47.5,194.41c-0.51,0-0.89,0.25-1.15,0.75s-0.38,1.25-0.38,2.25s0.12,1.75,0.38,2.25
		s0.64,0.75,1.15,0.75c0.51,0,0.89-0.25,1.15-0.75c0.25-0.5,0.38-1.25,0.38-2.25s-0.13-1.75-0.38-2.25
		C48.39,194.66,48.01,194.41,47.5,194.41"/>
	<g class="st0">
		<defs>
			<rect id="SVGID_33_" x="57.67" y="41.61" width="1116" height="543.6"/>
		</defs>
		<clipPath id="SVGID_34_">
			<use xlink:href="#SVGID_33_"  style="overflow:visible;"/>
		</clipPath>
		<line class="st18" x1="57.67" y1="98.5" x2="1173.67" y2="98.5"/>
	</g>
	<line class="st2" x1="57.67" y1="98.5" x2="54.17" y2="98.5"/>
	<line class="st3" x1="57.67" y1="98.5" x2="54.17" y2="98.5"/>
	<polyline class="st2" points="13.76,101.46 15.37,101.46 15.37,95.9 13.62,96.25 13.62,95.35 15.36,95 16.35,95 16.35,101.46 
		17.96,101.46 17.96,102.29 13.76,102.29 13.76,101.46 	"/>
	<path class="st2" d="M20.8,101.46h3.44v0.83h-4.63v-0.83c0.37-0.38,0.88-0.9,1.53-1.56c0.64-0.65,1.05-1.07,1.22-1.26
		c0.32-0.35,0.54-0.65,0.66-0.9c0.12-0.24,0.19-0.49,0.19-0.73c0-0.38-0.14-0.7-0.41-0.94c-0.27-0.24-0.62-0.37-1.06-0.37
		c-0.31,0-0.64,0.06-0.98,0.16c-0.34,0.11-0.71,0.27-1.1,0.49v-1c0.4-0.16,0.77-0.28,1.11-0.36s0.66-0.12,0.95-0.12
		c0.75,0,1.35,0.19,1.8,0.57s0.68,0.88,0.68,1.51c0,0.3-0.06,0.59-0.17,0.85c-0.11,0.27-0.31,0.59-0.61,0.95
		c-0.08,0.1-0.34,0.37-0.78,0.82C22.2,100.02,21.59,100.65,20.8,101.46"/>
	<path class="st2" d="M28.42,94.87c0.81,0,1.43,0.33,1.87,0.97c0.43,0.65,0.65,1.59,0.65,2.81c0,1.23-0.22,2.17-0.65,2.81
		c-0.44,0.64-1.06,0.96-1.87,0.96c-0.82,0-1.45-0.32-1.88-0.96c-0.43-0.64-0.64-1.58-0.64-2.81c0-1.22,0.21-2.16,0.64-2.81
		C26.97,95.2,27.6,94.87,28.42,94.87 M28.42,95.65c-0.51,0-0.89,0.25-1.15,0.75s-0.38,1.25-0.38,2.25s0.12,1.75,0.38,2.25
		s0.64,0.75,1.15,0.75c0.51,0,0.89-0.25,1.15-0.75c0.25-0.5,0.38-1.25,0.38-2.25s-0.13-1.75-0.38-2.25
		C29.31,95.9,28.93,95.65,28.42,95.65"/>
	<path class="st2" d="M34.78,94.87c0.81,0,1.43,0.33,1.87,0.97c0.43,0.65,0.65,1.59,0.65,2.81c0,1.23-0.22,2.17-0.65,2.81
		c-0.44,0.64-1.06,0.96-1.87,0.96c-0.82,0-1.45-0.32-1.88-0.96c-0.43-0.64-0.64-1.58-0.64-2.81c0-1.22,0.21-2.16,0.64-2.81
		C33.33,95.2,33.96,94.87,34.78,94.87 M34.78,95.65c-0.51,0-0.89,0.25-1.15,0.75s-0.38,1.25-0.38,2.25s0.12,1.75,0.38,2.25
		s0.64,0.75,1.15,0.75c0.51,0,0.89-0.25,1.15-0.75c0.25-0.5,0.38-1.25,0.38-2.25s-0.13-1.75-0.38-2.25
		C35.67,95.9,35.29,95.65,34.78,95.65"/>
	<path class="st2" d="M41.14,94.87c0.81,0,1.43,0.33,1.87,0.97c0.43,0.65,0.65,1.59,0.65,2.81c0,1.23-0.22,2.17-0.65,2.81
		c-0.44,0.64-1.06,0.96-1.87,0.96c-0.82,0-1.45-0.32-1.88-0.96c-0.43-0.64-0.64-1.58-0.64-2.81c0-1.22,0.21-2.16,0.64-2.81
		C39.69,95.2,40.32,94.87,41.14,94.87 M41.14,95.65c-0.51,0-0.89,0.25-1.15,0.75s-0.38,1.25-0.38,2.25s0.12,1.75,0.38,2.25
		s0.64,0.75,1.15,0.75c0.51,0,0.89-0.25,1.15-0.75c0.25-0.5,0.38-1.25,0.38-2.25s-0.13-1.75-0.38-2.25
		C42.03,95.9,41.65,95.65,41.14,95.65"/>
	<path class="st2" d="M47.5,94.87c0.81,0,1.43,0.33,1.87,0.97c0.43,0.65,0.65,1.59,0.65,2.81c0,1.23-0.22,2.17-0.65,2.81
		c-0.44,0.64-1.06,0.96-1.87,0.96c-0.82,0-1.45-0.32-1.88-0.96c-0.43-0.64-0.64-1.58-0.64-2.81c0-1.22,0.21-2.16,0.64-2.81
		C46.05,95.2,46.68,94.87,47.5,94.87 M47.5,95.65c-0.51,0-0.89,0.25-1.15,0.75s-0.38,1.25-0.38,2.25s0.12,1.75,0.38,2.25
		s0.64,0.75,1.15,0.75c0.51,0,0.89-0.25,1.15-0.75c0.25-0.5,0.38-1.25,0.38-2.25s-0.13-1.75-0.38-2.25
		C48.39,95.9,48.01,95.65,47.5,95.65"/>
	<g class="st0">
		<defs>
			<rect id="SVGID_35_" x="57.67" y="41.61" width="1116" height="543.6"/>
		</defs>
		<clipPath id="SVGID_36_">
			<use xlink:href="#SVGID_35_"  style="overflow:visible;"/>
		</clipPath>
		<polyline class="st19" points="108.4,354.31 209.86,285.47 311.31,299.15 412.77,273.58 514.22,242.18 615.67,187.04 
			717.13,150.41 818.58,134.22 920.04,102.14 1021.49,119.03 1122.95,155.09 		"/>
	</g>
	<g class="st0">
		<defs>
			<rect id="SVGID_37_" x="57.67" y="41.61" width="1116" height="543.6"/>
		</defs>
		<clipPath id="SVGID_38_">
			<use xlink:href="#SVGID_37_"  style="overflow:visible;"/>
		</clipPath>
		<polyline class="st20" points="108.4,303.48 209.86,272.17 311.31,273.24 412.77,249.08 514.22,235.72 615.67,196.62 
			717.13,155.19 818.58,90.41 920.04,66.32 1021.49,74.36 1122.95,108.57 		"/>
	</g>
	<g class="st0">
		<defs>
			<rect id="SVGID_39_" x="57.67" y="41.61" width="1116" height="543.6"/>
		</defs>
		<clipPath id="SVGID_40_">
			<use xlink:href="#SVGID_39_"  style="overflow:visible;"/>
		</clipPath>
		<polyline class="st21" points="108.4,560.5 209.86,525.65 311.31,498.51 412.77,491.35 514.22,467.1 615.67,450.46 717.13,433.67 
			818.58,397.91 920.04,419.63 1021.49,443.62 1122.95,467.66 		"/>
	</g>
	<line class="st22" x1="57.67" y1="585.21" x2="57.67" y2="41.61"/>
	<line class="st22" x1="1173.67" y1="585.21" x2="1173.67" y2="41.61"/>
	<line class="st22" x1="57.67" y1="585.21" x2="1173.67" y2="585.21"/>
	<line class="st22" x1="57.67" y1="41.61" x2="1173.67" y2="41.61"/>
	<polyline class="st0" points="451.72,21.03 454.38,21.03 460.84,33.23 460.84,21.03 462.76,21.03 462.76,35.61 460.1,35.61 
		453.64,23.41 453.64,35.61 451.72,35.61 451.72,21.03 	"/>
	<path class="st0" d="M474.16,29.17c-0.02-0.98-0.3-1.76-0.82-2.36c-0.54-0.58-1.26-0.88-2.14-0.88c-1,0-1.8,0.3-2.4,0.86
		c-0.6,0.56-0.96,1.36-1.04,2.38H474.16 M475.96,29.69v0.88h-8.26c0.08,1.24,0.44,2.2,1.12,2.84c0.66,0.64,1.58,0.96,2.78,0.96
		c0.68,0,1.36-0.08,2-0.24c0.64-0.16,1.3-0.42,1.94-0.78v1.7c-0.64,0.28-1.3,0.5-1.98,0.62c-0.68,0.12-1.38,0.2-2.06,0.2
		c-1.76,0-3.14-0.5-4.16-1.5s-1.52-2.38-1.52-4.12c0-1.78,0.48-3.2,1.44-4.26c0.96-1.04,2.28-1.58,3.92-1.58
		c1.48,0,2.64,0.48,3.5,1.42C475.52,26.79,475.96,28.07,475.96,29.69"/>
	<polyline class="st0" points="477.86,24.67 479.66,24.67 481.9,33.21 484.14,24.67 486.26,24.67 488.5,33.21 490.74,24.67 
		492.54,24.67 489.68,35.61 487.56,35.61 485.2,26.65 482.84,35.61 480.72,35.61 477.86,24.67 	"/>
	<polyline class="st0" points="501.7,21.03 503.68,21.03 503.68,35.61 501.7,35.61 501.7,21.03 	"/>
	<path class="st0" d="M516.62,29.01v6.6h-1.8v-6.54c0-1.04-0.22-1.8-0.62-2.32c-0.4-0.52-1-0.78-1.8-0.78
		c-0.98,0-1.74,0.32-2.3,0.94s-0.84,1.46-0.84,2.52v6.18h-1.8V24.67h1.8v1.7c0.42-0.64,0.92-1.14,1.52-1.46
		c0.58-0.32,1.26-0.5,2.02-0.5c1.24,0,2.2,0.4,2.84,1.18C516.28,26.37,516.62,27.51,516.62,29.01"/>
	<path class="st0" d="M521.98,21.57v3.1h3.7v1.4h-3.7v5.94c0,0.9,0.12,1.48,0.36,1.72c0.24,0.26,0.74,0.38,1.5,0.38h1.84v1.5h-1.84
		c-1.4,0-2.36-0.26-2.88-0.78c-0.52-0.52-0.78-1.46-0.78-2.82v-5.94h-1.32v-1.4h1.32v-3.1H521.98"/>
	<path class="st0" d="M535.6,29.17c-0.02-0.98-0.3-1.76-0.82-2.36c-0.54-0.58-1.26-0.88-2.14-0.88c-1,0-1.8,0.3-2.4,0.86
		c-0.6,0.56-0.96,1.36-1.04,2.38H535.6 M537.4,29.69v0.88h-8.26c0.08,1.24,0.44,2.2,1.12,2.84c0.66,0.64,1.58,0.96,2.78,0.96
		c0.68,0,1.36-0.08,2-0.24c0.64-0.16,1.3-0.42,1.94-0.78v1.7c-0.64,0.28-1.3,0.5-1.98,0.62c-0.68,0.12-1.38,0.2-2.06,0.2
		c-1.76,0-3.14-0.5-4.16-1.5s-1.52-2.38-1.52-4.12c0-1.78,0.48-3.2,1.44-4.26c0.96-1.04,2.28-1.58,3.92-1.58
		c1.48,0,2.64,0.48,3.5,1.42C536.96,26.79,537.4,28.07,537.4,29.69"/>
	<path class="st0" d="M546.68,26.35c-0.2-0.12-0.42-0.2-0.66-0.26c-0.24-0.04-0.5-0.08-0.78-0.08c-1.02,0-1.8,0.34-2.34,1
		c-0.56,0.66-0.82,1.6-0.82,2.84v5.76h-1.8V24.67h1.8v1.7c0.36-0.66,0.86-1.16,1.46-1.48c0.6-0.32,1.34-0.48,2.22-0.48
		c0.12,0,0.26,0.02,0.42,0.02c0.14,0.02,0.3,0.04,0.5,0.08V26.35"/>
	<path class="st0" d="M557.66,29.01v6.6h-1.8v-6.54c0-1.04-0.22-1.8-0.62-2.32c-0.4-0.52-1-0.78-1.8-0.78
		c-0.98,0-1.74,0.32-2.3,0.94s-0.84,1.46-0.84,2.52v6.18h-1.8V24.67h1.8v1.7c0.42-0.64,0.92-1.14,1.52-1.46
		c0.58-0.32,1.26-0.5,2.02-0.5c1.24,0,2.2,0.4,2.84,1.18C557.32,26.37,557.66,27.51,557.66,29.01"/>
	<path class="st0" d="M569.8,29.37v6.24H568v-1.66c-0.42,0.68-0.94,1.16-1.54,1.46c-0.6,0.3-1.36,0.46-2.24,0.46
		c-1.12,0-2.02-0.3-2.68-0.92c-0.66-0.62-0.98-1.46-0.98-2.52c0-1.22,0.4-2.14,1.24-2.78c0.82-0.62,2.04-0.94,3.68-0.94H568v-0.18
		c0-0.82-0.28-1.46-0.82-1.92c-0.54-0.44-1.3-0.68-2.28-0.68c-0.64,0-1.24,0.08-1.84,0.24c-0.6,0.16-1.16,0.38-1.7,0.66v-1.66
		c0.64-0.24,1.28-0.44,1.9-0.56s1.22-0.2,1.82-0.2c1.58,0,2.76,0.42,3.54,1.24C569.4,26.47,569.8,27.71,569.8,29.37 M566.22,30.11
		c-1.46,0-2.46,0.18-3.02,0.5c-0.56,0.34-0.84,0.9-0.84,1.7c0,0.64,0.2,1.16,0.62,1.52c0.42,0.38,1,0.56,1.72,0.56
		c1,0,1.8-0.34,2.4-1.06c0.6-0.7,0.9-1.64,0.9-2.82v-0.4H566.22"/>
	<path class="st0" d="M575.28,21.57v3.1h3.7v1.4h-3.7v5.94c0,0.9,0.12,1.48,0.36,1.72c0.24,0.26,0.74,0.38,1.5,0.38h1.84v1.5h-1.84
		c-1.4,0-2.36-0.26-2.88-0.78c-0.52-0.52-0.78-1.46-0.78-2.82v-5.94h-1.32v-1.4h1.32v-3.1H575.28"/>
	<path class="st0" d="M581.34,20.41h1.8v2.28h-1.8V20.41 M581.34,24.67h1.8v10.94h-1.8V24.67"/>
	<path class="st0" d="M591.14,24.41c1.56,0,2.78,0.52,3.68,1.52c0.88,1.02,1.34,2.42,1.34,4.22c0,1.8-0.46,3.2-1.34,4.2
		c-0.9,1.02-2.12,1.52-3.68,1.52c-1.58,0-2.82-0.5-3.7-1.52c-0.88-1-1.32-2.4-1.32-4.2c0-1.8,0.44-3.2,1.32-4.22
		C588.32,24.93,589.56,24.41,591.14,24.41 M591.14,25.93c-0.96,0-1.72,0.38-2.28,1.14c-0.56,0.76-0.84,1.78-0.84,3.08
		c0,1.32,0.26,2.34,0.82,3.1s1.32,1.12,2.3,1.12c0.96,0,1.72-0.36,2.28-1.12s0.84-1.78,0.84-3.1c0-1.28-0.28-2.32-0.84-3.08
		C592.86,26.31,592.1,25.93,591.14,25.93"/>
	<path class="st0" d="M608.24,29.01v6.6h-1.8v-6.54c0-1.04-0.22-1.8-0.62-2.32c-0.4-0.52-1-0.78-1.8-0.78
		c-0.98,0-1.74,0.32-2.3,0.94s-0.84,1.46-0.84,2.52v6.18h-1.8V24.67h1.8v1.7c0.42-0.64,0.92-1.14,1.52-1.46
		c0.58-0.32,1.26-0.5,2.02-0.5c1.24,0,2.2,0.4,2.84,1.18C607.9,26.37,608.24,27.51,608.24,29.01"/>
	<path class="st0" d="M620.38,29.37v6.24h-1.8v-1.66c-0.42,0.68-0.94,1.16-1.54,1.46c-0.6,0.3-1.36,0.46-2.24,0.46
		c-1.12,0-2.02-0.3-2.68-0.92c-0.66-0.62-0.98-1.46-0.98-2.52c0-1.22,0.4-2.14,1.24-2.78c0.82-0.62,2.04-0.94,3.68-0.94h2.52v-0.18
		c0-0.82-0.28-1.46-0.82-1.92c-0.54-0.44-1.3-0.68-2.28-0.68c-0.64,0-1.24,0.08-1.84,0.24c-0.6,0.16-1.16,0.38-1.7,0.66v-1.66
		c0.64-0.24,1.28-0.44,1.9-0.56s1.22-0.2,1.82-0.2c1.58,0,2.76,0.42,3.54,1.24C619.98,26.47,620.38,27.71,620.38,29.37 M616.8,30.11
		c-1.46,0-2.46,0.18-3.02,0.5c-0.56,0.34-0.84,0.9-0.84,1.7c0,0.64,0.2,1.16,0.62,1.52c0.42,0.38,1,0.56,1.72,0.56
		c1,0,1.8-0.34,2.4-1.06c0.6-0.7,0.9-1.64,0.9-2.82v-0.4H616.8"/>
	<polyline class="st0" points="624.08,20.41 625.88,20.41 625.88,35.61 624.08,35.61 624.08,20.41 	"/>
	<path class="st0" d="M644.82,21.51v1.92c-0.76-0.36-1.46-0.62-2.12-0.8c-0.68-0.16-1.32-0.26-1.92-0.26c-1.08,0-1.92,0.22-2.5,0.62
		c-0.58,0.42-0.86,1.02-0.86,1.78c0,0.64,0.18,1.14,0.58,1.46c0.38,0.34,1.12,0.6,2.2,0.8l1.2,0.24c1.46,0.28,2.54,0.78,3.24,1.48
		c0.7,0.72,1.06,1.66,1.06,2.84c0,1.42-0.48,2.48-1.42,3.2c-0.96,0.72-2.34,1.08-4.16,1.08c-0.7,0-1.44-0.08-2.22-0.22
		c-0.78-0.14-1.58-0.36-2.4-0.68v-2.04c0.8,0.46,1.58,0.8,2.34,1.02c0.76,0.24,1.52,0.34,2.28,0.34c1.12,0,1.98-0.22,2.6-0.66
		c0.6-0.44,0.92-1.06,0.92-1.9c0-0.72-0.22-1.28-0.66-1.68s-1.16-0.7-2.16-0.9l-1.2-0.24c-1.48-0.28-2.54-0.74-3.2-1.38
		c-0.66-0.62-0.98-1.48-0.98-2.6c0-1.28,0.44-2.3,1.36-3.04c0.9-0.74,2.16-1.12,3.76-1.12c0.68,0,1.36,0.06,2.08,0.18
		C643.34,21.07,644.06,21.27,644.82,21.51"/>
	<path class="st0" d="M650.48,21.57v3.1h3.7v1.4h-3.7v5.94c0,0.9,0.12,1.48,0.36,1.72c0.24,0.26,0.74,0.38,1.5,0.38h1.84v1.5h-1.84
		c-1.4,0-2.36-0.26-2.88-0.78c-0.52-0.52-0.78-1.46-0.78-2.82v-5.94h-1.32v-1.4h1.32v-3.1H650.48"/>
	<path class="st0" d="M660.88,24.41L660.88,24.41 M656.36,31.29v-6.62h1.8v6.56c0,1.04,0.2,1.8,0.6,2.32c0.4,0.52,1,0.78,1.82,0.78
		c0.96,0,1.74-0.3,2.3-0.92c0.56-0.62,0.84-1.46,0.84-2.54v-6.2h1.8v10.94h-1.8v-1.68c-0.44,0.68-0.96,1.16-1.52,1.48
		c-0.58,0.3-1.24,0.46-2,0.46c-1.26,0-2.22-0.38-2.86-1.16C656.68,33.95,656.36,32.81,656.36,31.29"/>
	<path class="st0" d="M670.3,30.15c0,1.32,0.26,2.36,0.8,3.12c0.54,0.76,1.3,1.12,2.26,1.12c0.94,0,1.68-0.36,2.24-1.12
		c0.54-0.76,0.82-1.8,0.82-3.12s-0.28-2.34-0.82-3.1c-0.56-0.76-1.3-1.14-2.24-1.14c-0.96,0-1.72,0.38-2.26,1.14
		C670.56,27.81,670.3,28.83,670.3,30.15 M676.42,26.33v-5.92h1.8v15.2h-1.8v-1.64c-0.38,0.66-0.86,1.14-1.44,1.44
		c-0.58,0.3-1.26,0.46-2.06,0.46c-1.32,0-2.4-0.52-3.24-1.56c-0.84-1.04-1.24-2.44-1.24-4.16c0-1.72,0.4-3.1,1.24-4.16
		c0.84-1.04,1.92-1.58,3.24-1.58c0.8,0,1.48,0.16,2.06,0.48C675.56,25.21,676.04,25.69,676.42,26.33"/>
	<path class="st0" d="M689.48,29.17c-0.02-0.98-0.3-1.76-0.82-2.36c-0.54-0.58-1.26-0.88-2.14-0.88c-1,0-1.8,0.3-2.4,0.86
		c-0.6,0.56-0.96,1.36-1.04,2.38H689.48 M691.28,29.69v0.88h-8.26c0.08,1.24,0.44,2.2,1.12,2.84c0.66,0.64,1.58,0.96,2.78,0.96
		c0.68,0,1.36-0.08,2-0.24c0.64-0.16,1.3-0.42,1.94-0.78v1.7c-0.64,0.28-1.3,0.5-1.98,0.62c-0.68,0.12-1.38,0.2-2.06,0.2
		c-1.76,0-3.14-0.5-4.16-1.5s-1.52-2.38-1.52-4.12c0-1.78,0.48-3.2,1.44-4.26c0.96-1.04,2.28-1.58,3.92-1.58
		c1.48,0,2.64,0.48,3.5,1.42C690.84,26.79,691.28,28.07,691.28,29.69"/>
	<path class="st0" d="M703.32,29.01v6.6h-1.8v-6.54c0-1.04-0.22-1.8-0.62-2.32c-0.4-0.52-1-0.78-1.8-0.78
		c-0.98,0-1.74,0.32-2.3,0.94s-0.84,1.46-0.84,2.52v6.18h-1.8V24.67h1.8v1.7c0.42-0.64,0.92-1.14,1.52-1.46
		c0.58-0.32,1.26-0.5,2.02-0.5c1.24,0,2.2,0.4,2.84,1.18C702.98,26.37,703.32,27.51,703.32,29.01"/>
	<path class="st0" d="M708.68,21.57v3.1h3.7v1.4h-3.7v5.94c0,0.9,0.12,1.48,0.36,1.72c0.24,0.26,0.74,0.38,1.5,0.38h1.84v1.5h-1.84
		c-1.4,0-2.36-0.26-2.88-0.78c-0.52-0.52-0.78-1.46-0.78-2.82v-5.94h-1.32v-1.4h1.32v-3.1H708.68"/>
	<path class="st0" d="M721.72,24.99v1.7c-0.52-0.24-1.04-0.44-1.58-0.58c-0.56-0.12-1.12-0.2-1.7-0.2c-0.9,0-1.58,0.14-2.02,0.42
		c-0.44,0.28-0.66,0.68-0.66,1.22c0,0.42,0.16,0.74,0.48,0.98s0.96,0.48,1.92,0.68l0.62,0.14c1.28,0.28,2.18,0.68,2.72,1.16
		c0.52,0.5,0.8,1.2,0.8,2.08c0,1.02-0.4,1.82-1.2,2.4c-0.8,0.6-1.92,0.88-3.32,0.88c-0.6,0-1.2-0.06-1.84-0.16
		c-0.64-0.1-1.3-0.26-2-0.5v-1.86c0.66,0.36,1.32,0.62,1.96,0.78c0.64,0.18,1.28,0.26,1.92,0.26c0.84,0,1.5-0.14,1.96-0.42
		c0.44-0.28,0.68-0.7,0.68-1.24c0-0.48-0.18-0.86-0.5-1.12c-0.32-0.26-1.04-0.52-2.16-0.76l-0.62-0.14
		c-1.12-0.24-1.94-0.6-2.42-1.08c-0.5-0.48-0.74-1.14-0.74-2c0-1.02,0.36-1.82,1.08-2.38c0.72-0.56,1.76-0.84,3.12-0.84
		c0.66,0,1.28,0.06,1.88,0.16C720.68,24.67,721.22,24.81,721.72,24.99"/>
	<path class="st0" d="M731.52,20.41h1.8v2.28h-1.8V20.41 M731.52,24.67h1.8v10.94h-1.8V24.67"/>
	<path class="st0" d="M746.18,29.01v6.6h-1.8v-6.54c0-1.04-0.22-1.8-0.62-2.32c-0.4-0.52-1-0.78-1.8-0.78
		c-0.98,0-1.74,0.32-2.3,0.94s-0.84,1.46-0.84,2.52v6.18h-1.8V24.67h1.8v1.7c0.42-0.64,0.92-1.14,1.52-1.46
		c0.58-0.32,1.26-0.5,2.02-0.5c1.24,0,2.2,0.4,2.84,1.18C745.84,26.37,746.18,27.51,746.18,29.01"/>
	<path class="st0" d="M755.98,21.03h1.98v8.86c0,1.56,0.28,2.7,0.84,3.38c0.56,0.68,1.48,1.02,2.76,1.02c1.26,0,2.18-0.34,2.74-1.02
		c0.56-0.68,0.86-1.82,0.86-3.38v-8.86h1.98v9.1c0,1.92-0.48,3.34-1.42,4.3s-2.32,1.44-4.16,1.44c-1.84,0-3.24-0.48-4.18-1.44
		s-1.4-2.38-1.4-4.3V21.03"/>
	<path class="st0" d="M779.58,21.51v1.92c-0.76-0.36-1.46-0.62-2.12-0.8c-0.68-0.16-1.32-0.26-1.92-0.26c-1.08,0-1.92,0.22-2.5,0.62
		c-0.58,0.42-0.86,1.02-0.86,1.78c0,0.64,0.18,1.14,0.58,1.46c0.38,0.34,1.12,0.6,2.2,0.8l1.2,0.24c1.46,0.28,2.54,0.78,3.24,1.48
		c0.7,0.72,1.06,1.66,1.06,2.84c0,1.42-0.48,2.48-1.42,3.2c-0.96,0.72-2.34,1.08-4.16,1.08c-0.7,0-1.44-0.08-2.22-0.22
		c-0.78-0.14-1.58-0.36-2.4-0.68v-2.04c0.8,0.46,1.58,0.8,2.34,1.02c0.76,0.24,1.52,0.34,2.28,0.34c1.12,0,1.98-0.22,2.6-0.66
		c0.6-0.44,0.92-1.06,0.92-1.9c0-0.72-0.22-1.28-0.66-1.68s-1.16-0.7-2.16-0.9l-1.2-0.24c-1.48-0.28-2.54-0.74-3.2-1.38
		c-0.66-0.62-0.98-1.48-0.98-2.6c0-1.28,0.44-2.3,1.36-3.04c0.9-0.74,2.16-1.12,3.76-1.12c0.68,0,1.36,0.06,2.08,0.18
		C778.1,21.07,778.82,21.27,779.58,21.51"/>
</g>
</svg>
