<svg id="Layer_1" data-name="Layer 1" xmlns="http://www.w3.org/2000/svg" xmlns:xlink="http://www.w3.org/1999/xlink" viewBox="0 0 421.37 248.84"><defs><style>.cls-1,.cls-17,.cls-18,.cls-4,.cls-6{fill:none;}.cls-2{clip-path:url(#clip-path);}.cls-3{clip-path:url(#clip-path-2);}.cls-18,.cls-4{stroke:#fff;}.cls-17,.cls-18,.cls-4{stroke-linecap:square;}.cls-17,.cls-4,.cls-6{stroke-linejoin:round;}.cls-4,.cls-6{stroke-width:0.8px;}.cls-5{fill:#555;}.cls-6{stroke:#555;}.cls-7{fill:#ea96a3;}.cls-8{fill:#d7944e;}.cls-9{fill:#ab9e47;}.cls-10{fill:#7fa946;}.cls-11{fill:#49ae83;}.cls-12{fill:#4baba4;}.cls-13{fill:#50acc3;}.cls-14{fill:#94aee8;}.cls-15{fill:#ce9be9;}.cls-16{fill:#e88fcc;}.cls-17{stroke:#424242;stroke-width:2.7px;}.cls-18{stroke-miterlimit:10;}</style><clipPath id="clip-path" transform="translate(-7.21 -10.2)"><rect class="cls-1" width="438.78" height="267.64"/></clipPath><clipPath id="clip-path-2" transform="translate(-7.21 -10.2)"><rect class="cls-1" x="93.28" y="10.7" width="334.8" height="217.44"/></clipPath></defs><title>Graphic4-Places-of-origin</title><g class="cls-2"><g class="cls-3"><line class="cls-4" x1="86.07" y1="217.94" x2="86.07" y2="0.5"/></g><line class="cls-5" x1="86.07" y1="217.94" x2="86.07" y2="221.44"/><line class="cls-6" x1="86.07" y1="217.94" x2="86.07" y2="221.44"/><path class="cls-5" d="M93.28,235.31a2.14,2.14,0,0,1,1.87,1,6.4,6.4,0,0,1,0,5.62,2.31,2.31,0,0,1-3.75,0,6.49,6.49,0,0,1,0-5.62,2.14,2.14,0,0,1,1.88-1m0,.78a1.23,1.23,0,0,0-1.15.75,6.85,6.85,0,0,0,0,4.5,1.26,1.26,0,0,0,2.3,0,6.85,6.85,0,0,0,0-4.5,1.23,1.23,0,0,0-1.15-.75" transform="translate(-7.21 -10.2)"/><g class="cls-3"><line class="cls-4" x1="129.95" y1="217.94" x2="129.95" y2="0.5"/></g><line class="cls-5" x1="129.95" y1="217.94" x2="129.95" y2="221.44"/><line class="cls-6" x1="129.95" y1="217.94" x2="129.95" y2="221.44"/><path class="cls-5" d="M122.34,235.44h3.87v.83h-3v1.79a2.26,2.26,0,0,1,.43-.11,3.13,3.13,0,0,1,.43,0,2.74,2.74,0,0,1,1.93.67,2.36,2.36,0,0,1,.72,1.81,2.31,2.31,0,0,1-.74,1.83,3,3,0,0,1-2.06.64,7.57,7.57,0,0,1-.94-.07,6.28,6.28,0,0,1-1-.23v-1a3.75,3.75,0,0,0,.91.36,4,4,0,0,0,1,.11,1.92,1.92,0,0,0,1.34-.44,1.73,1.73,0,0,0,0-2.41,1.92,1.92,0,0,0-1.34-.45,3.55,3.55,0,0,0-.79.09,4.44,4.44,0,0,0-.8.27v-3.66" transform="translate(-7.21 -10.2)"/><path class="cls-5" d="M130.8,235.31a2.14,2.14,0,0,1,1.87,1,6.4,6.4,0,0,1,0,5.62,2.31,2.31,0,0,1-3.75,0,6.49,6.49,0,0,1,0-5.62,2.14,2.14,0,0,1,1.88-1m0,.78a1.23,1.23,0,0,0-1.15.75,6.85,6.85,0,0,0,0,4.5,1.26,1.26,0,0,0,2.3,0,6.85,6.85,0,0,0,0-4.5,1.23,1.23,0,0,0-1.15-.75" transform="translate(-7.21 -10.2)"/><path class="cls-5" d="M137.16,235.31a2.14,2.14,0,0,1,1.87,1,6.4,6.4,0,0,1,0,5.62,2.31,2.31,0,0,1-3.75,0,6.49,6.49,0,0,1,0-5.62,2.14,2.14,0,0,1,1.88-1m0,.78a1.23,1.23,0,0,0-1.15.75,6.85,6.85,0,0,0,0,4.5,1.26,1.26,0,0,0,2.3,0,6.85,6.85,0,0,0,0-4.5,1.23,1.23,0,0,0-1.15-.75" transform="translate(-7.21 -10.2)"/><path class="cls-5" d="M143.52,235.31a2.14,2.14,0,0,1,1.87,1,6.4,6.4,0,0,1,0,5.62,2.31,2.31,0,0,1-3.75,0,6.49,6.49,0,0,1,0-5.62,2.14,2.14,0,0,1,1.88-1m0,.78a1.23,1.23,0,0,0-1.15.75,6.85,6.85,0,0,0,0,4.5,1.26,1.26,0,0,0,2.3,0,6.85,6.85,0,0,0,0-4.5,1.23,1.23,0,0,0-1.15-.75" transform="translate(-7.21 -10.2)"/><path class="cls-5" d="M149.88,235.31a2.14,2.14,0,0,1,1.87,1,6.4,6.4,0,0,1,0,5.62,2.31,2.31,0,0,1-3.75,0,6.49,6.49,0,0,1,0-5.62,2.14,2.14,0,0,1,1.88-1m0,.78a1.23,1.23,0,0,0-1.15.75,6.85,6.85,0,0,0,0,4.5,1.26,1.26,0,0,0,2.3,0,6.85,6.85,0,0,0,0-4.5,1.23,1.23,0,0,0-1.15-.75" transform="translate(-7.21 -10.2)"/><g class="cls-3"><line class="cls-4" x1="173.83" y1="217.94" x2="173.83" y2="0.5"/></g><line class="cls-5" x1="173.83" y1="217.94" x2="173.83" y2="221.44"/><line class="cls-6" x1="173.83" y1="217.94" x2="173.83" y2="221.44"/><polyline class="cls-5" points="155.99 231.7 157.6 231.7 157.6 226.14 155.85 226.49 155.85 225.59 157.59 225.24 158.58 225.24 158.58 231.7 160.19 231.7 160.19 232.53 155.99 232.53 155.99 231.7"/><path class="cls-5" d="M171.5,235.31a2.14,2.14,0,0,1,1.87,1,6.4,6.4,0,0,1,0,5.62,2.31,2.31,0,0,1-3.75,0,6.49,6.49,0,0,1,0-5.62,2.14,2.14,0,0,1,1.88-1m0,.78a1.23,1.23,0,0,0-1.15.75,6.85,6.85,0,0,0,0,4.5,1.26,1.26,0,0,0,2.3,0,6.85,6.85,0,0,0,0-4.5,1.23,1.23,0,0,0-1.15-.75" transform="translate(-7.21 -10.2)"/><path class="cls-5" d="M177.86,235.31a2.14,2.14,0,0,1,1.87,1,6.4,6.4,0,0,1,0,5.62,2.31,2.31,0,0,1-3.75,0,6.49,6.49,0,0,1,0-5.62,2.14,2.14,0,0,1,1.88-1m0,.78a1.23,1.23,0,0,0-1.15.75,6.85,6.85,0,0,0,0,4.5,1.26,1.26,0,0,0,2.3,0,6.85,6.85,0,0,0,0-4.5,1.23,1.23,0,0,0-1.15-.75" transform="translate(-7.21 -10.2)"/><path class="cls-5" d="M184.22,235.31a2.14,2.14,0,0,1,1.87,1,6.4,6.4,0,0,1,0,5.62,2.31,2.31,0,0,1-3.75,0,6.49,6.49,0,0,1,0-5.62,2.14,2.14,0,0,1,1.88-1m0,.78a1.23,1.23,0,0,0-1.15.75,6.85,6.85,0,0,0,0,4.5,1.26,1.26,0,0,0,2.3,0,6.85,6.85,0,0,0,0-4.5,1.23,1.23,0,0,0-1.15-.75" transform="translate(-7.21 -10.2)"/><path class="cls-5" d="M190.58,235.31a2.14,2.14,0,0,1,1.87,1,6.4,6.4,0,0,1,0,5.62,2.31,2.31,0,0,1-3.75,0,6.49,6.49,0,0,1,0-5.62,2.14,2.14,0,0,1,1.88-1m0,.78a1.23,1.23,0,0,0-1.15.75,6.85,6.85,0,0,0,0,4.5,1.26,1.26,0,0,0,2.3,0,6.85,6.85,0,0,0,0-4.5,1.23,1.23,0,0,0-1.15-.75" transform="translate(-7.21 -10.2)"/><path class="cls-5" d="M196.94,235.31a2.14,2.14,0,0,1,1.87,1,6.4,6.4,0,0,1,0,5.62,2.31,2.31,0,0,1-3.75,0,6.49,6.49,0,0,1,0-5.62,2.14,2.14,0,0,1,1.88-1m0,.78a1.23,1.23,0,0,0-1.15.75,6.85,6.85,0,0,0,0,4.5,1.26,1.26,0,0,0,2.3,0,6.85,6.85,0,0,0,0-4.5,1.23,1.23,0,0,0-1.15-.75" transform="translate(-7.21 -10.2)"/><g class="cls-3"><line class="cls-4" x1="217.71" y1="217.94" x2="217.71" y2="0.5"/></g><line class="cls-5" x1="217.71" y1="217.94" x2="217.71" y2="221.44"/><line class="cls-6" x1="217.71" y1="217.94" x2="217.71" y2="221.44"/><polyline class="cls-5" points="199.87 231.7 201.48 231.7 201.48 226.14 199.73 226.49 199.73 225.59 201.47 225.24 202.46 225.24 202.46 231.7 204.07 231.7 204.07 232.53 199.87 232.53 199.87 231.7"/><path class="cls-5" d="M213.28,235.44h3.87v.83h-3v1.79a2.26,2.26,0,0,1,.43-.11,3.13,3.13,0,0,1,.43,0,2.74,2.74,0,0,1,1.93.67,2.36,2.36,0,0,1,.72,1.81,2.31,2.31,0,0,1-.74,1.83,3,3,0,0,1-2.06.64,7.57,7.57,0,0,1-.94-.07,6.28,6.28,0,0,1-1-.23v-1a3.75,3.75,0,0,0,.91.36,4,4,0,0,0,1,.11,1.92,1.92,0,0,0,1.34-.44,1.73,1.73,0,0,0,0-2.41,1.92,1.92,0,0,0-1.34-.45,3.55,3.55,0,0,0-.79.09,4.44,4.44,0,0,0-.8.27v-3.66" transform="translate(-7.21 -10.2)"/><path class="cls-5" d="M221.74,235.31a2.14,2.14,0,0,1,1.87,1,6.4,6.4,0,0,1,0,5.62,2.31,2.31,0,0,1-3.75,0,6.49,6.49,0,0,1,0-5.62,2.14,2.14,0,0,1,1.88-1m0,.78a1.23,1.23,0,0,0-1.15.75,6.85,6.85,0,0,0,0,4.5,1.26,1.26,0,0,0,2.3,0,6.85,6.85,0,0,0,0-4.5,1.23,1.23,0,0,0-1.15-.75" transform="translate(-7.21 -10.2)"/><path class="cls-5" d="M228.1,235.31a2.14,2.14,0,0,1,1.87,1,6.4,6.4,0,0,1,0,5.62,2.31,2.31,0,0,1-3.75,0,6.49,6.49,0,0,1,0-5.62,2.14,2.14,0,0,1,1.88-1m0,.78a1.23,1.23,0,0,0-1.15.75,6.85,6.85,0,0,0,0,4.5,1.26,1.26,0,0,0,2.3,0,6.85,6.85,0,0,0,0-4.5,1.23,1.23,0,0,0-1.15-.75" transform="translate(-7.21 -10.2)"/><path class="cls-5" d="M234.46,235.31a2.14,2.14,0,0,1,1.87,1,6.4,6.4,0,0,1,0,5.62,2.31,2.31,0,0,1-3.75,0,6.49,6.49,0,0,1,0-5.62,2.14,2.14,0,0,1,1.88-1m0,.78a1.23,1.23,0,0,0-1.15.75,6.85,6.85,0,0,0,0,4.5,1.26,1.26,0,0,0,2.3,0,6.85,6.85,0,0,0,0-4.5,1.23,1.23,0,0,0-1.15-.75" transform="translate(-7.21 -10.2)"/><path class="cls-5" d="M240.82,235.31a2.14,2.14,0,0,1,1.87,1,6.4,6.4,0,0,1,0,5.62,2.31,2.31,0,0,1-3.75,0,6.49,6.49,0,0,1,0-5.62,2.14,2.14,0,0,1,1.88-1m0,.78a1.23,1.23,0,0,0-1.15.75,6.85,6.85,0,0,0,0,4.5,1.26,1.26,0,0,0,2.3,0,6.85,6.85,0,0,0,0-4.5,1.23,1.23,0,0,0-1.15-.75" transform="translate(-7.21 -10.2)"/><g class="cls-3"><line class="cls-4" x1="261.59" y1="217.94" x2="261.59" y2="0.5"/></g><line class="cls-5" x1="261.59" y1="217.94" x2="261.59" y2="221.44"/><line class="cls-6" x1="261.59" y1="217.94" x2="261.59" y2="221.44"/><path class="cls-5" d="M251.63,241.9h3.44v.83h-4.63v-.83l1.53-1.56c.64-.65,1.05-1.07,1.22-1.26a4,4,0,0,0,.66-.9,1.65,1.65,0,0,0,.19-.73,1.21,1.21,0,0,0-.41-.94,1.54,1.54,0,0,0-1.06-.37,3.52,3.52,0,0,0-1,.16,6,6,0,0,0-1.1.49v-1a7.87,7.87,0,0,1,1.11-.36,4.19,4.19,0,0,1,1-.12,2.7,2.7,0,0,1,1.8.57,1.88,1.88,0,0,1,.68,1.51,2.19,2.19,0,0,1-.17.85,3.79,3.79,0,0,1-.61.95c-.08.1-.34.37-.78.82l-1.84,1.89" transform="translate(-7.21 -10.2)"/><path class="cls-5" d="M259.25,235.31a2.14,2.14,0,0,1,1.87,1,6.4,6.4,0,0,1,0,5.62,2.31,2.31,0,0,1-3.75,0,6.49,6.49,0,0,1,0-5.62,2.14,2.14,0,0,1,1.88-1m0,.78a1.23,1.23,0,0,0-1.15.75,6.85,6.85,0,0,0,0,4.5,1.26,1.26,0,0,0,2.3,0,6.85,6.85,0,0,0,0-4.5,1.23,1.23,0,0,0-1.15-.75" transform="translate(-7.21 -10.2)"/><path class="cls-5" d="M265.61,235.31a2.14,2.14,0,0,1,1.87,1,6.4,6.4,0,0,1,0,5.62,2.31,2.31,0,0,1-3.75,0,6.49,6.49,0,0,1,0-5.62,2.14,2.14,0,0,1,1.88-1m0,.78a1.23,1.23,0,0,0-1.15.75,6.85,6.85,0,0,0,0,4.5,1.26,1.26,0,0,0,2.3,0,6.85,6.85,0,0,0,0-4.5,1.23,1.23,0,0,0-1.15-.75" transform="translate(-7.21 -10.2)"/><path class="cls-5" d="M272,235.31a2.14,2.14,0,0,1,1.87,1,6.4,6.4,0,0,1,0,5.62,2.31,2.31,0,0,1-3.75,0,6.49,6.49,0,0,1,0-5.62,2.14,2.14,0,0,1,1.88-1m0,.78a1.23,1.23,0,0,0-1.15.75,6.85,6.85,0,0,0,0,4.5,1.26,1.26,0,0,0,2.3,0,6.85,6.85,0,0,0,0-4.5,1.23,1.23,0,0,0-1.15-.75" transform="translate(-7.21 -10.2)"/><path class="cls-5" d="M278.33,235.31a2.14,2.14,0,0,1,1.87,1,6.4,6.4,0,0,1,0,5.62,2.31,2.31,0,0,1-3.75,0,6.49,6.49,0,0,1,0-5.62,2.14,2.14,0,0,1,1.88-1m0,.78a1.23,1.23,0,0,0-1.15.75,6.85,6.85,0,0,0,0,4.5,1.26,1.26,0,0,0,2.3,0,6.85,6.85,0,0,0,0-4.5,1.23,1.23,0,0,0-1.15-.75" transform="translate(-7.21 -10.2)"/><path class="cls-5" d="M284.69,235.31a2.14,2.14,0,0,1,1.87,1,6.4,6.4,0,0,1,0,5.62,2.31,2.31,0,0,1-3.75,0,6.49,6.49,0,0,1,0-5.62,2.14,2.14,0,0,1,1.88-1m0,.78a1.23,1.23,0,0,0-1.15.75,6.85,6.85,0,0,0,0,4.5,1.26,1.26,0,0,0,2.3,0,6.85,6.85,0,0,0,0-4.5,1.23,1.23,0,0,0-1.15-.75" transform="translate(-7.21 -10.2)"/><g class="cls-3"><line class="cls-4" x1="305.47" y1="217.94" x2="305.47" y2="0.5"/></g><line class="cls-5" x1="305.47" y1="217.94" x2="305.47" y2="221.44"/><line class="cls-6" x1="305.47" y1="217.94" x2="305.47" y2="221.44"/><path class="cls-5" d="M295.51,241.9H299v.83h-4.63v-.83l1.53-1.56c.64-.65,1-1.07,1.22-1.26a4,4,0,0,0,.66-.9,1.65,1.65,0,0,0,.19-.73,1.21,1.21,0,0,0-.41-.94,1.54,1.54,0,0,0-1.06-.37,3.52,3.52,0,0,0-1,.16,6,6,0,0,0-1.1.49v-1a7.87,7.87,0,0,1,1.11-.36,4.19,4.19,0,0,1,.95-.12,2.7,2.7,0,0,1,1.8.57,1.88,1.88,0,0,1,.68,1.51,2.19,2.19,0,0,1-.17.85,3.79,3.79,0,0,1-.61.95c-.08.1-.34.37-.78.82l-1.84,1.89" transform="translate(-7.21 -10.2)"/><path class="cls-5" d="M301,235.44h3.87v.83h-3v1.79a2.26,2.26,0,0,1,.43-.11,3.13,3.13,0,0,1,.43,0,2.74,2.74,0,0,1,1.93.67,2.36,2.36,0,0,1,.72,1.81,2.31,2.31,0,0,1-.74,1.83,3,3,0,0,1-2.06.64,7.57,7.57,0,0,1-.94-.07,6.28,6.28,0,0,1-1-.23v-1a3.75,3.75,0,0,0,.91.36,4,4,0,0,0,1,.11,1.92,1.92,0,0,0,1.34-.44,1.73,1.73,0,0,0,0-2.41,1.92,1.92,0,0,0-1.34-.45,3.55,3.55,0,0,0-.79.09,4.44,4.44,0,0,0-.8.27v-3.66" transform="translate(-7.21 -10.2)"/><path class="cls-5" d="M309.49,235.31a2.14,2.14,0,0,1,1.87,1,6.4,6.4,0,0,1,0,5.62,2.31,2.31,0,0,1-3.75,0,6.49,6.49,0,0,1,0-5.62,2.14,2.14,0,0,1,1.88-1m0,.78a1.23,1.23,0,0,0-1.15.75,6.85,6.85,0,0,0,0,4.5,1.26,1.26,0,0,0,2.3,0,6.85,6.85,0,0,0,0-4.5,1.23,1.23,0,0,0-1.15-.75" transform="translate(-7.21 -10.2)"/><path class="cls-5" d="M315.85,235.31a2.14,2.14,0,0,1,1.87,1,6.4,6.4,0,0,1,0,5.62,2.31,2.31,0,0,1-3.75,0,6.49,6.49,0,0,1,0-5.62,2.14,2.14,0,0,1,1.88-1m0,.78a1.23,1.23,0,0,0-1.15.75,6.85,6.85,0,0,0,0,4.5,1.26,1.26,0,0,0,2.3,0,6.85,6.85,0,0,0,0-4.5,1.23,1.23,0,0,0-1.15-.75" transform="translate(-7.21 -10.2)"/><path class="cls-5" d="M322.21,235.31a2.14,2.14,0,0,1,1.87,1,6.4,6.4,0,0,1,0,5.62,2.31,2.31,0,0,1-3.75,0,6.49,6.49,0,0,1,0-5.62,2.14,2.14,0,0,1,1.88-1m0,.78a1.23,1.23,0,0,0-1.15.75,6.85,6.85,0,0,0,0,4.5,1.26,1.26,0,0,0,2.3,0,6.85,6.85,0,0,0,0-4.5,1.23,1.23,0,0,0-1.15-.75" transform="translate(-7.21 -10.2)"/><path class="cls-5" d="M328.57,235.31a2.14,2.14,0,0,1,1.87,1,6.4,6.4,0,0,1,0,5.62,2.31,2.31,0,0,1-3.75,0,6.49,6.49,0,0,1,0-5.62,2.14,2.14,0,0,1,1.88-1m0,.78a1.23,1.23,0,0,0-1.15.75,6.85,6.85,0,0,0,0,4.5,1.26,1.26,0,0,0,2.3,0,6.85,6.85,0,0,0,0-4.5,1.23,1.23,0,0,0-1.15-.75" transform="translate(-7.21 -10.2)"/><g class="cls-3"><line class="cls-4" x1="349.34" y1="217.94" x2="349.34" y2="0.5"/></g><line class="cls-5" x1="349.34" y1="217.94" x2="349.34" y2="221.44"/><line class="cls-6" x1="349.34" y1="217.94" x2="349.34" y2="221.44"/><path class="cls-5" d="M341.53,238.8a1.87,1.87,0,0,1,1.1.63,1.83,1.83,0,0,1,.4,1.18,2,2,0,0,1-.74,1.67,3.35,3.35,0,0,1-2.11.58,5.17,5.17,0,0,1-.95-.09,5.68,5.68,0,0,1-1-.26v-.95a3.26,3.26,0,0,0,.9.36,4.19,4.19,0,0,0,1,.12,2.33,2.33,0,0,0,1.41-.36,1.26,1.26,0,0,0,.49-1.07,1.22,1.22,0,0,0-.45-1,2,2,0,0,0-1.26-.37h-.85v-.81h.89a1.79,1.79,0,0,0,1.11-.29,1,1,0,0,0,.39-.84,1,1,0,0,0-.4-.86,1.89,1.89,0,0,0-1.14-.3,4.59,4.59,0,0,0-.87.09,8.69,8.69,0,0,0-1,.27v-.88a9.56,9.56,0,0,1,1.05-.23,6,6,0,0,1,.93-.08,2.82,2.82,0,0,1,1.77.51,1.65,1.65,0,0,1,.66,1.38,1.56,1.56,0,0,1-.35,1,1.76,1.76,0,0,1-1,.58" transform="translate(-7.21 -10.2)"/><path class="cls-5" d="M347,235.31a2.14,2.14,0,0,1,1.87,1,6.4,6.4,0,0,1,0,5.62,2.31,2.31,0,0,1-3.75,0,6.49,6.49,0,0,1,0-5.62,2.14,2.14,0,0,1,1.88-1m0,.78a1.23,1.23,0,0,0-1.15.75,6.85,6.85,0,0,0,0,4.5,1.26,1.26,0,0,0,2.3,0,6.85,6.85,0,0,0,0-4.5,1.23,1.23,0,0,0-1.15-.75" transform="translate(-7.21 -10.2)"/><path class="cls-5" d="M353.37,235.31a2.14,2.14,0,0,1,1.87,1,6.4,6.4,0,0,1,0,5.62,2.31,2.31,0,0,1-3.75,0,6.49,6.49,0,0,1,0-5.62,2.14,2.14,0,0,1,1.88-1m0,.78a1.23,1.23,0,0,0-1.15.75,6.85,6.85,0,0,0,0,4.5,1.26,1.26,0,0,0,2.3,0,6.85,6.85,0,0,0,0-4.5,1.23,1.23,0,0,0-1.15-.75" transform="translate(-7.21 -10.2)"/><path class="cls-5" d="M359.73,235.31a2.14,2.14,0,0,1,1.87,1,6.4,6.4,0,0,1,0,5.62,2.31,2.31,0,0,1-3.75,0,6.49,6.49,0,0,1,0-5.62,2.14,2.14,0,0,1,1.88-1m0,.78a1.23,1.23,0,0,0-1.15.75,6.85,6.85,0,0,0,0,4.5,1.26,1.26,0,0,0,2.3,0,6.85,6.85,0,0,0,0-4.5,1.23,1.23,0,0,0-1.15-.75" transform="translate(-7.21 -10.2)"/><path class="cls-5" d="M366.09,235.31a2.14,2.14,0,0,1,1.87,1,6.4,6.4,0,0,1,0,5.62,2.31,2.31,0,0,1-3.75,0,6.49,6.49,0,0,1,0-5.62,2.14,2.14,0,0,1,1.88-1m0,.78a1.23,1.23,0,0,0-1.15.75,6.85,6.85,0,0,0,0,4.5,1.26,1.26,0,0,0,2.3,0,6.85,6.85,0,0,0,0-4.5,1.23,1.23,0,0,0-1.15-.75" transform="translate(-7.21 -10.2)"/><path class="cls-5" d="M372.45,235.31a2.14,2.14,0,0,1,1.87,1,6.4,6.4,0,0,1,0,5.62,2.31,2.31,0,0,1-3.75,0,6.49,6.49,0,0,1,0-5.62,2.14,2.14,0,0,1,1.88-1m0,.78a1.23,1.23,0,0,0-1.15.75,6.85,6.85,0,0,0,0,4.5,1.26,1.26,0,0,0,2.3,0,6.85,6.85,0,0,0,0-4.5,1.23,1.23,0,0,0-1.15-.75" transform="translate(-7.21 -10.2)"/><g class="cls-3"><line class="cls-4" x1="393.22" y1="217.94" x2="393.22" y2="0.5"/></g><line class="cls-5" x1="393.22" y1="217.94" x2="393.22" y2="221.44"/><line class="cls-6" x1="393.22" y1="217.94" x2="393.22" y2="221.44"/><path class="cls-5" d="M385.41,238.8a1.87,1.87,0,0,1,1.1.63,1.83,1.83,0,0,1,.4,1.18,2,2,0,0,1-.74,1.67,3.35,3.35,0,0,1-2.11.58,5.17,5.17,0,0,1-.95-.09,5.68,5.68,0,0,1-1-.26v-.95a3.26,3.26,0,0,0,.9.36,4.19,4.19,0,0,0,1,.12,2.33,2.33,0,0,0,1.41-.36,1.26,1.26,0,0,0,.49-1.07,1.22,1.22,0,0,0-.45-1,2,2,0,0,0-1.26-.37h-.85v-.81h.89a1.79,1.79,0,0,0,1.11-.29,1,1,0,0,0,.39-.84,1,1,0,0,0-.4-.86,1.89,1.89,0,0,0-1.14-.3,4.59,4.59,0,0,0-.87.09,8.69,8.69,0,0,0-1,.27v-.88a9.56,9.56,0,0,1,1.05-.23,6,6,0,0,1,.93-.08,2.82,2.82,0,0,1,1.77.51,1.65,1.65,0,0,1,.66,1.38,1.56,1.56,0,0,1-.35,1,1.76,1.76,0,0,1-1,.58" transform="translate(-7.21 -10.2)"/><path class="cls-5" d="M388.79,235.44h3.87v.83h-3v1.79a2.26,2.26,0,0,1,.43-.11,3.13,3.13,0,0,1,.43,0,2.74,2.74,0,0,1,1.93.67,2.36,2.36,0,0,1,.72,1.81,2.31,2.31,0,0,1-.74,1.83,3,3,0,0,1-2.06.64,7.57,7.57,0,0,1-.94-.07,6.28,6.28,0,0,1-1-.23v-1a3.75,3.75,0,0,0,.91.36,4,4,0,0,0,1,.11,1.92,1.92,0,0,0,1.34-.44,1.73,1.73,0,0,0,0-2.41,1.92,1.92,0,0,0-1.34-.45,3.55,3.55,0,0,0-.79.09,4.44,4.44,0,0,0-.8.27v-3.66" transform="translate(-7.21 -10.2)"/><path class="cls-5" d="M397.25,235.31a2.14,2.14,0,0,1,1.87,1,6.4,6.4,0,0,1,0,5.62,2.31,2.31,0,0,1-3.75,0,6.49,6.49,0,0,1,0-5.62,2.14,2.14,0,0,1,1.88-1m0,.78a1.23,1.23,0,0,0-1.15.75,6.85,6.85,0,0,0,0,4.5,1.26,1.26,0,0,0,2.3,0,6.85,6.85,0,0,0,0-4.5,1.23,1.23,0,0,0-1.15-.75" transform="translate(-7.21 -10.2)"/><path class="cls-5" d="M403.61,235.31a2.14,2.14,0,0,1,1.87,1,6.4,6.4,0,0,1,0,5.62,2.31,2.31,0,0,1-3.75,0,6.49,6.49,0,0,1,0-5.62,2.14,2.14,0,0,1,1.88-1m0,.78a1.23,1.23,0,0,0-1.15.75,6.85,6.85,0,0,0,0,4.5,1.26,1.26,0,0,0,2.3,0,6.85,6.85,0,0,0,0-4.5,1.23,1.23,0,0,0-1.15-.75" transform="translate(-7.21 -10.2)"/><path class="cls-5" d="M410,235.31a2.14,2.14,0,0,1,1.87,1,6.4,6.4,0,0,1,0,5.62,2.31,2.31,0,0,1-3.75,0,6.49,6.49,0,0,1,0-5.62,2.14,2.14,0,0,1,1.88-1m0,.78a1.23,1.23,0,0,0-1.15.75,6.85,6.85,0,0,0,0,4.5,1.26,1.26,0,0,0,2.3,0,6.85,6.85,0,0,0,0-4.5,1.23,1.23,0,0,0-1.15-.75" transform="translate(-7.21 -10.2)"/><path class="cls-5" d="M416.33,235.31a2.14,2.14,0,0,1,1.87,1,6.4,6.4,0,0,1,0,5.62,2.31,2.31,0,0,1-3.75,0,6.49,6.49,0,0,1,0-5.62,2.14,2.14,0,0,1,1.88-1m0,.78a1.23,1.23,0,0,0-1.15.75,6.85,6.85,0,0,0,0,4.5,1.26,1.26,0,0,0,2.3,0,6.85,6.85,0,0,0,0-4.5,1.23,1.23,0,0,0-1.15-.75" transform="translate(-7.21 -10.2)"/><path class="cls-5" d="M238,256.94h4.12v1h-5.55v-1c.44-.46,1-1.08,1.83-1.87s1.26-1.29,1.47-1.51a4.79,4.79,0,0,0,.79-1.08,2.06,2.06,0,0,0,.23-.88,1.47,1.47,0,0,0-.49-1.13,1.86,1.86,0,0,0-1.28-.44,4.2,4.2,0,0,0-1.17.19,6.74,6.74,0,0,0-1.32.59v-1.2a8.84,8.84,0,0,1,1.33-.43,4.83,4.83,0,0,1,1.14-.15,3.22,3.22,0,0,1,2.16.69,2.24,2.24,0,0,1,.82,1.81,2.66,2.66,0,0,1-.21,1,4.51,4.51,0,0,1-.73,1.14c-.1.12-.41.44-.94,1l-2.2,2.27" transform="translate(-7.21 -10.2)"/><path class="cls-5" d="M247.18,249a2.56,2.56,0,0,1,2.24,1.17,7.67,7.67,0,0,1,0,6.74,2.78,2.78,0,0,1-4.5,0,7.85,7.85,0,0,1,0-6.74,2.58,2.58,0,0,1,2.26-1.17m0,.94a1.48,1.48,0,0,0-1.38.9,8.15,8.15,0,0,0,0,5.4,1.51,1.51,0,0,0,2.76,0,8.15,8.15,0,0,0,0-5.4,1.48,1.48,0,0,0-1.38-.9" transform="translate(-7.21 -10.2)"/><polyline class="cls-5" points="245.28 246.74 247.21 246.74 247.21 240.07 245.11 240.49 245.11 239.41 247.2 238.99 248.39 238.99 248.39 246.74 250.32 246.74 250.32 247.74 245.28 247.74 245.28 246.74"/><polyline class="cls-5" points="252.41 238.99 258.04 238.99 258.04 239.49 254.86 247.74 253.62 247.74 256.61 239.99 252.41 239.99 252.41 238.99"/><polyline class="cls-5" points="262.1 238.99 263.1 238.99 260.05 248.84 259.06 248.84 262.1 238.99"/><polyline class="cls-5" points="264.59 246.74 266.52 246.74 266.52 240.07 264.42 240.49 264.42 239.41 266.51 238.99 267.7 238.99 267.7 246.74 269.63 246.74 269.63 247.74 264.59 247.74 264.59 246.74"/><path class="cls-5" d="M280.13,251.41a1.36,1.36,0,0,0,.42,1.07,1.78,1.78,0,0,0,1.2.37,1.75,1.75,0,0,0,1.19-.37,1.37,1.37,0,0,0,.43-1.07,1.32,1.32,0,0,0-.43-1.06,1.75,1.75,0,0,0-1.19-.38,1.78,1.78,0,0,0-1.2.38,1.31,1.31,0,0,0-.42,1.06m.43,1.87a2.09,2.09,0,0,1-1.18-.71,1.91,1.91,0,0,1-.42-1.27,2,2,0,0,1,.74-1.66,3.75,3.75,0,0,1,4.1,0,2,2,0,0,1,.75,1.66,2,2,0,0,1-.43,1.27,2.13,2.13,0,0,1-1.18.71,2.41,2.41,0,0,1,1.33.78,2.2,2.2,0,0,1,.48,1.42,2.4,2.4,0,0,1-.78,1.94,4,4,0,0,1-4.45,0,2.4,2.4,0,0,1-.77-1.94,2.14,2.14,0,0,1,.48-1.42,2.34,2.34,0,0,1,1.33-.78m1.19.5a1.88,1.88,0,0,0-1.33.46,1.84,1.84,0,0,0,0,2.48,1.88,1.88,0,0,0,1.33.45,1.83,1.83,0,0,0,1.32-.46,1.58,1.58,0,0,0,.49-1.23,1.61,1.61,0,0,0-.48-1.24,1.87,1.87,0,0,0-1.33-.46" transform="translate(-7.21 -10.2)"/><line class="cls-5" x1="86.07" y1="11.37" x2="82.57" y2="11.37"/><line class="cls-6" x1="86.07" y1="11.37" x2="82.57" y2="11.37"/><path class="cls-5" d="M64.14,18.64v1A3.9,3.9,0,0,0,63.07,19a3.19,3.19,0,0,0-1.19-.23,2.4,2.4,0,0,0-1.92.77,3.27,3.27,0,0,0-.66,2.2A3.3,3.3,0,0,0,60,23.94a2.39,2.39,0,0,0,1.92.76,3,3,0,0,0,1.19-.23,3.49,3.49,0,0,0,1.07-.69v1a3.81,3.81,0,0,1-1.1.52,4.39,4.39,0,0,1-1.22.17,3.44,3.44,0,0,1-2.61-1,3.84,3.84,0,0,1-1-2.77,3.87,3.87,0,0,1,1-2.77,3.44,3.44,0,0,1,2.61-1,4.4,4.4,0,0,1,1.23.17,4.19,4.19,0,0,1,1.09.52" transform="translate(-7.21 -10.2)"/><path class="cls-5" d="M70.17,22.07v3.3h-.9V22.1A1.87,1.87,0,0,0,69,20.94a1.06,1.06,0,0,0-.9-.39,1.47,1.47,0,0,0-1.15.47,1.81,1.81,0,0,0-.42,1.26v3.09h-.9v-7.6h.9v3a2.11,2.11,0,0,1,.76-.73,2.07,2.07,0,0,1,1-.25,1.74,1.74,0,0,1,1.42.59,2.64,2.64,0,0,1,.49,1.71" transform="translate(-7.21 -10.2)"/><path class="cls-5" d="M72,17.77h.9v1.14H72V17.77m0,2.13h.9v5.47H72V19.9" transform="translate(-7.21 -10.2)"/><path class="cls-5" d="M79.29,22.07v3.3h-.9V22.1a1.87,1.87,0,0,0-.31-1.16,1.06,1.06,0,0,0-.9-.39A1.47,1.47,0,0,0,76,21a1.81,1.81,0,0,0-.42,1.26v3.09h-.9V19.9h.9v.85a2.11,2.11,0,0,1,.76-.73,2.07,2.07,0,0,1,1-.25,1.74,1.74,0,0,1,1.42.59,2.64,2.64,0,0,1,.49,1.71" transform="translate(-7.21 -10.2)"/><path class="cls-5" d="M85.36,22.25v3.12h-.9v-.83a1.91,1.91,0,0,1-.77.73,2.51,2.51,0,0,1-1.12.23A1.88,1.88,0,0,1,81.23,25a1.87,1.87,0,0,1,.13-2.65,3,3,0,0,1,1.84-.47h1.26v-.09a1.2,1.2,0,0,0-.41-1,1.76,1.76,0,0,0-1.14-.34,3.52,3.52,0,0,0-.92.12,4.16,4.16,0,0,0-.85.33v-.83a6,6,0,0,1,1-.28,4.78,4.78,0,0,1,.91-.1,2.34,2.34,0,0,1,1.77.62,2.61,2.61,0,0,1,.59,1.86m-1.79.37a3.28,3.28,0,0,0-1.51.25.91.91,0,0,0-.42.85,1,1,0,0,0,.31.76,1.24,1.24,0,0,0,.86.28,1.48,1.48,0,0,0,1.2-.53,2.09,2.09,0,0,0,.45-1.41v-.2h-.89" transform="translate(-7.21 -10.2)"/><line class="cls-5" x1="86.07" y1="33.12" x2="82.57" y2="33.12"/><line class="cls-6" x1="86.07" y1="33.12" x2="82.57" y2="33.12"/><polyline class="cls-5" points="55.51 29.62 56.5 29.62 56.5 36.91 55.51 36.91 55.51 29.62"/><path class="cls-5" d="M70.17,43.81v3.3h-.9V43.84A1.87,1.87,0,0,0,69,42.68a1.06,1.06,0,0,0-.9-.39,1.47,1.47,0,0,0-1.15.47A1.81,1.81,0,0,0,66.49,44v3.09h-.9V41.64h.9v.85a2.11,2.11,0,0,1,.76-.73,2.07,2.07,0,0,1,1-.25,1.74,1.74,0,0,1,1.42.59,2.64,2.64,0,0,1,.49,1.71" transform="translate(-7.21 -10.2)"/><path class="cls-5" d="M72.5,44.38a2.65,2.65,0,0,0,.4,1.56,1.41,1.41,0,0,0,2.25,0,2.65,2.65,0,0,0,.41-1.56,2.62,2.62,0,0,0-.41-1.55,1.4,1.4,0,0,0-2.25,0,2.62,2.62,0,0,0-.4,1.55m3.06-1.91v-3h.9v7.6h-.9v-.82a1.78,1.78,0,0,1-.72.72,2.21,2.21,0,0,1-1,.23,2,2,0,0,1-1.62-.78,3.8,3.8,0,0,1,0-4.16,2,2,0,0,1,1.62-.79,2.09,2.09,0,0,1,1,.24,1.91,1.91,0,0,1,.72.72" transform="translate(-7.21 -10.2)"/><path class="cls-5" d="M78.31,39.51h.9v1.14h-.9V39.51m0,2.13h.9v5.47h-.9V41.64" transform="translate(-7.21 -10.2)"/><path class="cls-5" d="M85.37,44v3.12h-.9v-.83a1.91,1.91,0,0,1-.77.73,2.51,2.51,0,0,1-1.12.23,1.88,1.88,0,0,1-1.34-.46,1.87,1.87,0,0,1,.13-2.65,3,3,0,0,1,1.84-.47h1.26v-.09a1.2,1.2,0,0,0-.41-1,1.76,1.76,0,0,0-1.14-.34,3.52,3.52,0,0,0-.92.12,4.16,4.16,0,0,0-.85.33v-.83a6,6,0,0,1,.95-.28,4.78,4.78,0,0,1,.91-.1,2.34,2.34,0,0,1,1.77.62A2.61,2.61,0,0,1,85.37,44m-1.79.37a3.28,3.28,0,0,0-1.51.25.91.91,0,0,0-.42.85,1,1,0,0,0,.31.76,1.24,1.24,0,0,0,.86.28A1.48,1.48,0,0,0,84,46a2.09,2.09,0,0,0,.45-1.41v-.2h-.89" transform="translate(-7.21 -10.2)"/><line class="cls-5" x1="86.07" y1="54.86" x2="82.57" y2="54.86"/><line class="cls-6" x1="86.07" y1="54.86" x2="82.57" y2="54.86"/><path class="cls-5" d="M30.28,61.81v1a6.42,6.42,0,0,0-1.06-.4,4.24,4.24,0,0,0-1-.13,2.2,2.2,0,0,0-1.25.31,1,1,0,0,0-.43.89.88.88,0,0,0,.29.73,2.41,2.41,0,0,0,1.1.4l.6.12a3.06,3.06,0,0,1,1.62.74,2,2,0,0,1,.53,1.42,1.89,1.89,0,0,1-.71,1.6,3.42,3.42,0,0,1-2.08.54,6.32,6.32,0,0,1-1.11-.11,6.4,6.4,0,0,1-1.2-.34v-1a5.33,5.33,0,0,0,1.17.51,3.75,3.75,0,0,0,1.14.17,2.21,2.21,0,0,0,1.3-.33,1.11,1.11,0,0,0,.46-1,1.08,1.08,0,0,0-.33-.84,2.28,2.28,0,0,0-1.08-.45l-.6-.12a3.1,3.1,0,0,1-1.6-.69,1.69,1.69,0,0,1-.49-1.3A1.84,1.84,0,0,1,26.27,62a2.89,2.89,0,0,1,1.88-.56,6.27,6.27,0,0,1,1,.09,8.34,8.34,0,0,1,1.09.28" transform="translate(-7.21 -10.2)"/><path class="cls-5" d="M34.34,63.26a2.35,2.35,0,0,1,1.84.76,3.12,3.12,0,0,1,.67,2.11,3.08,3.08,0,0,1-.67,2.1,2.62,2.62,0,0,1-3.69,0,3.07,3.07,0,0,1-.66-2.1A3.12,3.12,0,0,1,32.49,64a2.35,2.35,0,0,1,1.85-.76m0,.76a1.34,1.34,0,0,0-1.14.57,3.08,3.08,0,0,0,0,3.09,1.45,1.45,0,0,0,2.29,0,3.05,3.05,0,0,0,0-3.09A1.34,1.34,0,0,0,34.34,64" transform="translate(-7.21 -10.2)"/><path class="cls-5" d="M40.51,63.26h0M38.25,66.7V63.39h.9v3.28a1.87,1.87,0,0,0,.3,1.16,1.07,1.07,0,0,0,.91.39,1.48,1.48,0,0,0,1.15-.46,1.82,1.82,0,0,0,.42-1.27v-3.1h.9v5.47h-.9V68a2.22,2.22,0,0,1-.76.74,2.14,2.14,0,0,1-1,.23,1.74,1.74,0,0,1-1.43-.58,2.55,2.55,0,0,1-.49-1.71" transform="translate(-7.21 -10.2)"/><path class="cls-5" d="M45.57,61.84v1.55h1.85v.7H45.57v3a1.34,1.34,0,0,0,.18.86,1,1,0,0,0,.75.19h.92v.75H46.5a2,2,0,0,1-1.44-.39,2,2,0,0,1-.39-1.41v-3H44v-.7h.66V61.84h.9" transform="translate(-7.21 -10.2)"/><path class="cls-5" d="M53.15,65.56v3.3h-.9V65.59a1.87,1.87,0,0,0-.31-1.16A1.06,1.06,0,0,0,51,64a1.47,1.47,0,0,0-1.15.47,1.81,1.81,0,0,0-.42,1.26v3.09h-.9v-7.6h.9v3a2.11,2.11,0,0,1,.76-.73,2.07,2.07,0,0,1,1-.25,1.74,1.74,0,0,1,1.42.59,2.64,2.64,0,0,1,.49,1.71" transform="translate(-7.21 -10.2)"/><polyline class="cls-5" points="50.96 51.37 51.95 51.37 51.95 54.45 55.22 51.37 56.49 51.37 52.87 54.77 56.75 58.66 55.45 58.66 51.95 55.15 51.95 58.66 50.96 58.66 50.96 51.37"/><path class="cls-5" d="M66.8,63.26a2.35,2.35,0,0,1,1.84.76,3.12,3.12,0,0,1,.67,2.11,3.08,3.08,0,0,1-.67,2.1,2.62,2.62,0,0,1-3.69,0,3.07,3.07,0,0,1-.66-2.1A3.12,3.12,0,0,1,65,64a2.35,2.35,0,0,1,1.85-.76m0,.76a1.34,1.34,0,0,0-1.14.57,3.08,3.08,0,0,0,0,3.09,1.45,1.45,0,0,0,2.29,0,3.05,3.05,0,0,0,0-3.09A1.34,1.34,0,0,0,66.8,64" transform="translate(-7.21 -10.2)"/><path class="cls-5" d="M74,64.23a1.2,1.2,0,0,0-.33-.13,2.34,2.34,0,0,0-.39,0,1.43,1.43,0,0,0-1.17.5A2.13,2.13,0,0,0,71.67,66v2.88h-.9V63.39h.9v.85a1.8,1.8,0,0,1,.73-.74,2.34,2.34,0,0,1,1.11-.24h.21l.25,0v.92" transform="translate(-7.21 -10.2)"/><path class="cls-5" d="M78.69,65.64a1.79,1.79,0,0,0-.41-1.18A1.4,1.4,0,0,0,77.21,64a1.69,1.69,0,0,0-1.2.43,1.76,1.76,0,0,0-.52,1.19h3.2m.9.26v.44H75.46A2.06,2.06,0,0,0,76,67.76a1.91,1.91,0,0,0,1.39.48,4.15,4.15,0,0,0,1-.12,3.94,3.94,0,0,0,1-.39v.85a4.37,4.37,0,0,1-1,.31,6,6,0,0,1-1,.1,2.84,2.84,0,0,1-2.08-.75,2.76,2.76,0,0,1-.76-2.06,3.05,3.05,0,0,1,.72-2.13,2.55,2.55,0,0,1,2-.79A2.25,2.25,0,0,1,79,64a2.83,2.83,0,0,1,.64,1.93" transform="translate(-7.21 -10.2)"/><path class="cls-5" d="M85.34,65.74v3.12h-.9V68a1.91,1.91,0,0,1-.77.73,2.51,2.51,0,0,1-1.12.23,1.88,1.88,0,0,1-1.34-.46,1.87,1.87,0,0,1,.13-2.65,3,3,0,0,1,1.84-.47h1.26v-.09a1.2,1.2,0,0,0-.41-1A1.76,1.76,0,0,0,82.89,64a3.52,3.52,0,0,0-.92.12,4.16,4.16,0,0,0-.85.33v-.83a6,6,0,0,1,.95-.28,4.78,4.78,0,0,1,.91-.1,2.34,2.34,0,0,1,1.77.62,2.61,2.61,0,0,1,.59,1.86m-1.79.37a3.28,3.28,0,0,0-1.51.25.91.91,0,0,0-.42.85,1,1,0,0,0,.31.76,1.24,1.24,0,0,0,.86.28,1.48,1.48,0,0,0,1.2-.53,2.09,2.09,0,0,0,.45-1.41v-.2h-.89" transform="translate(-7.21 -10.2)"/><line class="cls-5" x1="86.07" y1="76.6" x2="82.57" y2="76.6"/><line class="cls-6" x1="86.07" y1="76.6" x2="82.57" y2="76.6"/><path class="cls-5" d="M28.18,83.55v1a6.42,6.42,0,0,0-1.06-.4,4.24,4.24,0,0,0-1-.13,2.2,2.2,0,0,0-1.25.31,1,1,0,0,0-.43.89.88.88,0,0,0,.29.73,2.41,2.41,0,0,0,1.1.4l.6.12a3.06,3.06,0,0,1,1.62.74,2,2,0,0,1,.53,1.42,1.89,1.89,0,0,1-.71,1.6,3.42,3.42,0,0,1-2.08.54,6.32,6.32,0,0,1-1.11-.11,6.4,6.4,0,0,1-1.2-.34v-1a5.33,5.33,0,0,0,1.17.51,3.75,3.75,0,0,0,1.14.17,2.16,2.16,0,0,0,1.29-.33,1.09,1.09,0,0,0,.47-1,1.08,1.08,0,0,0-.33-.84,2.28,2.28,0,0,0-1.08-.45l-.6-.12a3.1,3.1,0,0,1-1.6-.69,1.69,1.69,0,0,1-.49-1.3,1.81,1.81,0,0,1,.68-1.52,2.89,2.89,0,0,1,1.88-.56,6.27,6.27,0,0,1,1,.09,8.34,8.34,0,0,1,1.09.28" transform="translate(-7.21 -10.2)"/><path class="cls-5" d="M34.39,87.48V90.6h-.9v-.83a1.91,1.91,0,0,1-.77.73,2.51,2.51,0,0,1-1.12.23,1.88,1.88,0,0,1-1.34-.46,1.87,1.87,0,0,1,.13-2.65,3,3,0,0,1,1.84-.47h1.26v-.09a1.2,1.2,0,0,0-.41-1,1.76,1.76,0,0,0-1.14-.34,3.52,3.52,0,0,0-.92.12,4.16,4.16,0,0,0-.85.33v-.83a6,6,0,0,1,.95-.28A4.78,4.78,0,0,1,32,85a2.34,2.34,0,0,1,1.77.62,2.61,2.61,0,0,1,.59,1.86m-1.79.37a3.28,3.28,0,0,0-1.51.25.91.91,0,0,0-.42.85,1,1,0,0,0,.31.76,1.24,1.24,0,0,0,.86.28,1.48,1.48,0,0,0,1.2-.53,2.09,2.09,0,0,0,.45-1.41v-.2H32.6" transform="translate(-7.21 -10.2)"/><path class="cls-5" d="M38.42,85h0m-2.26,3.44V85.13h.9v3.28a1.87,1.87,0,0,0,.3,1.16,1.07,1.07,0,0,0,.91.39,1.48,1.48,0,0,0,1.15-.46,1.82,1.82,0,0,0,.42-1.27v-3.1h.9V90.6h-.9v-.84a2.22,2.22,0,0,1-.76.74,2.14,2.14,0,0,1-1,.23,1.74,1.74,0,0,1-1.43-.58,2.55,2.55,0,0,1-.49-1.71" transform="translate(-7.21 -10.2)"/><path class="cls-5" d="M43.13,87.87a2.65,2.65,0,0,0,.4,1.56,1.41,1.41,0,0,0,2.25,0,2.65,2.65,0,0,0,.41-1.56,2.62,2.62,0,0,0-.41-1.55,1.4,1.4,0,0,0-2.25,0,2.62,2.62,0,0,0-.4,1.55M46.19,86V83h.9v7.6h-.9v-.82a1.78,1.78,0,0,1-.72.72,2.21,2.21,0,0,1-1,.23A2,2,0,0,1,42.82,90a3.8,3.8,0,0,1,0-4.16A2,2,0,0,1,44.44,85a2.09,2.09,0,0,1,1,.24,1.91,1.91,0,0,1,.72.72" transform="translate(-7.21 -10.2)"/><path class="cls-5" d="M48.93,83h.9v1.14h-.9V83m0,2.13h.9V90.6h-.9V85.13" transform="translate(-7.21 -10.2)"/><path class="cls-5" d="M56.81,83.31h1.12l2.78,7.29h-1L59,88.73H55.73l-.66,1.87H54l2.78-7.29m.56,1L56,87.91h2.68l-1.34-3.63" transform="translate(-7.21 -10.2)"/><path class="cls-5" d="M64.9,86a1.2,1.2,0,0,0-.33-.13,2.34,2.34,0,0,0-.39,0,1.43,1.43,0,0,0-1.17.5,2.13,2.13,0,0,0-.41,1.42V90.6h-.9V85.13h.9V86a1.8,1.8,0,0,1,.73-.74A2.34,2.34,0,0,1,64.44,85h.21l.25,0V86" transform="translate(-7.21 -10.2)"/><path class="cls-5" d="M70.12,87.48V90.6h-.9v-.83a1.91,1.91,0,0,1-.77.73,2.51,2.51,0,0,1-1.12.23A1.88,1.88,0,0,1,66,90.27a1.87,1.87,0,0,1,.13-2.65A3,3,0,0,1,68,87.15h1.26v-.09a1.2,1.2,0,0,0-.41-1,1.76,1.76,0,0,0-1.14-.34,3.52,3.52,0,0,0-.92.12,4.16,4.16,0,0,0-.85.33v-.83a6,6,0,0,1,.95-.28,4.78,4.78,0,0,1,.91-.1,2.34,2.34,0,0,1,1.77.62,2.61,2.61,0,0,1,.59,1.86m-1.79.37a3.28,3.28,0,0,0-1.51.25.91.91,0,0,0-.42.85,1,1,0,0,0,.31.76,1.24,1.24,0,0,0,.86.28,1.48,1.48,0,0,0,1.2-.53,2.09,2.09,0,0,0,.45-1.41v-.2h-.89" transform="translate(-7.21 -10.2)"/><path class="cls-5" d="M72.84,86a1.82,1.82,0,0,1,.71-.72,2.13,2.13,0,0,1,1-.24,2,2,0,0,1,1.62.79,3.8,3.8,0,0,1,0,4.16,2,2,0,0,1-1.62.78,2.25,2.25,0,0,1-1-.23,1.7,1.7,0,0,1-.71-.72v.82h-.9V83h.9v3m3.06,1.91a2.62,2.62,0,0,0-.41-1.55,1.32,1.32,0,0,0-1.12-.57,1.29,1.29,0,0,0-1.12.57,2.55,2.55,0,0,0-.41,1.55,2.58,2.58,0,0,0,.41,1.56,1.29,1.29,0,0,0,1.12.56,1.31,1.31,0,0,0,1.12-.56,2.65,2.65,0,0,0,.41-1.56" transform="translate(-7.21 -10.2)"/><path class="cls-5" d="M78.32,83h.9v1.14h-.9V83m0,2.13h.9V90.6h-.9V85.13" transform="translate(-7.21 -10.2)"/><path class="cls-5" d="M85.38,87.48V90.6h-.9v-.83a1.91,1.91,0,0,1-.77.73,2.51,2.51,0,0,1-1.12.23,1.88,1.88,0,0,1-1.34-.46,1.87,1.87,0,0,1,.13-2.65,3,3,0,0,1,1.84-.47h1.26v-.09a1.2,1.2,0,0,0-.41-1,1.76,1.76,0,0,0-1.14-.34,3.52,3.52,0,0,0-.92.12,4.16,4.16,0,0,0-.85.33v-.83a6,6,0,0,1,1-.28A4.78,4.78,0,0,1,83,85a2.34,2.34,0,0,1,1.77.62,2.61,2.61,0,0,1,.59,1.86m-1.79.37a3.28,3.28,0,0,0-1.51.25.91.91,0,0,0-.42.85,1,1,0,0,0,.31.76,1.24,1.24,0,0,0,.86.28,1.48,1.48,0,0,0,1.2-.53,2.09,2.09,0,0,0,.45-1.41v-.2h-.89" transform="translate(-7.21 -10.2)"/><line class="cls-5" x1="86.07" y1="98.35" x2="82.57" y2="98.35"/><line class="cls-6" x1="86.07" y1="98.35" x2="82.57" y2="98.35"/><path class="cls-5" d="M54.67,105.61v1A3.9,3.9,0,0,0,53.6,106a3.19,3.19,0,0,0-1.19-.23,2.4,2.4,0,0,0-1.92.77,4,4,0,0,0,0,4.41,2.39,2.39,0,0,0,1.92.76,3,3,0,0,0,1.19-.23,3.49,3.49,0,0,0,1.07-.69v1a3.81,3.81,0,0,1-1.1.52,4.39,4.39,0,0,1-1.22.17,3.44,3.44,0,0,1-2.61-1,4.51,4.51,0,0,1,0-5.54,3.44,3.44,0,0,1,2.61-1,4.4,4.4,0,0,1,1.23.17,4.19,4.19,0,0,1,1.09.52" transform="translate(-7.21 -10.2)"/><path class="cls-5" d="M60.43,109.22v3.12h-.9v-.83a1.91,1.91,0,0,1-.77.73,2.51,2.51,0,0,1-1.12.23A1.88,1.88,0,0,1,56.3,112a1.87,1.87,0,0,1,.13-2.65,3,3,0,0,1,1.84-.47h1.26v-.09a1.2,1.2,0,0,0-.41-1A1.76,1.76,0,0,0,58,107.5a3.52,3.52,0,0,0-.92.12,4.16,4.16,0,0,0-.85.33v-.83a6,6,0,0,1,.95-.28,4.78,4.78,0,0,1,.91-.1,2.34,2.34,0,0,1,1.77.62,2.61,2.61,0,0,1,.59,1.86m-1.79.37a3.28,3.28,0,0,0-1.51.25.91.91,0,0,0-.42.85,1,1,0,0,0,.31.76,1.24,1.24,0,0,0,.86.28,1.48,1.48,0,0,0,1.2-.53,2.09,2.09,0,0,0,.45-1.41v-.2h-.89" transform="translate(-7.21 -10.2)"/><path class="cls-5" d="M66.83,109v3.3h-.9v-3.27a1.87,1.87,0,0,0-.31-1.16,1.06,1.06,0,0,0-.9-.39,1.47,1.47,0,0,0-1.15.47,1.81,1.81,0,0,0-.42,1.26v3.09h-.9v-5.47h.9v.85a2.11,2.11,0,0,1,.76-.73,2.07,2.07,0,0,1,1-.25,1.74,1.74,0,0,1,1.42.59,2.64,2.64,0,0,1,.49,1.71" transform="translate(-7.21 -10.2)"/><path class="cls-5" d="M72.9,109.22v3.12H72v-.83a1.91,1.91,0,0,1-.77.73,2.51,2.51,0,0,1-1.12.23,1.88,1.88,0,0,1-1.34-.46,1.87,1.87,0,0,1,.13-2.65,3,3,0,0,1,1.84-.47H72v-.09a1.2,1.2,0,0,0-.41-1,1.76,1.76,0,0,0-1.14-.34,3.52,3.52,0,0,0-.92.12,4.16,4.16,0,0,0-.85.33v-.83a6,6,0,0,1,.95-.28,4.78,4.78,0,0,1,.91-.1,2.34,2.34,0,0,1,1.77.62,2.61,2.61,0,0,1,.59,1.86m-1.79.37a3.28,3.28,0,0,0-1.51.25.91.91,0,0,0-.42.85,1,1,0,0,0,.31.76,1.24,1.24,0,0,0,.86.28,1.48,1.48,0,0,0,1.2-.53,2.09,2.09,0,0,0,.45-1.41v-.2h-.89" transform="translate(-7.21 -10.2)"/><path class="cls-5" d="M75.29,109.61a2.65,2.65,0,0,0,.4,1.56,1.41,1.41,0,0,0,2.25,0,2.65,2.65,0,0,0,.41-1.56,2.62,2.62,0,0,0-.41-1.55,1.4,1.4,0,0,0-2.25,0,2.62,2.62,0,0,0-.4,1.55m3.06-1.91v-3h.9v7.6h-.9v-.82a1.78,1.78,0,0,1-.72.72,2.21,2.21,0,0,1-1,.23,2,2,0,0,1-1.62-.78,3.8,3.8,0,0,1,0-4.16,2,2,0,0,1,1.62-.79,2.09,2.09,0,0,1,1,.24,1.91,1.91,0,0,1,.72.72" transform="translate(-7.21 -10.2)"/><path class="cls-5" d="M85.38,109.22v3.12h-.9v-.83a1.91,1.91,0,0,1-.77.73,2.51,2.51,0,0,1-1.12.23,1.88,1.88,0,0,1-1.34-.46,1.87,1.87,0,0,1,.13-2.65,3,3,0,0,1,1.84-.47h1.26v-.09a1.2,1.2,0,0,0-.41-1,1.76,1.76,0,0,0-1.14-.34,3.52,3.52,0,0,0-.92.12,4.16,4.16,0,0,0-.85.33v-.83a6,6,0,0,1,1-.28,4.78,4.78,0,0,1,.91-.1,2.34,2.34,0,0,1,1.77.62,2.61,2.61,0,0,1,.59,1.86m-1.79.37a3.28,3.28,0,0,0-1.51.25.91.91,0,0,0-.42.85,1,1,0,0,0,.31.76,1.24,1.24,0,0,0,.86.28,1.48,1.48,0,0,0,1.2-.53,2.09,2.09,0,0,0,.45-1.41v-.2h-.89" transform="translate(-7.21 -10.2)"/><line class="cls-5" x1="86.07" y1="120.09" x2="82.57" y2="120.09"/><line class="cls-6" x1="86.07" y1="120.09" x2="82.57" y2="120.09"/><polyline class="cls-5" points="40.01 123.89 37.23 116.6 38.26 116.6 40.57 122.74 42.88 116.6 43.91 116.6 41.13 123.89 40.01 123.89"/><path class="cls-5" d="M52.14,126.49H53v1.14h-.9v-1.14m0,2.13H53v5.47h-.9v-5.47" transform="translate(-7.21 -10.2)"/><path class="cls-5" d="M58.7,130.87a1.79,1.79,0,0,0-.41-1.18,1.4,1.4,0,0,0-1.07-.44,1.69,1.69,0,0,0-1.2.43,1.76,1.76,0,0,0-.52,1.19h3.2m.9.26v.44H55.47A2.06,2.06,0,0,0,56,133a1.91,1.91,0,0,0,1.39.48,4.15,4.15,0,0,0,1-.12,3.94,3.94,0,0,0,1-.39v.85a4.37,4.37,0,0,1-1,.31,6,6,0,0,1-1,.1,2.84,2.84,0,0,1-2.08-.75,2.76,2.76,0,0,1-.76-2.06,3.05,3.05,0,0,1,.72-2.13,2.55,2.55,0,0,1,2-.79,2.25,2.25,0,0,1,1.75.71,2.83,2.83,0,0,1,.64,1.93" transform="translate(-7.21 -10.2)"/><path class="cls-5" d="M62,127.07v1.55h1.85v.7H62v3a1.34,1.34,0,0,0,.18.86,1,1,0,0,0,.75.19h.92v.75h-.92a2,2,0,0,1-1.44-.39,2,2,0,0,1-.39-1.41v-3H60.4v-.7h.66v-1.55H62" transform="translate(-7.21 -10.2)"/><path class="cls-5" d="M69.54,130.79v3.3h-.9v-3.27a1.87,1.87,0,0,0-.31-1.16,1.06,1.06,0,0,0-.9-.39,1.47,1.47,0,0,0-1.15.47,1.81,1.81,0,0,0-.42,1.26v3.09H65v-5.47h.9v.85a2.11,2.11,0,0,1,.76-.73,2.07,2.07,0,0,1,1-.25,1.74,1.74,0,0,1,1.42.59,2.64,2.64,0,0,1,.49,1.71" transform="translate(-7.21 -10.2)"/><path class="cls-5" d="M75.61,131v3.12h-.9v-.83a1.91,1.91,0,0,1-.77.73,2.51,2.51,0,0,1-1.12.23,1.88,1.88,0,0,1-1.34-.46,1.87,1.87,0,0,1,.13-2.65,3,3,0,0,1,1.84-.47h1.26v-.09a1.2,1.2,0,0,0-.41-1,1.76,1.76,0,0,0-1.14-.34,3.52,3.52,0,0,0-.92.12,4.16,4.16,0,0,0-.85.33v-.83a6,6,0,0,1,1-.28,4.78,4.78,0,0,1,.91-.1,2.34,2.34,0,0,1,1.77.62,2.61,2.61,0,0,1,.59,1.86m-1.79.37a3.28,3.28,0,0,0-1.51.25.91.91,0,0,0-.42.85,1,1,0,0,0,.31.76,1.24,1.24,0,0,0,.86.28,1.48,1.48,0,0,0,1.2-.53,2.09,2.09,0,0,0,.45-1.41v-.2h-.89" transform="translate(-7.21 -10.2)"/><path class="cls-5" d="M81.72,129.67a2.41,2.41,0,0,1,.8-.89,2.08,2.08,0,0,1,1.11-.29,1.57,1.57,0,0,1,1.31.6,2.73,2.73,0,0,1,.47,1.7v3.3h-.9v-3.27a2.06,2.06,0,0,0-.28-1.17,1,1,0,0,0-.85-.38,1.4,1.4,0,0,0-1.11.47,1.85,1.85,0,0,0-.4,1.26v3.09H81v-3.27a2.06,2.06,0,0,0-.28-1.17,1,1,0,0,0-.86-.38,1.39,1.39,0,0,0-1.1.47,1.85,1.85,0,0,0-.4,1.26v3.09h-.9v-5.47h.9v.85a1.91,1.91,0,0,1,1.76-1,1.68,1.68,0,0,1,1,.3,1.81,1.81,0,0,1,.62.88" transform="translate(-7.21 -10.2)"/><line class="cls-5" x1="86.07" y1="141.84" x2="82.57" y2="141.84"/><line class="cls-6" x1="86.07" y1="141.84" x2="82.57" y2="141.84"/><polyline class="cls-5" points="43.4 138.34 49.56 138.34 49.56 139.17 46.97 139.17 46.97 145.63 45.98 145.63 45.98 139.17 43.4 139.17 43.4 138.34"/><path class="cls-5" d="M62,152.71v3.12h-.9V155a1.91,1.91,0,0,1-.77.73,2.51,2.51,0,0,1-1.12.23,1.88,1.88,0,0,1-1.34-.46,1.87,1.87,0,0,1,.13-2.65,3,3,0,0,1,1.84-.47h1.26v-.09a1.2,1.2,0,0,0-.41-1A1.76,1.76,0,0,0,59.5,151a3.52,3.52,0,0,0-.92.12,4.16,4.16,0,0,0-.85.33v-.83a6,6,0,0,1,1-.28,4.78,4.78,0,0,1,.91-.1,2.34,2.34,0,0,1,1.77.62,2.61,2.61,0,0,1,.59,1.86m-1.79.37a3.28,3.28,0,0,0-1.51.25.91.91,0,0,0-.42.85,1,1,0,0,0,.31.76,1.24,1.24,0,0,0,.86.28,1.48,1.48,0,0,0,1.2-.53,2.09,2.09,0,0,0,.45-1.41v-.2h-.89" transform="translate(-7.21 -10.2)"/><path class="cls-5" d="M63.8,148.23h.9v1.14h-.9v-1.14m0,2.13h.9v5.47h-.9v-5.47" transform="translate(-7.21 -10.2)"/><polyline class="cls-5" points="58.86 140.16 59.76 140.16 60.88 144.43 62 140.16 63.06 140.16 64.18 144.43 65.3 140.16 66.2 140.16 64.77 145.63 63.71 145.63 62.53 141.15 61.35 145.63 60.29 145.63 58.86 140.16"/><path class="cls-5" d="M79,152.71v3.12h-.9V155a1.91,1.91,0,0,1-.77.73,2.51,2.51,0,0,1-1.12.23,1.88,1.88,0,0,1-1.34-.46,1.87,1.87,0,0,1,.13-2.65,3,3,0,0,1,1.84-.47h1.26v-.09a1.2,1.2,0,0,0-.41-1,1.76,1.76,0,0,0-1.14-.34,3.52,3.52,0,0,0-.92.12,4.16,4.16,0,0,0-.85.33v-.83a6,6,0,0,1,1-.28,4.78,4.78,0,0,1,.91-.1,2.34,2.34,0,0,1,1.77.62,2.61,2.61,0,0,1,.59,1.86m-1.79.37a3.28,3.28,0,0,0-1.51.25.91.91,0,0,0-.42.85,1,1,0,0,0,.31.76,1.24,1.24,0,0,0,.86.28,1.48,1.48,0,0,0,1.2-.53,2.09,2.09,0,0,0,.45-1.41v-.2h-.89" transform="translate(-7.21 -10.2)"/><path class="cls-5" d="M85.44,152.53v3.3h-.9v-3.27a1.87,1.87,0,0,0-.31-1.16,1.06,1.06,0,0,0-.9-.39,1.47,1.47,0,0,0-1.15.47,1.81,1.81,0,0,0-.42,1.26v3.09h-.9v-5.47h.9v.85a2.11,2.11,0,0,1,.76-.73,2.07,2.07,0,0,1,1-.25,1.74,1.74,0,0,1,1.42.59,2.64,2.64,0,0,1,.49,1.71" transform="translate(-7.21 -10.2)"/><line class="cls-5" x1="86.07" y1="163.58" x2="82.57" y2="163.58"/><line class="cls-6" x1="86.07" y1="163.58" x2="82.57" y2="163.58"/><path class="cls-5" d="M59.37,170.29h1v6.78a3,3,0,0,1-.5,1.9,2,2,0,0,1-1.6.6h-.38v-.83h.31a1.08,1.08,0,0,0,.91-.37,2.29,2.29,0,0,0,.27-1.3v-6.78" transform="translate(-7.21 -10.2)"/><path class="cls-5" d="M66.56,174.46v3.12h-.9v-.83a1.91,1.91,0,0,1-.77.73,2.51,2.51,0,0,1-1.12.23,1.88,1.88,0,0,1-1.34-.46,1.87,1.87,0,0,1,.13-2.65,3,3,0,0,1,1.84-.47h1.26V174a1.2,1.2,0,0,0-.41-1,1.76,1.76,0,0,0-1.14-.34,3.52,3.52,0,0,0-.92.12,4.16,4.16,0,0,0-.85.33v-.83a6,6,0,0,1,.95-.28,4.78,4.78,0,0,1,.91-.1,2.34,2.34,0,0,1,1.77.62,2.61,2.61,0,0,1,.59,1.86m-1.79.37a3.28,3.28,0,0,0-1.51.25.91.91,0,0,0-.42.85,1,1,0,0,0,.31.76A1.24,1.24,0,0,0,64,177a1.48,1.48,0,0,0,1.2-.53,2.09,2.09,0,0,0,.45-1.41v-.2h-.89" transform="translate(-7.21 -10.2)"/><path class="cls-5" d="M72.34,174.85a2.62,2.62,0,0,0-.41-1.55,1.32,1.32,0,0,0-1.12-.57,1.29,1.29,0,0,0-1.12.57,2.55,2.55,0,0,0-.41,1.55,2.58,2.58,0,0,0,.41,1.56,1.29,1.29,0,0,0,1.12.56,1.31,1.31,0,0,0,1.12-.56,2.65,2.65,0,0,0,.41-1.56m-3.06,1.91v2.89h-.9v-7.54h.9v.83a1.82,1.82,0,0,1,.71-.72,2.13,2.13,0,0,1,1-.24,2,2,0,0,1,1.62.79,3.8,3.8,0,0,1,0,4.16,2,2,0,0,1-1.62.78,2.25,2.25,0,0,1-1-.23,1.7,1.7,0,0,1-.71-.72" transform="translate(-7.21 -10.2)"/><path class="cls-5" d="M79,174.46v3.12h-.9v-.83a1.91,1.91,0,0,1-.77.73,2.51,2.51,0,0,1-1.12.23,1.88,1.88,0,0,1-1.34-.46A1.87,1.87,0,0,1,75,174.6a3,3,0,0,1,1.84-.47h1.26V174a1.2,1.2,0,0,0-.41-1,1.76,1.76,0,0,0-1.14-.34,3.52,3.52,0,0,0-.92.12,4.16,4.16,0,0,0-.85.33v-.83a6,6,0,0,1,1-.28,4.78,4.78,0,0,1,.91-.1,2.34,2.34,0,0,1,1.77.62,2.61,2.61,0,0,1,.59,1.86m-1.79.37a3.28,3.28,0,0,0-1.51.25.91.91,0,0,0-.42.85,1,1,0,0,0,.31.76,1.24,1.24,0,0,0,.86.28,1.48,1.48,0,0,0,1.2-.53,2.09,2.09,0,0,0,.45-1.41v-.2h-.89" transform="translate(-7.21 -10.2)"/><path class="cls-5" d="M85.44,174.28v3.3h-.9v-3.27a1.87,1.87,0,0,0-.31-1.16,1.06,1.06,0,0,0-.9-.39,1.47,1.47,0,0,0-1.15.47,1.81,1.81,0,0,0-.42,1.26v3.09h-.9v-5.47h.9V173a2.11,2.11,0,0,1,.76-.73,2.07,2.07,0,0,1,1-.25,1.74,1.74,0,0,1,1.42.59,2.64,2.64,0,0,1,.49,1.71" transform="translate(-7.21 -10.2)"/><line class="cls-5" x1="86.07" y1="185.32" x2="82.57" y2="185.32"/><line class="cls-6" x1="86.07" y1="185.32" x2="82.57" y2="185.32"/><polyline class="cls-5" points="44.94 181.83 46.41 181.83 48.27 186.79 50.14 181.83 51.61 181.83 51.61 189.12 50.65 189.12 50.65 182.72 48.77 187.72 47.78 187.72 45.9 182.72 45.9 189.12 44.94 189.12 44.94 181.83"/><path class="cls-5" d="M64.52,196.1a1.79,1.79,0,0,0-.41-1.18,1.4,1.4,0,0,0-1.07-.44,1.69,1.69,0,0,0-1.2.43,1.76,1.76,0,0,0-.52,1.19h3.2m.9.26v.44H61.29a2.06,2.06,0,0,0,.56,1.42,1.91,1.91,0,0,0,1.39.48,4.15,4.15,0,0,0,1-.12,3.94,3.94,0,0,0,1-.39V199a4.37,4.37,0,0,1-1,.31,6,6,0,0,1-1,.1,2.84,2.84,0,0,1-2.08-.75,2.76,2.76,0,0,1-.76-2.06,3.05,3.05,0,0,1,.72-2.13,2.55,2.55,0,0,1,2-.79,2.25,2.25,0,0,1,1.75.71,2.83,2.83,0,0,1,.64,1.93" transform="translate(-7.21 -10.2)"/><polyline class="cls-5" points="64.23 183.65 62.25 186.31 64.33 189.12 63.27 189.12 61.68 186.97 60.09 189.12 59.03 189.12 61.15 186.26 59.21 183.65 60.27 183.65 61.72 185.6 63.17 183.65 64.23 183.65"/><path class="cls-5" d="M72.81,191.72h.9v1.14h-.9v-1.14m0,2.13h.9v5.47h-.9v-5.47" transform="translate(-7.21 -10.2)"/><path class="cls-5" d="M79.53,194.06v.84a3.55,3.55,0,0,0-.77-.31,2.92,2.92,0,0,0-.77-.11,1.71,1.71,0,0,0-1.36.56,2.76,2.76,0,0,0,0,3.11,1.71,1.71,0,0,0,1.36.55,2.91,2.91,0,0,0,.77-.1,3.6,3.6,0,0,0,.77-.32v.83a3.4,3.4,0,0,1-.78.26,4.74,4.74,0,0,1-.86.08,2.54,2.54,0,0,1-2-.77,3.37,3.37,0,0,1,0-4.19,2.67,2.67,0,0,1,2-.77,3.59,3.59,0,0,1,.81.09,4.32,4.32,0,0,1,.77.25" transform="translate(-7.21 -10.2)"/><path class="cls-5" d="M83.21,193.72a2.35,2.35,0,0,1,1.84.76,3.12,3.12,0,0,1,.67,2.11,3.08,3.08,0,0,1-.67,2.1,2.62,2.62,0,0,1-3.69,0,3.07,3.07,0,0,1-.66-2.1,3.12,3.12,0,0,1,.66-2.11,2.35,2.35,0,0,1,1.85-.76m0,.76a1.34,1.34,0,0,0-1.14.57,3.08,3.08,0,0,0,0,3.09,1.45,1.45,0,0,0,2.29,0,3.05,3.05,0,0,0,0-3.09,1.34,1.34,0,0,0-1.14-.57" transform="translate(-7.21 -10.2)"/><line class="cls-5" x1="86.07" y1="207.07" x2="82.57" y2="207.07"/><line class="cls-6" x1="86.07" y1="207.07" x2="82.57" y2="207.07"/><path class="cls-5" d="M59.35,213.77h2.52a2.84,2.84,0,0,1,1.74.47,1.61,1.61,0,0,1,.61,1.33,1.66,1.66,0,0,1-.32,1.07,1.38,1.38,0,0,1-.91.49,2,2,0,0,1,1.13.66,1.93,1.93,0,0,1,.4,1.23,1.82,1.82,0,0,1-.67,1.51,2.9,2.9,0,0,1-1.88.53H59.35v-7.29m1,.81v2.2H61.8a1.76,1.76,0,0,0,1.07-.27,1.13,1.13,0,0,0,0-1.65,1.75,1.75,0,0,0-1.07-.28H60.34m0,3v2.67h1.58a1.79,1.79,0,0,0,1.18-.33,1.52,1.52,0,0,0,0-2,1.79,1.79,0,0,0-1.18-.33H60.34" transform="translate(-7.21 -10.2)"/><path class="cls-5" d="M69.34,216.43a1.2,1.2,0,0,0-.33-.13,2.34,2.34,0,0,0-.39,0,1.43,1.43,0,0,0-1.17.5,2.13,2.13,0,0,0-.41,1.42v2.88h-.9v-5.47H67v.85a1.8,1.8,0,0,1,.73-.74,2.34,2.34,0,0,1,1.11-.24h.21l.25,0v.92" transform="translate(-7.21 -10.2)"/><path class="cls-5" d="M74.56,217.94v3.12h-.9v-.83a1.91,1.91,0,0,1-.77.73,2.51,2.51,0,0,1-1.12.23,1.88,1.88,0,0,1-1.34-.46,1.87,1.87,0,0,1,.13-2.65,3,3,0,0,1,1.84-.47h1.26v-.09a1.2,1.2,0,0,0-.41-1,1.76,1.76,0,0,0-1.14-.34,3.52,3.52,0,0,0-.92.12,4.16,4.16,0,0,0-.85.33v-.83a6,6,0,0,1,1-.28,4.78,4.78,0,0,1,.91-.1,2.34,2.34,0,0,1,1.77.62,2.61,2.61,0,0,1,.59,1.86m-1.79.37a3.28,3.28,0,0,0-1.51.25.91.91,0,0,0-.42.85,1,1,0,0,0,.31.76,1.24,1.24,0,0,0,.86.28,1.48,1.48,0,0,0,1.2-.53,2.09,2.09,0,0,0,.45-1.41v-.2h-.89" transform="translate(-7.21 -10.2)"/><polyline class="cls-5" points="68.82 205.4 73.09 205.4 73.09 206.22 69.71 210.15 73.09 210.15 73.09 210.87 68.7 210.87 68.7 210.04 72.08 206.12 68.82 206.12 68.82 205.4"/><path class="cls-5" d="M81.66,213.46h.9v1.14h-.9v-1.14m0,2.13h.9v5.47h-.9v-5.47" transform="translate(-7.21 -10.2)"/><polyline class="cls-5" points="77.24 203.26 78.14 203.26 78.14 210.87 77.24 210.87 77.24 203.26"/><path class="cls-5" d="M7.58,164v-2.67a3.27,3.27,0,0,1,.67-2.22,2.42,2.42,0,0,1,1.94-.76,2.43,2.43,0,0,1,2,.76,3.27,3.27,0,0,1,.66,2.22v1.48h3.52V164H7.58m1-1.19h3.29v-1.48a1.75,1.75,0,0,0-.42-1.28,1.63,1.63,0,0,0-1.23-.45,1.6,1.6,0,0,0-1.21.45,1.75,1.75,0,0,0-.43,1.28v1.48" transform="translate(-7.21 -10.2)"/><polyline class="cls-5" points="0 146.61 0 145.53 9.12 145.53 9.12 146.61 0 146.61"/><path class="cls-5" d="M12.58,148.34h3.75v1.08h-1a2.2,2.2,0,0,1,.87.93,2.86,2.86,0,0,1,.28,1.34,2.28,2.28,0,0,1-.55,1.61,2,2,0,0,1-1.51.59,2,2,0,0,1-1.67-.75,3.63,3.63,0,0,1-.56-2.21v-1.51h-.11a1.44,1.44,0,0,0-1.15.49,2.09,2.09,0,0,0-.41,1.37,4.5,4.5,0,0,0,.14,1.11,5.27,5.27,0,0,0,.4,1h-1a7.62,7.62,0,0,1-.33-1.14,5.29,5.29,0,0,1-.12-1.1,2.82,2.82,0,0,1,.74-2.12,3.13,3.13,0,0,1,2.23-.71m.45,2.15a3.8,3.8,0,0,0,.3,1.81,1.09,1.09,0,0,0,1,.51,1.13,1.13,0,0,0,.91-.38,1.47,1.47,0,0,0,.33-1A1.77,1.77,0,0,0,15,150a2.52,2.52,0,0,0-1.69-.54H13v1.07" transform="translate(-7.21 -10.2)"/><path class="cls-5" d="M10,141.39h1a4.19,4.19,0,0,0-.37.93,3.65,3.65,0,0,0-.13.92,2.05,2.05,0,0,0,.67,1.63,2.73,2.73,0,0,0,1.86.58,2.74,2.74,0,0,0,1.87-.58,2,2,0,0,0,.66-1.63,3.23,3.23,0,0,0-.12-.92,4.24,4.24,0,0,0-.38-.93h1a4,4,0,0,1,.32.94,5.64,5.64,0,0,1,.09,1,3,3,0,0,1-.92,2.35,3.46,3.46,0,0,1-2.51.88,3.47,3.47,0,0,1-2.52-.88,3.19,3.19,0,0,1-.92-2.42,4.37,4.37,0,0,1,.1-1,6.29,6.29,0,0,1,.3-.93" transform="translate(-7.21 -10.2)"/><path class="cls-5" d="M12.46,135a2.13,2.13,0,0,0-1.41.49,1.66,1.66,0,0,0-.53,1.28A2.06,2.06,0,0,0,11,138.2a2.14,2.14,0,0,0,1.43.63V135m.31-1.08h.53v5a2.48,2.48,0,0,0,1.71-.67,2.32,2.32,0,0,0,.57-1.67,5.32,5.32,0,0,0-.14-1.2,4.71,4.71,0,0,0-.47-1.16h1a5,5,0,0,1,.37,1.19,7.22,7.22,0,0,1,.12,1.23,3.41,3.41,0,0,1-.9,2.5,3.31,3.31,0,0,1-2.47.91,3.7,3.7,0,0,1-2.56-.86,3.09,3.09,0,0,1-.94-2.36,2.7,2.7,0,0,1,.85-2.1,3.38,3.38,0,0,1,2.31-.76" transform="translate(-7.21 -10.2)"/><path class="cls-5" d="M10,128h1a7.29,7.29,0,0,0-.35,1,5,5,0,0,0-.11,1,2.28,2.28,0,0,0,.25,1.21.81.81,0,0,0,.73.4.71.71,0,0,0,.59-.29,3.18,3.18,0,0,0,.41-1.15l.08-.37a3.61,3.61,0,0,1,.7-1.63,1.63,1.63,0,0,1,1.24-.48,1.66,1.66,0,0,1,1.44.72,3.27,3.27,0,0,1,.53,2,7,7,0,0,1-.09,1.1,7.26,7.26,0,0,1-.3,1.2H15a4.94,4.94,0,0,0,.47-1.17,4.2,4.2,0,0,0,.15-1.16,2.24,2.24,0,0,0-.25-1.17.83.83,0,0,0-.74-.41.82.82,0,0,0-.67.3,3.3,3.3,0,0,0-.46,1.3l-.08.37a3,3,0,0,1-.65,1.45,1.59,1.59,0,0,1-1.2.44,1.72,1.72,0,0,1-1.43-.64,3,3,0,0,1-.5-1.88,6.77,6.77,0,0,1,.09-1.12,6.67,6.67,0,0,1,.25-1" transform="translate(-7.21 -10.2)"/><path class="cls-5" d="M9.61,119.53a2.82,2.82,0,0,1,.91-2.21,3.73,3.73,0,0,1,2.53-.8,3.68,3.68,0,0,1,2.52.8,3.15,3.15,0,0,1,0,4.43,3.68,3.68,0,0,1-2.52.79,3.72,3.72,0,0,1-2.53-.79,2.81,2.81,0,0,1-.91-2.22m.91,0a1.63,1.63,0,0,0,.68,1.37,3.1,3.1,0,0,0,1.85.5,3,3,0,0,0,1.86-.49,1.75,1.75,0,0,0,0-2.75,3.11,3.11,0,0,0-1.86-.5,3.12,3.12,0,0,0-1.85.5,1.63,1.63,0,0,0-.68,1.37" transform="translate(-7.21 -10.2)"/><path class="cls-5" d="M7.21,111.41h.9v1a1.06,1.06,0,0,0,.24.8,1.14,1.14,0,0,0,.84.23h.57v-1.78h.84v1.78h5.73v1.08H10.6v1H9.76v-1H9.31a2.24,2.24,0,0,1-1.6-.5,2.22,2.22,0,0,1-.5-1.62v-1" transform="translate(-7.21 -10.2)"/><path class="cls-5" d="M9.61,104.15a2.82,2.82,0,0,1,.91-2.21,3.73,3.73,0,0,1,2.53-.81,3.68,3.68,0,0,1,2.52.81,3.15,3.15,0,0,1,0,4.43,3.73,3.73,0,0,1-2.52.79,3.77,3.77,0,0,1-2.53-.79,2.83,2.83,0,0,1-.91-2.22m.91,0a1.61,1.61,0,0,0,.68,1.36,3,3,0,0,0,1.85.51,3.11,3.11,0,0,0,1.86-.49,1.61,1.61,0,0,0,.67-1.38,1.58,1.58,0,0,0-.67-1.37,3,3,0,0,0-1.86-.51,3.05,3.05,0,0,0-1.85.51,1.61,1.61,0,0,0-.68,1.37" transform="translate(-7.21 -10.2)"/><path class="cls-5" d="M10.77,95.54a1.59,1.59,0,0,0-.16.4,3.3,3.3,0,0,0,0,.47,1.69,1.69,0,0,0,.6,1.4,2.52,2.52,0,0,0,1.7.49h3.46v1.08H9.76V98.3h1a2.19,2.19,0,0,1-.89-.87,2.86,2.86,0,0,1-.28-1.34c0-.07,0-.15,0-.25a2.32,2.32,0,0,1,.05-.3h1.1" transform="translate(-7.21 -10.2)"/><path class="cls-5" d="M7.21,94.41V93.33H8.57v1.08H7.21m2.55,0V93.33h6.57v1.08H9.76" transform="translate(-7.21 -10.2)"/><path class="cls-5" d="M15.51,85.68a3.64,3.64,0,0,1,2.48.74,3,3,0,0,1,.82,2.28,8.8,8.8,0,0,1-.08,1.07,5.25,5.25,0,0,1-.27,1h-1a4.5,4.5,0,0,0,.37-.93,3.82,3.82,0,0,0,.13-.95,2.13,2.13,0,0,0-.55-1.58,2.34,2.34,0,0,0-1.67-.53h-.53a2.25,2.25,0,0,1,.87.86,2.55,2.55,0,0,1,.29,1.24,2.35,2.35,0,0,1-.92,2,3.72,3.72,0,0,1-2.44.74,3.74,3.74,0,0,1-2.44-.74,2.38,2.38,0,0,1-.92-2,2.55,2.55,0,0,1,.28-1.24,2.32,2.32,0,0,1,.87-.86h-1V85.68h5.75M13,86.76a3.12,3.12,0,0,0-1.82.48,1.75,1.75,0,0,0,0,2.71,3,3,0,0,0,1.82.48A3,3,0,0,0,14.78,90a1.74,1.74,0,0,0,0-2.71A3,3,0,0,0,13,86.76" transform="translate(-7.21 -10.2)"/><path class="cls-5" d="M7.21,83.46V82.38H8.57v1.08H7.21m2.55,0V82.38h6.57v1.08H9.76" transform="translate(-7.21 -10.2)"/><path class="cls-5" d="M12.37,74.66h4v1.08H12.4a2.24,2.24,0,0,0-1.39.37,1.28,1.28,0,0,0-.47,1.08,1.73,1.73,0,0,0,.57,1.38,2.14,2.14,0,0,0,1.51.51h3.71v1.08H9.76V79.08h1a2.51,2.51,0,0,1-.87-.91A2.42,2.42,0,0,1,9.61,77a2.1,2.1,0,0,1,.7-1.7,3.22,3.22,0,0,1,2.06-.59" transform="translate(-7.21 -10.2)"/><g class="cls-3"><rect class="cls-7" x="86.07" y="2.67" width="318.86" height="17.4"/></g><g class="cls-3"><rect class="cls-8" x="86.07" y="24.42" width="172.24" height="17.4"/></g><g class="cls-3"><rect class="cls-9" x="86.07" y="46.16" width="47.88" height="17.4"/></g><g class="cls-3"><rect class="cls-10" x="86.07" y="67.91" width="38.99" height="17.4"/></g><g class="cls-3"><rect class="cls-11" x="86.07" y="89.65" width="22.74" height="17.4"/></g><g class="cls-3"><rect class="cls-12" x="86.07" y="111.39" width="21.35" height="17.4"/></g><g class="cls-3"><rect class="cls-13" x="86.07" y="133.14" width="19.7" height="17.4"/></g><g class="cls-3"><rect class="cls-14" x="86.07" y="154.88" width="16.46" height="17.4"/></g><g class="cls-3"><rect class="cls-15" x="86.07" y="176.63" width="13.57" height="17.4"/></g><g class="cls-3"><rect class="cls-16" x="86.07" y="198.37" width="12.83" height="17.4"/></g><g class="cls-3"><path class="cls-17" d="M0,267.64" transform="translate(-7.21 -10.2)"/></g><g class="cls-3"><path class="cls-17" d="M0,267.64" transform="translate(-7.21 -10.2)"/></g><g class="cls-3"><path class="cls-17" d="M0,267.64" transform="translate(-7.21 -10.2)"/></g><g class="cls-3"><path class="cls-17" d="M0,267.64" transform="translate(-7.21 -10.2)"/></g><g class="cls-3"><path class="cls-17" d="M0,267.64" transform="translate(-7.21 -10.2)"/></g><g class="cls-3"><path class="cls-17" d="M0,267.64" transform="translate(-7.21 -10.2)"/></g><g class="cls-3"><path class="cls-17" d="M0,267.64" transform="translate(-7.21 -10.2)"/></g><g class="cls-3"><path class="cls-17" d="M0,267.64" transform="translate(-7.21 -10.2)"/></g><g class="cls-3"><path class="cls-17" d="M0,267.64" transform="translate(-7.21 -10.2)"/></g><g class="cls-3"><path class="cls-17" d="M0,267.64" transform="translate(-7.21 -10.2)"/></g><line class="cls-18" x1="86.07" y1="217.94" x2="86.07" y2="0.5"/><line class="cls-18" x1="420.87" y1="217.94" x2="420.87" y2="0.5"/><line class="cls-18" x1="86.07" y1="217.94" x2="420.87" y2="217.94"/><line class="cls-18" x1="86.07" y1="0.5" x2="420.87" y2="0.5"/></g></svg>