<svg id="Layer_1" data-name="Layer 1" xmlns="http://www.w3.org/2000/svg" xmlns:xlink="http://www.w3.org/1999/xlink" viewBox="0 0 720 360"><defs><style>.cls-1,.cls-11,.cls-22,.cls-6,.cls-8,.cls-9{fill:none;}.cls-2{clip-path:url(#clip-path);}.cls-3{fill:#fff;}.cls-4{fill:#e5e5e5;}.cls-5{clip-path:url(#clip-path-2);}.cls-22,.cls-6{stroke:#fff;}.cls-22,.cls-6,.cls-9{stroke-linecap:square;}.cls-11,.cls-6,.cls-8,.cls-9{stroke-linejoin:round;}.cls-6,.cls-8{stroke-width:0.8px;}.cls-7{fill:#555;}.cls-8{stroke:#555;}.cls-11,.cls-9{stroke:blue;}.cls-9{stroke-width:2px;}.cls-10{clip-path:url(#clip-path-20);}.cls-12{clip-path:url(#clip-path-21);}.cls-13{clip-path:url(#clip-path-22);}.cls-14{clip-path:url(#clip-path-23);}.cls-15{clip-path:url(#clip-path-24);}.cls-16{clip-path:url(#clip-path-25);}.cls-17{clip-path:url(#clip-path-26);}.cls-18{clip-path:url(#clip-path-27);}.cls-19{clip-path:url(#clip-path-28);}.cls-20{clip-path:url(#clip-path-29);}.cls-21{clip-path:url(#clip-path-30);}.cls-22{stroke-miterlimit:10;}.cls-23{font-size:14px;font-family:MyriadPro-Regular, Myriad Pro;}</style><clipPath id="clip-path" transform="translate(12)"><rect class="cls-1" x="-12" width="720" height="360"/></clipPath><clipPath id="clip-path-2" transform="translate(12)"><rect class="cls-1" x="78" y="43.2" width="558" height="271.8"/></clipPath><clipPath id="clip-path-20" transform="translate(12)"><rect class="cls-1" x="100.36" y="147.44" width="6" height="6"/></clipPath><clipPath id="clip-path-21" transform="translate(12)"><rect class="cls-1" x="151.09" y="135.23" width="6" height="6"/></clipPath><clipPath id="clip-path-22" transform="translate(12)"><rect class="cls-1" x="201.82" y="52.55" width="6" height="6"/></clipPath><clipPath id="clip-path-23" transform="translate(12)"><rect class="cls-1" x="252.55" y="112.68" width="6" height="6"/></clipPath><clipPath id="clip-path-24" transform="translate(12)"><rect class="cls-1" x="303.27" y="116.44" width="6" height="6"/></clipPath><clipPath id="clip-path-25" transform="translate(12)"><rect class="cls-1" x="354" y="132.41" width="6" height="6"/></clipPath><clipPath id="clip-path-26" transform="translate(12)"><rect class="cls-1" x="404.73" y="178.45" width="6" height="6"/></clipPath><clipPath id="clip-path-27" transform="translate(12)"><rect class="cls-1" x="455.45" y="232" width="6" height="6"/></clipPath><clipPath id="clip-path-28" transform="translate(12)"><rect class="cls-1" x="506.18" y="257.37" width="6" height="6"/></clipPath><clipPath id="clip-path-29" transform="translate(12)"><rect class="cls-1" x="556.91" y="269.58" width="6" height="6"/></clipPath><clipPath id="clip-path-30" transform="translate(12)"><rect class="cls-1" x="607.64" y="299.65" width="6" height="6"/></clipPath></defs><title>Graphic3-ChineseGrowth</title><g class="cls-2"><rect class="cls-3" width="720" height="360"/><rect class="cls-4" x="90" y="43.2" width="558" height="271.8"/><g class="cls-5"><line class="cls-6" x1="115.36" y1="315" x2="115.36" y2="43.2"/></g><line class="cls-7" x1="115.36" y1="315" x2="115.36" y2="318.5"/><line class="cls-8" x1="115.36" y1="315" x2="115.36" y2="318.5"/><path class="cls-7" d="M84.52,328.76H88v.83H83.33v-.83l1.53-1.56c.64-.65,1-1.07,1.22-1.26a4,4,0,0,0,.66-.9,1.65,1.65,0,0,0,.19-.73,1.21,1.21,0,0,0-.41-.94,1.54,1.54,0,0,0-1.06-.37,3.52,3.52,0,0,0-1,.16,6,6,0,0,0-1.1.49v-1a7.87,7.87,0,0,1,1.11-.36,4.19,4.19,0,0,1,1-.12,2.7,2.7,0,0,1,1.8.57,1.88,1.88,0,0,1,.68,1.51,2.19,2.19,0,0,1-.17.85,3.79,3.79,0,0,1-.61.95c-.08.1-.34.37-.78.82l-1.84,1.89" transform="translate(12)"/><path class="cls-7" d="M92.14,322.17a2.14,2.14,0,0,1,1.87,1,6.4,6.4,0,0,1,0,5.62,2.31,2.31,0,0,1-3.75,0,6.49,6.49,0,0,1,0-5.62,2.14,2.14,0,0,1,1.88-1m0,.78a1.23,1.23,0,0,0-1.15.75,6.85,6.85,0,0,0,0,4.5,1.26,1.26,0,0,0,2.3,0,6.85,6.85,0,0,0,0-4.5,1.23,1.23,0,0,0-1.15-.75" transform="translate(12)"/><path class="cls-7" d="M98.5,322.17a2.14,2.14,0,0,1,1.87,1,6.4,6.4,0,0,1,0,5.62,2.31,2.31,0,0,1-3.75,0,6.49,6.49,0,0,1,0-5.62,2.14,2.14,0,0,1,1.88-1m0,.78a1.23,1.23,0,0,0-1.15.75,6.85,6.85,0,0,0,0,4.5,1.26,1.26,0,0,0,2.3,0,6.85,6.85,0,0,0,0-4.5A1.23,1.23,0,0,0,98.5,323" transform="translate(12)"/><polyline class="cls-7" points="114.5 322.3 119.19 322.3 119.19 322.72 116.54 329.59 115.51 329.59 118 323.13 114.5 323.13 114.5 322.3"/><polyline class="cls-7" points="122.58 322.3 123.41 322.3 120.87 330.51 120.04 330.51 122.58 322.3"/><path class="cls-7" d="M114.59,322.17a2.14,2.14,0,0,1,1.87,1,6.4,6.4,0,0,1,0,5.62,2.31,2.31,0,0,1-3.75,0,6.49,6.49,0,0,1,0-5.62,2.14,2.14,0,0,1,1.88-1m0,.78a1.23,1.23,0,0,0-1.15.75,6.85,6.85,0,0,0,0,4.5,1.26,1.26,0,0,0,2.3,0,6.85,6.85,0,0,0,0-4.5,1.23,1.23,0,0,0-1.15-.75" transform="translate(12)"/><path class="cls-7" d="M119.6,324.15a1.12,1.12,0,0,0,.35.89,1.75,1.75,0,0,0,2,0,1.12,1.12,0,0,0,.36-.89,1.1,1.1,0,0,0-.36-.88,1.71,1.71,0,0,0-2,0,1.1,1.1,0,0,0-.35.88m.36,1.56a1.78,1.78,0,0,1-1-.59,1.59,1.59,0,0,1-.35-1.06,1.67,1.67,0,0,1,.62-1.38,2.6,2.6,0,0,1,1.71-.51,2.64,2.64,0,0,1,1.71.51,1.7,1.7,0,0,1,.62,1.38,1.6,1.6,0,0,1-.36,1.06,1.75,1.75,0,0,1-1,.59,2,2,0,0,1,1.11.65,1.83,1.83,0,0,1,.4,1.18,2,2,0,0,1-.65,1.62,3.35,3.35,0,0,1-3.71,0,2,2,0,0,1-.64-1.62,1.78,1.78,0,0,1,.4-1.18,1.94,1.94,0,0,1,1.11-.65m1,.42a1.57,1.57,0,0,0-1.11.38,1.33,1.33,0,0,0-.4,1,1.35,1.35,0,0,0,.4,1A1.57,1.57,0,0,0,121,329a1.52,1.52,0,0,0,1.1-.38,1.33,1.33,0,0,0,.41-1,1.36,1.36,0,0,0-.4-1,1.57,1.57,0,0,0-1.11-.38" transform="translate(12)"/><g class="cls-5"><line class="cls-6" x1="166.09" y1="315" x2="166.09" y2="43.2"/></g><line class="cls-7" x1="166.09" y1="315" x2="166.09" y2="318.5"/><line class="cls-8" x1="166.09" y1="315" x2="166.09" y2="318.5"/><path class="cls-7" d="M135.25,328.76h3.44v.83h-4.63v-.83l1.53-1.56c.64-.65,1-1.07,1.22-1.26a4,4,0,0,0,.66-.9,1.65,1.65,0,0,0,.19-.73,1.21,1.21,0,0,0-.41-.94,1.54,1.54,0,0,0-1.06-.37,3.52,3.52,0,0,0-1,.16,6,6,0,0,0-1.1.49v-1a7.87,7.87,0,0,1,1.11-.36,4.19,4.19,0,0,1,.95-.12,2.7,2.7,0,0,1,1.8.57,1.88,1.88,0,0,1,.68,1.51,2.19,2.19,0,0,1-.17.85,3.79,3.79,0,0,1-.61.95c-.08.1-.34.37-.78.82l-1.84,1.89" transform="translate(12)"/><path class="cls-7" d="M142.87,322.17a2.14,2.14,0,0,1,1.87,1,6.4,6.4,0,0,1,0,5.62,2.31,2.31,0,0,1-3.75,0,6.49,6.49,0,0,1,0-5.62,2.14,2.14,0,0,1,1.88-1m0,.78a1.23,1.23,0,0,0-1.15.75,6.85,6.85,0,0,0,0,4.5,1.26,1.26,0,0,0,2.3,0,6.85,6.85,0,0,0,0-4.5,1.23,1.23,0,0,0-1.15-.75" transform="translate(12)"/><path class="cls-7" d="M149.23,322.17a2.14,2.14,0,0,1,1.87,1,6.4,6.4,0,0,1,0,5.62,2.31,2.31,0,0,1-3.75,0,6.49,6.49,0,0,1,0-5.62,2.14,2.14,0,0,1,1.88-1m0,.78a1.23,1.23,0,0,0-1.15.75,6.85,6.85,0,0,0,0,4.5,1.26,1.26,0,0,0,2.3,0,6.85,6.85,0,0,0,0-4.5,1.23,1.23,0,0,0-1.15-.75" transform="translate(12)"/><path class="cls-7" d="M154.24,324.15a1.12,1.12,0,0,0,.35.89,1.75,1.75,0,0,0,2,0,1.12,1.12,0,0,0,.36-.89,1.1,1.1,0,0,0-.36-.88,1.71,1.71,0,0,0-2,0,1.1,1.1,0,0,0-.35.88m.36,1.56a1.78,1.78,0,0,1-1-.59,1.59,1.59,0,0,1-.35-1.06,1.67,1.67,0,0,1,.62-1.38,2.6,2.6,0,0,1,1.71-.51,2.64,2.64,0,0,1,1.71.51,1.7,1.7,0,0,1,.62,1.38,1.6,1.6,0,0,1-.36,1.06,1.75,1.75,0,0,1-1,.59,2,2,0,0,1,1.11.65,1.83,1.83,0,0,1,.4,1.18,2,2,0,0,1-.65,1.62,3.35,3.35,0,0,1-3.71,0,2,2,0,0,1-.64-1.62,1.78,1.78,0,0,1,.4-1.18,1.94,1.94,0,0,1,1.11-.65m1,.42a1.57,1.57,0,0,0-1.11.38,1.33,1.33,0,0,0-.4,1,1.35,1.35,0,0,0,.4,1,1.57,1.57,0,0,0,1.11.37,1.52,1.52,0,0,0,1.1-.38,1.33,1.33,0,0,0,.41-1,1.36,1.36,0,0,0-.4-1,1.57,1.57,0,0,0-1.11-.38" transform="translate(12)"/><polyline class="cls-7" points="173.31 322.3 174.13 322.3 171.59 330.51 170.76 330.51 173.31 322.3"/><path class="cls-7" d="M165.32,322.17a2.14,2.14,0,0,1,1.87,1,6.4,6.4,0,0,1,0,5.62,2.31,2.31,0,0,1-3.75,0,6.49,6.49,0,0,1,0-5.62,2.14,2.14,0,0,1,1.88-1m0,.78a1.23,1.23,0,0,0-1.15.75,6.85,6.85,0,0,0,0,4.5,1.26,1.26,0,0,0,2.3,0,6.85,6.85,0,0,0,0-4.5,1.23,1.23,0,0,0-1.15-.75" transform="translate(12)"/><path class="cls-7" d="M171.56,326.35a1.32,1.32,0,0,0,1.05-.45,2.18,2.18,0,0,0,0-2.49,1.43,1.43,0,0,0-2.1,0,2.18,2.18,0,0,0,0,2.49,1.32,1.32,0,0,0,1.05.45m-2,3.09v-.9a3.36,3.36,0,0,0,.75.27,3.2,3.2,0,0,0,.75.09,1.76,1.76,0,0,0,1.48-.65,3.65,3.65,0,0,0,.6-2,2.12,2.12,0,0,1-.72.65,2.05,2.05,0,0,1-1,.22,2.29,2.29,0,0,1-1.74-.66,2.85,2.85,0,0,1,0-3.61,2.37,2.37,0,0,1,1.77-.68,2.21,2.21,0,0,1,1.93,1,5,5,0,0,1,.67,2.81,4.29,4.29,0,0,1-.82,2.75,2.68,2.68,0,0,1-2.2,1,4.76,4.76,0,0,1-.75-.07,4,4,0,0,1-.79-.21" transform="translate(12)"/><g class="cls-5"><line class="cls-6" x1="216.82" y1="315" x2="216.82" y2="43.2"/></g><line class="cls-7" x1="216.82" y1="315" x2="216.82" y2="318.5"/><line class="cls-8" x1="216.82" y1="315" x2="216.82" y2="318.5"/><path class="cls-7" d="M186,328.76h3.44v.83h-4.63v-.83l1.53-1.56c.64-.65,1.05-1.07,1.22-1.26a4,4,0,0,0,.66-.9,1.65,1.65,0,0,0,.19-.73,1.21,1.21,0,0,0-.41-.94,1.54,1.54,0,0,0-1.06-.37,3.52,3.52,0,0,0-1,.16,6,6,0,0,0-1.1.49v-1a7.87,7.87,0,0,1,1.11-.36,4.19,4.19,0,0,1,.95-.12,2.7,2.7,0,0,1,1.8.57,1.88,1.88,0,0,1,.68,1.51,2.19,2.19,0,0,1-.17.85,3.79,3.79,0,0,1-.61.95c-.08.1-.34.37-.78.82L186,328.76" transform="translate(12)"/><path class="cls-7" d="M193.59,322.17a2.14,2.14,0,0,1,1.87,1,6.4,6.4,0,0,1,0,5.62,2.31,2.31,0,0,1-3.75,0,6.49,6.49,0,0,1,0-5.62,2.14,2.14,0,0,1,1.88-1m0,.78a1.23,1.23,0,0,0-1.15.75,6.85,6.85,0,0,0,0,4.5,1.26,1.26,0,0,0,2.3,0,6.85,6.85,0,0,0,0-4.5,1.23,1.23,0,0,0-1.15-.75" transform="translate(12)"/><path class="cls-7" d="M200,322.17a2.14,2.14,0,0,1,1.87,1,6.4,6.4,0,0,1,0,5.62,2.31,2.31,0,0,1-3.75,0,6.49,6.49,0,0,1,0-5.62,2.14,2.14,0,0,1,1.88-1m0,.78a1.23,1.23,0,0,0-1.15.75,6.85,6.85,0,0,0,0,4.5,1.26,1.26,0,0,0,2.3,0,6.85,6.85,0,0,0,0-4.5A1.23,1.23,0,0,0,200,323" transform="translate(12)"/><path class="cls-7" d="M206.19,326.35a1.32,1.32,0,0,0,1.05-.45,2.18,2.18,0,0,0,0-2.49,1.43,1.43,0,0,0-2.1,0,2.18,2.18,0,0,0,0,2.49,1.32,1.32,0,0,0,1.05.45m-2,3.09v-.9a3.36,3.36,0,0,0,.75.27,3.2,3.2,0,0,0,.75.09,1.76,1.76,0,0,0,1.48-.65,3.65,3.65,0,0,0,.6-2,2.12,2.12,0,0,1-.72.65,2.05,2.05,0,0,1-1,.22,2.29,2.29,0,0,1-1.74-.66,2.85,2.85,0,0,1,0-3.61,2.37,2.37,0,0,1,1.77-.68,2.21,2.21,0,0,1,1.93,1,5,5,0,0,1,.67,2.81,4.29,4.29,0,0,1-.82,2.75,2.68,2.68,0,0,1-2.2,1,4.76,4.76,0,0,1-.75-.07,4,4,0,0,1-.79-.21" transform="translate(12)"/><polyline class="cls-7" points="224.03 322.3 224.86 322.3 222.32 330.51 221.49 330.51 224.03 322.3"/><polyline class="cls-7" points="226.1 328.76 227.71 328.76 227.71 323.2 225.96 323.55 225.96 322.65 227.7 322.3 228.69 322.3 228.69 328.76 230.3 328.76 230.3 329.59 226.1 329.59 226.1 328.76"/><path class="cls-7" d="M222.4,322.17a2.14,2.14,0,0,1,1.87,1,6.4,6.4,0,0,1,0,5.62,2.31,2.31,0,0,1-3.75,0,6.49,6.49,0,0,1,0-5.62,2.14,2.14,0,0,1,1.88-1m0,.78a1.23,1.23,0,0,0-1.15.75,6.85,6.85,0,0,0,0,4.5,1.26,1.26,0,0,0,2.3,0,6.85,6.85,0,0,0,0-4.5,1.23,1.23,0,0,0-1.15-.75" transform="translate(12)"/><g class="cls-5"><line class="cls-6" x1="267.55" y1="315" x2="267.55" y2="43.2"/></g><line class="cls-7" x1="267.55" y1="315" x2="267.55" y2="318.5"/><line class="cls-8" x1="267.55" y1="315" x2="267.55" y2="318.5"/><path class="cls-7" d="M236.7,328.76h3.44v.83h-4.63v-.83L237,327.2c.64-.65,1.05-1.07,1.22-1.26a4,4,0,0,0,.66-.9,1.65,1.65,0,0,0,.19-.73,1.21,1.21,0,0,0-.41-.94,1.54,1.54,0,0,0-1.06-.37,3.52,3.52,0,0,0-1,.16,6,6,0,0,0-1.1.49v-1a7.87,7.87,0,0,1,1.11-.36,4.19,4.19,0,0,1,1-.12,2.7,2.7,0,0,1,1.8.57,1.88,1.88,0,0,1,.68,1.51,2.19,2.19,0,0,1-.17.85,3.79,3.79,0,0,1-.61.95c-.08.1-.34.37-.78.82l-1.84,1.89" transform="translate(12)"/><path class="cls-7" d="M244.32,322.17a2.14,2.14,0,0,1,1.87,1,6.4,6.4,0,0,1,0,5.62,2.31,2.31,0,0,1-3.75,0,6.49,6.49,0,0,1,0-5.62,2.14,2.14,0,0,1,1.88-1m0,.78a1.23,1.23,0,0,0-1.15.75,6.85,6.85,0,0,0,0,4.5,1.26,1.26,0,0,0,2.3,0,6.85,6.85,0,0,0,0-4.5,1.23,1.23,0,0,0-1.15-.75" transform="translate(12)"/><polyline class="cls-7" points="260.74 328.76 262.35 328.76 262.35 323.2 260.6 323.55 260.6 322.65 262.34 322.3 263.33 322.3 263.33 328.76 264.94 328.76 264.94 329.59 260.74 329.59 260.74 328.76"/><path class="cls-7" d="M257,322.17a2.14,2.14,0,0,1,1.87,1,6.4,6.4,0,0,1,0,5.62,2.31,2.31,0,0,1-3.75,0,6.49,6.49,0,0,1,0-5.62,2.14,2.14,0,0,1,1.88-1m0,.78a1.23,1.23,0,0,0-1.15.75,6.85,6.85,0,0,0,0,4.5,1.26,1.26,0,0,0,2.3,0,6.85,6.85,0,0,0,0-4.5A1.23,1.23,0,0,0,257,323" transform="translate(12)"/><polyline class="cls-7" points="274.76 322.3 275.59 322.3 273.05 330.51 272.22 330.51 274.76 322.3"/><polyline class="cls-7" points="276.83 328.76 278.44 328.76 278.44 323.2 276.69 323.55 276.69 322.65 278.43 322.3 279.42 322.3 279.42 328.76 281.03 328.76 281.03 329.59 276.83 329.59 276.83 328.76"/><polyline class="cls-7" points="283.19 328.76 284.8 328.76 284.8 323.2 283.05 323.55 283.05 322.65 284.79 322.3 285.78 322.3 285.78 328.76 287.39 328.76 287.39 329.59 283.19 329.59 283.19 328.76"/><g class="cls-5"><line class="cls-6" x1="318.27" y1="315" x2="318.27" y2="43.2"/></g><line class="cls-7" x1="318.27" y1="315" x2="318.27" y2="318.5"/><line class="cls-8" x1="318.27" y1="315" x2="318.27" y2="318.5"/><path class="cls-7" d="M287.43,328.76h3.44v.83h-4.63v-.83l1.53-1.56c.64-.65,1.05-1.07,1.22-1.26a4,4,0,0,0,.66-.9,1.65,1.65,0,0,0,.19-.73,1.21,1.21,0,0,0-.41-.94,1.54,1.54,0,0,0-1.06-.37,3.52,3.52,0,0,0-1,.16,6,6,0,0,0-1.1.49v-1a7.87,7.87,0,0,1,1.11-.36,4.19,4.19,0,0,1,1-.12,2.7,2.7,0,0,1,1.8.57,1.88,1.88,0,0,1,.68,1.51,2.19,2.19,0,0,1-.17.85,3.79,3.79,0,0,1-.61.95c-.08.1-.34.37-.78.82l-1.84,1.89" transform="translate(12)"/><path class="cls-7" d="M295.05,322.17a2.14,2.14,0,0,1,1.87,1,6.4,6.4,0,0,1,0,5.62,2.31,2.31,0,0,1-3.75,0,6.49,6.49,0,0,1,0-5.62,2.14,2.14,0,0,1,1.88-1m0,.78a1.23,1.23,0,0,0-1.15.75,6.85,6.85,0,0,0,0,4.5,1.26,1.26,0,0,0,2.3,0,6.85,6.85,0,0,0,0-4.5,1.23,1.23,0,0,0-1.15-.75" transform="translate(12)"/><polyline class="cls-7" points="311.47 328.76 313.08 328.76 313.08 323.2 311.33 323.55 311.33 322.65 313.07 322.3 314.06 322.3 314.06 328.76 315.67 328.76 315.67 329.59 311.47 329.59 311.47 328.76"/><polyline class="cls-7" points="317.83 328.76 319.44 328.76 319.44 323.2 317.69 323.55 317.69 322.65 319.43 322.3 320.42 322.3 320.42 328.76 322.03 328.76 322.03 329.59 317.83 329.59 317.83 328.76"/><polyline class="cls-7" points="325.49 322.3 326.32 322.3 323.78 330.51 322.95 330.51 325.49 322.3"/><polyline class="cls-7" points="327.56 328.76 329.17 328.76 329.17 323.2 327.42 323.55 327.42 322.65 329.16 322.3 330.15 322.3 330.15 328.76 331.76 328.76 331.76 329.59 327.56 329.59 327.56 328.76"/><path class="cls-7" d="M322.6,328.76H326v.83h-4.63v-.83l1.53-1.56c.64-.65,1.05-1.07,1.22-1.26a4,4,0,0,0,.66-.9,1.65,1.65,0,0,0,.19-.73,1.21,1.21,0,0,0-.41-.94,1.54,1.54,0,0,0-1.06-.37,3.52,3.52,0,0,0-1,.16,6,6,0,0,0-1.1.49v-1a7.87,7.87,0,0,1,1.11-.36,4.19,4.19,0,0,1,.95-.12,2.7,2.7,0,0,1,1.8.57,1.88,1.88,0,0,1,.68,1.51,2.19,2.19,0,0,1-.17.85,3.79,3.79,0,0,1-.61.95c-.08.1-.34.37-.78.82l-1.84,1.89" transform="translate(12)"/><g class="cls-5"><line class="cls-6" x1="369" y1="315" x2="369" y2="43.2"/></g><line class="cls-7" x1="369" y1="315" x2="369" y2="318.5"/><line class="cls-8" x1="369" y1="315" x2="369" y2="318.5"/><path class="cls-7" d="M338.15,328.76h3.44v.83H337v-.83l1.53-1.56c.64-.65,1.05-1.07,1.22-1.26a4,4,0,0,0,.66-.9,1.65,1.65,0,0,0,.19-.73,1.21,1.21,0,0,0-.41-.94,1.54,1.54,0,0,0-1.06-.37,3.52,3.52,0,0,0-1,.16,6,6,0,0,0-1.1.49v-1a7.87,7.87,0,0,1,1.11-.36,4.19,4.19,0,0,1,.95-.12,2.7,2.7,0,0,1,1.8.57,1.88,1.88,0,0,1,.68,1.51,2.19,2.19,0,0,1-.17.85,3.79,3.79,0,0,1-.61.95c-.08.1-.34.37-.78.82l-1.84,1.89" transform="translate(12)"/><path class="cls-7" d="M345.77,322.17a2.14,2.14,0,0,1,1.87,1,6.4,6.4,0,0,1,0,5.62,2.31,2.31,0,0,1-3.75,0,6.49,6.49,0,0,1,0-5.62,2.14,2.14,0,0,1,1.88-1m0,.78a1.23,1.23,0,0,0-1.15.75,6.85,6.85,0,0,0,0,4.5,1.26,1.26,0,0,0,2.3,0,6.85,6.85,0,0,0,0-4.5,1.23,1.23,0,0,0-1.15-.75" transform="translate(12)"/><polyline class="cls-7" points="362.19 328.76 363.8 328.76 363.8 323.2 362.05 323.55 362.05 322.65 363.79 322.3 364.78 322.3 364.78 328.76 366.39 328.76 366.39 329.59 362.19 329.59 362.19 328.76"/><path class="cls-7" d="M357.23,328.76h3.44v.83H356v-.83l1.53-1.56c.64-.65,1.05-1.07,1.22-1.26a4,4,0,0,0,.66-.9,1.65,1.65,0,0,0,.19-.73,1.21,1.21,0,0,0-.41-.94,1.54,1.54,0,0,0-1.06-.37,3.52,3.52,0,0,0-1,.16,6,6,0,0,0-1.1.49v-1a7.87,7.87,0,0,1,1.11-.36,4.19,4.19,0,0,1,.95-.12,2.7,2.7,0,0,1,1.8.57,1.88,1.88,0,0,1,.68,1.51,2.19,2.19,0,0,1-.17.85,3.79,3.79,0,0,1-.61.95c-.08.1-.34.37-.78.82l-1.84,1.89" transform="translate(12)"/><polyline class="cls-7" points="376.21 322.3 377.04 322.3 374.5 330.51 373.67 330.51 376.21 322.3"/><polyline class="cls-7" points="378.28 328.76 379.89 328.76 379.89 323.2 378.14 323.55 378.14 322.65 379.88 322.3 380.87 322.3 380.87 328.76 382.48 328.76 382.48 329.59 378.28 329.59 378.28 328.76"/><path class="cls-7" d="M375.46,325.66a1.87,1.87,0,0,1,1.1.63,1.83,1.83,0,0,1,.4,1.18,2,2,0,0,1-.74,1.67,3.35,3.35,0,0,1-2.11.58,5.17,5.17,0,0,1-.95-.09,5.68,5.68,0,0,1-1-.26v-.95a3.26,3.26,0,0,0,.9.36,4.19,4.19,0,0,0,1,.12,2.33,2.33,0,0,0,1.41-.36,1.26,1.26,0,0,0,.49-1.07,1.22,1.22,0,0,0-.45-1,2,2,0,0,0-1.26-.37h-.85v-.81h.89a1.79,1.79,0,0,0,1.11-.29,1,1,0,0,0,.39-.84,1,1,0,0,0-.4-.86,1.89,1.89,0,0,0-1.14-.3,4.59,4.59,0,0,0-.87.09,8.69,8.69,0,0,0-1,.27v-.88a9.56,9.56,0,0,1,1.05-.23,6,6,0,0,1,.93-.08,2.82,2.82,0,0,1,1.77.51,1.65,1.65,0,0,1,.66,1.38,1.56,1.56,0,0,1-.35,1,1.76,1.76,0,0,1-1,.58" transform="translate(12)"/><g class="cls-5"><line class="cls-6" x1="419.73" y1="315" x2="419.73" y2="43.2"/></g><line class="cls-7" x1="419.73" y1="315" x2="419.73" y2="318.5"/><line class="cls-8" x1="419.73" y1="315" x2="419.73" y2="318.5"/><path class="cls-7" d="M388.88,328.76h3.44v.83h-4.63v-.83l1.53-1.56c.64-.65,1-1.07,1.22-1.26a4,4,0,0,0,.66-.9,1.65,1.65,0,0,0,.19-.73,1.21,1.21,0,0,0-.41-.94,1.54,1.54,0,0,0-1.06-.37,3.52,3.52,0,0,0-1,.16,6,6,0,0,0-1.1.49v-1a7.87,7.87,0,0,1,1.11-.36,4.19,4.19,0,0,1,.95-.12,2.7,2.7,0,0,1,1.8.57,1.88,1.88,0,0,1,.68,1.51,2.19,2.19,0,0,1-.17.85,3.79,3.79,0,0,1-.61.95c-.08.1-.34.37-.78.82l-1.84,1.89" transform="translate(12)"/><path class="cls-7" d="M396.5,322.17a2.14,2.14,0,0,1,1.87,1,6.4,6.4,0,0,1,0,5.62,2.31,2.31,0,0,1-3.75,0,6.49,6.49,0,0,1,0-5.62,2.14,2.14,0,0,1,1.88-1m0,.78a1.23,1.23,0,0,0-1.15.75,6.85,6.85,0,0,0,0,4.5,1.26,1.26,0,0,0,2.3,0,6.85,6.85,0,0,0,0-4.5,1.23,1.23,0,0,0-1.15-.75" transform="translate(12)"/><polyline class="cls-7" points="412.92 328.76 414.53 328.76 414.53 323.2 412.78 323.55 412.78 322.65 414.52 322.3 415.51 322.3 415.51 328.76 417.12 328.76 417.12 329.59 412.92 329.59 412.92 328.76"/><path class="cls-7" d="M410.1,325.66a1.87,1.87,0,0,1,1.1.63,1.83,1.83,0,0,1,.4,1.18,2,2,0,0,1-.74,1.67,3.35,3.35,0,0,1-2.11.58,5.17,5.17,0,0,1-.95-.09,5.68,5.68,0,0,1-1-.26v-.95a3.26,3.26,0,0,0,.9.36,4.19,4.19,0,0,0,1,.12,2.33,2.33,0,0,0,1.41-.36,1.26,1.26,0,0,0,.49-1.07,1.22,1.22,0,0,0-.45-1,2,2,0,0,0-1.26-.37h-.85v-.81H409a1.79,1.79,0,0,0,1.11-.29,1,1,0,0,0,.39-.84,1,1,0,0,0-.4-.86,1.89,1.89,0,0,0-1.14-.3,4.59,4.59,0,0,0-.87.09,8.69,8.69,0,0,0-1,.27v-.88a9.56,9.56,0,0,1,1.05-.23,6,6,0,0,1,.93-.08,2.82,2.82,0,0,1,1.77.51,1.65,1.65,0,0,1,.66,1.38,1.56,1.56,0,0,1-.35,1,1.76,1.76,0,0,1-1,.58" transform="translate(12)"/><polyline class="cls-7" points="426.94 322.3 427.77 322.3 425.23 330.51 424.4 330.51 426.94 322.3"/><polyline class="cls-7" points="429.01 328.76 430.62 328.76 430.62 323.2 428.87 323.55 428.87 322.65 430.61 322.3 431.6 322.3 431.6 328.76 433.21 328.76 433.21 329.59 429.01 329.59 429.01 328.76"/><path class="cls-7" d="M425.65,322.3h1.24v4.75h1v.82h-1v1.72h-1v-1.72h-3.29v-.95l3-4.62m.26.86-2.49,3.89h2.49v-3.89" transform="translate(12)"/><g class="cls-5"><line class="cls-6" x1="470.45" y1="315" x2="470.45" y2="43.2"/></g><line class="cls-7" x1="470.45" y1="315" x2="470.45" y2="318.5"/><line class="cls-8" x1="470.45" y1="315" x2="470.45" y2="318.5"/><path class="cls-7" d="M439.61,328.76h3.44v.83h-4.63v-.83L440,327.2c.64-.65,1.05-1.07,1.22-1.26a4,4,0,0,0,.66-.9,1.65,1.65,0,0,0,.19-.73,1.21,1.21,0,0,0-.41-.94,1.54,1.54,0,0,0-1.06-.37,3.52,3.52,0,0,0-1,.16,6,6,0,0,0-1.1.49v-1a7.87,7.87,0,0,1,1.11-.36,4.19,4.19,0,0,1,.95-.12,2.7,2.7,0,0,1,1.8.57,1.88,1.88,0,0,1,.68,1.51,2.19,2.19,0,0,1-.17.85,3.79,3.79,0,0,1-.61.95c-.08.1-.34.37-.78.82l-1.84,1.89" transform="translate(12)"/><path class="cls-7" d="M447.23,322.17a2.14,2.14,0,0,1,1.87,1,6.4,6.4,0,0,1,0,5.62,2.31,2.31,0,0,1-3.75,0,6.49,6.49,0,0,1,0-5.62,2.14,2.14,0,0,1,1.88-1m0,.78a1.23,1.23,0,0,0-1.15.75,6.85,6.85,0,0,0,0,4.5,1.26,1.26,0,0,0,2.3,0,6.85,6.85,0,0,0,0-4.5,1.23,1.23,0,0,0-1.15-.75" transform="translate(12)"/><polyline class="cls-7" points="463.65 328.76 465.26 328.76 465.26 323.2 463.51 323.55 463.51 322.65 465.25 322.3 466.24 322.3 466.24 328.76 467.85 328.76 467.85 329.59 463.65 329.59 463.65 328.76"/><path class="cls-7" d="M460.29,322.3h1.24v4.75h1v.82h-1v1.72h-1v-1.72h-3.29v-.95l3-4.62m.26.86-2.49,3.89h2.49v-3.89" transform="translate(12)"/><polyline class="cls-7" points="477.67 322.3 478.5 322.3 475.96 330.51 475.13 330.51 477.67 322.3"/><polyline class="cls-7" points="479.74 328.76 481.35 328.76 481.35 323.2 479.6 323.55 479.6 322.65 481.34 322.3 482.33 322.3 482.33 328.76 483.94 328.76 483.94 329.59 479.74 329.59 479.74 328.76"/><path class="cls-7" d="M473.94,322.3h3.87v.83h-3v1.79a2.26,2.26,0,0,1,.43-.11,3.13,3.13,0,0,1,.43,0,2.74,2.74,0,0,1,1.93.67,2.36,2.36,0,0,1,.72,1.81,2.31,2.31,0,0,1-.74,1.83,3,3,0,0,1-2.06.64,7.57,7.57,0,0,1-.94-.07,6.28,6.28,0,0,1-1-.23v-1a3.75,3.75,0,0,0,.91.36,4,4,0,0,0,1,.11,1.92,1.92,0,0,0,1.34-.44,1.73,1.73,0,0,0,0-2.41,1.92,1.92,0,0,0-1.34-.45,3.55,3.55,0,0,0-.79.09,4.44,4.44,0,0,0-.8.27V322.3" transform="translate(12)"/><g class="cls-5"><line class="cls-6" x1="521.18" y1="315" x2="521.18" y2="43.2"/></g><line class="cls-7" x1="521.18" y1="315" x2="521.18" y2="318.5"/><line class="cls-8" x1="521.18" y1="315" x2="521.18" y2="318.5"/><path class="cls-7" d="M490.34,328.76h3.44v.83h-4.63v-.83l1.53-1.56c.64-.65,1.05-1.07,1.22-1.26a4,4,0,0,0,.66-.9,1.65,1.65,0,0,0,.19-.73,1.21,1.21,0,0,0-.41-.94,1.54,1.54,0,0,0-1.06-.37,3.52,3.52,0,0,0-1,.16,6,6,0,0,0-1.1.49v-1a7.87,7.87,0,0,1,1.11-.36,4.19,4.19,0,0,1,.95-.12,2.7,2.7,0,0,1,1.8.57,1.88,1.88,0,0,1,.68,1.51,2.19,2.19,0,0,1-.17.85,3.79,3.79,0,0,1-.61.95c-.08.1-.34.37-.78.82l-1.84,1.89" transform="translate(12)"/><path class="cls-7" d="M498,322.17a2.14,2.14,0,0,1,1.87,1,6.4,6.4,0,0,1,0,5.62,2.31,2.31,0,0,1-3.75,0,6.49,6.49,0,0,1,0-5.62,2.14,2.14,0,0,1,1.88-1m0,.78a1.23,1.23,0,0,0-1.15.75,6.85,6.85,0,0,0,0,4.5,1.26,1.26,0,0,0,2.3,0,6.85,6.85,0,0,0,0-4.5A1.23,1.23,0,0,0,498,323" transform="translate(12)"/><polyline class="cls-7" points="514.38 328.76 515.99 328.76 515.99 323.2 514.24 323.55 514.24 322.65 515.98 322.3 516.97 322.3 516.97 328.76 518.58 328.76 518.58 329.59 514.38 329.59 514.38 328.76"/><path class="cls-7" d="M508.58,322.3h3.87v.83h-3v1.79a2.26,2.26,0,0,1,.43-.11,3.13,3.13,0,0,1,.43,0,2.74,2.74,0,0,1,1.93.67,2.36,2.36,0,0,1,.72,1.81,2.31,2.31,0,0,1-.74,1.83,3,3,0,0,1-2.06.64,7.57,7.57,0,0,1-.94-.07,6.28,6.28,0,0,1-1-.23v-1a3.75,3.75,0,0,0,.91.36,4,4,0,0,0,1,.11,1.92,1.92,0,0,0,1.34-.44,1.73,1.73,0,0,0,0-2.41,1.92,1.92,0,0,0-1.34-.45,3.55,3.55,0,0,0-.79.09,4.44,4.44,0,0,0-.8.27V322.3" transform="translate(12)"/><polyline class="cls-7" points="528.4 322.3 529.23 322.3 526.69 330.51 525.86 330.51 528.4 322.3"/><polyline class="cls-7" points="530.47 328.76 532.08 328.76 532.08 323.2 530.33 323.55 530.33 322.65 532.07 322.3 533.06 322.3 533.06 328.76 534.67 328.76 534.67 329.59 530.47 329.59 530.47 328.76"/><path class="cls-7" d="M528.85,322.46v.9a3.76,3.76,0,0,0-.75-.27,3.33,3.33,0,0,0-.75-.09,1.78,1.78,0,0,0-1.5.66,3.51,3.51,0,0,0-.58,2A2,2,0,0,1,526,325a2.06,2.06,0,0,1,1-.23,2.29,2.29,0,0,1,1.73.67,2.53,2.53,0,0,1,.64,1.81,2.47,2.47,0,0,1-.67,1.8,2.35,2.35,0,0,1-1.76.67,2.2,2.2,0,0,1-1.93-1,4.88,4.88,0,0,1-.67-2.81,4.25,4.25,0,0,1,.82-2.75,2.68,2.68,0,0,1,2.2-1,5,5,0,0,1,.75.07,5.59,5.59,0,0,1,.79.22m-2,3.09a1.33,1.33,0,0,0-1,.46,2.18,2.18,0,0,0,0,2.49,1.45,1.45,0,0,0,2.1,0,2.18,2.18,0,0,0,0-2.49,1.33,1.33,0,0,0-1.05-.46" transform="translate(12)"/><g class="cls-5"><line class="cls-6" x1="571.91" y1="315" x2="571.91" y2="43.2"/></g><line class="cls-7" x1="571.91" y1="315" x2="571.91" y2="318.5"/><line class="cls-8" x1="571.91" y1="315" x2="571.91" y2="318.5"/><path class="cls-7" d="M541.06,328.76h3.44v.83h-4.63v-.83l1.53-1.56c.64-.65,1.05-1.07,1.22-1.26a4,4,0,0,0,.66-.9,1.65,1.65,0,0,0,.19-.73,1.21,1.21,0,0,0-.41-.94A1.54,1.54,0,0,0,542,323a3.52,3.52,0,0,0-1,.16,6,6,0,0,0-1.1.49v-1a7.87,7.87,0,0,1,1.11-.36,4.19,4.19,0,0,1,1-.12,2.7,2.7,0,0,1,1.8.57,1.88,1.88,0,0,1,.68,1.51,2.19,2.19,0,0,1-.17.85,3.79,3.79,0,0,1-.61.95c-.08.1-.34.37-.78.82l-1.84,1.89" transform="translate(12)"/><path class="cls-7" d="M548.68,322.17a2.14,2.14,0,0,1,1.87,1,6.4,6.4,0,0,1,0,5.62,2.31,2.31,0,0,1-3.75,0,6.49,6.49,0,0,1,0-5.62,2.14,2.14,0,0,1,1.88-1m0,.78a1.23,1.23,0,0,0-1.15.75,6.85,6.85,0,0,0,0,4.5,1.26,1.26,0,0,0,2.3,0,6.85,6.85,0,0,0,0-4.5,1.23,1.23,0,0,0-1.15-.75" transform="translate(12)"/><polyline class="cls-7" points="565.1 328.76 566.71 328.76 566.71 323.2 564.96 323.55 564.96 322.65 566.7 322.3 567.69 322.3 567.69 328.76 569.3 328.76 569.3 329.59 565.1 329.59 565.1 328.76"/><path class="cls-7" d="M563.48,322.46v.9a3.76,3.76,0,0,0-.75-.27A3.33,3.33,0,0,0,562,323a1.78,1.78,0,0,0-1.5.66,3.51,3.51,0,0,0-.58,2,2,2,0,0,1,.72-.65,2.06,2.06,0,0,1,1-.23,2.29,2.29,0,0,1,1.73.67,2.53,2.53,0,0,1,.64,1.81,2.47,2.47,0,0,1-.67,1.8,2.35,2.35,0,0,1-1.76.67,2.2,2.2,0,0,1-1.93-1,4.88,4.88,0,0,1-.67-2.81,4.25,4.25,0,0,1,.82-2.75,2.68,2.68,0,0,1,2.2-1,5,5,0,0,1,.75.07,5.59,5.59,0,0,1,.79.22m-2,3.09a1.33,1.33,0,0,0-1,.46,2.18,2.18,0,0,0,0,2.49,1.45,1.45,0,0,0,2.1,0,2.18,2.18,0,0,0,0-2.49,1.33,1.33,0,0,0-1.05-.46" transform="translate(12)"/><polyline class="cls-7" points="579.12 322.3 579.95 322.3 577.41 330.51 576.58 330.51 579.12 322.3"/><polyline class="cls-7" points="581.19 328.76 582.8 328.76 582.8 323.2 581.05 323.55 581.05 322.65 582.79 322.3 583.78 322.3 583.78 328.76 585.39 328.76 585.39 329.59 581.19 329.59 581.19 328.76"/><polyline class="cls-7" points="587.13 322.3 591.82 322.3 591.82 322.72 589.17 329.59 588.14 329.59 590.63 323.13 587.13 323.13 587.13 322.3"/><g class="cls-5"><line class="cls-6" x1="622.64" y1="315" x2="622.64" y2="43.2"/></g><line class="cls-7" x1="622.64" y1="315" x2="622.64" y2="318.5"/><line class="cls-8" x1="622.64" y1="315" x2="622.64" y2="318.5"/><path class="cls-7" d="M591.79,328.76h3.44v.83H590.6v-.83l1.53-1.56c.64-.65,1-1.07,1.22-1.26a4,4,0,0,0,.66-.9,1.65,1.65,0,0,0,.19-.73,1.21,1.21,0,0,0-.41-.94,1.54,1.54,0,0,0-1.06-.37,3.52,3.52,0,0,0-1,.16,6,6,0,0,0-1.1.49v-1a7.87,7.87,0,0,1,1.11-.36,4.19,4.19,0,0,1,1-.12,2.7,2.7,0,0,1,1.8.57,1.88,1.88,0,0,1,.68,1.51,2.19,2.19,0,0,1-.17.85,3.79,3.79,0,0,1-.61.95c-.08.1-.34.37-.78.82l-1.84,1.89" transform="translate(12)"/><path class="cls-7" d="M599.41,322.17a2.14,2.14,0,0,1,1.87,1,6.4,6.4,0,0,1,0,5.62,2.31,2.31,0,0,1-3.75,0,6.49,6.49,0,0,1,0-5.62,2.14,2.14,0,0,1,1.88-1m0,.78a1.23,1.23,0,0,0-1.15.75,6.85,6.85,0,0,0,0,4.5,1.26,1.26,0,0,0,2.3,0,6.85,6.85,0,0,0,0-4.5,1.23,1.23,0,0,0-1.15-.75" transform="translate(12)"/><polyline class="cls-7" points="615.83 328.76 617.44 328.76 617.44 323.2 615.69 323.55 615.69 322.65 617.43 322.3 618.42 322.3 618.42 328.76 620.03 328.76 620.03 329.59 615.83 329.59 615.83 328.76"/><polyline class="cls-7" points="621.77 322.3 626.46 322.3 626.46 322.72 623.81 329.59 622.78 329.59 625.27 323.13 621.77 323.13 621.77 322.3"/><polyline class="cls-7" points="629.85 322.3 630.68 322.3 628.14 330.51 627.31 330.51 629.85 322.3"/><polyline class="cls-7" points="631.92 328.76 633.53 328.76 633.53 323.2 631.78 323.55 631.78 322.65 633.52 322.3 634.51 322.3 634.51 328.76 636.12 328.76 636.12 329.59 631.92 329.59 631.92 328.76"/><path class="cls-7" d="M626.87,324.15a1.12,1.12,0,0,0,.35.89,1.75,1.75,0,0,0,2,0,1.12,1.12,0,0,0,.36-.89,1.1,1.1,0,0,0-.36-.88,1.71,1.71,0,0,0-2,0,1.1,1.1,0,0,0-.35.88m.36,1.56a1.78,1.78,0,0,1-1-.59,1.59,1.59,0,0,1-.35-1.06,1.67,1.67,0,0,1,.62-1.38,2.6,2.6,0,0,1,1.71-.51,2.64,2.64,0,0,1,1.71.51,1.7,1.7,0,0,1,.62,1.38,1.6,1.6,0,0,1-.36,1.06,1.75,1.75,0,0,1-1,.59,2,2,0,0,1,1.11.65,1.83,1.83,0,0,1,.4,1.18,2,2,0,0,1-.65,1.62,3.35,3.35,0,0,1-3.71,0,2,2,0,0,1-.64-1.62,1.78,1.78,0,0,1,.4-1.18,1.94,1.94,0,0,1,1.11-.65m1,.42a1.57,1.57,0,0,0-1.11.38,1.33,1.33,0,0,0-.4,1,1.35,1.35,0,0,0,.4,1,1.57,1.57,0,0,0,1.11.37,1.52,1.52,0,0,0,1.1-.38,1.33,1.33,0,0,0,.41-1,1.36,1.36,0,0,0-.4-1,1.57,1.57,0,0,0-1.11-.38" transform="translate(12)"/><g class="cls-5"><line class="cls-6" x1="90" y1="289.49" x2="648" y2="289.49"/></g><line class="cls-7" x1="90" y1="289.49" x2="86.5" y2="289.49"/><line class="cls-8" x1="90" y1="289.49" x2="86.5" y2="289.49"/><path class="cls-7" d="M65.72,286h3.87v.83h-3v1.79a2.26,2.26,0,0,1,.43-.11,3.13,3.13,0,0,1,.43,0,2.74,2.74,0,0,1,1.93.67,2.36,2.36,0,0,1,.72,1.81,2.31,2.31,0,0,1-.74,1.83,3,3,0,0,1-2.06.64,7.57,7.57,0,0,1-.94-.07,6.28,6.28,0,0,1-1-.23v-1a3.75,3.75,0,0,0,.91.36,4,4,0,0,0,1,.11,1.92,1.92,0,0,0,1.34-.44,1.73,1.73,0,0,0,0-2.41,1.92,1.92,0,0,0-1.34-.45,3.55,3.55,0,0,0-.79.09,4.44,4.44,0,0,0-.8.27V286" transform="translate(12)"/><g class="cls-5"><line class="cls-6" x1="90" y1="242.52" x2="648" y2="242.52"/></g><line class="cls-7" x1="90" y1="242.52" x2="86.5" y2="242.52"/><line class="cls-8" x1="90" y1="242.52" x2="86.5" y2="242.52"/><polyline class="cls-7" points="71.52 245.48 73.13 245.48 73.13 239.92 71.38 240.27 71.38 239.37 73.12 239.02 74.11 239.02 74.11 245.48 75.72 245.48 75.72 246.31 71.52 246.31 71.52 245.48"/><path class="cls-7" d="M67.82,238.89a2.14,2.14,0,0,1,1.87,1,6.4,6.4,0,0,1,0,5.62,2.31,2.31,0,0,1-3.75,0,6.49,6.49,0,0,1,0-5.62,2.14,2.14,0,0,1,1.88-1m0,.78a1.23,1.23,0,0,0-1.15.75,6.85,6.85,0,0,0,0,4.5,1.26,1.26,0,0,0,2.3,0,6.85,6.85,0,0,0,0-4.5,1.23,1.23,0,0,0-1.15-.75" transform="translate(12)"/><g class="cls-5"><line class="cls-6" x1="90" y1="195.54" x2="648" y2="195.54"/></g><line class="cls-7" x1="90" y1="195.54" x2="86.5" y2="195.54"/><line class="cls-8" x1="90" y1="195.54" x2="86.5" y2="195.54"/><polyline class="cls-7" points="71.52 198.51 73.13 198.51 73.13 192.95 71.38 193.3 71.38 192.4 73.12 192.05 74.11 192.05 74.11 198.51 75.72 198.51 75.72 199.34 71.52 199.34 71.52 198.51"/><path class="cls-7" d="M65.72,192.05h3.87v.83h-3v1.79a2.26,2.26,0,0,1,.43-.11,3.13,3.13,0,0,1,.43,0,2.74,2.74,0,0,1,1.93.67,2.36,2.36,0,0,1,.72,1.81,2.31,2.31,0,0,1-.74,1.83,3,3,0,0,1-2.06.64,7.57,7.57,0,0,1-.94-.07,6.28,6.28,0,0,1-1-.23v-1a3.75,3.75,0,0,0,.91.36,4,4,0,0,0,1,.11,1.92,1.92,0,0,0,1.34-.44,1.73,1.73,0,0,0,0-2.41,1.92,1.92,0,0,0-1.34-.45,3.55,3.55,0,0,0-.79.09,4.44,4.44,0,0,0-.8.27v-3.66" transform="translate(12)"/><g class="cls-5"><line class="cls-6" x1="90" y1="148.57" x2="648" y2="148.57"/></g><line class="cls-7" x1="90" y1="148.57" x2="86.5" y2="148.57"/><line class="cls-8" x1="90" y1="148.57" x2="86.5" y2="148.57"/><path class="cls-7" d="M60.2,151.53h3.44v.83H59v-.83L60.54,150c.64-.65,1.05-1.07,1.22-1.26a4,4,0,0,0,.66-.9,1.65,1.65,0,0,0,.19-.73,1.21,1.21,0,0,0-.41-.94,1.54,1.54,0,0,0-1.06-.37,3.52,3.52,0,0,0-1,.16,6,6,0,0,0-1.1.49v-1a7.87,7.87,0,0,1,1.11-.36,4.19,4.19,0,0,1,.95-.12,2.7,2.7,0,0,1,1.8.57A1.88,1.88,0,0,1,63.6,147a2.19,2.19,0,0,1-.17.85,3.79,3.79,0,0,1-.61.95c-.08.1-.34.37-.78.82l-1.84,1.89" transform="translate(12)"/><path class="cls-7" d="M67.82,144.94a2.14,2.14,0,0,1,1.87,1,6.4,6.4,0,0,1,0,5.62,2.31,2.31,0,0,1-3.75,0,6.49,6.49,0,0,1,0-5.62,2.14,2.14,0,0,1,1.88-1m0,.78a1.23,1.23,0,0,0-1.15.75,6.85,6.85,0,0,0,0,4.5,1.26,1.26,0,0,0,2.3,0,6.85,6.85,0,0,0,0-4.5,1.23,1.23,0,0,0-1.15-.75" transform="translate(12)"/><g class="cls-5"><line class="cls-6" x1="90" y1="101.59" x2="648" y2="101.59"/></g><line class="cls-7" x1="90" y1="101.59" x2="86.5" y2="101.59"/><line class="cls-8" x1="90" y1="101.59" x2="86.5" y2="101.59"/><path class="cls-7" d="M60.2,104.56h3.44v.83H59v-.83L60.54,103c.64-.65,1.05-1.07,1.22-1.26a4,4,0,0,0,.66-.9,1.65,1.65,0,0,0,.19-.73,1.21,1.21,0,0,0-.41-.94,1.54,1.54,0,0,0-1.06-.37,3.52,3.52,0,0,0-1,.16,6,6,0,0,0-1.1.49v-1a7.87,7.87,0,0,1,1.11-.36,4.19,4.19,0,0,1,.95-.12,2.7,2.7,0,0,1,1.8.57,1.88,1.88,0,0,1,.68,1.51,2.19,2.19,0,0,1-.17.85,3.79,3.79,0,0,1-.61.95c-.08.1-.34.37-.78.82l-1.84,1.89" transform="translate(12)"/><path class="cls-7" d="M65.72,98.1h3.87v.83h-3v1.79a2.26,2.26,0,0,1,.43-.11,3.13,3.13,0,0,1,.43,0,2.74,2.74,0,0,1,1.93.67,2.36,2.36,0,0,1,.72,1.81,2.31,2.31,0,0,1-.74,1.83,3,3,0,0,1-2.06.64,7.57,7.57,0,0,1-.94-.07,6.28,6.28,0,0,1-1-.23v-1a3.75,3.75,0,0,0,.91.36,4,4,0,0,0,1,.11,1.92,1.92,0,0,0,1.34-.44,1.73,1.73,0,0,0,0-2.41,1.92,1.92,0,0,0-1.34-.45,3.55,3.55,0,0,0-.79.09,4.44,4.44,0,0,0-.8.27V98.1" transform="translate(12)"/><g class="cls-5"><line class="cls-6" x1="90" y1="54.62" x2="648" y2="54.62"/></g><line class="cls-7" x1="90" y1="54.62" x2="86.5" y2="54.62"/><line class="cls-8" x1="90" y1="54.62" x2="86.5" y2="54.62"/><path class="cls-7" d="M62.34,54.48a1.87,1.87,0,0,1,1.1.63,1.83,1.83,0,0,1,.4,1.18A2,2,0,0,1,63.1,58a3.35,3.35,0,0,1-2.11.58,5.17,5.17,0,0,1-1-.09,5.68,5.68,0,0,1-1-.26v-.95a3.26,3.26,0,0,0,.9.36,4.19,4.19,0,0,0,1,.12,2.33,2.33,0,0,0,1.41-.36,1.26,1.26,0,0,0,.49-1.07,1.22,1.22,0,0,0-.45-1,2,2,0,0,0-1.26-.37H60.3v-.81h.89a1.79,1.79,0,0,0,1.11-.29,1,1,0,0,0,.39-.84,1,1,0,0,0-.4-.86,1.89,1.89,0,0,0-1.14-.3,4.59,4.59,0,0,0-.87.09,8.69,8.69,0,0,0-1,.27V51.3a9.56,9.56,0,0,1,1.05-.23,6,6,0,0,1,.93-.08A2.82,2.82,0,0,1,63,51.5a1.65,1.65,0,0,1,.66,1.38,1.56,1.56,0,0,1-.35,1,1.76,1.76,0,0,1-1,.58" transform="translate(12)"/><path class="cls-7" d="M67.82,51a2.14,2.14,0,0,1,1.87,1,5.1,5.1,0,0,1,.65,2.81,5.05,5.05,0,0,1-.65,2.81,2.31,2.31,0,0,1-3.75,0,5.06,5.06,0,0,1-.64-2.81A5.1,5.1,0,0,1,65.94,52a2.14,2.14,0,0,1,1.88-1m0,.78a1.23,1.23,0,0,0-1.15.75,5.07,5.07,0,0,0-.38,2.25A5.07,5.07,0,0,0,66.67,57,1.26,1.26,0,0,0,69,57a5.21,5.21,0,0,0,.38-2.25A5.21,5.21,0,0,0,69,52.52a1.23,1.23,0,0,0-1.15-.75" transform="translate(12)"/><g class="cls-5"><polyline class="cls-9" points="115.36 150.44 166.09 138.23 216.82 55.55 267.55 115.68 318.27 119.44 369 135.41 419.73 181.45 470.45 235 521.18 260.37 571.91 272.58 622.64 302.64"/><g class="cls-10"><path class="cls-3" d="M103.36,152.94a2.51,2.51,0,1,0-1.76-.73A2.49,2.49,0,0,0,103.36,152.94Z" transform="translate(12)"/><path class="cls-11" d="M103.36,152.94a2.51,2.51,0,1,0-1.76-.73A2.49,2.49,0,0,0,103.36,152.94Z" transform="translate(12)"/></g><g class="cls-12"><path class="cls-3" d="M154.09,140.73a2.49,2.49,0,1,0-1.77-.73A2.51,2.51,0,0,0,154.09,140.73Z" transform="translate(12)"/><path class="cls-11" d="M154.09,140.73a2.49,2.49,0,1,0-1.77-.73A2.51,2.51,0,0,0,154.09,140.73Z" transform="translate(12)"/></g><g class="cls-13"><path class="cls-3" d="M204.82,58.05a2.49,2.49,0,1,0-1.77-.73A2.51,2.51,0,0,0,204.82,58.05Z" transform="translate(12)"/><path class="cls-11" d="M204.82,58.05a2.49,2.49,0,1,0-1.77-.73A2.51,2.51,0,0,0,204.82,58.05Z" transform="translate(12)"/></g><g class="cls-14"><path class="cls-3" d="M255.55,118.18a2.49,2.49,0,1,0-1.77-.73A2.48,2.48,0,0,0,255.55,118.18Z" transform="translate(12)"/><path class="cls-11" d="M255.55,118.18a2.49,2.49,0,1,0-1.77-.73A2.48,2.48,0,0,0,255.55,118.18Z" transform="translate(12)"/></g><g class="cls-15"><path class="cls-3" d="M306.27,121.94a2.5,2.5,0,1,0-1.77-4.27,2.51,2.51,0,0,0,0,3.54A2.51,2.51,0,0,0,306.27,121.94Z" transform="translate(12)"/><path class="cls-11" d="M306.27,121.94a2.5,2.5,0,1,0-1.77-4.27,2.51,2.51,0,0,0,0,3.54A2.51,2.51,0,0,0,306.27,121.94Z" transform="translate(12)"/></g><g class="cls-16"><path class="cls-3" d="M357,137.91a2.49,2.49,0,0,0,2.5-2.5,2.47,2.47,0,0,0-.73-1.76,2.49,2.49,0,0,0-3.54,0,2.5,2.5,0,0,0,0,3.53A2.51,2.51,0,0,0,357,137.91Z" transform="translate(12)"/><path class="cls-11" d="M357,137.91a2.49,2.49,0,0,0,2.5-2.5,2.47,2.47,0,0,0-.73-1.76,2.49,2.49,0,0,0-3.54,0,2.5,2.5,0,0,0,0,3.53A2.51,2.51,0,0,0,357,137.91Z" transform="translate(12)"/></g><g class="cls-17"><path class="cls-3" d="M407.73,184a2.47,2.47,0,0,0,1.76-.73,2.49,2.49,0,0,0,0-3.54,2.5,2.5,0,0,0-3.53,0,2.5,2.5,0,0,0,1.77,4.27Z" transform="translate(12)"/><path class="cls-11" d="M407.73,184a2.47,2.47,0,0,0,1.76-.73,2.49,2.49,0,0,0,0-3.54,2.5,2.5,0,0,0-3.53,0,2.5,2.5,0,0,0,1.77,4.27Z" transform="translate(12)"/></g><g class="cls-18"><path class="cls-3" d="M458.45,237.5a2.5,2.5,0,1,0-1.76-4.27,2.49,2.49,0,0,0,0,3.54A2.48,2.48,0,0,0,458.45,237.5Z" transform="translate(12)"/><path class="cls-11" d="M458.45,237.5a2.5,2.5,0,1,0-1.76-4.27,2.49,2.49,0,0,0,0,3.54A2.48,2.48,0,0,0,458.45,237.5Z" transform="translate(12)"/></g><g class="cls-19"><path class="cls-3" d="M509.18,262.87a2.55,2.55,0,0,0,1.77-.73,2.5,2.5,0,1,0-4.27-1.77,2.49,2.49,0,0,0,2.5,2.5Z" transform="translate(12)"/><path class="cls-11" d="M509.18,262.87a2.55,2.55,0,0,0,1.77-.73,2.5,2.5,0,1,0-4.27-1.77,2.49,2.49,0,0,0,2.5,2.5Z" transform="translate(12)"/></g><g class="cls-20"><path class="cls-3" d="M559.91,275.08a2.49,2.49,0,1,0-1.77-.73A2.51,2.51,0,0,0,559.91,275.08Z" transform="translate(12)"/><path class="cls-11" d="M559.91,275.08a2.49,2.49,0,1,0-1.77-.73A2.51,2.51,0,0,0,559.91,275.08Z" transform="translate(12)"/></g><g class="cls-21"><path class="cls-3" d="M610.64,305.15a2.51,2.51,0,1,0-1.77-.74A2.47,2.47,0,0,0,610.64,305.15Z" transform="translate(12)"/><path class="cls-11" d="M610.64,305.15a2.51,2.51,0,1,0-1.77-.74A2.47,2.47,0,0,0,610.64,305.15Z" transform="translate(12)"/></g></g><line class="cls-22" x1="90" y1="315" x2="90" y2="43.2"/><line class="cls-22" x1="648" y1="315" x2="648" y2="43.2"/><line class="cls-22" x1="90" y1="315" x2="648" y2="315"/><line class="cls-22" x1="90" y1="43.2" x2="648" y2="43.2"/></g><text class="cls-23" transform="translate(90 41.14)">%</text></svg>