<?xml version="1.0" encoding="utf-8"?>
<!-- Generator: Adobe Illustrator 23.0.4, SVG Export Plug-In . SVG Version: 6.00 Build 0)  -->
<svg version="1.1" id="图层_1" xmlns="http://www.w3.org/2000/svg" xmlns:xlink="http://www.w3.org/1999/xlink" x="0px" y="0px"
	 viewBox="0 0 633.56 661.05" style="enable-background:new 0 0 633.56 661.05;" xml:space="preserve">
<style type="text/css">
	.st0{fill:#A6CEE3;}
	.st1{fill:#1F78B4;}
	.st2{fill:#B2DF8A;}
	.st3{fill:#33A02C;}
	.st4{fill:#FB9A99;}
	.st5{fill:#E31A1C;}
	.st6{fill:#FDBF6F;}
	.st7{fill:#FF7F00;}
	.st8{fill:#CAB2D6;}
	.st9{fill:#8DD3C7;}
	.st10{fill:#984EA3;}
	.st11{fill:#FCCDE5;}
	.st12{fill:none;stroke:#FFFFFF;stroke-linecap:square;stroke-miterlimit:10;}
	.st13{clip-path:url(#SVGID_2_);}
	.st14{clip-path:url(#SVGID_4_);fill:#E5E5E5;}
	.st15{clip-path:url(#SVGID_6_);fill:none;stroke:#CCCCCC;stroke-width:0.5;stroke-miterlimit:10;}
	.st16{fill:none;}
	.st17{font-family:'MyriadPro-Regular';}
	.st18{font-size:14px;}
	.st19{fill:none;stroke:#515151;stroke-miterlimit:10;}
	.st20{fill:none;stroke:#515151;stroke-miterlimit:10;stroke-dasharray:2.0457,2.0457;}
	.st21{fill:none;stroke:#515151;stroke-miterlimit:10;stroke-dasharray:1.9849,1.9849;}
	.st22{fill:none;stroke:#515151;stroke-miterlimit:10;stroke-dasharray:1.971,1.971;}
	.st23{fill:none;stroke:#515151;stroke-miterlimit:10;stroke-dasharray:2.0751,2.0751;}
	.st24{fill:none;stroke:#515151;stroke-miterlimit:10;stroke-dasharray:1.994,1.994;}
</style>
<path class="st0" d="M600.94,229.25c-12.69-45.82-40.07-86.24-77.91-115.02c-37.84-28.79-84.1-44.38-131.65-44.38v217.44
	L600.94,229.25z"/>
<path class="st1" d="M522.49,460.76c34.77-26.28,60.85-62.41,74.84-103.69c13.99-41.28,15.25-85.82,3.61-127.82l-209.55,58.03
	L522.49,460.76z"/>
<path class="st2" d="M300.05,484.61c35.76,16.55,75.35,23.08,114.52,18.88c39.18-4.2,76.48-18.97,107.92-42.73l-131.1-173.47
	L300.05,484.61z"/>
<path class="st3" d="M195.23,381.1c10.83,22.65,25.51,43.26,43.38,60.9c17.87,17.64,38.65,32.06,61.44,42.61l91.34-197.32
	L195.23,381.1z"/>
<path class="st4" d="M174.68,269.55c-1.56,19.09-0.6,38.31,2.88,57.14c3.47,18.84,9.42,37.13,17.68,54.41l196.16-93.82
	L174.68,269.55z"/>
<path class="st5" d="M213.1,162.82c-10.97,15.71-19.81,32.79-26.3,50.81c-6.49,18.02-10.57,36.82-12.13,55.91l216.71,17.74
	L213.1,162.82z"/>
<path class="st6" d="M278.36,101.53c-12.85,7.82-24.85,16.95-35.82,27.25c-10.97,10.3-20.83,21.7-29.44,34.04l178.29,124.47
	L278.36,101.53z"/>
<path class="st7" d="M306.29,87.19c-4.82,2.05-9.56,4.27-14.22,6.67c-4.66,2.39-9.23,4.95-13.7,7.67l113.03,185.75L306.29,87.19z"/>
<path class="st8" d="M333.36,77.74c-4.61,1.28-9.17,2.71-13.69,4.28c-4.51,1.58-8.98,3.3-13.38,5.17l85.1,200.09L333.36,77.74z"/>
<path class="st9" d="M357.38,72.53c-4.05,0.64-8.08,1.4-12.08,2.27c-4.01,0.87-7.99,1.85-11.94,2.95l58.04,209.55L357.38,72.53z"/>
<path class="st10" d="M376.38,70.37c-3.18,0.22-6.36,0.51-9.52,0.87c-3.17,0.36-6.33,0.79-9.48,1.29l34.02,214.76L376.38,70.37z"/>
<path class="st11" d="M391.39,69.85c-2.51,0-5.01,0.04-7.51,0.13c-2.5,0.09-5.01,0.22-7.5,0.39l15.02,216.92V69.85z"/>
<line class="st12" x1="0" y1="678.68" x2="0" y2="461.24"/>
<line class="st12" x1="217.44" y1="678.68" x2="217.44" y2="461.24"/>
<line class="st12" x1="0" y1="678.68" x2="217.44" y2="678.68"/>
<line class="st12" x1="0" y1="461.24" x2="217.44" y2="461.24"/>
<path d="M453.61,185.77h4.13v1h-5.56v-1c0.45-0.46,1.06-1.08,1.84-1.87c0.77-0.78,1.26-1.28,1.46-1.51
	c0.39-0.42,0.65-0.78,0.79-1.08c0.15-0.29,0.23-0.59,0.23-0.88c0-0.46-0.17-0.84-0.49-1.13c-0.32-0.29-0.74-0.44-1.27-0.44
	c-0.37,0-0.77,0.07-1.18,0.19c-0.41,0.13-0.85,0.32-1.32,0.59v-1.2c0.48-0.19,0.92-0.34,1.33-0.43c0.41-0.1,0.79-0.14,1.14-0.14
	c0.9,0,1.62,0.23,2.16,0.68c0.54,0.46,0.82,1.06,0.82,1.81c0,0.36-0.07,0.71-0.2,1.02c-0.13,0.32-0.37,0.71-0.73,1.14
	c-0.1,0.12-0.41,0.44-0.94,0.98C455.29,184.04,454.56,184.8,453.61,185.77"/>
<path d="M462.76,177.86c0.97,0,1.72,0.4,2.24,1.16c0.52,0.78,0.78,1.91,0.78,3.37c0,1.48-0.26,2.6-0.78,3.37
	c-0.53,0.77-1.27,1.15-2.24,1.15c-0.98,0-1.74-0.38-2.26-1.15s-0.77-1.9-0.77-3.37c0-1.46,0.25-2.59,0.77-3.37
	C461.02,178.26,461.77,177.86,462.76,177.86 M462.76,178.8c-0.61,0-1.07,0.3-1.38,0.9c-0.31,0.6-0.46,1.5-0.46,2.7
	c0,1.2,0.14,2.1,0.46,2.7c0.31,0.6,0.77,0.9,1.38,0.9c0.61,0,1.07-0.3,1.38-0.9c0.3-0.6,0.46-1.5,0.46-2.7c0-1.2-0.16-2.1-0.46-2.7
	C463.82,179.1,463.37,178.8,462.76,178.8"/>
<rect x="467.86" y="185.28" width="1.24" height="1.49"/>
<polygon points="471.37,178.02 477,178.02 477,178.52 473.82,186.76 472.58,186.76 475.57,179.01 471.37,179.01 "/>
<path d="M480.7,177.86c0.61,0,1.11,0.22,1.48,0.65c0.36,0.43,0.55,1.01,0.55,1.73c0,0.74-0.19,1.32-0.55,1.75
	c-0.36,0.43-0.85,0.64-1.48,0.64s-1.11-0.2-1.48-0.64c-0.36-0.43-0.54-1.01-0.54-1.75c0-0.72,0.18-1.3,0.54-1.73
	C479.58,178.08,480.07,177.86,480.7,177.86 M485.99,177.86h0.94l-5.47,9.06h-0.94L485.99,177.86 M480.7,178.6
	c-0.34,0-0.6,0.16-0.79,0.44c-0.19,0.29-0.29,0.68-0.29,1.19c0,0.53,0.1,0.92,0.29,1.21c0.19,0.29,0.46,0.43,0.79,0.43
	s0.61-0.14,0.8-0.43c0.19-0.29,0.29-0.68,0.29-1.21c0-0.5-0.11-0.9-0.3-1.19C481.3,178.76,481.03,178.6,480.7,178.6 M486.75,182.17
	c0.61,0,1.1,0.22,1.46,0.65c0.36,0.43,0.55,1.02,0.55,1.74c0,0.73-0.19,1.31-0.55,1.73c-0.36,0.43-0.85,0.64-1.46,0.64
	c-0.62,0-1.13-0.2-1.49-0.64c-0.36-0.42-0.54-1-0.54-1.73s0.18-1.31,0.54-1.74C485.62,182.38,486.12,182.17,486.75,182.17
	 M486.75,182.91c-0.34,0-0.61,0.14-0.81,0.43c-0.19,0.29-0.29,0.7-0.29,1.21c0,0.5,0.1,0.91,0.29,1.2c0.19,0.29,0.47,0.43,0.81,0.43
	c0.34,0,0.6-0.14,0.79-0.43c0.19-0.29,0.29-0.7,0.29-1.2s-0.1-0.91-0.29-1.2C487.35,183.07,487.08,182.91,486.75,182.91"/>
<polygon points="497.37,331.48 499.3,331.48 499.3,324.8 497.2,325.22 497.2,324.14 499.29,323.72 500.48,323.72 500.48,331.48 
	502.41,331.48 502.41,332.47 497.37,332.47 "/>
<path d="M507.19,328.58c0.53,0,0.95-0.18,1.26-0.54c0.31-0.36,0.47-0.86,0.47-1.5c0-0.62-0.16-1.13-0.47-1.49
	c-0.31-0.36-0.73-0.55-1.26-0.55c-0.53,0-0.95,0.19-1.26,0.55c-0.31,0.36-0.47,0.86-0.47,1.49c0,0.64,0.16,1.14,0.47,1.5
	C506.24,328.4,506.66,328.58,507.19,328.58 M504.84,332.29v-1.08c0.29,0.14,0.59,0.25,0.9,0.32c0.3,0.07,0.6,0.11,0.9,0.11
	c0.77,0,1.37-0.25,1.78-0.78c0.41-0.53,0.65-1.32,0.72-2.4c-0.24,0.34-0.53,0.6-0.86,0.78c-0.35,0.18-0.73,0.26-1.15,0.26
	c-0.89,0-1.58-0.26-2.09-0.79c-0.5-0.53-0.76-1.25-0.76-2.17c0-0.89,0.26-1.61,0.79-2.16c0.53-0.54,1.24-0.82,2.12-0.82
	c1.01,0,1.79,0.4,2.32,1.16c0.53,0.78,0.8,1.91,0.8,3.37c0,1.39-0.34,2.48-0.98,3.3c-0.66,0.82-1.54,1.22-2.64,1.22
	c-0.3,0-0.6-0.04-0.9-0.08C505.47,332.5,505.16,332.41,504.84,332.29"/>
<rect x="512.43" y="330.98" width="1.24" height="1.49"/>
<path d="M518.78,323.57c0.97,0,1.72,0.4,2.24,1.16c0.52,0.78,0.78,1.91,0.78,3.37c0,1.48-0.26,2.6-0.78,3.37
	c-0.53,0.77-1.27,1.15-2.24,1.15c-0.98,0-1.74-0.38-2.26-1.15c-0.52-0.77-0.77-1.9-0.77-3.37c0-1.46,0.25-2.59,0.77-3.37
	C517.04,323.96,517.8,323.57,518.78,323.57 M518.78,324.5c-0.61,0-1.07,0.3-1.38,0.9c-0.31,0.6-0.46,1.5-0.46,2.7
	c0,1.2,0.15,2.1,0.46,2.7c0.31,0.6,0.77,0.9,1.38,0.9c0.61,0,1.07-0.3,1.38-0.9c0.3-0.6,0.46-1.5,0.46-2.7c0-1.2-0.16-2.1-0.46-2.7
	C519.85,324.8,519.39,324.5,518.78,324.5"/>
<path d="M525.27,323.57c0.61,0,1.1,0.22,1.48,0.65c0.36,0.43,0.55,1.01,0.55,1.73c0,0.74-0.19,1.32-0.55,1.75
	c-0.36,0.43-0.85,0.64-1.48,0.64s-1.12-0.2-1.47-0.64c-0.36-0.43-0.54-1.01-0.54-1.75c0-0.72,0.18-1.3,0.54-1.73
	C524.16,323.78,524.65,323.57,525.27,323.57 M530.56,323.57h0.94l-5.47,9.06h-0.94L530.56,323.57 M525.27,324.31
	c-0.34,0-0.6,0.16-0.79,0.44c-0.19,0.29-0.29,0.68-0.29,1.19c0,0.53,0.1,0.92,0.29,1.21c0.19,0.29,0.46,0.43,0.79,0.43
	s0.61-0.14,0.8-0.43s0.29-0.68,0.29-1.21c0-0.5-0.11-0.9-0.3-1.19C525.87,324.47,525.61,324.31,525.27,324.31 M531.32,327.88
	c0.61,0,1.1,0.22,1.46,0.65c0.36,0.43,0.55,1.02,0.55,1.74c0,0.73-0.19,1.31-0.55,1.73c-0.36,0.43-0.85,0.64-1.46,0.64
	c-0.62,0-1.13-0.2-1.49-0.64c-0.36-0.42-0.54-1-0.54-1.73s0.18-1.31,0.54-1.74C530.19,328.09,530.7,327.88,531.32,327.88
	 M531.32,328.62c-0.34,0-0.61,0.14-0.8,0.43c-0.19,0.29-0.29,0.7-0.29,1.21c0,0.5,0.1,0.91,0.29,1.2c0.19,0.29,0.47,0.43,0.8,0.43
	c0.34,0,0.6-0.14,0.79-0.43c0.19-0.29,0.29-0.7,0.29-1.2s-0.1-0.91-0.29-1.2C531.92,328.78,531.66,328.62,531.32,328.62"/>
<polygon points="387.72,419.32 389.65,419.32 389.65,412.65 387.55,413.07 387.55,411.99 389.64,411.57 390.83,411.57 
	390.83,419.32 392.76,419.32 392.76,420.32 387.72,420.32 "/>
<polygon points="394.85,411.57 400.47,411.57 400.47,412.08 397.29,420.32 396.06,420.32 399.05,412.57 394.85,412.57 "/>
<rect x="402.78" y="418.83" width="1.24" height="1.49"/>
<path d="M407.61,419.32h4.13v1h-5.56v-1c0.44-0.46,1.06-1.08,1.84-1.87c0.77-0.78,1.26-1.28,1.46-1.51
	c0.38-0.42,0.65-0.78,0.79-1.08c0.15-0.29,0.23-0.59,0.23-0.88c0-0.46-0.17-0.84-0.49-1.13c-0.32-0.29-0.74-0.44-1.27-0.44
	c-0.37,0-0.77,0.07-1.18,0.19c-0.41,0.13-0.85,0.32-1.32,0.59v-1.2c0.48-0.19,0.92-0.34,1.33-0.43c0.41-0.1,0.79-0.14,1.14-0.14
	c0.9,0,1.62,0.23,2.16,0.68c0.54,0.46,0.82,1.06,0.82,1.81c0,0.36-0.07,0.71-0.2,1.02c-0.13,0.32-0.37,0.71-0.73,1.14
	c-0.1,0.12-0.41,0.44-0.94,0.98C409.29,417.6,408.56,418.35,407.61,419.32"/>
<path d="M415.62,411.42c0.61,0,1.1,0.22,1.48,0.65c0.36,0.43,0.55,1.01,0.55,1.73c0,0.74-0.19,1.32-0.55,1.75
	c-0.36,0.43-0.85,0.64-1.48,0.64c-0.62,0-1.12-0.2-1.48-0.64c-0.36-0.43-0.54-1.01-0.54-1.75c0-0.72,0.18-1.3,0.54-1.73
	C414.5,411.63,414.99,411.42,415.62,411.42 M420.91,411.42h0.94l-5.47,9.06h-0.94L420.91,411.42 M415.62,412.16
	c-0.34,0-0.6,0.16-0.79,0.44c-0.19,0.29-0.29,0.68-0.29,1.19c0,0.53,0.1,0.92,0.29,1.21c0.19,0.29,0.46,0.43,0.79,0.43
	s0.61-0.14,0.8-0.43c0.19-0.29,0.29-0.68,0.29-1.21c0-0.5-0.11-0.9-0.3-1.19C416.22,412.32,415.95,412.16,415.62,412.16
	 M421.67,415.73c0.61,0,1.1,0.22,1.46,0.65c0.36,0.43,0.55,1.02,0.55,1.74c0,0.73-0.19,1.31-0.55,1.73
	c-0.36,0.43-0.85,0.64-1.46,0.64c-0.62,0-1.13-0.2-1.49-0.64c-0.36-0.42-0.54-1-0.54-1.73s0.18-1.31,0.54-1.74
	C420.54,415.94,421.04,415.73,421.67,415.73 M421.67,416.47c-0.34,0-0.61,0.14-0.8,0.43c-0.19,0.29-0.29,0.7-0.29,1.21
	c0,0.5,0.1,0.91,0.29,1.2c0.19,0.29,0.47,0.43,0.8,0.43c0.34,0,0.6-0.14,0.79-0.43c0.19-0.29,0.29-0.7,0.29-1.2s-0.1-0.91-0.29-1.2
	C422.27,416.63,422,416.47,421.67,416.47"/>
<polygon points="282.14,382.43 284.07,382.43 284.07,375.76 281.97,376.18 281.97,375.1 284.06,374.68 285.25,374.68 285.25,382.43 
	287.18,382.43 287.18,383.43 282.14,383.43 "/>
<polygon points="289.77,382.43 291.7,382.43 291.7,375.76 289.6,376.18 289.6,375.1 291.69,374.68 292.88,374.68 292.88,382.43 
	294.81,382.43 294.81,383.43 289.77,383.43 "/>
<rect x="297.2" y="381.94" width="1.24" height="1.49"/>
<path d="M303.55,374.53c0.97,0,1.72,0.4,2.24,1.16c0.52,0.78,0.78,1.91,0.78,3.37c0,1.48-0.26,2.6-0.78,3.37
	c-0.53,0.77-1.27,1.15-2.24,1.15c-0.98,0-1.74-0.38-2.26-1.15s-0.77-1.9-0.77-3.37c0-1.46,0.25-2.59,0.77-3.37
	C301.81,374.92,302.56,374.53,303.55,374.53 M303.55,375.46c-0.61,0-1.07,0.3-1.38,0.9c-0.31,0.6-0.46,1.5-0.46,2.7
	c0,1.2,0.14,2.1,0.46,2.7c0.31,0.6,0.77,0.9,1.38,0.9c0.61,0,1.07-0.3,1.38-0.9c0.3-0.6,0.46-1.5,0.46-2.7c0-1.2-0.16-2.1-0.46-2.7
	C304.61,375.76,304.16,375.46,303.55,375.46"/>
<path d="M310.04,374.53c0.61,0,1.1,0.22,1.48,0.65c0.36,0.43,0.55,1.01,0.55,1.73c0,0.74-0.19,1.32-0.55,1.75
	c-0.36,0.43-0.85,0.64-1.48,0.64c-0.62,0-1.12-0.2-1.48-0.64c-0.36-0.43-0.54-1.01-0.54-1.75c0-0.72,0.18-1.3,0.54-1.73
	C308.92,374.74,309.41,374.53,310.04,374.53 M315.33,374.53h0.94l-5.47,9.06h-0.94L315.33,374.53 M310.04,375.27
	c-0.34,0-0.6,0.16-0.79,0.44c-0.19,0.29-0.29,0.68-0.29,1.19c0,0.53,0.1,0.92,0.29,1.21c0.19,0.29,0.46,0.43,0.79,0.43
	s0.61-0.14,0.8-0.43c0.19-0.29,0.29-0.68,0.29-1.21c0-0.5-0.11-0.9-0.3-1.19C310.64,375.43,310.37,375.27,310.04,375.27
	 M316.09,378.83c0.61,0,1.1,0.22,1.46,0.65c0.36,0.43,0.55,1.02,0.55,1.74c0,0.73-0.19,1.31-0.55,1.73
	c-0.36,0.43-0.85,0.64-1.46,0.64c-0.62,0-1.13-0.2-1.49-0.64c-0.36-0.42-0.54-1-0.54-1.73s0.18-1.31,0.54-1.74
	C314.96,379.05,315.46,378.83,316.09,378.83 M316.09,379.58c-0.34,0-0.61,0.14-0.8,0.43s-0.29,0.7-0.29,1.21
	c0,0.5,0.1,0.91,0.29,1.2s0.47,0.43,0.8,0.43c0.34,0,0.6-0.14,0.79-0.43c0.19-0.29,0.29-0.7,0.29-1.2s-0.1-0.91-0.29-1.2
	C316.69,379.73,316.42,379.58,316.09,379.58"/>
<path d="M250.03,307.71c0,0.46,0.13,0.82,0.42,1.07c0.29,0.25,0.68,0.37,1.2,0.37c0.5,0,0.9-0.12,1.19-0.37
	c0.29-0.25,0.43-0.61,0.43-1.07s-0.14-0.8-0.43-1.06c-0.29-0.25-0.68-0.38-1.19-0.38c-0.52,0-0.91,0.13-1.2,0.38
	C250.17,306.91,250.03,307.26,250.03,307.71 M250.47,309.59c-0.5-0.12-0.9-0.36-1.19-0.71c-0.29-0.35-0.42-0.77-0.42-1.27
	c0-0.7,0.24-1.25,0.74-1.66c0.49-0.41,1.18-0.61,2.05-0.61c0.86,0,1.55,0.2,2.05,0.61c0.49,0.41,0.74,0.96,0.74,1.66
	c0,0.5-0.14,0.92-0.43,1.27c-0.29,0.35-0.67,0.59-1.18,0.71c0.56,0.13,1.01,0.4,1.33,0.78c0.31,0.38,0.48,0.86,0.48,1.42
	c0,0.85-0.26,1.5-0.78,1.94c-0.53,0.46-1.26,0.67-2.22,0.67c-0.97,0-1.72-0.22-2.23-0.67c-0.52-0.44-0.77-1.09-0.77-1.94
	c0-0.55,0.16-1.03,0.48-1.42C249.45,309.98,249.89,309.72,250.47,309.59 M251.65,310.09c-0.56,0-1.01,0.16-1.33,0.46
	c-0.32,0.3-0.48,0.71-0.48,1.24c0,0.53,0.16,0.95,0.48,1.25c0.32,0.3,0.77,0.44,1.33,0.44c0.55,0,1-0.14,1.32-0.46
	c0.32-0.3,0.49-0.71,0.49-1.24c0-0.53-0.17-0.94-0.48-1.24C252.66,310.25,252.22,310.09,251.65,310.09"/>
<rect x="256.75" y="312.75" width="1.24" height="1.49"/>
<path d="M263.51,305.49H265v5.7h1.25v0.98H265v2.06h-1.18v-2.06h-3.95v-1.14L263.51,305.49z M263.82,306.53l-2.99,4.67h2.99V306.53"
	/>
<path d="M269.59,305.34c0.61,0,1.1,0.22,1.48,0.65c0.36,0.43,0.55,1.01,0.55,1.73c0,0.74-0.19,1.32-0.55,1.75
	c-0.36,0.43-0.85,0.64-1.48,0.64c-0.62,0-1.12-0.2-1.48-0.64c-0.36-0.43-0.54-1.01-0.54-1.75c0-0.72,0.18-1.3,0.54-1.73
	C268.48,305.55,268.97,305.34,269.59,305.34 M274.89,305.34h0.94l-5.47,9.06h-0.94L274.89,305.34 M269.59,306.08
	c-0.34,0-0.6,0.16-0.79,0.44c-0.19,0.29-0.29,0.68-0.29,1.19c0,0.53,0.1,0.92,0.29,1.21c0.19,0.29,0.46,0.43,0.79,0.43
	s0.61-0.14,0.8-0.43c0.19-0.29,0.29-0.68,0.29-1.21c0-0.5-0.11-0.9-0.3-1.19C270.19,306.24,269.93,306.08,269.59,306.08
	 M275.64,309.65c0.61,0,1.1,0.22,1.46,0.65c0.36,0.43,0.55,1.02,0.55,1.74c0,0.73-0.19,1.31-0.55,1.73
	c-0.36,0.43-0.85,0.64-1.46,0.64c-0.62,0-1.13-0.2-1.49-0.64c-0.36-0.42-0.54-1-0.54-1.73s0.18-1.31,0.54-1.74
	C274.51,309.86,275.02,309.65,275.64,309.65 M275.64,310.39c-0.34,0-0.61,0.14-0.8,0.43s-0.29,0.7-0.29,1.21
	c0,0.5,0.1,0.91,0.29,1.2s0.47,0.43,0.8,0.43c0.34,0,0.6-0.14,0.79-0.43c0.19-0.29,0.29-0.7,0.29-1.2s-0.1-0.91-0.29-1.2
	C276.24,310.55,275.98,310.39,275.64,310.39"/>
<path d="M255.59,239.88c0,0.46,0.13,0.82,0.42,1.07c0.29,0.25,0.68,0.37,1.2,0.37c0.5,0,0.9-0.12,1.19-0.37
	c0.29-0.25,0.43-0.61,0.43-1.07s-0.14-0.8-0.43-1.06c-0.29-0.25-0.68-0.38-1.19-0.38c-0.52,0-0.91,0.13-1.2,0.38
	C255.72,239.08,255.59,239.42,255.59,239.88 M256.02,241.75c-0.5-0.12-0.9-0.36-1.19-0.71c-0.29-0.35-0.42-0.77-0.42-1.27
	c0-0.7,0.24-1.25,0.74-1.66c0.49-0.41,1.18-0.61,2.05-0.61c0.86,0,1.55,0.2,2.05,0.61c0.49,0.41,0.74,0.96,0.74,1.66
	c0,0.5-0.14,0.92-0.43,1.27c-0.29,0.35-0.67,0.59-1.18,0.71c0.56,0.13,1.01,0.4,1.33,0.78c0.31,0.38,0.48,0.86,0.48,1.42
	c0,0.85-0.26,1.5-0.78,1.94c-0.53,0.46-1.26,0.67-2.22,0.67c-0.97,0-1.72-0.22-2.23-0.67c-0.52-0.44-0.77-1.09-0.77-1.94
	c0-0.55,0.16-1.03,0.48-1.42C255,242.15,255.44,241.88,256.02,241.75 M257.21,242.26c-0.56,0-1.01,0.16-1.33,0.46
	c-0.32,0.3-0.48,0.71-0.48,1.24c0,0.53,0.16,0.95,0.48,1.25c0.32,0.3,0.77,0.44,1.33,0.44c0.55,0,1-0.14,1.32-0.46
	c0.32-0.3,0.49-0.71,0.49-1.24c0-0.53-0.17-0.94-0.48-1.24C258.21,242.41,257.77,242.26,257.21,242.26"/>
<rect x="262.31" y="244.92" width="1.24" height="1.49"/>
<path d="M269.06,237.66h1.49v5.7h1.25v0.98h-1.25v2.06h-1.18v-2.06h-3.95v-1.14L269.06,237.66z M269.37,238.69l-2.99,4.67h2.99
	V238.69"/>
<path d="M275.15,237.5c0.61,0,1.1,0.22,1.48,0.65c0.36,0.43,0.55,1.01,0.55,1.73c0,0.74-0.19,1.32-0.55,1.75
	c-0.36,0.43-0.85,0.64-1.48,0.64c-0.62,0-1.12-0.2-1.48-0.64c-0.36-0.43-0.54-1.01-0.54-1.75c0-0.72,0.18-1.3,0.54-1.73
	C274.03,237.72,274.52,237.5,275.15,237.5 M280.44,237.5h0.94l-5.47,9.06h-0.94L280.44,237.5 M275.15,238.25
	c-0.34,0-0.6,0.16-0.79,0.44c-0.19,0.29-0.29,0.68-0.29,1.19c0,0.53,0.1,0.92,0.29,1.21c0.19,0.29,0.46,0.43,0.79,0.43
	s0.61-0.14,0.8-0.43c0.19-0.29,0.29-0.68,0.29-1.21c0-0.5-0.11-0.9-0.3-1.19C275.75,238.4,275.48,238.25,275.15,238.25
	 M281.19,241.81c0.61,0,1.1,0.22,1.46,0.65c0.36,0.43,0.55,1.02,0.55,1.74c0,0.73-0.19,1.31-0.55,1.73
	c-0.36,0.43-0.85,0.64-1.46,0.64c-0.62,0-1.13-0.2-1.49-0.64c-0.36-0.42-0.54-1-0.54-1.73s0.18-1.31,0.54-1.74
	C280.07,242.03,280.57,241.81,281.19,241.81 M281.19,242.56c-0.34,0-0.61,0.14-0.8,0.43s-0.29,0.7-0.29,1.21
	c0,0.5,0.1,0.91,0.29,1.2s0.47,0.43,0.8,0.43c0.34,0,0.6-0.14,0.79-0.43c0.19-0.29,0.29-0.7,0.29-1.2s-0.1-0.91-0.29-1.2
	C281.79,242.71,281.53,242.56,281.19,242.56"/>
<path d="M293.14,186.94v1.08c-0.3-0.14-0.6-0.25-0.9-0.32c-0.31-0.07-0.61-0.11-0.9-0.11c-0.79,0-1.39,0.26-1.8,0.79
	c-0.41,0.53-0.65,1.33-0.7,2.39c0.23-0.34,0.52-0.6,0.86-0.78c0.35-0.18,0.73-0.28,1.15-0.28c0.88,0,1.57,0.28,2.08,0.8
	c0.5,0.53,0.77,1.26,0.77,2.17c0,0.9-0.28,1.62-0.8,2.16c-0.53,0.54-1.24,0.8-2.11,0.8c-1.01,0-1.79-0.38-2.32-1.15
	c-0.54-0.77-0.8-1.9-0.8-3.37c0-1.38,0.32-2.48,0.98-3.3c0.65-0.82,1.54-1.24,2.64-1.24c0.29,0,0.59,0.04,0.9,0.08
	C292.5,186.74,292.81,186.82,293.14,186.94 M290.79,190.65c-0.53,0-0.95,0.19-1.26,0.55c-0.31,0.36-0.47,0.86-0.47,1.49
	c0,0.64,0.16,1.14,0.47,1.5c0.31,0.36,0.73,0.54,1.26,0.54c0.53,0,0.95-0.18,1.26-0.54c0.31-0.36,0.47-0.86,0.47-1.5
	c0-0.62-0.16-1.13-0.47-1.49C291.74,190.84,291.32,190.65,290.79,190.65"/>
<rect x="295.75" y="194.01" width="1.24" height="1.49"/>
<path d="M304.59,186.94v1.08c-0.3-0.14-0.6-0.25-0.9-0.32c-0.31-0.07-0.61-0.11-0.9-0.11c-0.79,0-1.39,0.26-1.8,0.79
	c-0.41,0.53-0.65,1.33-0.7,2.39c0.23-0.34,0.52-0.6,0.86-0.78c0.35-0.18,0.73-0.28,1.15-0.28c0.88,0,1.57,0.28,2.08,0.8
	c0.5,0.53,0.77,1.26,0.77,2.17c0,0.9-0.28,1.62-0.8,2.16c-0.53,0.54-1.24,0.8-2.11,0.8c-1.01,0-1.79-0.38-2.32-1.15
	c-0.54-0.77-0.8-1.9-0.8-3.37c0-1.38,0.32-2.48,0.98-3.3c0.65-0.82,1.54-1.24,2.64-1.24c0.29,0,0.59,0.04,0.9,0.08
	C303.95,186.74,304.26,186.82,304.59,186.94 M302.24,190.65c-0.53,0-0.95,0.19-1.26,0.55c-0.31,0.36-0.47,0.86-0.47,1.49
	c0,0.64,0.16,1.14,0.47,1.5c0.31,0.36,0.73,0.54,1.26,0.54c0.53,0,0.95-0.18,1.26-0.54c0.31-0.36,0.47-0.86,0.47-1.5
	c0-0.62-0.16-1.13-0.47-1.49C303.19,190.84,302.77,190.65,302.24,190.65"/>
<path d="M308.59,186.59c0.61,0,1.1,0.22,1.48,0.65c0.36,0.43,0.55,1.01,0.55,1.73c0,0.74-0.19,1.32-0.55,1.75
	c-0.36,0.43-0.85,0.64-1.48,0.64c-0.62,0-1.12-0.2-1.48-0.64c-0.36-0.43-0.54-1.01-0.54-1.75c0-0.72,0.18-1.3,0.54-1.73
	C307.47,186.81,307.97,186.59,308.59,186.59 M313.88,186.59h0.94l-5.47,9.06h-0.94L313.88,186.59 M308.59,187.34
	c-0.34,0-0.6,0.16-0.79,0.44c-0.19,0.29-0.29,0.68-0.29,1.19c0,0.53,0.1,0.92,0.29,1.21c0.19,0.29,0.46,0.43,0.79,0.43
	s0.61-0.14,0.8-0.43c0.19-0.29,0.29-0.68,0.29-1.21c0-0.5-0.11-0.9-0.3-1.19C309.19,187.49,308.93,187.34,308.59,187.34
	 M314.64,190.9c0.61,0,1.1,0.22,1.46,0.65c0.36,0.43,0.55,1.02,0.55,1.74c0,0.73-0.19,1.31-0.55,1.73
	c-0.36,0.43-0.85,0.64-1.46,0.64c-0.62,0-1.13-0.2-1.49-0.64c-0.36-0.42-0.54-1-0.54-1.73s0.18-1.31,0.54-1.74
	C313.51,191.12,314.01,190.9,314.64,190.9 M314.64,191.64c-0.34,0-0.61,0.14-0.8,0.43s-0.29,0.7-0.29,1.21c0,0.5,0.1,0.91,0.29,1.2
	s0.47,0.43,0.8,0.43c0.34,0,0.6-0.14,0.79-0.43c0.19-0.29,0.29-0.7,0.29-1.2s-0.1-0.91-0.29-1.2
	C315.24,191.8,314.97,191.64,314.64,191.64"/>
<g>
	<defs>
		<rect id="SVGID_1_" x="4.75" y="465.99" width="159.78" height="179.56"/>
	</defs>
	<clipPath id="SVGID_2_">
		<use xlink:href="#SVGID_1_"  style="overflow:visible;"/>
	</clipPath>
	<g class="st13">
		<defs>
			<rect id="SVGID_3_" x="5" y="466.24" width="159.28" height="179.06"/>
		</defs>
		<clipPath id="SVGID_4_">
			<use xlink:href="#SVGID_3_"  style="overflow:visible;"/>
		</clipPath>
		<path class="st14" d="M7,645.3h155.28c1.33,0,2-0.67,2-2V468.24c0-1.33-0.67-2-2-2H7c-1.33,0-2,0.67-2,2V643.3
			C5,644.64,5.67,645.3,7,645.3"/>
	</g>
	<g class="st13">
		<defs>
			<rect id="SVGID_5_" x="4.75" y="465.99" width="159.78" height="179.56"/>
		</defs>
		<clipPath id="SVGID_6_">
			<use xlink:href="#SVGID_5_"  style="overflow:visible;"/>
		</clipPath>
		<path class="st15" d="M7,645.3h155.28c1.33,0,2-0.67,2-2V468.24c0-1.33-0.67-2-2-2H7c-1.33,0-2,0.67-2,2V643.3
			C5,644.64,5.67,645.3,7,645.3z"/>
	</g>
</g>
<rect x="9" y="470.83" class="st0" width="20" height="7"/>
<path d="M37.98,470.54h2.52c0.75,0,1.33,0.16,1.74,0.47c0.4,0.32,0.61,0.76,0.61,1.33c0,0.45-0.11,0.81-0.32,1.07
	c-0.21,0.26-0.51,0.43-0.91,0.49c0.48,0.11,0.86,0.33,1.13,0.66c0.26,0.33,0.4,0.74,0.4,1.23c0,0.66-0.23,1.16-0.67,1.51
	c-0.44,0.36-1.07,0.53-1.88,0.53h-2.62V470.54 M38.97,471.35v2.2h1.46c0.48,0,0.83-0.09,1.07-0.27c0.24-0.18,0.36-0.45,0.36-0.83
	c0-0.36-0.12-0.64-0.36-0.82c-0.24-0.18-0.59-0.28-1.07-0.28H38.97 M38.97,474.35v2.67h1.58c0.53,0,0.92-0.11,1.18-0.33
	c0.25-0.22,0.38-0.55,0.38-1.01c0-0.45-0.13-0.78-0.38-1c-0.26-0.22-0.65-0.33-1.18-0.33H38.97"/>
<path d="M46.97,472.23L46.97,472.23 M44.71,475.67v-3.31h0.9v3.28c0,0.52,0.1,0.9,0.3,1.16c0.2,0.26,0.5,0.39,0.91,0.39
	c0.48,0,0.87-0.15,1.15-0.46s0.42-0.73,0.42-1.27v-3.1h0.9v5.47h-0.9v-0.84c-0.22,0.34-0.48,0.58-0.76,0.74
	c-0.29,0.15-0.62,0.23-1,0.23c-0.63,0-1.11-0.19-1.43-0.58C44.87,477,44.71,476.43,44.71,475.67"/>
<path d="M54.63,472.52v0.85c-0.26-0.12-0.52-0.22-0.79-0.29c-0.28-0.06-0.56-0.1-0.85-0.1c-0.45,0-0.79,0.07-1.01,0.21
	c-0.22,0.14-0.33,0.34-0.33,0.61c0,0.21,0.08,0.37,0.24,0.49c0.16,0.12,0.48,0.24,0.96,0.34l0.31,0.07
	c0.64,0.14,1.09,0.34,1.36,0.58c0.26,0.25,0.4,0.6,0.4,1.04c0,0.51-0.2,0.91-0.6,1.2c-0.4,0.3-0.96,0.44-1.66,0.44
	c-0.3,0-0.6-0.03-0.92-0.08c-0.32-0.05-0.65-0.13-1-0.25v-0.93c0.33,0.18,0.66,0.31,0.98,0.39c0.32,0.09,0.64,0.13,0.96,0.13
	c0.42,0,0.75-0.07,0.98-0.21c0.22-0.14,0.34-0.35,0.34-0.62c0-0.24-0.09-0.43-0.25-0.56c-0.16-0.13-0.52-0.26-1.08-0.38l-0.31-0.07
	c-0.56-0.12-0.97-0.3-1.21-0.54c-0.25-0.24-0.37-0.57-0.37-1c0-0.51,0.18-0.91,0.54-1.19c0.36-0.28,0.88-0.42,1.56-0.42
	c0.33,0,0.64,0.03,0.94,0.08C54.11,472.36,54.38,472.43,54.63,472.52"/>
<path d="M56.35,470.23h0.9v1.14h-0.9V470.23z M56.35,472.36h0.9v5.47h-0.9V472.36z"/>
<path d="M63.68,474.53v3.3h-0.9v-3.27c0-0.52-0.11-0.9-0.31-1.16c-0.2-0.26-0.5-0.39-0.9-0.39c-0.49,0-0.87,0.16-1.15,0.47
	c-0.28,0.31-0.42,0.73-0.42,1.26v3.09h-0.9v-5.47H60v0.85c0.21-0.32,0.46-0.57,0.76-0.73c0.29-0.16,0.63-0.25,1.01-0.25
	c0.62,0,1.1,0.2,1.42,0.59C63.51,473.21,63.68,473.78,63.68,474.53"/>
<path d="M69.25,474.61c-0.01-0.49-0.15-0.88-0.41-1.18c-0.27-0.29-0.63-0.44-1.07-0.44c-0.5,0-0.9,0.15-1.2,0.43
	c-0.3,0.28-0.48,0.68-0.52,1.19H69.25 M70.15,474.87v0.44h-4.13c0.04,0.62,0.22,1.1,0.56,1.42c0.33,0.32,0.79,0.48,1.39,0.48
	c0.34,0,0.68-0.04,1-0.12s0.65-0.21,0.97-0.39v0.85c-0.32,0.14-0.65,0.25-0.99,0.31c-0.34,0.06-0.69,0.1-1.03,0.1
	c-0.88,0-1.57-0.25-2.08-0.75s-0.76-1.19-0.76-2.06c0-0.89,0.24-1.6,0.72-2.13c0.48-0.52,1.14-0.79,1.96-0.79
	c0.74,0,1.32,0.24,1.75,0.71C69.93,473.42,70.15,474.06,70.15,474.87"/>
<path d="M75.11,472.52v0.85c-0.26-0.12-0.52-0.22-0.79-0.29c-0.28-0.06-0.56-0.1-0.85-0.1c-0.45,0-0.79,0.07-1.01,0.21
	c-0.22,0.14-0.33,0.34-0.33,0.61c0,0.21,0.08,0.37,0.24,0.49c0.16,0.12,0.48,0.24,0.96,0.34l0.31,0.07
	c0.64,0.14,1.09,0.34,1.36,0.58c0.26,0.25,0.4,0.6,0.4,1.04c0,0.51-0.2,0.91-0.6,1.2c-0.4,0.3-0.96,0.44-1.66,0.44
	c-0.3,0-0.6-0.03-0.92-0.08c-0.32-0.05-0.65-0.13-1-0.25v-0.93c0.33,0.18,0.66,0.31,0.98,0.39c0.32,0.09,0.64,0.13,0.96,0.13
	c0.42,0,0.75-0.07,0.98-0.21c0.22-0.14,0.34-0.35,0.34-0.62c0-0.24-0.09-0.43-0.25-0.56c-0.16-0.13-0.52-0.26-1.08-0.38l-0.31-0.07
	c-0.56-0.12-0.97-0.3-1.21-0.54c-0.25-0.24-0.37-0.57-0.37-1c0-0.51,0.18-0.91,0.54-1.19c0.36-0.28,0.88-0.42,1.56-0.42
	c0.33,0,0.64,0.03,0.94,0.08C74.59,472.36,74.86,472.43,75.11,472.52"/>
<path d="M80.32,472.52v0.85c-0.26-0.12-0.52-0.22-0.79-0.29c-0.28-0.06-0.56-0.1-0.85-0.1c-0.45,0-0.79,0.07-1.01,0.21
	c-0.22,0.14-0.33,0.34-0.33,0.61c0,0.21,0.08,0.37,0.24,0.49c0.16,0.12,0.48,0.24,0.96,0.34l0.31,0.07
	c0.64,0.14,1.09,0.34,1.36,0.58c0.26,0.25,0.4,0.6,0.4,1.04c0,0.51-0.2,0.91-0.6,1.2c-0.4,0.3-0.96,0.44-1.66,0.44
	c-0.3,0-0.6-0.03-0.92-0.08c-0.32-0.05-0.65-0.13-1-0.25v-0.93c0.33,0.18,0.66,0.31,0.98,0.39c0.32,0.09,0.64,0.13,0.96,0.13
	c0.42,0,0.75-0.07,0.98-0.21c0.22-0.14,0.34-0.35,0.34-0.62c0-0.24-0.09-0.43-0.25-0.56c-0.16-0.13-0.52-0.26-1.08-0.38l-0.31-0.07
	c-0.56-0.12-0.97-0.3-1.21-0.54c-0.25-0.24-0.37-0.57-0.37-1c0-0.51,0.18-0.91,0.54-1.19c0.36-0.28,0.88-0.42,1.56-0.42
	c0.33,0,0.64,0.03,0.94,0.08C79.8,472.36,80.07,472.43,80.32,472.52"/>
<polygon points="83.64,470.54 84.47,470.54 81.93,478.75 81.1,478.75 "/>
<polygon points="88.63,470.54 90.1,470.54 91.96,475.5 93.83,470.54 95.3,470.54 95.3,477.83 94.34,477.83 94.34,471.43 
	92.46,476.43 91.47,476.43 89.59,471.43 89.59,477.83 88.63,477.83 "/>
<path d="M101.72,477.15c0,0.92-0.21,1.61-0.62,2.07c-0.42,0.45-1.05,0.68-1.9,0.68c-0.32,0-0.61-0.03-0.89-0.07
	c-0.28-0.05-0.56-0.12-0.82-0.22v-0.87c0.26,0.14,0.52,0.24,0.78,0.31c0.26,0.07,0.52,0.11,0.79,0.11c0.58,0,1.02-0.16,1.32-0.46
	c0.29-0.31,0.44-0.77,0.44-1.39v-0.44c-0.19,0.32-0.43,0.56-0.72,0.72c-0.29,0.16-0.63,0.24-1.03,0.24c-0.68,0-1.22-0.25-1.63-0.76
	c-0.41-0.51-0.61-1.19-0.61-2.04c0-0.84,0.2-1.52,0.61-2.03c0.41-0.51,0.95-0.77,1.63-0.77c0.4,0,0.74,0.08,1.03,0.24
	c0.29,0.16,0.53,0.4,0.72,0.72v-0.83h0.9V477.15 M100.82,475.03c0-0.64-0.14-1.15-0.4-1.51c-0.27-0.36-0.65-0.54-1.13-0.54
	c-0.48,0-0.86,0.18-1.13,0.54c-0.27,0.36-0.4,0.87-0.4,1.51c0,0.65,0.13,1.15,0.4,1.51c0.27,0.36,0.65,0.54,1.13,0.54
	c0.48,0,0.86-0.18,1.13-0.54C100.68,476.18,100.82,475.68,100.82,475.03"/>
<path d="M107.83,473.41c0.22-0.4,0.49-0.69,0.8-0.89c0.31-0.19,0.68-0.29,1.11-0.29c0.56,0,1,0.2,1.31,0.6
	c0.31,0.4,0.47,0.97,0.47,1.7v3.3h-0.9v-3.27c0-0.52-0.1-0.91-0.28-1.17c-0.19-0.25-0.47-0.38-0.85-0.38
	c-0.47,0-0.84,0.16-1.11,0.47c-0.27,0.31-0.4,0.73-0.4,1.26v3.09h-0.9v-3.27c0-0.52-0.1-0.91-0.28-1.17
	c-0.19-0.25-0.48-0.38-0.86-0.38c-0.46,0-0.83,0.16-1.1,0.47c-0.27,0.31-0.4,0.73-0.4,1.26v3.09h-0.9v-5.47h0.9v0.85
	c0.2-0.33,0.45-0.58,0.74-0.74c0.28-0.16,0.62-0.24,1.02-0.24s0.73,0.1,1.01,0.3C107.49,472.73,107.69,473.03,107.83,473.41"/>
<path d="M114.2,470.81v1.55h1.85v0.7h-1.85v2.97c0,0.45,0.06,0.74,0.18,0.86c0.12,0.13,0.37,0.19,0.75,0.19h0.92v0.75h-0.92
	c-0.7,0-1.18-0.13-1.44-0.39c-0.26-0.26-0.39-0.73-0.39-1.41v-2.97h-0.66v-0.7h0.66v-1.55H114.2"/>
<rect x="117.36" y="476.59" width="1.03" height="1.24"/>
<rect x="9" y="485.51" class="st1" width="20" height="7"/>
<polygon points="37.98,485.22 42.59,485.22 42.59,486.05 38.97,486.05 38.97,488.21 42.44,488.21 42.44,489.04 38.97,489.04 
	38.97,491.68 42.68,491.68 42.68,492.51 37.98,492.51 "/>
<path d="M48.81,489.21v3.3h-0.9v-3.27c0-0.52-0.11-0.9-0.31-1.16c-0.2-0.26-0.5-0.39-0.9-0.39c-0.49,0-0.87,0.16-1.15,0.47
	c-0.28,0.31-0.42,0.73-0.42,1.26v3.09h-0.9v-5.47h0.9v0.85c0.21-0.32,0.46-0.57,0.76-0.73c0.29-0.16,0.63-0.25,1.01-0.25
	c0.62,0,1.1,0.2,1.42,0.59C48.64,487.89,48.81,488.46,48.81,489.21"/>
<path d="M55.1,491.83c0,0.92-0.21,1.61-0.62,2.07c-0.42,0.45-1.05,0.68-1.9,0.68c-0.32,0-0.61-0.03-0.89-0.07
	c-0.28-0.05-0.56-0.12-0.82-0.22v-0.87c0.26,0.14,0.52,0.24,0.78,0.31c0.26,0.07,0.52,0.11,0.79,0.11c0.58,0,1.02-0.16,1.32-0.46
	c0.29-0.31,0.44-0.77,0.44-1.39v-0.44c-0.19,0.32-0.43,0.56-0.72,0.72c-0.29,0.16-0.63,0.24-1.03,0.24c-0.68,0-1.22-0.25-1.63-0.76
	c-0.41-0.51-0.61-1.19-0.61-2.04c0-0.84,0.2-1.52,0.61-2.03c0.41-0.51,0.95-0.77,1.63-0.77c0.4,0,0.74,0.08,1.03,0.24
	c0.29,0.16,0.53,0.4,0.72,0.72v-0.83h0.9V491.83 M54.2,489.71c0-0.64-0.14-1.15-0.4-1.51c-0.27-0.36-0.65-0.54-1.13-0.54
	s-0.86,0.18-1.13,0.54c-0.27,0.36-0.4,0.87-0.4,1.51c0,0.65,0.13,1.15,0.4,1.51c0.27,0.36,0.65,0.54,1.13,0.54s0.86-0.18,1.13-0.54
	C54.06,490.86,54.2,490.36,54.2,489.71"/>
<path d="M56.95,484.91h0.9v1.14h-0.9V484.91z M56.95,487.04h0.9v5.47h-0.9V487.04z"/>
<path d="M64.28,489.21v3.3h-0.9v-3.27c0-0.52-0.11-0.9-0.31-1.16c-0.2-0.26-0.5-0.39-0.9-0.39c-0.49,0-0.87,0.16-1.15,0.47
	c-0.28,0.31-0.42,0.73-0.42,1.26v3.09h-0.9v-5.47h0.9v0.85c0.21-0.32,0.46-0.57,0.76-0.73c0.29-0.16,0.63-0.25,1.01-0.25
	c0.62,0,1.1,0.2,1.42,0.59C64.11,487.89,64.28,488.46,64.28,489.21"/>
<path d="M69.85,489.29c-0.01-0.49-0.15-0.88-0.41-1.18c-0.27-0.29-0.63-0.44-1.07-0.44c-0.5,0-0.9,0.15-1.2,0.43
	c-0.3,0.28-0.48,0.68-0.52,1.19H69.85 M70.75,489.55v0.44h-4.13c0.04,0.62,0.22,1.1,0.56,1.42c0.33,0.32,0.79,0.48,1.39,0.48
	c0.34,0,0.68-0.04,1-0.12s0.65-0.21,0.97-0.39v0.85c-0.32,0.14-0.65,0.25-0.99,0.31c-0.34,0.06-0.69,0.1-1.03,0.1
	c-0.88,0-1.57-0.25-2.08-0.75s-0.76-1.19-0.76-2.06c0-0.89,0.24-1.6,0.72-2.13c0.48-0.52,1.14-0.79,1.96-0.79
	c0.74,0,1.32,0.24,1.75,0.71C70.53,488.1,70.75,488.74,70.75,489.55"/>
<path d="M76,489.29c-0.01-0.49-0.15-0.88-0.41-1.18c-0.27-0.29-0.63-0.44-1.07-0.44c-0.5,0-0.9,0.15-1.2,0.43
	c-0.3,0.28-0.48,0.68-0.52,1.19H76 M76.9,489.55v0.44h-4.13c0.04,0.62,0.22,1.1,0.56,1.42c0.33,0.32,0.79,0.48,1.39,0.48
	c0.34,0,0.68-0.04,1-0.12s0.65-0.21,0.97-0.39v0.85c-0.32,0.14-0.65,0.25-0.99,0.31c-0.34,0.06-0.69,0.1-1.03,0.1
	c-0.88,0-1.57-0.25-2.08-0.75s-0.76-1.19-0.76-2.06c0-0.89,0.24-1.6,0.72-2.13c0.48-0.52,1.14-0.79,1.96-0.79
	c0.74,0,1.32,0.24,1.75,0.71C76.68,488.1,76.9,488.74,76.9,489.55"/>
<path d="M81.54,487.88c-0.1-0.06-0.21-0.1-0.33-0.13c-0.12-0.02-0.25-0.04-0.39-0.04c-0.51,0-0.9,0.17-1.17,0.5
	c-0.28,0.33-0.41,0.8-0.41,1.42v2.88h-0.9v-5.47h0.9v0.85c0.18-0.33,0.43-0.58,0.73-0.74c0.3-0.16,0.67-0.24,1.11-0.24
	c0.06,0,0.13,0.01,0.21,0.01c0.07,0.01,0.15,0.02,0.25,0.04V487.88"/>
<path d="M82.48,484.91h0.9v1.14h-0.9V484.91z M82.48,487.04h0.9v5.47h-0.9V487.04z"/>
<path d="M89.81,489.21v3.3h-0.9v-3.27c0-0.52-0.11-0.9-0.31-1.16c-0.2-0.26-0.5-0.39-0.9-0.39c-0.49,0-0.87,0.16-1.15,0.47
	c-0.28,0.31-0.42,0.73-0.42,1.26v3.09h-0.9v-5.47h0.9v0.85c0.21-0.32,0.46-0.57,0.76-0.73c0.29-0.16,0.63-0.25,1.01-0.25
	c0.62,0,1.1,0.2,1.42,0.59C89.64,487.89,89.81,488.46,89.81,489.21"/>
<path d="M96.1,491.83c0,0.92-0.21,1.61-0.62,2.07c-0.42,0.45-1.05,0.68-1.9,0.68c-0.32,0-0.61-0.03-0.89-0.07
	c-0.28-0.05-0.56-0.12-0.82-0.22v-0.87c0.26,0.14,0.52,0.24,0.78,0.31c0.26,0.07,0.52,0.11,0.79,0.11c0.58,0,1.02-0.16,1.32-0.46
	c0.29-0.31,0.44-0.77,0.44-1.39v-0.44c-0.19,0.32-0.43,0.56-0.72,0.72c-0.29,0.16-0.63,0.24-1.03,0.24c-0.68,0-1.22-0.25-1.63-0.76
	c-0.41-0.51-0.61-1.19-0.61-2.04c0-0.84,0.2-1.52,0.61-2.03c0.41-0.51,0.95-0.77,1.63-0.77c0.4,0,0.74,0.08,1.03,0.24
	c0.29,0.16,0.53,0.4,0.72,0.72v-0.83h0.9V491.83 M95.2,489.71c0-0.64-0.14-1.15-0.4-1.51c-0.27-0.36-0.65-0.54-1.13-0.54
	c-0.48,0-0.86,0.18-1.13,0.54c-0.27,0.36-0.4,0.87-0.4,1.51c0,0.65,0.13,1.15,0.4,1.51c0.27,0.36,0.65,0.54,1.13,0.54
	c0.48,0,0.86-0.18,1.13-0.54C95.06,490.86,95.2,490.36,95.2,489.71"/>
<rect x="9" y="500.18" class="st2" width="20" height="7"/>
<polygon points="37.98,499.89 39.45,499.89 41.31,504.85 43.18,499.89 44.65,499.89 44.65,507.18 43.69,507.18 43.69,500.78 
	41.81,505.78 40.82,505.78 38.94,500.78 38.94,507.18 37.98,507.18 "/>
<path d="M50.85,504.06v3.12h-0.9v-0.83c-0.21,0.34-0.47,0.58-0.77,0.73c-0.3,0.15-0.68,0.23-1.12,0.23c-0.56,0-1.01-0.15-1.34-0.46
	c-0.33-0.31-0.49-0.73-0.49-1.26c0-0.61,0.2-1.07,0.62-1.39c0.41-0.31,1.02-0.47,1.84-0.47h1.26v-0.09c0-0.41-0.14-0.73-0.41-0.96
	c-0.27-0.22-0.65-0.34-1.14-0.34c-0.32,0-0.62,0.04-0.92,0.12c-0.3,0.08-0.58,0.19-0.85,0.33v-0.83c0.32-0.12,0.64-0.22,0.95-0.28
	c0.31-0.06,0.61-0.1,0.91-0.1c0.79,0,1.38,0.21,1.77,0.62C50.65,502.61,50.85,503.23,50.85,504.06 M49.06,504.43
	c-0.73,0-1.23,0.09-1.51,0.25c-0.28,0.17-0.42,0.45-0.42,0.85c0,0.32,0.1,0.58,0.31,0.76c0.21,0.19,0.5,0.28,0.86,0.28
	c0.5,0,0.9-0.17,1.2-0.53c0.3-0.35,0.45-0.82,0.45-1.41v-0.2H49.06"/>
<path d="M53.59,500.16v1.55h1.85v0.7h-1.85v2.97c0,0.45,0.06,0.74,0.18,0.86c0.12,0.13,0.37,0.19,0.75,0.19h0.92v0.75h-0.92
	c-0.7,0-1.18-0.13-1.44-0.39c-0.26-0.26-0.39-0.73-0.39-1.41v-2.97h-0.66v-0.7h0.66v-1.55H53.59"/>
<path d="M61.17,503.88v3.3h-0.9v-3.27c0-0.52-0.11-0.9-0.31-1.16c-0.2-0.26-0.5-0.39-0.9-0.39c-0.49,0-0.87,0.16-1.15,0.47
	c-0.28,0.31-0.42,0.73-0.42,1.26v3.09h-0.9v-7.6h0.9v2.98c0.21-0.32,0.46-0.57,0.76-0.73c0.29-0.16,0.63-0.25,1.01-0.25
	c0.62,0,1.1,0.2,1.42,0.59C61,502.56,61.17,503.13,61.17,503.88"/>
<polygon points="64.56,499.89 65.39,499.89 62.85,508.1 62.02,508.1 "/>
<path d="M75.01,500.45v1.04c-0.34-0.3-0.69-0.53-1.07-0.69c-0.38-0.15-0.77-0.23-1.19-0.23c-0.84,0-1.48,0.26-1.92,0.77
	c-0.44,0.51-0.66,1.24-0.66,2.2s0.22,1.7,0.66,2.21c0.44,0.51,1.08,0.76,1.92,0.76c0.42,0,0.81-0.07,1.19-0.23
	c0.38-0.15,0.73-0.38,1.07-0.69v1.03c-0.35,0.24-0.72,0.41-1.1,0.52c-0.38,0.11-0.79,0.17-1.22,0.17c-1.1,0-1.97-0.33-2.61-1
	c-0.64-0.67-0.95-1.59-0.95-2.77c0-1.17,0.31-2.09,0.95-2.77c0.64-0.67,1.51-1.01,2.61-1.01c0.44,0,0.85,0.06,1.23,0.17
	C74.3,500.05,74.67,500.22,75.01,500.45"/>
<path d="M78.61,501.58c0.78,0,1.39,0.26,1.84,0.76c0.44,0.51,0.67,1.21,0.67,2.11c0,0.9-0.23,1.6-0.67,2.1
	c-0.45,0.51-1.06,0.76-1.84,0.76c-0.79,0-1.41-0.25-1.85-0.76c-0.44-0.5-0.66-1.2-0.66-2.1c0-0.9,0.22-1.6,0.66-2.11
	C77.2,501.84,77.82,501.58,78.61,501.58 M78.61,502.34c-0.48,0-0.86,0.19-1.14,0.57c-0.28,0.38-0.42,0.89-0.42,1.54
	c0,0.66,0.13,1.17,0.41,1.55c0.28,0.38,0.66,0.56,1.15,0.56c0.48,0,0.86-0.18,1.14-0.56c0.28-0.38,0.42-0.89,0.42-1.55
	c0-0.64-0.14-1.16-0.42-1.54C79.47,502.53,79.09,502.34,78.61,502.34"/>
<path d="M86.87,502.76c0.22-0.4,0.49-0.69,0.8-0.89c0.31-0.19,0.68-0.29,1.11-0.29c0.56,0,1,0.2,1.31,0.6
	c0.31,0.4,0.47,0.97,0.47,1.7v3.3h-0.9v-3.27c0-0.52-0.1-0.91-0.28-1.17c-0.19-0.25-0.47-0.38-0.85-0.38
	c-0.47,0-0.84,0.16-1.11,0.47c-0.27,0.31-0.4,0.73-0.4,1.26v3.09h-0.9v-3.27c0-0.52-0.1-0.91-0.28-1.17
	c-0.19-0.25-0.48-0.38-0.86-0.38c-0.46,0-0.83,0.16-1.1,0.47c-0.27,0.31-0.4,0.73-0.4,1.26v3.09h-0.9v-5.47h0.9v0.85
	c0.2-0.33,0.45-0.58,0.74-0.74c0.28-0.16,0.62-0.24,1.02-0.24s0.73,0.1,1.01,0.3C86.53,502.08,86.73,502.38,86.87,502.76"/>
<path d="M96.28,504.45c0-0.66-0.14-1.17-0.41-1.55c-0.28-0.38-0.65-0.57-1.12-0.57c-0.48,0-0.85,0.19-1.12,0.57
	c-0.28,0.38-0.41,0.89-0.41,1.55s0.13,1.18,0.41,1.56c0.27,0.38,0.64,0.56,1.12,0.56c0.47,0,0.84-0.18,1.12-0.56
	C96.14,505.63,96.28,505.11,96.28,504.45 M93.22,506.36v2.89h-0.9v-7.54h0.9v0.83c0.18-0.32,0.42-0.56,0.71-0.72
	s0.64-0.24,1.04-0.24c0.66,0,1.2,0.27,1.62,0.79c0.41,0.53,0.62,1.22,0.62,2.08c0,0.86-0.21,1.56-0.62,2.08
	c-0.42,0.52-0.96,0.78-1.62,0.78c-0.4,0-0.75-0.08-1.04-0.23S93.4,506.69,93.22,506.36"/>
<path d="M100.87,501.58L100.87,501.58 M98.61,505.02v-3.31h0.9v3.28c0,0.52,0.1,0.9,0.3,1.16c0.2,0.26,0.5,0.39,0.91,0.39
	c0.48,0,0.87-0.15,1.15-0.46c0.28-0.31,0.42-0.73,0.42-1.27v-3.1h0.9v5.47h-0.9v-0.84c-0.22,0.34-0.48,0.58-0.76,0.74
	c-0.29,0.15-0.62,0.23-1,0.23c-0.63,0-1.11-0.19-1.43-0.58C98.77,506.35,98.61,505.78,98.61,505.02"/>
<path d="M105.93,500.16v1.55h1.85v0.7h-1.85v2.97c0,0.45,0.06,0.74,0.18,0.86c0.12,0.13,0.37,0.19,0.75,0.19h0.92v0.75h-0.92
	c-0.7,0-1.18-0.13-1.44-0.39c-0.26-0.26-0.39-0.73-0.39-1.41v-2.97h-0.66v-0.7h0.66v-1.55H105.93"/>
<path d="M112.74,503.96c-0.01-0.49-0.15-0.88-0.41-1.18c-0.27-0.29-0.63-0.44-1.07-0.44c-0.5,0-0.9,0.15-1.2,0.43
	c-0.3,0.28-0.48,0.68-0.52,1.19H112.74 M113.64,504.22v0.44h-4.13c0.04,0.62,0.22,1.1,0.56,1.42c0.33,0.32,0.79,0.48,1.39,0.48
	c0.34,0,0.68-0.04,1-0.12s0.65-0.21,0.97-0.39v0.85c-0.32,0.14-0.65,0.25-0.99,0.31c-0.34,0.06-0.69,0.1-1.03,0.1
	c-0.88,0-1.57-0.25-2.08-0.75s-0.76-1.19-0.76-2.06c0-0.89,0.24-1.6,0.72-2.13c0.48-0.52,1.14-0.79,1.96-0.79
	c0.74,0,1.32,0.24,1.75,0.71C113.42,502.77,113.64,503.41,113.64,504.22"/>
<path d="M118.28,502.55c-0.1-0.06-0.21-0.1-0.33-0.13c-0.12-0.02-0.25-0.04-0.39-0.04c-0.51,0-0.9,0.17-1.17,0.5
	c-0.28,0.33-0.41,0.8-0.41,1.42v2.88h-0.9v-5.47h0.9v0.85c0.18-0.33,0.43-0.58,0.73-0.74c0.3-0.16,0.67-0.24,1.11-0.24
	c0.06,0,0.13,0.01,0.21,0.01c0.07,0.01,0.15,0.02,0.25,0.04V502.55"/>
<path d="M126.81,500.13v0.96c-0.38-0.18-0.73-0.31-1.06-0.4c-0.34-0.08-0.66-0.13-0.96-0.13c-0.54,0-0.96,0.11-1.25,0.31
	c-0.29,0.21-0.43,0.51-0.43,0.89c0,0.32,0.09,0.57,0.29,0.73c0.19,0.17,0.56,0.3,1.1,0.4l0.6,0.12c0.73,0.14,1.27,0.39,1.62,0.74
	c0.35,0.36,0.53,0.83,0.53,1.42c0,0.71-0.24,1.24-0.71,1.6c-0.48,0.36-1.17,0.54-2.08,0.54c-0.35,0-0.72-0.04-1.11-0.11
	c-0.39-0.07-0.79-0.18-1.2-0.34v-1.02c0.4,0.23,0.79,0.4,1.17,0.51c0.38,0.12,0.76,0.17,1.14,0.17c0.56,0,0.99-0.11,1.3-0.33
	c0.3-0.22,0.46-0.53,0.46-0.95c0-0.36-0.11-0.64-0.33-0.84c-0.22-0.2-0.58-0.35-1.08-0.45l-0.6-0.12c-0.74-0.14-1.27-0.37-1.6-0.69
	c-0.33-0.31-0.49-0.74-0.49-1.3c0-0.64,0.22-1.15,0.68-1.52c0.45-0.37,1.08-0.56,1.88-0.56c0.34,0,0.68,0.03,1.04,0.09
	C126.07,499.91,126.43,500.01,126.81,500.13"/>
<path d="M132.69,501.92v0.84c-0.26-0.14-0.51-0.24-0.77-0.31c-0.26-0.07-0.51-0.11-0.77-0.11c-0.58,0-1.04,0.19-1.36,0.56
	c-0.32,0.37-0.48,0.89-0.48,1.55c0,0.67,0.16,1.19,0.48,1.56c0.32,0.37,0.78,0.55,1.36,0.55c0.26,0,0.51-0.03,0.77-0.1
	c0.26-0.07,0.51-0.18,0.77-0.32v0.83c-0.26,0.12-0.52,0.21-0.78,0.26c-0.27,0.05-0.56,0.08-0.86,0.08c-0.82,0-1.48-0.25-1.96-0.77
	c-0.49-0.51-0.73-1.21-0.73-2.09c0-0.89,0.24-1.59,0.73-2.1c0.49-0.51,1.16-0.77,2.02-0.77c0.28,0,0.55,0.03,0.81,0.09
	C132.18,501.73,132.44,501.81,132.69,501.92"/>
<path d="M134.25,499.58h0.9v1.14h-0.9V499.58z M134.25,501.71h0.9v5.47h-0.9V501.71z"/>
<path d="M140.81,503.96c-0.01-0.49-0.15-0.88-0.41-1.18c-0.27-0.29-0.63-0.44-1.07-0.44c-0.5,0-0.9,0.15-1.2,0.43
	c-0.3,0.28-0.48,0.68-0.52,1.19H140.81 M141.71,504.22v0.44h-4.13c0.04,0.62,0.22,1.1,0.56,1.42c0.33,0.32,0.79,0.48,1.39,0.48
	c0.34,0,0.68-0.04,1-0.12c0.32-0.08,0.65-0.21,0.97-0.39v0.85c-0.32,0.14-0.65,0.25-0.99,0.31c-0.34,0.06-0.69,0.1-1.03,0.1
	c-0.88,0-1.57-0.25-2.08-0.75c-0.51-0.5-0.76-1.19-0.76-2.06c0-0.89,0.24-1.6,0.72-2.13c0.48-0.52,1.14-0.79,1.96-0.79
	c0.74,0,1.32,0.24,1.75,0.71C141.49,502.77,141.71,503.41,141.71,504.22"/>
<path d="M147.73,503.88v3.3h-0.9v-3.27c0-0.52-0.11-0.9-0.31-1.16c-0.2-0.26-0.5-0.39-0.9-0.39c-0.49,0-0.87,0.16-1.15,0.47
	c-0.28,0.31-0.42,0.73-0.42,1.26v3.09h-0.9v-5.47h0.9v0.85c0.21-0.32,0.46-0.57,0.76-0.73c0.29-0.16,0.63-0.25,1.01-0.25
	c0.62,0,1.1,0.2,1.42,0.59C147.56,502.56,147.73,503.13,147.73,503.88"/>
<path d="M153.46,501.92v0.84c-0.26-0.14-0.51-0.24-0.77-0.31c-0.26-0.07-0.51-0.11-0.77-0.11c-0.58,0-1.04,0.19-1.36,0.56
	c-0.32,0.37-0.48,0.89-0.48,1.55c0,0.67,0.16,1.19,0.48,1.56c0.32,0.37,0.78,0.55,1.36,0.55c0.26,0,0.51-0.03,0.77-0.1
	c0.26-0.07,0.51-0.18,0.77-0.32v0.83c-0.26,0.12-0.52,0.21-0.78,0.26c-0.27,0.05-0.56,0.08-0.86,0.08c-0.82,0-1.48-0.25-1.96-0.77
	c-0.49-0.51-0.73-1.21-0.73-2.09c0-0.89,0.24-1.59,0.73-2.1c0.49-0.51,1.16-0.77,2.02-0.77c0.28,0,0.55,0.03,0.81,0.09
	C152.95,501.73,153.21,501.81,153.46,501.92"/>
<path d="M158.8,503.96c-0.01-0.49-0.15-0.88-0.41-1.18c-0.27-0.29-0.63-0.44-1.07-0.44c-0.5,0-0.9,0.15-1.2,0.43
	c-0.3,0.28-0.48,0.68-0.52,1.19H158.8 M159.7,504.22v0.44h-4.13c0.04,0.62,0.22,1.1,0.56,1.42c0.33,0.32,0.79,0.48,1.39,0.48
	c0.34,0,0.68-0.04,1-0.12c0.32-0.08,0.65-0.21,0.97-0.39v0.85c-0.32,0.14-0.65,0.25-0.99,0.31c-0.34,0.06-0.69,0.1-1.03,0.1
	c-0.88,0-1.57-0.25-2.08-0.75c-0.51-0.5-0.76-1.19-0.76-2.06c0-0.89,0.24-1.6,0.72-2.13c0.48-0.52,1.14-0.79,1.96-0.79
	c0.74,0,1.32,0.24,1.75,0.71C159.48,502.77,159.7,503.41,159.7,504.22"/>
<rect x="9" y="514.85" class="st3" width="20" height="7"/>
<path d="M40.94,514.43c1.02,0,1.83,0.35,2.45,1.03c0.61,0.68,0.92,1.6,0.92,2.75c0,1.16-0.31,2.07-0.92,2.75
	c-0.62,0.68-1.43,1.02-2.45,1.02c-1.03,0-1.85-0.34-2.46-1.02c-0.62-0.68-0.92-1.59-0.92-2.75c0-1.15,0.3-2.07,0.92-2.75
	C39.09,514.78,39.91,514.43,40.94,514.43 M40.94,515.23c-0.72,0-1.29,0.27-1.71,0.8c-0.42,0.54-0.63,1.26-0.63,2.18
	c0,0.92,0.21,1.65,0.63,2.18c0.42,0.54,0.99,0.8,1.71,0.8c0.71,0,1.28-0.26,1.7-0.8c0.42-0.53,0.63-1.26,0.63-2.18
	c0-0.92-0.21-1.64-0.63-2.18C42.22,515.5,41.65,515.23,40.94,515.23"/>
<path d="M46.7,514.83v1.55h1.85v0.7H46.7v2.97c0,0.45,0.06,0.74,0.18,0.86c0.12,0.13,0.37,0.19,0.75,0.19h0.92v0.75h-0.92
	c-0.7,0-1.18-0.13-1.44-0.39c-0.26-0.26-0.39-0.73-0.39-1.41v-2.97h-0.66v-0.7h0.66v-1.55H46.7"/>
<path d="M54.28,518.55v3.3h-0.9v-3.27c0-0.52-0.11-0.9-0.31-1.16c-0.2-0.26-0.5-0.39-0.9-0.39c-0.49,0-0.87,0.16-1.15,0.47
	c-0.28,0.31-0.42,0.73-0.42,1.26v3.09h-0.9v-7.6h0.9v2.98c0.21-0.32,0.46-0.57,0.76-0.73c0.29-0.16,0.63-0.25,1.01-0.25
	c0.62,0,1.1,0.2,1.42,0.59C54.11,517.23,54.28,517.8,54.28,518.55"/>
<path d="M59.85,518.63c-0.01-0.49-0.15-0.88-0.41-1.18c-0.27-0.29-0.63-0.44-1.07-0.44c-0.5,0-0.9,0.15-1.2,0.43
	c-0.3,0.28-0.48,0.68-0.52,1.19H59.85 M60.75,518.89v0.44h-4.13c0.04,0.62,0.22,1.1,0.56,1.42c0.33,0.32,0.79,0.48,1.39,0.48
	c0.34,0,0.68-0.04,1-0.12c0.32-0.08,0.65-0.21,0.97-0.39v0.85c-0.32,0.14-0.65,0.25-0.99,0.31c-0.34,0.06-0.69,0.1-1.03,0.1
	c-0.88,0-1.57-0.25-2.08-0.75s-0.76-1.19-0.76-2.06c0-0.89,0.24-1.6,0.72-2.13c0.48-0.52,1.14-0.79,1.96-0.79
	c0.74,0,1.32,0.24,1.75,0.71C60.53,517.44,60.75,518.08,60.75,518.89"/>
<path d="M65.39,517.22c-0.1-0.06-0.21-0.1-0.33-0.13c-0.12-0.02-0.25-0.04-0.39-0.04c-0.51,0-0.9,0.17-1.17,0.5
	c-0.28,0.33-0.41,0.8-0.41,1.42v2.88h-0.9v-5.47h0.9v0.85c0.18-0.33,0.43-0.58,0.73-0.74c0.3-0.16,0.67-0.24,1.11-0.24
	c0.06,0,0.13,0.01,0.21,0.01c0.07,0.01,0.15,0.02,0.25,0.04V517.22"/>
<polygon points="69.55,514.56 73.74,514.56 73.74,515.39 70.54,515.39 70.54,517.54 73.43,517.54 73.43,518.37 70.54,518.37 
	70.54,521.85 69.55,521.85 "/>
<path d="M75.26,514.25h0.9v1.14h-0.9V514.25z M75.26,516.38h0.9v5.47h-0.9V516.38z"/>
<path d="M81.82,518.63c-0.01-0.49-0.15-0.88-0.41-1.18c-0.27-0.29-0.63-0.44-1.07-0.44c-0.5,0-0.9,0.15-1.2,0.43
	c-0.3,0.28-0.48,0.68-0.52,1.19H81.82 M82.72,518.89v0.44h-4.13c0.04,0.62,0.22,1.1,0.56,1.42c0.33,0.32,0.79,0.48,1.39,0.48
	c0.34,0,0.68-0.04,1-0.12c0.32-0.08,0.65-0.21,0.97-0.39v0.85c-0.32,0.14-0.65,0.25-0.99,0.31c-0.34,0.06-0.69,0.1-1.03,0.1
	c-0.88,0-1.57-0.25-2.08-0.75s-0.76-1.19-0.76-2.06c0-0.89,0.24-1.6,0.72-2.13c0.48-0.52,1.14-0.79,1.96-0.79
	c0.74,0,1.32,0.24,1.75,0.71C82.5,517.44,82.72,518.08,82.72,518.89"/>
<rect x="84.19" y="514.25" width="0.9" height="7.6"/>
<path d="M87.51,519.12c0,0.66,0.13,1.18,0.4,1.56c0.27,0.38,0.65,0.56,1.13,0.56c0.47,0,0.84-0.18,1.12-0.56
	c0.27-0.38,0.41-0.9,0.41-1.56c0-0.66-0.14-1.17-0.41-1.55c-0.28-0.38-0.65-0.57-1.12-0.57c-0.48,0-0.86,0.19-1.13,0.57
	C87.64,517.95,87.51,518.46,87.51,519.12 M90.57,517.21v-2.96h0.9v7.6h-0.9v-0.82c-0.19,0.33-0.43,0.57-0.72,0.72
	c-0.29,0.15-0.63,0.23-1.03,0.23c-0.66,0-1.2-0.26-1.62-0.78c-0.42-0.52-0.62-1.22-0.62-2.08c0-0.86,0.2-1.55,0.62-2.08
	c0.42-0.52,0.96-0.79,1.62-0.79c0.4,0,0.74,0.08,1.03,0.24C90.14,516.65,90.38,516.89,90.57,517.21"/>
<path d="M96.81,516.54v0.85c-0.26-0.12-0.52-0.22-0.79-0.29c-0.28-0.06-0.56-0.1-0.85-0.1c-0.45,0-0.79,0.07-1.01,0.21
	c-0.22,0.14-0.33,0.34-0.33,0.61c0,0.21,0.08,0.37,0.24,0.49c0.16,0.12,0.48,0.24,0.96,0.34l0.31,0.07
	c0.64,0.14,1.09,0.34,1.36,0.58c0.26,0.25,0.4,0.6,0.4,1.04c0,0.51-0.2,0.91-0.6,1.2c-0.4,0.3-0.96,0.44-1.66,0.44
	c-0.3,0-0.6-0.03-0.92-0.08c-0.32-0.05-0.65-0.13-1-0.25v-0.93c0.33,0.18,0.66,0.31,0.98,0.39c0.32,0.09,0.64,0.13,0.96,0.13
	c0.42,0,0.75-0.07,0.98-0.21c0.22-0.14,0.34-0.35,0.34-0.62c0-0.24-0.09-0.43-0.25-0.56c-0.16-0.13-0.52-0.26-1.08-0.38l-0.31-0.07
	c-0.56-0.12-0.97-0.3-1.21-0.54c-0.25-0.24-0.37-0.57-0.37-1c0-0.51,0.18-0.91,0.54-1.19c0.36-0.28,0.88-0.42,1.56-0.42
	c0.33,0,0.64,0.03,0.94,0.08C96.29,516.38,96.56,516.45,96.81,516.54"/>
<path d="M103.83,516.25c0.78,0,1.39,0.26,1.84,0.76c0.44,0.51,0.67,1.21,0.67,2.11c0,0.9-0.23,1.6-0.67,2.1
	c-0.45,0.51-1.06,0.76-1.84,0.76c-0.79,0-1.41-0.25-1.85-0.76c-0.44-0.5-0.66-1.2-0.66-2.1c0-0.9,0.22-1.6,0.66-2.11
	C102.42,516.51,103.04,516.25,103.83,516.25 M103.83,517.01c-0.48,0-0.86,0.19-1.14,0.57c-0.28,0.38-0.42,0.89-0.42,1.54
	c0,0.66,0.13,1.17,0.41,1.55s0.66,0.56,1.15,0.56c0.48,0,0.86-0.18,1.14-0.56c0.28-0.38,0.42-0.89,0.42-1.55
	c0-0.64-0.14-1.16-0.42-1.54C104.69,517.2,104.31,517.01,103.83,517.01"/>
<path d="M110.6,514.25V515h-0.86c-0.32,0-0.55,0.07-0.67,0.2c-0.13,0.13-0.19,0.36-0.19,0.7v0.48h1.48v0.7h-1.48v4.77h-0.9v-4.77
	h-0.86v-0.7h0.86V516c0-0.6,0.14-1.05,0.42-1.33c0.28-0.28,0.73-0.42,1.35-0.42H110.6"/>
<path d="M118.94,514.8v0.96c-0.38-0.18-0.73-0.31-1.06-0.4c-0.34-0.08-0.66-0.13-0.96-0.13c-0.54,0-0.96,0.11-1.25,0.31
	c-0.29,0.21-0.43,0.51-0.43,0.89c0,0.32,0.09,0.57,0.29,0.73c0.19,0.17,0.56,0.3,1.1,0.4l0.6,0.12c0.73,0.14,1.27,0.39,1.62,0.74
	c0.35,0.36,0.53,0.83,0.53,1.42c0,0.71-0.24,1.24-0.71,1.6c-0.48,0.36-1.17,0.54-2.08,0.54c-0.35,0-0.72-0.04-1.11-0.11
	c-0.39-0.07-0.79-0.18-1.2-0.34v-1.02c0.4,0.23,0.79,0.4,1.17,0.51c0.38,0.12,0.76,0.17,1.14,0.17c0.56,0,0.99-0.11,1.3-0.33
	c0.3-0.22,0.46-0.53,0.46-0.95c0-0.36-0.11-0.64-0.33-0.84c-0.22-0.2-0.58-0.35-1.08-0.45l-0.6-0.12c-0.74-0.14-1.27-0.37-1.6-0.69
	c-0.33-0.31-0.49-0.74-0.49-1.3c0-0.64,0.22-1.15,0.68-1.52c0.45-0.37,1.08-0.56,1.88-0.56c0.34,0,0.68,0.03,1.04,0.09
	C118.2,514.58,118.56,514.68,118.94,514.8"/>
<path d="M121.77,514.83v1.55h1.85v0.7h-1.85v2.97c0,0.45,0.06,0.74,0.18,0.86c0.12,0.13,0.37,0.19,0.75,0.19h0.92v0.75h-0.92
	c-0.7,0-1.18-0.13-1.44-0.39c-0.26-0.26-0.39-0.73-0.39-1.41v-2.97h-0.66v-0.7h0.66v-1.55H121.77"/>
<path d="M126.97,516.25L126.97,516.25 M124.71,519.69v-3.31h0.9v3.28c0,0.52,0.1,0.9,0.3,1.16s0.5,0.39,0.91,0.39
	c0.48,0,0.87-0.15,1.15-0.46c0.28-0.31,0.42-0.73,0.42-1.27v-3.1h0.9v5.47h-0.9v-0.84c-0.22,0.34-0.48,0.58-0.76,0.74
	c-0.29,0.15-0.62,0.23-1,0.23c-0.63,0-1.11-0.19-1.43-0.58C124.87,521.02,124.71,520.45,124.71,519.69"/>
<path d="M131.68,519.12c0,0.66,0.13,1.18,0.4,1.56c0.27,0.38,0.65,0.56,1.13,0.56c0.47,0,0.84-0.18,1.12-0.56
	c0.27-0.38,0.41-0.9,0.41-1.56c0-0.66-0.14-1.17-0.41-1.55c-0.28-0.38-0.65-0.57-1.12-0.57c-0.48,0-0.86,0.19-1.13,0.57
	C131.81,517.95,131.68,518.46,131.68,519.12 M134.74,517.21v-2.96h0.9v7.6h-0.9v-0.82c-0.19,0.33-0.43,0.57-0.72,0.72
	c-0.29,0.15-0.63,0.23-1.03,0.23c-0.66,0-1.2-0.26-1.62-0.78c-0.42-0.52-0.62-1.22-0.62-2.08c0-0.86,0.2-1.55,0.62-2.08
	c0.42-0.52,0.96-0.79,1.62-0.79c0.4,0,0.74,0.08,1.03,0.24C134.31,516.65,134.55,516.89,134.74,517.21"/>
<path d="M139.77,522.35c-0.26,0.64-0.51,1.07-0.75,1.27c-0.24,0.2-0.56,0.3-0.96,0.3h-0.72v-0.75h0.53c0.24,0,0.43-0.06,0.57-0.18
	c0.14-0.12,0.29-0.39,0.46-0.83l0.16-0.4l-2.21-5.38h0.95l1.71,4.28l1.71-4.28h0.95L139.77,522.35"/>
<rect x="9" y="529.52" class="st4" width="20" height="7"/>
<path d="M37.98,529.23h2.23c0.81,0,1.43,0.19,1.85,0.56c0.42,0.37,0.63,0.91,0.63,1.62c0,0.72-0.21,1.27-0.63,1.63
	c-0.42,0.37-1.04,0.55-1.85,0.55h-1.24v2.93h-0.99V529.23 M38.97,530.04v2.74h1.24c0.46,0,0.81-0.11,1.06-0.35
	c0.25-0.24,0.38-0.58,0.38-1.02c0-0.44-0.13-0.77-0.38-1.01c-0.25-0.24-0.6-0.36-1.06-0.36H38.97"/>
<path d="M48.52,533.22v3.3h-0.9v-3.27c0-0.52-0.11-0.9-0.31-1.16c-0.2-0.26-0.5-0.39-0.9-0.39c-0.49,0-0.87,0.16-1.15,0.47
	c-0.28,0.31-0.42,0.73-0.42,1.26v3.09h-0.9v-7.6h0.9v2.98c0.21-0.32,0.46-0.57,0.76-0.73c0.29-0.16,0.63-0.25,1.01-0.25
	c0.62,0,1.1,0.2,1.42,0.59C48.35,531.9,48.52,532.47,48.52,533.22"/>
<path d="M52.59,537.02c-0.26,0.64-0.51,1.07-0.75,1.27c-0.24,0.2-0.56,0.3-0.96,0.3h-0.72v-0.75h0.53c0.24,0,0.43-0.06,0.57-0.18
	s0.29-0.39,0.46-0.83l0.16-0.4l-2.21-5.38h0.95l1.71,4.28l1.71-4.28h0.95L52.59,537.02"/>
<path d="M59.72,531.21v0.85c-0.26-0.12-0.52-0.22-0.79-0.29c-0.28-0.06-0.56-0.1-0.85-0.1c-0.45,0-0.79,0.07-1.01,0.21
	c-0.22,0.14-0.33,0.34-0.33,0.61c0,0.21,0.08,0.37,0.24,0.49c0.16,0.12,0.48,0.24,0.96,0.34l0.31,0.07
	c0.64,0.14,1.09,0.34,1.36,0.58c0.26,0.25,0.4,0.6,0.4,1.04c0,0.51-0.2,0.91-0.6,1.2c-0.4,0.3-0.96,0.44-1.66,0.44
	c-0.3,0-0.6-0.03-0.92-0.08c-0.32-0.05-0.65-0.13-1-0.25v-0.93c0.33,0.18,0.66,0.31,0.98,0.39c0.32,0.09,0.64,0.13,0.96,0.13
	c0.42,0,0.75-0.07,0.98-0.21c0.22-0.14,0.34-0.35,0.34-0.62c0-0.24-0.09-0.43-0.25-0.56c-0.16-0.13-0.52-0.26-1.08-0.38l-0.31-0.07
	c-0.56-0.12-0.97-0.3-1.21-0.54c-0.25-0.24-0.37-0.57-0.37-1c0-0.51,0.18-0.91,0.54-1.19c0.36-0.28,0.88-0.42,1.56-0.42
	c0.33,0,0.64,0.03,0.94,0.08C59.2,531.05,59.47,531.12,59.72,531.21"/>
<path d="M61.44,528.92h0.9v1.14h-0.9V528.92z M61.44,531.05h0.9v5.47h-0.9V531.05z"/>
<path d="M68.16,531.26v0.84c-0.26-0.14-0.51-0.24-0.77-0.31c-0.26-0.07-0.51-0.11-0.77-0.11c-0.58,0-1.04,0.19-1.36,0.56
	c-0.32,0.37-0.48,0.89-0.48,1.55c0,0.67,0.16,1.19,0.48,1.56c0.32,0.37,0.78,0.55,1.36,0.55c0.26,0,0.51-0.03,0.77-0.1
	c0.26-0.07,0.51-0.18,0.77-0.32v0.83c-0.26,0.12-0.52,0.21-0.78,0.26c-0.27,0.05-0.56,0.08-0.86,0.08c-0.82,0-1.48-0.25-1.96-0.77
	c-0.49-0.51-0.73-1.21-0.73-2.09c0-0.89,0.24-1.59,0.73-2.1c0.49-0.51,1.16-0.77,2.02-0.77c0.28,0,0.55,0.03,0.81,0.09
	C67.65,531.07,67.91,531.15,68.16,531.26"/>
<path d="M74,533.4v3.12h-0.9v-0.83c-0.21,0.34-0.47,0.58-0.77,0.73c-0.3,0.15-0.68,0.23-1.12,0.23c-0.56,0-1.01-0.15-1.34-0.46
	c-0.33-0.31-0.49-0.73-0.49-1.26c0-0.61,0.2-1.07,0.62-1.39c0.41-0.31,1.02-0.47,1.84-0.47h1.26v-0.09c0-0.41-0.14-0.73-0.41-0.96
	c-0.27-0.22-0.65-0.34-1.14-0.34c-0.32,0-0.62,0.04-0.92,0.12c-0.3,0.08-0.58,0.19-0.85,0.33v-0.83c0.32-0.12,0.64-0.22,0.95-0.28
	c0.31-0.06,0.61-0.1,0.91-0.1c0.79,0,1.38,0.21,1.77,0.62C73.8,531.95,74,532.57,74,533.4 M72.21,533.77
	c-0.73,0-1.23,0.09-1.51,0.25c-0.28,0.17-0.42,0.45-0.42,0.85c0,0.32,0.1,0.58,0.31,0.76c0.21,0.19,0.5,0.28,0.86,0.28
	c0.5,0,0.9-0.17,1.2-0.53c0.3-0.35,0.45-0.82,0.45-1.41v-0.2H72.21"/>
<rect x="75.85" y="528.92" width="0.9" height="7.6"/>
<polygon points="80.23,529.23 81.06,529.23 78.52,537.44 77.69,537.44 "/>
<polygon points="85.22,529.23 86.21,529.23 86.21,535.69 89.76,535.69 89.76,536.52 85.22,536.52 "/>
<path d="M90.75,528.92h0.9v1.14h-0.9V528.92z M90.75,531.05h0.9v5.47h-0.9V531.05z"/>
<path d="M96.3,528.92v0.75h-0.86c-0.32,0-0.55,0.07-0.67,0.2c-0.13,0.13-0.19,0.36-0.19,0.7v0.48h1.48v0.7h-1.48v4.77h-0.9v-4.77
	h-0.86v-0.7h0.86v-0.38c0-0.6,0.14-1.05,0.42-1.33c0.28-0.28,0.73-0.42,1.35-0.42H96.3"/>
<path d="M100.83,533.3c-0.01-0.49-0.15-0.88-0.41-1.18c-0.27-0.29-0.63-0.44-1.07-0.44c-0.5,0-0.9,0.15-1.2,0.43
	c-0.3,0.28-0.48,0.68-0.52,1.19H100.83 M101.73,533.56V534H97.6c0.04,0.62,0.22,1.1,0.56,1.42c0.33,0.32,0.79,0.48,1.39,0.48
	c0.34,0,0.68-0.04,1-0.12s0.65-0.21,0.97-0.39v0.85c-0.32,0.14-0.65,0.25-0.99,0.31c-0.34,0.06-0.69,0.1-1.03,0.1
	c-0.88,0-1.57-0.25-2.08-0.75s-0.76-1.19-0.76-2.06c0-0.89,0.24-1.6,0.72-2.13c0.48-0.52,1.14-0.79,1.96-0.79
	c0.74,0,1.32,0.24,1.75,0.71C101.51,532.11,101.73,532.75,101.73,533.56"/>
<path d="M110.79,529.47v0.96c-0.38-0.18-0.73-0.31-1.06-0.4c-0.34-0.08-0.66-0.13-0.96-0.13c-0.54,0-0.96,0.11-1.25,0.31
	c-0.29,0.21-0.43,0.51-0.43,0.89c0,0.32,0.09,0.57,0.29,0.73c0.19,0.17,0.56,0.3,1.1,0.4l0.6,0.12c0.73,0.14,1.27,0.39,1.62,0.74
	c0.35,0.36,0.53,0.83,0.53,1.42c0,0.71-0.24,1.24-0.71,1.6c-0.48,0.36-1.17,0.54-2.08,0.54c-0.35,0-0.72-0.04-1.11-0.11
	c-0.39-0.07-0.79-0.18-1.2-0.34v-1.02c0.4,0.23,0.79,0.4,1.17,0.51c0.38,0.12,0.76,0.17,1.14,0.17c0.56,0,0.99-0.11,1.3-0.33
	c0.3-0.22,0.46-0.53,0.46-0.95c0-0.36-0.11-0.64-0.33-0.84c-0.22-0.2-0.58-0.35-1.08-0.45l-0.6-0.12c-0.74-0.14-1.27-0.37-1.6-0.69
	c-0.33-0.31-0.49-0.74-0.49-1.3c0-0.64,0.22-1.15,0.68-1.52c0.45-0.37,1.08-0.56,1.88-0.56c0.34,0,0.68,0.03,1.04,0.09
	C110.05,529.25,110.41,529.35,110.79,529.47"/>
<path d="M116.67,531.26v0.84c-0.26-0.14-0.51-0.24-0.77-0.31c-0.26-0.07-0.51-0.11-0.77-0.11c-0.58,0-1.04,0.19-1.36,0.56
	c-0.32,0.37-0.48,0.89-0.48,1.55c0,0.67,0.16,1.19,0.48,1.56c0.32,0.37,0.78,0.55,1.36,0.55c0.26,0,0.51-0.03,0.77-0.1
	c0.26-0.07,0.51-0.18,0.77-0.32v0.83c-0.26,0.12-0.52,0.21-0.78,0.26c-0.27,0.05-0.56,0.08-0.86,0.08c-0.82,0-1.48-0.25-1.96-0.77
	c-0.49-0.51-0.73-1.21-0.73-2.09c0-0.89,0.24-1.59,0.73-2.1c0.49-0.51,1.16-0.77,2.02-0.77c0.28,0,0.55,0.03,0.81,0.09
	C116.16,531.07,116.42,531.15,116.67,531.26"/>
<path d="M118.23,528.92h0.9v1.14h-0.9V528.92z M118.23,531.05h0.9v5.47h-0.9V531.05z"/>
<path d="M124.79,533.3c-0.01-0.49-0.15-0.88-0.41-1.18c-0.27-0.29-0.63-0.44-1.07-0.44c-0.5,0-0.9,0.15-1.2,0.43
	c-0.3,0.28-0.48,0.68-0.52,1.19H124.79 M125.69,533.56V534h-4.13c0.04,0.62,0.22,1.1,0.56,1.42c0.33,0.32,0.79,0.48,1.39,0.48
	c0.34,0,0.68-0.04,1-0.12c0.32-0.08,0.65-0.21,0.97-0.39v0.85c-0.32,0.14-0.65,0.25-0.99,0.31c-0.34,0.06-0.69,0.1-1.03,0.1
	c-0.88,0-1.57-0.25-2.08-0.75c-0.51-0.5-0.76-1.19-0.76-2.06c0-0.89,0.24-1.6,0.72-2.13c0.48-0.52,1.14-0.79,1.96-0.79
	c0.74,0,1.32,0.24,1.75,0.71C125.47,532.11,125.69,532.75,125.69,533.56"/>
<path d="M131.71,533.22v3.3h-0.9v-3.27c0-0.52-0.11-0.9-0.31-1.16c-0.2-0.26-0.5-0.39-0.9-0.39c-0.49,0-0.87,0.16-1.15,0.47
	c-0.28,0.31-0.42,0.73-0.42,1.26v3.09h-0.9v-5.47h0.9v0.85c0.21-0.32,0.46-0.57,0.76-0.73c0.29-0.16,0.63-0.25,1.01-0.25
	c0.62,0,1.1,0.2,1.42,0.59C131.54,531.9,131.71,532.47,131.71,533.22"/>
<path d="M137.44,531.26v0.84c-0.26-0.14-0.51-0.24-0.77-0.31c-0.26-0.07-0.51-0.11-0.77-0.11c-0.58,0-1.04,0.19-1.36,0.56
	c-0.32,0.37-0.48,0.89-0.48,1.55c0,0.67,0.16,1.19,0.48,1.56c0.32,0.37,0.78,0.55,1.36,0.55c0.26,0,0.51-0.03,0.77-0.1
	c0.26-0.07,0.51-0.18,0.77-0.32v0.83c-0.26,0.12-0.52,0.21-0.78,0.26c-0.27,0.05-0.56,0.08-0.86,0.08c-0.82,0-1.48-0.25-1.96-0.77
	c-0.49-0.51-0.73-1.21-0.73-2.09c0-0.89,0.24-1.59,0.73-2.1c0.49-0.51,1.16-0.77,2.02-0.77c0.28,0,0.55,0.03,0.81,0.09
	C136.93,531.07,137.19,531.15,137.44,531.26"/>
<path d="M142.78,533.3c-0.01-0.49-0.15-0.88-0.41-1.18c-0.27-0.29-0.63-0.44-1.07-0.44c-0.5,0-0.9,0.15-1.2,0.43
	c-0.3,0.28-0.48,0.68-0.52,1.19H142.78 M143.68,533.56V534h-4.13c0.04,0.62,0.22,1.1,0.56,1.42c0.33,0.32,0.79,0.48,1.39,0.48
	c0.34,0,0.68-0.04,1-0.12c0.32-0.08,0.65-0.21,0.97-0.39v0.85c-0.32,0.14-0.65,0.25-0.99,0.31c-0.34,0.06-0.69,0.1-1.03,0.1
	c-0.88,0-1.57-0.25-2.08-0.75c-0.51-0.5-0.76-1.19-0.76-2.06c0-0.89,0.24-1.6,0.72-2.13c0.48-0.52,1.14-0.79,1.96-0.79
	c0.74,0,1.32,0.24,1.75,0.71C143.46,532.11,143.68,532.75,143.68,533.56"/>
<path d="M148.64,531.21v0.85c-0.26-0.12-0.52-0.22-0.79-0.29c-0.28-0.06-0.56-0.1-0.85-0.1c-0.45,0-0.79,0.07-1.01,0.21
	c-0.22,0.14-0.33,0.34-0.33,0.61c0,0.21,0.08,0.37,0.24,0.49c0.16,0.12,0.48,0.24,0.96,0.34l0.31,0.07
	c0.64,0.14,1.09,0.34,1.36,0.58c0.26,0.25,0.4,0.6,0.4,1.04c0,0.51-0.2,0.91-0.6,1.2c-0.4,0.3-0.96,0.44-1.66,0.44
	c-0.3,0-0.6-0.03-0.92-0.08c-0.32-0.05-0.65-0.13-1-0.25v-0.93c0.33,0.18,0.66,0.31,0.98,0.39c0.32,0.09,0.64,0.13,0.96,0.13
	c0.42,0,0.75-0.07,0.98-0.21c0.22-0.14,0.34-0.35,0.34-0.62c0-0.24-0.09-0.43-0.25-0.56c-0.16-0.13-0.52-0.26-1.08-0.38l-0.31-0.07
	c-0.56-0.12-0.97-0.3-1.21-0.54c-0.25-0.24-0.37-0.57-0.37-1c0-0.51,0.18-0.91,0.54-1.19c0.36-0.28,0.88-0.42,1.56-0.42
	c0.33,0,0.64,0.03,0.94,0.08C148.12,531.05,148.39,531.12,148.64,531.21"/>
<rect x="9" y="544.19" class="st5" width="20" height="7"/>
<path d="M42.35,544.14v0.96c-0.38-0.18-0.73-0.31-1.06-0.4c-0.34-0.08-0.66-0.13-0.96-0.13c-0.54,0-0.96,0.11-1.25,0.31
	c-0.29,0.21-0.43,0.51-0.43,0.89c0,0.32,0.09,0.57,0.29,0.73c0.19,0.17,0.56,0.3,1.1,0.4l0.6,0.12c0.73,0.14,1.27,0.39,1.62,0.74
	c0.35,0.36,0.53,0.83,0.53,1.42c0,0.71-0.24,1.24-0.71,1.6c-0.48,0.36-1.17,0.54-2.08,0.54c-0.35,0-0.72-0.04-1.11-0.11
	c-0.39-0.07-0.79-0.18-1.2-0.34v-1.02c0.4,0.23,0.79,0.4,1.17,0.51c0.38,0.12,0.76,0.17,1.14,0.17c0.56,0,0.99-0.11,1.3-0.33
	c0.3-0.22,0.46-0.53,0.46-0.95c0-0.36-0.11-0.64-0.33-0.84c-0.22-0.2-0.58-0.35-1.08-0.45l-0.6-0.12c-0.74-0.14-1.27-0.37-1.6-0.69
	c-0.33-0.31-0.49-0.74-0.49-1.3c0-0.64,0.22-1.15,0.68-1.52c0.45-0.37,1.08-0.56,1.88-0.56c0.34,0,0.68,0.03,1.04,0.09
	C41.61,543.92,41.97,544.02,42.35,544.14"/>
<path d="M46.41,545.59c0.78,0,1.39,0.26,1.84,0.76c0.44,0.51,0.67,1.21,0.67,2.11c0,0.9-0.23,1.6-0.67,2.1
	c-0.45,0.51-1.06,0.76-1.84,0.76c-0.79,0-1.41-0.25-1.85-0.76c-0.44-0.5-0.66-1.2-0.66-2.1c0-0.9,0.22-1.6,0.66-2.11
	C45,545.85,45.62,545.59,46.41,545.59 M46.41,546.35c-0.48,0-0.86,0.19-1.14,0.57c-0.28,0.38-0.42,0.89-0.42,1.54
	c0,0.66,0.13,1.17,0.41,1.55c0.28,0.38,0.66,0.56,1.15,0.56c0.48,0,0.86-0.18,1.14-0.56c0.28-0.38,0.42-0.89,0.42-1.55
	c0-0.64-0.14-1.16-0.42-1.54C47.27,546.54,46.89,546.35,46.41,546.35"/>
<path d="M54.35,545.93v0.84c-0.26-0.14-0.51-0.24-0.77-0.31c-0.26-0.07-0.51-0.11-0.77-0.11c-0.58,0-1.04,0.19-1.36,0.56
	c-0.32,0.37-0.48,0.89-0.48,1.55c0,0.67,0.16,1.19,0.48,1.56c0.32,0.37,0.78,0.55,1.36,0.55c0.26,0,0.51-0.03,0.77-0.1
	c0.26-0.07,0.51-0.18,0.77-0.32v0.83c-0.26,0.12-0.52,0.21-0.78,0.26c-0.27,0.05-0.56,0.08-0.86,0.08c-0.82,0-1.48-0.25-1.96-0.77
	c-0.49-0.51-0.73-1.21-0.73-2.09c0-0.89,0.24-1.59,0.73-2.1c0.49-0.51,1.16-0.77,2.02-0.77c0.28,0,0.55,0.03,0.81,0.09
	C53.84,545.74,54.1,545.82,54.35,545.93"/>
<path d="M55.91,543.59h0.9v1.14h-0.9V543.59z M55.91,545.72h0.9v5.47h-0.9V545.72z"/>
<path d="M62.97,548.07v3.12h-0.9v-0.83c-0.21,0.34-0.47,0.58-0.77,0.73c-0.3,0.15-0.68,0.23-1.12,0.23c-0.56,0-1.01-0.15-1.34-0.46
	c-0.33-0.31-0.49-0.73-0.49-1.26c0-0.61,0.2-1.07,0.62-1.39c0.41-0.31,1.02-0.47,1.84-0.47h1.26v-0.09c0-0.41-0.14-0.73-0.41-0.96
	c-0.27-0.22-0.65-0.34-1.14-0.34c-0.32,0-0.62,0.04-0.92,0.12c-0.3,0.08-0.58,0.19-0.85,0.33v-0.83c0.32-0.12,0.64-0.22,0.95-0.28
	c0.31-0.06,0.61-0.1,0.91-0.1c0.79,0,1.38,0.21,1.77,0.62C62.77,546.62,62.97,547.24,62.97,548.07 M61.18,548.44
	c-0.73,0-1.23,0.09-1.51,0.25c-0.28,0.17-0.42,0.45-0.42,0.85c0,0.32,0.1,0.58,0.31,0.76c0.21,0.19,0.5,0.28,0.86,0.28
	c0.5,0,0.9-0.17,1.2-0.53c0.3-0.35,0.45-0.82,0.45-1.41v-0.2H61.18"/>
<rect x="64.82" y="543.59" width="0.9" height="7.6"/>
<path d="M75.19,544.14v0.96c-0.38-0.18-0.73-0.31-1.06-0.4c-0.34-0.08-0.66-0.13-0.96-0.13c-0.54,0-0.96,0.11-1.25,0.31
	c-0.29,0.21-0.43,0.51-0.43,0.89c0,0.32,0.09,0.57,0.29,0.73c0.19,0.17,0.56,0.3,1.1,0.4l0.6,0.12c0.73,0.14,1.27,0.39,1.62,0.74
	c0.35,0.36,0.53,0.83,0.53,1.42c0,0.71-0.24,1.24-0.71,1.6c-0.48,0.36-1.17,0.54-2.08,0.54c-0.35,0-0.72-0.04-1.11-0.11
	c-0.39-0.07-0.79-0.18-1.2-0.34v-1.02c0.4,0.23,0.79,0.4,1.17,0.51c0.38,0.12,0.76,0.17,1.14,0.17c0.56,0,0.99-0.11,1.3-0.33
	c0.3-0.22,0.46-0.53,0.46-0.95c0-0.36-0.11-0.64-0.33-0.84c-0.22-0.2-0.58-0.35-1.08-0.45l-0.6-0.12c-0.74-0.14-1.27-0.37-1.6-0.69
	c-0.33-0.31-0.49-0.74-0.49-1.3c0-0.64,0.22-1.15,0.68-1.52c0.45-0.37,1.08-0.56,1.88-0.56c0.34,0,0.68,0.03,1.04,0.09
	C74.45,543.92,74.81,544.02,75.19,544.14"/>
<path d="M81.07,545.93v0.84c-0.26-0.14-0.51-0.24-0.77-0.31c-0.26-0.07-0.51-0.11-0.77-0.11c-0.58,0-1.04,0.19-1.36,0.56
	c-0.32,0.37-0.48,0.89-0.48,1.55c0,0.67,0.16,1.19,0.48,1.56c0.32,0.37,0.78,0.55,1.36,0.55c0.26,0,0.51-0.03,0.77-0.1
	c0.26-0.07,0.51-0.18,0.77-0.32v0.83c-0.26,0.12-0.52,0.21-0.78,0.26c-0.27,0.05-0.56,0.08-0.86,0.08c-0.82,0-1.48-0.25-1.96-0.77
	c-0.49-0.51-0.73-1.21-0.73-2.09c0-0.89,0.24-1.59,0.73-2.1c0.49-0.51,1.16-0.77,2.02-0.77c0.28,0,0.55,0.03,0.81,0.09
	C80.56,545.74,80.82,545.82,81.07,545.93"/>
<path d="M82.63,543.59h0.9v1.14h-0.9V543.59z M82.63,545.72h0.9v5.47h-0.9V545.72z"/>
<path d="M89.19,547.97c-0.01-0.49-0.15-0.88-0.41-1.18c-0.27-0.29-0.63-0.44-1.07-0.44c-0.5,0-0.9,0.15-1.2,0.43
	c-0.3,0.28-0.48,0.68-0.52,1.19H89.19 M90.09,548.23v0.44h-4.13c0.04,0.62,0.22,1.1,0.56,1.42c0.33,0.32,0.79,0.48,1.39,0.48
	c0.34,0,0.68-0.04,1-0.12c0.32-0.08,0.65-0.21,0.97-0.39v0.85c-0.32,0.14-0.65,0.25-0.99,0.31c-0.34,0.06-0.69,0.1-1.03,0.1
	c-0.88,0-1.57-0.25-2.08-0.75s-0.76-1.19-0.76-2.06c0-0.89,0.24-1.6,0.72-2.13c0.48-0.52,1.14-0.79,1.96-0.79
	c0.74,0,1.32,0.24,1.75,0.71C89.87,546.78,90.09,547.42,90.09,548.23"/>
<path d="M96.11,547.89v3.3h-0.9v-3.27c0-0.52-0.11-0.9-0.31-1.16c-0.2-0.26-0.5-0.39-0.9-0.39c-0.49,0-0.87,0.16-1.15,0.47
	c-0.28,0.31-0.42,0.73-0.42,1.26v3.09h-0.9v-5.47h0.9v0.85c0.21-0.32,0.46-0.57,0.76-0.73c0.29-0.16,0.63-0.25,1.01-0.25
	c0.62,0,1.1,0.2,1.42,0.59C95.94,546.57,96.11,547.14,96.11,547.89"/>
<path d="M101.84,545.93v0.84c-0.26-0.14-0.51-0.24-0.77-0.31c-0.26-0.07-0.51-0.11-0.77-0.11c-0.58,0-1.04,0.19-1.36,0.56
	c-0.32,0.37-0.48,0.89-0.48,1.55c0,0.67,0.16,1.19,0.48,1.56c0.32,0.37,0.78,0.55,1.36,0.55c0.26,0,0.51-0.03,0.77-0.1
	c0.26-0.07,0.51-0.18,0.77-0.32v0.83c-0.26,0.12-0.52,0.21-0.78,0.26c-0.27,0.05-0.56,0.08-0.86,0.08c-0.82,0-1.48-0.25-1.96-0.77
	c-0.49-0.51-0.73-1.21-0.73-2.09c0-0.89,0.24-1.59,0.73-2.1c0.49-0.51,1.16-0.77,2.02-0.77c0.28,0,0.55,0.03,0.81,0.09
	C101.33,545.74,101.59,545.82,101.84,545.93"/>
<path d="M107.18,547.97c-0.01-0.49-0.15-0.88-0.41-1.18c-0.27-0.29-0.63-0.44-1.07-0.44c-0.5,0-0.9,0.15-1.2,0.43
	c-0.3,0.28-0.48,0.68-0.52,1.19H107.18 M108.08,548.23v0.44h-4.13c0.04,0.62,0.22,1.1,0.56,1.42c0.33,0.32,0.79,0.48,1.39,0.48
	c0.34,0,0.68-0.04,1-0.12c0.32-0.08,0.65-0.21,0.97-0.39v0.85c-0.32,0.14-0.65,0.25-0.99,0.31c-0.34,0.06-0.69,0.1-1.03,0.1
	c-0.88,0-1.57-0.25-2.08-0.75s-0.76-1.19-0.76-2.06c0-0.89,0.24-1.6,0.72-2.13c0.48-0.52,1.14-0.79,1.96-0.79
	c0.74,0,1.32,0.24,1.75,0.71C107.86,546.78,108.08,547.42,108.08,548.23"/>
<path d="M113.04,545.88v0.85c-0.26-0.12-0.52-0.22-0.79-0.29c-0.28-0.06-0.56-0.1-0.85-0.1c-0.45,0-0.79,0.07-1.01,0.21
	c-0.22,0.14-0.33,0.34-0.33,0.61c0,0.21,0.08,0.37,0.24,0.49c0.16,0.12,0.48,0.24,0.96,0.34l0.31,0.07
	c0.64,0.14,1.09,0.34,1.36,0.58c0.26,0.25,0.4,0.6,0.4,1.04c0,0.51-0.2,0.91-0.6,1.2c-0.4,0.3-0.96,0.44-1.66,0.44
	c-0.3,0-0.6-0.03-0.92-0.08c-0.32-0.05-0.65-0.13-1-0.25v-0.93c0.33,0.18,0.66,0.31,0.98,0.39c0.32,0.09,0.64,0.13,0.96,0.13
	c0.42,0,0.75-0.07,0.98-0.21c0.22-0.14,0.34-0.35,0.34-0.62c0-0.24-0.09-0.43-0.25-0.56c-0.16-0.13-0.52-0.26-1.08-0.38l-0.31-0.07
	c-0.56-0.12-0.97-0.3-1.21-0.54c-0.25-0.24-0.37-0.57-0.37-1c0-0.51,0.18-0.91,0.54-1.19c0.36-0.28,0.88-0.42,1.56-0.42
	c0.33,0,0.64,0.03,0.94,0.08C112.52,545.72,112.79,545.79,113.04,545.88"/>
<rect x="9" y="558.87" class="st6" width="20" height="7"/>
<polygon points="37.98,558.58 42.17,558.58 42.17,559.41 38.97,559.41 38.97,561.55 41.86,561.55 41.86,562.39 38.97,562.39 
	38.97,565.87 37.98,565.87 "/>
<path d="M43.69,558.27h0.9v1.14h-0.9V558.27z M43.69,560.4h0.9v5.47h-0.9V560.4z"/>
<path d="M51.02,562.56v3.3h-0.9v-3.27c0-0.52-0.11-0.9-0.31-1.16c-0.2-0.26-0.5-0.39-0.9-0.39c-0.49,0-0.87,0.16-1.15,0.47
	c-0.28,0.31-0.42,0.73-0.42,1.26v3.09h-0.9v-5.47h0.9v0.85c0.21-0.32,0.46-0.57,0.76-0.73c0.29-0.16,0.63-0.25,1.01-0.25
	c0.62,0,1.1,0.2,1.42,0.59C50.85,561.25,51.02,561.81,51.02,562.56"/>
<path d="M56.59,562.64c-0.01-0.49-0.15-0.88-0.41-1.18c-0.27-0.29-0.63-0.44-1.07-0.44c-0.5,0-0.9,0.15-1.2,0.43
	c-0.3,0.28-0.48,0.68-0.52,1.19H56.59 M57.49,562.91v0.44h-4.13c0.04,0.62,0.22,1.1,0.56,1.42c0.33,0.32,0.79,0.48,1.39,0.48
	c0.34,0,0.68-0.04,1-0.12s0.65-0.21,0.97-0.39v0.85c-0.32,0.14-0.65,0.25-0.99,0.31c-0.34,0.06-0.69,0.1-1.03,0.1
	c-0.88,0-1.57-0.25-2.08-0.75c-0.51-0.5-0.76-1.19-0.76-2.06c0-0.89,0.24-1.6,0.72-2.13c0.48-0.52,1.14-0.79,1.96-0.79
	c0.74,0,1.32,0.24,1.75,0.71C57.27,561.46,57.49,562.09,57.49,562.91"/>
<polygon points="60.56,558.58 61.39,558.58 58.85,566.79 58.02,566.79 "/>
<path d="M67.43,558.58h1.12l2.78,7.29H70.3L69.64,564h-3.29l-0.66,1.87h-1.04L67.43,558.58z M67.99,559.55l-1.34,3.63h2.68
	L67.99,559.55"/>
<path d="M76.28,563.14c0-0.66-0.14-1.17-0.41-1.55c-0.28-0.38-0.65-0.57-1.12-0.57c-0.48,0-0.85,0.19-1.12,0.57
	c-0.28,0.38-0.41,0.89-0.41,1.55c0,0.66,0.13,1.18,0.41,1.56c0.27,0.38,0.64,0.56,1.12,0.56c0.47,0,0.84-0.18,1.12-0.56
	C76.14,564.32,76.28,563.8,76.28,563.14 M73.22,565.05v2.89h-0.9v-7.54h0.9v0.83c0.18-0.32,0.42-0.56,0.71-0.72
	c0.29-0.16,0.64-0.24,1.04-0.24c0.66,0,1.2,0.27,1.62,0.79c0.41,0.53,0.62,1.22,0.62,2.08c0,0.86-0.21,1.56-0.62,2.08
	c-0.42,0.52-0.96,0.78-1.62,0.78c-0.4,0-0.75-0.08-1.04-0.23C73.64,565.62,73.4,565.38,73.22,565.05"/>
<path d="M82.63,563.14c0-0.66-0.14-1.17-0.41-1.55c-0.28-0.38-0.65-0.57-1.12-0.57c-0.48,0-0.85,0.19-1.12,0.57
	c-0.28,0.38-0.41,0.89-0.41,1.55c0,0.66,0.13,1.18,0.41,1.56c0.27,0.38,0.64,0.56,1.12,0.56c0.47,0,0.84-0.18,1.12-0.56
	C82.49,564.32,82.63,563.8,82.63,563.14 M79.57,565.05v2.89h-0.9v-7.54h0.9v0.83c0.18-0.32,0.42-0.56,0.71-0.72
	c0.29-0.16,0.64-0.24,1.04-0.24c0.66,0,1.2,0.27,1.62,0.79c0.41,0.53,0.62,1.22,0.62,2.08c0,0.86-0.21,1.56-0.62,2.08
	c-0.42,0.52-0.96,0.78-1.62,0.78c-0.4,0-0.75-0.08-1.04-0.23C79.99,565.62,79.75,565.38,79.57,565.05"/>
<rect x="85.05" y="558.27" width="0.9" height="7.6"/>
<path d="M87.83,558.27h0.9v1.14h-0.9V558.27z M87.83,560.4h0.9v5.47h-0.9V560.4z"/>
<path d="M94.39,562.64c-0.01-0.49-0.15-0.88-0.41-1.18c-0.27-0.29-0.63-0.44-1.07-0.44c-0.5,0-0.9,0.15-1.2,0.43
	c-0.3,0.28-0.48,0.68-0.52,1.19H94.39 M95.29,562.91v0.44h-4.13c0.04,0.62,0.22,1.1,0.56,1.42c0.33,0.32,0.79,0.48,1.39,0.48
	c0.34,0,0.68-0.04,1-0.12s0.65-0.21,0.97-0.39v0.85c-0.32,0.14-0.65,0.25-0.99,0.31c-0.34,0.06-0.69,0.1-1.03,0.1
	c-0.88,0-1.57-0.25-2.08-0.75s-0.76-1.19-0.76-2.06c0-0.89,0.24-1.6,0.72-2.13c0.48-0.52,1.14-0.79,1.96-0.79
	c0.74,0,1.32,0.24,1.75,0.71C95.07,561.46,95.29,562.09,95.29,562.91"/>
<path d="M97.3,563.13c0,0.66,0.13,1.18,0.4,1.56c0.27,0.38,0.65,0.56,1.13,0.56c0.47,0,0.84-0.18,1.12-0.56
	c0.27-0.38,0.41-0.9,0.41-1.56c0-0.66-0.14-1.17-0.41-1.55c-0.28-0.38-0.65-0.57-1.12-0.57c-0.48,0-0.86,0.19-1.13,0.57
	S97.3,562.47,97.3,563.13 M100.36,561.22v-2.96h0.9v7.6h-0.9v-0.82c-0.19,0.33-0.43,0.57-0.72,0.72c-0.29,0.15-0.63,0.23-1.03,0.23
	c-0.66,0-1.2-0.26-1.62-0.78c-0.42-0.52-0.62-1.22-0.62-2.08c0-0.86,0.2-1.55,0.62-2.08c0.42-0.52,0.96-0.79,1.62-0.79
	c0.4,0,0.74,0.08,1.03,0.24C99.93,560.66,100.17,560.91,100.36,561.22"/>
<path d="M108.21,558.58h1.12l2.78,7.29h-1.03l-0.66-1.87h-3.29l-0.66,1.87h-1.04L108.21,558.58z M108.77,559.55l-1.34,3.63h2.68
	L108.77,559.55"/>
<path d="M116.3,561.24c-0.1-0.06-0.21-0.1-0.33-0.13c-0.12-0.02-0.25-0.04-0.39-0.04c-0.51,0-0.9,0.17-1.17,0.5
	c-0.28,0.33-0.41,0.8-0.41,1.42v2.88h-0.9v-5.47h0.9v0.85c0.18-0.33,0.43-0.58,0.73-0.74c0.3-0.16,0.67-0.24,1.11-0.24
	c0.06,0,0.13,0.01,0.21,0.01c0.07,0.01,0.15,0.02,0.25,0.04V561.24"/>
<path d="M118.13,558.84v1.55h1.85v0.7h-1.85v2.97c0,0.45,0.06,0.74,0.18,0.86c0.12,0.13,0.37,0.19,0.75,0.19h0.92v0.75h-0.92
	c-0.7,0-1.18-0.13-1.44-0.39c-0.26-0.26-0.39-0.73-0.39-1.41v-2.97h-0.66v-0.7h0.66v-1.55H118.13"/>
<path d="M124.65,560.55v0.85c-0.26-0.12-0.52-0.22-0.79-0.29c-0.28-0.06-0.56-0.1-0.85-0.1c-0.45,0-0.79,0.07-1.01,0.21
	c-0.22,0.14-0.33,0.34-0.33,0.61c0,0.21,0.08,0.37,0.24,0.49c0.16,0.12,0.48,0.24,0.96,0.34l0.31,0.07
	c0.64,0.14,1.09,0.34,1.36,0.58c0.26,0.25,0.4,0.6,0.4,1.04c0,0.51-0.2,0.91-0.6,1.2c-0.4,0.3-0.96,0.44-1.66,0.44
	c-0.3,0-0.6-0.03-0.92-0.08c-0.32-0.05-0.65-0.13-1-0.25v-0.93c0.33,0.18,0.66,0.31,0.98,0.39c0.32,0.09,0.64,0.13,0.96,0.13
	c0.42,0,0.75-0.07,0.98-0.21c0.22-0.14,0.34-0.35,0.34-0.62c0-0.24-0.09-0.43-0.25-0.56c-0.16-0.13-0.52-0.26-1.08-0.38l-0.31-0.07
	c-0.56-0.12-0.97-0.3-1.21-0.54c-0.25-0.24-0.37-0.57-0.37-1c0-0.51,0.18-0.91,0.54-1.19c0.36-0.28,0.88-0.42,1.56-0.42
	c0.33,0,0.64,0.03,0.94,0.08C124.13,560.4,124.4,560.47,124.65,560.55"/>
<rect x="9" y="573.54" class="st7" width="20" height="7"/>
<path d="M37.87,573.25h0.99v4.43c0,0.78,0.14,1.35,0.42,1.69c0.28,0.34,0.74,0.51,1.38,0.51c0.63,0,1.09-0.17,1.37-0.51
	c0.28-0.34,0.43-0.91,0.43-1.69v-4.43h0.99v4.55c0,0.96-0.24,1.67-0.71,2.15c-0.47,0.48-1.16,0.72-2.08,0.72
	c-0.92,0-1.62-0.24-2.09-0.72c-0.47-0.48-0.7-1.19-0.7-2.15V573.25"/>
<path d="M49.81,577.24v3.3h-0.9v-3.27c0-0.52-0.11-0.9-0.31-1.16c-0.2-0.26-0.5-0.39-0.9-0.39c-0.49,0-0.87,0.16-1.15,0.47
	c-0.28,0.31-0.42,0.73-0.42,1.26v3.09h-0.9v-5.47h0.9v0.85c0.21-0.32,0.46-0.57,0.76-0.73c0.29-0.16,0.63-0.25,1.01-0.25
	c0.62,0,1.1,0.2,1.42,0.59C49.64,575.92,49.81,576.49,49.81,577.24"/>
<path d="M52.14,577.81c0,0.66,0.13,1.18,0.4,1.56c0.27,0.38,0.65,0.56,1.13,0.56c0.47,0,0.84-0.18,1.12-0.56
	c0.27-0.38,0.41-0.9,0.41-1.56c0-0.66-0.14-1.17-0.41-1.55c-0.28-0.38-0.65-0.57-1.12-0.57c-0.48,0-0.86,0.19-1.13,0.57
	C52.27,576.64,52.14,577.15,52.14,577.81 M55.2,575.9v-2.96h0.9v7.6h-0.9v-0.82c-0.19,0.33-0.43,0.57-0.72,0.72
	c-0.29,0.15-0.63,0.23-1.03,0.23c-0.66,0-1.2-0.26-1.62-0.78c-0.42-0.52-0.62-1.22-0.62-2.08c0-0.86,0.2-1.55,0.62-2.08
	c0.42-0.52,0.96-0.79,1.62-0.79c0.4,0,0.74,0.08,1.03,0.24C54.77,575.34,55.01,575.58,55.2,575.9"/>
<path d="M61.73,577.32c-0.01-0.49-0.15-0.88-0.41-1.18c-0.27-0.29-0.63-0.44-1.07-0.44c-0.5,0-0.9,0.15-1.2,0.43
	c-0.3,0.28-0.48,0.68-0.52,1.19H61.73 M62.63,577.58v0.44H58.5c0.04,0.62,0.22,1.1,0.56,1.42c0.33,0.32,0.79,0.48,1.39,0.48
	c0.34,0,0.68-0.04,1-0.12c0.32-0.08,0.65-0.21,0.97-0.39v0.85c-0.32,0.14-0.65,0.25-0.99,0.31c-0.34,0.06-0.69,0.1-1.03,0.1
	c-0.88,0-1.57-0.25-2.08-0.75s-0.76-1.19-0.76-2.06c0-0.89,0.24-1.6,0.72-2.13c0.48-0.52,1.14-0.79,1.96-0.79
	c0.74,0,1.32,0.24,1.75,0.71C62.41,576.13,62.63,576.77,62.63,577.58"/>
<path d="M68.04,575.28v0.84c-0.26-0.14-0.51-0.24-0.77-0.31c-0.26-0.07-0.51-0.11-0.77-0.11c-0.58,0-1.04,0.19-1.36,0.56
	c-0.32,0.37-0.48,0.89-0.48,1.55c0,0.67,0.16,1.19,0.48,1.56c0.32,0.37,0.78,0.55,1.36,0.55c0.26,0,0.51-0.03,0.77-0.1
	c0.26-0.07,0.51-0.18,0.77-0.32v0.83c-0.26,0.12-0.52,0.21-0.78,0.26c-0.27,0.05-0.56,0.08-0.86,0.08c-0.82,0-1.48-0.25-1.96-0.77
	c-0.49-0.51-0.73-1.21-0.73-2.09c0-0.89,0.24-1.59,0.73-2.1c0.49-0.51,1.16-0.77,2.02-0.77c0.28,0,0.55,0.03,0.81,0.09
	C67.53,575.09,67.79,575.17,68.04,575.28"/>
<rect x="69.6" y="572.94" width="0.9" height="7.6"/>
<path d="M76.66,577.42v3.12h-0.9v-0.83c-0.21,0.34-0.47,0.58-0.77,0.73c-0.3,0.15-0.68,0.23-1.12,0.23c-0.56,0-1.01-0.15-1.34-0.46
	c-0.33-0.31-0.49-0.73-0.49-1.26c0-0.61,0.2-1.07,0.62-1.39c0.41-0.31,1.02-0.47,1.84-0.47h1.26V577c0-0.41-0.14-0.73-0.41-0.96
	c-0.27-0.22-0.65-0.34-1.14-0.34c-0.32,0-0.62,0.04-0.92,0.12c-0.3,0.08-0.58,0.19-0.85,0.33v-0.83c0.32-0.12,0.64-0.22,0.95-0.28
	c0.31-0.06,0.61-0.1,0.91-0.1c0.79,0,1.38,0.21,1.77,0.62C76.46,575.97,76.66,576.59,76.66,577.42 M74.87,577.79
	c-0.73,0-1.23,0.09-1.51,0.25c-0.28,0.17-0.42,0.45-0.42,0.85c0,0.32,0.1,0.58,0.31,0.76c0.21,0.19,0.5,0.28,0.86,0.28
	c0.5,0,0.9-0.17,1.2-0.53c0.3-0.35,0.45-0.82,0.45-1.41v-0.2H74.87"/>
<path d="M81.68,575.91c-0.1-0.06-0.21-0.1-0.33-0.13c-0.12-0.02-0.25-0.04-0.39-0.04c-0.51,0-0.9,0.17-1.17,0.5
	c-0.28,0.33-0.41,0.8-0.41,1.42v2.88h-0.9v-5.47h0.9v0.85c0.18-0.33,0.43-0.58,0.73-0.74c0.3-0.16,0.67-0.24,1.11-0.24
	c0.06,0,0.13,0.01,0.21,0.01c0.07,0.01,0.15,0.02,0.25,0.04V575.91"/>
<path d="M86.4,577.32c-0.01-0.49-0.15-0.88-0.41-1.18c-0.27-0.29-0.63-0.44-1.07-0.44c-0.5,0-0.9,0.15-1.2,0.43
	c-0.3,0.28-0.48,0.68-0.52,1.19H86.4 M87.3,577.58v0.44h-4.13c0.04,0.62,0.22,1.1,0.56,1.42c0.33,0.32,0.79,0.48,1.39,0.48
	c0.34,0,0.68-0.04,1-0.12c0.32-0.08,0.65-0.21,0.97-0.39v0.85c-0.32,0.14-0.65,0.25-0.99,0.31c-0.34,0.06-0.69,0.1-1.03,0.1
	c-0.88,0-1.57-0.25-2.08-0.75s-0.76-1.19-0.76-2.06c0-0.89,0.24-1.6,0.72-2.13c0.48-0.52,1.14-0.79,1.96-0.79
	c0.74,0,1.32,0.24,1.75,0.71C87.08,576.13,87.3,576.77,87.3,577.58"/>
<path d="M89.31,577.81c0,0.66,0.13,1.18,0.4,1.56c0.27,0.38,0.65,0.56,1.13,0.56c0.47,0,0.84-0.18,1.12-0.56
	c0.27-0.38,0.41-0.9,0.41-1.56c0-0.66-0.14-1.17-0.41-1.55c-0.28-0.38-0.65-0.57-1.12-0.57c-0.48,0-0.86,0.19-1.13,0.57
	C89.44,576.64,89.31,577.15,89.31,577.81 M92.37,575.9v-2.96h0.9v7.6h-0.9v-0.82c-0.19,0.33-0.43,0.57-0.72,0.72
	c-0.29,0.15-0.63,0.23-1.03,0.23c-0.66,0-1.2-0.26-1.62-0.78c-0.42-0.52-0.62-1.22-0.62-2.08c0-0.86,0.2-1.55,0.62-2.08
	c0.42-0.52,0.96-0.79,1.62-0.79c0.4,0,0.74,0.08,1.03,0.24C91.94,575.34,92.18,575.58,92.37,575.9"/>
<rect x="9" y="588.21" class="st8" width="20" height="7"/>
<rect x="37.98" y="587.92" width="0.99" height="7.29"/>
<path d="M45.44,591.91v3.3h-0.9v-3.27c0-0.52-0.11-0.9-0.31-1.16c-0.2-0.26-0.5-0.39-0.9-0.39c-0.49,0-0.87,0.16-1.15,0.47
	c-0.28,0.31-0.42,0.73-0.42,1.26v3.09h-0.9v-5.47h0.9v0.85c0.21-0.32,0.46-0.57,0.76-0.73c0.29-0.16,0.63-0.25,1.01-0.25
	c0.62,0,1.1,0.2,1.42,0.59C45.27,590.59,45.44,591.16,45.44,591.91"/>
<path d="M48.12,588.19v1.55h1.85v0.7h-1.85v2.97c0,0.45,0.06,0.74,0.18,0.86c0.12,0.13,0.37,0.19,0.75,0.19h0.92v0.75h-0.92
	c-0.7,0-1.18-0.13-1.44-0.39c-0.26-0.26-0.39-0.73-0.39-1.41v-2.97h-0.66v-0.7h0.66v-1.55H48.12"/>
<path d="M54.93,591.99c-0.01-0.49-0.15-0.88-0.41-1.18c-0.27-0.29-0.63-0.44-1.07-0.44c-0.5,0-0.9,0.15-1.2,0.43
	c-0.3,0.28-0.48,0.68-0.52,1.19H54.93 M55.83,592.25v0.44H51.7c0.04,0.62,0.22,1.1,0.56,1.42c0.33,0.32,0.79,0.48,1.39,0.48
	c0.34,0,0.68-0.04,1-0.12s0.65-0.21,0.97-0.39v0.85c-0.32,0.14-0.65,0.25-0.99,0.31c-0.34,0.06-0.69,0.1-1.03,0.1
	c-0.88,0-1.57-0.25-2.08-0.75c-0.51-0.5-0.76-1.19-0.76-2.06c0-0.89,0.24-1.6,0.72-2.13c0.48-0.52,1.14-0.79,1.96-0.79
	c0.74,0,1.32,0.24,1.75,0.71C55.61,590.8,55.83,591.44,55.83,592.25"/>
<path d="M61.85,591.91v3.3h-0.9v-3.27c0-0.52-0.11-0.9-0.31-1.16c-0.2-0.26-0.5-0.39-0.9-0.39c-0.49,0-0.87,0.16-1.15,0.47
	c-0.28,0.31-0.42,0.73-0.42,1.26v3.09h-0.9v-5.47h0.9v0.85c0.21-0.32,0.46-0.57,0.76-0.73c0.29-0.16,0.63-0.25,1.01-0.25
	c0.62,0,1.1,0.2,1.42,0.59C61.68,590.59,61.85,591.16,61.85,591.91"/>
<path d="M67.13,589.9v0.85c-0.26-0.12-0.52-0.22-0.79-0.29c-0.28-0.06-0.56-0.1-0.85-0.1c-0.45,0-0.79,0.07-1.01,0.21
	c-0.22,0.14-0.33,0.34-0.33,0.61c0,0.21,0.08,0.37,0.24,0.49c0.16,0.12,0.48,0.24,0.96,0.34l0.31,0.07
	c0.64,0.14,1.09,0.34,1.36,0.58c0.26,0.25,0.4,0.6,0.4,1.04c0,0.51-0.2,0.91-0.6,1.2c-0.4,0.3-0.96,0.44-1.66,0.44
	c-0.3,0-0.6-0.03-0.92-0.08c-0.32-0.05-0.65-0.13-1-0.25v-0.93c0.33,0.18,0.66,0.31,0.98,0.39c0.32,0.09,0.64,0.13,0.96,0.13
	c0.42,0,0.75-0.07,0.98-0.21c0.22-0.14,0.34-0.35,0.34-0.62c0-0.24-0.09-0.43-0.25-0.56c-0.16-0.13-0.52-0.26-1.08-0.38l-0.31-0.07
	c-0.56-0.12-0.97-0.3-1.21-0.54c-0.25-0.24-0.37-0.57-0.37-1c0-0.51,0.18-0.91,0.54-1.19c0.36-0.28,0.88-0.42,1.56-0.42
	c0.33,0,0.64,0.03,0.94,0.08C66.61,589.74,66.88,589.81,67.13,589.9"/>
<path d="M68.85,587.61h0.9v1.14h-0.9V587.61z M68.85,589.74h0.9v5.47h-0.9V589.74z"/>
<polygon points="70.99,589.74 71.94,589.74 73.65,594.33 75.36,589.74 76.31,589.74 74.26,595.21 73.04,595.21 "/>
<path d="M81.33,591.99c-0.01-0.49-0.15-0.88-0.41-1.18c-0.27-0.29-0.63-0.44-1.07-0.44c-0.5,0-0.9,0.15-1.2,0.43
	c-0.3,0.28-0.48,0.68-0.52,1.19H81.33 M82.23,592.25v0.44H78.1c0.04,0.62,0.22,1.1,0.56,1.42c0.33,0.32,0.79,0.48,1.39,0.48
	c0.34,0,0.68-0.04,1-0.12s0.65-0.21,0.97-0.39v0.85c-0.32,0.14-0.65,0.25-0.99,0.31c-0.34,0.06-0.69,0.1-1.03,0.1
	c-0.88,0-1.57-0.25-2.08-0.75s-0.76-1.19-0.76-2.06c0-0.89,0.24-1.6,0.72-2.13c0.48-0.52,1.14-0.79,1.96-0.79
	c0.74,0,1.32,0.24,1.75,0.71C82.01,590.8,82.23,591.44,82.23,592.25"/>
<polygon points="86.92,587.92 91.53,587.92 91.53,588.75 87.91,588.75 87.91,590.91 91.38,590.91 91.38,591.74 87.91,591.74 
	87.91,594.38 91.62,594.38 91.62,595.21 86.92,595.21 "/>
<path d="M97.75,591.91v3.3h-0.9v-3.27c0-0.52-0.11-0.9-0.31-1.16c-0.2-0.26-0.5-0.39-0.9-0.39c-0.49,0-0.87,0.16-1.15,0.47
	c-0.28,0.31-0.42,0.73-0.42,1.26v3.09h-0.9v-5.47h0.9v0.85c0.21-0.32,0.46-0.57,0.76-0.73c0.29-0.16,0.63-0.25,1.01-0.25
	c0.62,0,1.1,0.2,1.42,0.59C97.58,590.59,97.75,591.16,97.75,591.91"/>
<path d="M104.04,594.53c0,0.92-0.21,1.61-0.62,2.07c-0.42,0.45-1.05,0.68-1.9,0.68c-0.32,0-0.61-0.03-0.89-0.07
	c-0.28-0.05-0.56-0.12-0.82-0.22v-0.87c0.26,0.14,0.52,0.24,0.78,0.31c0.26,0.07,0.52,0.11,0.79,0.11c0.58,0,1.02-0.16,1.32-0.46
	c0.29-0.31,0.44-0.77,0.44-1.39v-0.44c-0.19,0.32-0.43,0.56-0.72,0.72c-0.29,0.16-0.63,0.24-1.03,0.24c-0.68,0-1.22-0.25-1.63-0.76
	c-0.41-0.51-0.61-1.19-0.61-2.04c0-0.84,0.2-1.52,0.61-2.03c0.41-0.51,0.95-0.77,1.63-0.77c0.4,0,0.74,0.08,1.03,0.24
	c0.29,0.16,0.53,0.4,0.72,0.72v-0.83h0.9V594.53 M103.14,592.41c0-0.64-0.14-1.15-0.4-1.51c-0.27-0.36-0.65-0.54-1.13-0.54
	c-0.48,0-0.86,0.18-1.13,0.54c-0.27,0.36-0.4,0.87-0.4,1.51c0,0.65,0.13,1.15,0.4,1.51c0.27,0.36,0.65,0.54,1.13,0.54
	c0.48,0,0.86-0.18,1.13-0.54C103,593.56,103.14,593.06,103.14,592.41"/>
<rect x="105.89" y="587.61" width="0.9" height="7.6"/>
<path d="M108.67,587.61h0.9v1.14h-0.9V587.61z M108.67,589.74h0.9v5.47h-0.9V589.74z"/>
<path d="M114.94,589.9v0.85c-0.26-0.12-0.52-0.22-0.79-0.29c-0.28-0.06-0.56-0.1-0.85-0.1c-0.45,0-0.79,0.07-1.01,0.21
	c-0.22,0.14-0.33,0.34-0.33,0.61c0,0.21,0.08,0.37,0.24,0.49c0.16,0.12,0.48,0.24,0.96,0.34l0.31,0.07
	c0.64,0.14,1.09,0.34,1.36,0.58c0.26,0.25,0.4,0.6,0.4,1.04c0,0.51-0.2,0.91-0.6,1.2c-0.4,0.3-0.96,0.44-1.66,0.44
	c-0.3,0-0.6-0.03-0.92-0.08c-0.32-0.05-0.65-0.13-1-0.25v-0.93c0.33,0.18,0.66,0.31,0.98,0.39c0.32,0.09,0.64,0.13,0.96,0.13
	c0.42,0,0.75-0.07,0.98-0.21c0.22-0.14,0.34-0.35,0.34-0.62c0-0.24-0.09-0.43-0.25-0.56c-0.16-0.13-0.52-0.26-1.08-0.38l-0.31-0.07
	c-0.56-0.12-0.97-0.3-1.21-0.54c-0.25-0.24-0.37-0.57-0.37-1c0-0.51,0.18-0.91,0.54-1.19c0.36-0.28,0.88-0.42,1.56-0.42
	c0.33,0,0.64,0.03,0.94,0.08C114.42,589.74,114.69,589.81,114.94,589.9"/>
<path d="M121.21,591.91v3.3h-0.9v-3.27c0-0.52-0.11-0.9-0.31-1.16c-0.2-0.26-0.5-0.39-0.9-0.39c-0.49,0-0.87,0.16-1.15,0.47
	c-0.28,0.31-0.42,0.73-0.42,1.26v3.09h-0.9v-7.6h0.9v2.98c0.21-0.32,0.46-0.57,0.76-0.73c0.29-0.16,0.63-0.25,1.01-0.25
	c0.62,0,1.1,0.2,1.42,0.59C121.04,590.59,121.21,591.16,121.21,591.91"/>
<rect x="9" y="602.88" class="st9" width="20" height="7"/>
<polygon points="37.98,602.59 42.59,602.59 42.59,603.42 38.97,603.42 38.97,605.58 42.44,605.58 42.44,606.41 38.97,606.41 
	38.97,609.05 42.68,609.05 42.68,609.88 37.98,609.88 "/>
<path d="M44.8,607.15c0,0.66,0.13,1.18,0.4,1.56c0.27,0.38,0.65,0.56,1.13,0.56c0.47,0,0.84-0.18,1.12-0.56
	c0.27-0.38,0.41-0.9,0.41-1.56c0-0.66-0.14-1.17-0.41-1.55c-0.28-0.38-0.65-0.57-1.12-0.57c-0.48,0-0.86,0.19-1.13,0.57
	C44.93,605.98,44.8,606.49,44.8,607.15 M47.86,605.24v-2.96h0.9v7.6h-0.9v-0.82c-0.19,0.33-0.43,0.57-0.72,0.72
	c-0.29,0.15-0.63,0.23-1.03,0.23c-0.66,0-1.2-0.26-1.62-0.78c-0.42-0.52-0.62-1.22-0.62-2.08c0-0.86,0.2-1.55,0.62-2.08
	c0.42-0.52,0.96-0.79,1.62-0.79c0.4,0,0.74,0.08,1.03,0.24C47.43,604.68,47.67,604.92,47.86,605.24"/>
<path d="M52.78,604.28L52.78,604.28 M50.52,607.72v-3.31h0.9v3.28c0,0.52,0.1,0.9,0.3,1.16c0.2,0.26,0.5,0.39,0.91,0.39
	c0.48,0,0.87-0.15,1.15-0.46s0.42-0.73,0.42-1.27v-3.1h0.9v5.47h-0.9v-0.84c-0.22,0.34-0.48,0.58-0.76,0.74
	c-0.29,0.15-0.62,0.23-1,0.23c-0.63,0-1.11-0.19-1.43-0.58C50.68,609.05,50.52,608.48,50.52,607.72"/>
<path d="M60.89,604.62v0.84c-0.26-0.14-0.51-0.24-0.77-0.31c-0.26-0.07-0.51-0.11-0.77-0.11c-0.58,0-1.04,0.19-1.36,0.56
	c-0.32,0.37-0.48,0.89-0.48,1.55c0,0.67,0.16,1.19,0.48,1.56c0.32,0.37,0.78,0.55,1.36,0.55c0.26,0,0.51-0.03,0.77-0.1
	c0.26-0.07,0.51-0.18,0.77-0.32v0.83c-0.26,0.12-0.52,0.21-0.78,0.26c-0.27,0.05-0.56,0.08-0.86,0.08c-0.82,0-1.48-0.25-1.96-0.77
	c-0.49-0.51-0.73-1.21-0.73-2.09c0-0.89,0.24-1.59,0.73-2.1c0.49-0.51,1.16-0.77,2.02-0.77c0.28,0,0.55,0.03,0.81,0.09
	C60.38,604.43,60.64,604.51,60.89,604.62"/>
<path d="M66.73,606.76v3.12h-0.9v-0.83c-0.21,0.34-0.47,0.58-0.77,0.73c-0.3,0.15-0.68,0.23-1.12,0.23c-0.56,0-1.01-0.15-1.34-0.46
	c-0.33-0.31-0.49-0.73-0.49-1.26c0-0.61,0.2-1.07,0.62-1.39c0.41-0.31,1.02-0.47,1.84-0.47h1.26v-0.09c0-0.41-0.14-0.73-0.41-0.96
	c-0.27-0.22-0.65-0.34-1.14-0.34c-0.32,0-0.62,0.04-0.92,0.12c-0.3,0.08-0.58,0.19-0.85,0.33v-0.83c0.32-0.12,0.64-0.22,0.95-0.28
	c0.31-0.06,0.61-0.1,0.91-0.1c0.79,0,1.38,0.21,1.77,0.62C66.53,605.31,66.73,605.93,66.73,606.76 M64.94,607.13
	c-0.73,0-1.23,0.09-1.51,0.25c-0.28,0.17-0.42,0.45-0.42,0.85c0,0.32,0.1,0.58,0.31,0.76c0.21,0.19,0.5,0.28,0.86,0.28
	c0.5,0,0.9-0.17,1.2-0.53c0.3-0.35,0.45-0.82,0.45-1.41v-0.2H64.94"/>
<path d="M69.47,602.86v1.55h1.85v0.7h-1.85v2.97c0,0.45,0.06,0.74,0.18,0.86c0.12,0.13,0.37,0.19,0.75,0.19h0.92v0.75H70.4
	c-0.7,0-1.18-0.13-1.44-0.39c-0.26-0.26-0.39-0.73-0.39-1.41v-2.97h-0.66v-0.7h0.66v-1.55H69.47"/>
<path d="M72.5,602.28h0.9v1.14h-0.9V602.28z M72.5,604.41h0.9v5.47h-0.9V604.41z"/>
<path d="M77.4,604.28c0.78,0,1.39,0.26,1.84,0.76c0.44,0.51,0.67,1.21,0.67,2.11c0,0.9-0.23,1.6-0.67,2.1
	c-0.45,0.51-1.06,0.76-1.84,0.76c-0.79,0-1.41-0.25-1.85-0.76c-0.44-0.5-0.66-1.2-0.66-2.1c0-0.9,0.22-1.6,0.66-2.11
	C75.99,604.54,76.61,604.28,77.4,604.28 M77.4,605.04c-0.48,0-0.86,0.19-1.14,0.57c-0.28,0.38-0.42,0.89-0.42,1.54
	c0,0.66,0.13,1.17,0.41,1.55c0.28,0.38,0.66,0.56,1.15,0.56c0.48,0,0.86-0.18,1.14-0.56c0.28-0.38,0.42-0.89,0.42-1.55
	c0-0.64-0.14-1.16-0.42-1.54C78.26,605.23,77.88,605.04,77.4,605.04"/>
<path d="M85.95,606.58v3.3h-0.9v-3.27c0-0.52-0.11-0.9-0.31-1.16c-0.2-0.26-0.5-0.39-0.9-0.39c-0.49,0-0.87,0.16-1.15,0.47
	c-0.28,0.31-0.42,0.73-0.42,1.26v3.09h-0.9v-5.47h0.9v0.85c0.21-0.32,0.46-0.57,0.76-0.73c0.29-0.16,0.63-0.25,1.01-0.25
	c0.62,0,1.1,0.2,1.42,0.59C85.78,605.26,85.95,605.83,85.95,606.58"/>
<rect x="9" y="617.55" class="st10" width="20" height="7"/>
<polygon points="37.98,617.26 38.97,617.26 38.97,620.25 42.55,620.25 42.55,617.26 43.54,617.26 43.54,624.55 42.55,624.55 
	42.55,621.08 38.97,621.08 38.97,624.55 37.98,624.55 "/>
<path d="M49.24,621.33c-0.01-0.49-0.15-0.88-0.41-1.18c-0.27-0.29-0.63-0.44-1.07-0.44c-0.5,0-0.9,0.15-1.2,0.43
	c-0.3,0.28-0.48,0.68-0.52,1.19H49.24 M50.14,621.59v0.44h-4.13c0.04,0.62,0.22,1.1,0.56,1.42c0.33,0.32,0.79,0.48,1.39,0.48
	c0.34,0,0.68-0.04,1-0.12s0.65-0.21,0.97-0.39v0.85c-0.32,0.14-0.65,0.25-0.99,0.31c-0.34,0.06-0.69,0.1-1.03,0.1
	c-0.88,0-1.57-0.25-2.08-0.75c-0.51-0.5-0.76-1.19-0.76-2.06c0-0.89,0.24-1.6,0.72-2.13c0.48-0.52,1.14-0.79,1.96-0.79
	c0.74,0,1.32,0.24,1.75,0.71C49.92,620.14,50.14,620.78,50.14,621.59"/>
<path d="M55.89,621.43v3.12h-0.9v-0.83c-0.21,0.34-0.47,0.58-0.77,0.73c-0.3,0.15-0.68,0.23-1.12,0.23c-0.56,0-1.01-0.15-1.34-0.46
	c-0.33-0.31-0.49-0.73-0.49-1.26c0-0.61,0.2-1.07,0.62-1.39c0.41-0.31,1.02-0.47,1.84-0.47h1.26v-0.09c0-0.41-0.14-0.73-0.41-0.96
	c-0.27-0.22-0.65-0.34-1.14-0.34c-0.32,0-0.62,0.04-0.92,0.12s-0.58,0.19-0.85,0.33v-0.83c0.32-0.12,0.64-0.22,0.95-0.28
	c0.31-0.06,0.61-0.1,0.91-0.1c0.79,0,1.38,0.21,1.77,0.62C55.69,619.98,55.89,620.6,55.89,621.43 M54.1,621.8
	c-0.73,0-1.23,0.09-1.51,0.25c-0.28,0.17-0.42,0.45-0.42,0.85c0,0.32,0.1,0.58,0.31,0.76c0.21,0.19,0.5,0.28,0.86,0.28
	c0.5,0,0.9-0.17,1.2-0.53c0.3-0.35,0.45-0.82,0.45-1.41v-0.2H54.1"/>
<rect x="57.74" y="616.95" width="0.9" height="7.6"/>
<path d="M61.41,617.53v1.55h1.85v0.7h-1.85v2.97c0,0.45,0.06,0.74,0.18,0.86c0.12,0.13,0.37,0.19,0.75,0.19h0.92v0.75h-0.92
	c-0.7,0-1.18-0.13-1.44-0.39c-0.26-0.26-0.39-0.73-0.39-1.41v-2.97h-0.66v-0.7h0.66v-1.55H61.41"/>
<path d="M68.99,621.25v3.3h-0.9v-3.27c0-0.52-0.11-0.9-0.31-1.16c-0.2-0.26-0.5-0.39-0.9-0.39c-0.49,0-0.87,0.16-1.15,0.47
	c-0.28,0.31-0.42,0.73-0.42,1.26v3.09h-0.9v-7.6h0.9v2.98c0.21-0.32,0.46-0.57,0.76-0.73c0.29-0.16,0.63-0.25,1.01-0.25
	c0.62,0,1.1,0.2,1.42,0.59C68.82,619.93,68.99,620.5,68.99,621.25"/>
<path d="M74,617.26h2.23c0.81,0,1.43,0.19,1.85,0.56c0.42,0.37,0.63,0.91,0.63,1.62c0,0.72-0.21,1.27-0.63,1.63
	c-0.42,0.37-1.04,0.55-1.85,0.55h-1.24v2.93H74V617.26 M74.99,618.07v2.74h1.24c0.46,0,0.81-0.11,1.06-0.35s0.38-0.58,0.38-1.02
	c0-0.44-0.13-0.77-0.38-1.01c-0.25-0.24-0.6-0.36-1.06-0.36H74.99"/>
<path d="M83.16,619.92c-0.1-0.06-0.21-0.1-0.33-0.13c-0.12-0.02-0.25-0.04-0.39-0.04c-0.51,0-0.9,0.17-1.17,0.5
	c-0.28,0.33-0.41,0.8-0.41,1.42v2.88h-0.9v-5.47h0.9v0.85c0.18-0.33,0.43-0.58,0.73-0.74c0.3-0.16,0.67-0.24,1.11-0.24
	c0.06,0,0.13,0.01,0.21,0.01c0.07,0.01,0.15,0.02,0.25,0.04V619.92"/>
<path d="M86.22,618.95c0.78,0,1.39,0.26,1.84,0.76c0.44,0.51,0.67,1.21,0.67,2.11c0,0.9-0.23,1.6-0.67,2.1
	c-0.45,0.51-1.06,0.76-1.84,0.76c-0.79,0-1.41-0.25-1.85-0.76c-0.44-0.5-0.66-1.2-0.66-2.1c0-0.9,0.22-1.6,0.66-2.11
	C84.81,619.21,85.43,618.95,86.22,618.95 M86.22,619.71c-0.48,0-0.86,0.19-1.14,0.57c-0.28,0.38-0.42,0.89-0.42,1.54
	c0,0.66,0.13,1.17,0.41,1.55s0.66,0.56,1.15,0.56c0.48,0,0.86-0.18,1.14-0.56c0.28-0.38,0.42-0.89,0.42-1.55
	c0-0.64-0.14-1.16-0.42-1.54C87.08,619.9,86.7,619.71,86.22,619.71"/>
<path d="M92.99,616.95v0.75h-0.86c-0.32,0-0.55,0.07-0.67,0.2c-0.13,0.13-0.19,0.36-0.19,0.7v0.48h1.48v0.7h-1.48v4.77h-0.9v-4.77
	h-0.86v-0.7h0.86v-0.38c0-0.6,0.14-1.05,0.42-1.33c0.28-0.28,0.73-0.42,1.35-0.42H92.99"/>
<path d="M97.52,621.33c-0.01-0.49-0.15-0.88-0.41-1.18c-0.27-0.29-0.63-0.44-1.07-0.44c-0.5,0-0.9,0.15-1.2,0.43
	c-0.3,0.28-0.48,0.68-0.52,1.19H97.52 M98.42,621.59v0.44h-4.13c0.04,0.62,0.22,1.1,0.56,1.42c0.33,0.32,0.79,0.48,1.39,0.48
	c0.34,0,0.68-0.04,1-0.12s0.65-0.21,0.97-0.39v0.85c-0.32,0.14-0.65,0.25-0.99,0.31c-0.34,0.06-0.69,0.1-1.03,0.1
	c-0.88,0-1.57-0.25-2.08-0.75s-0.76-1.19-0.76-2.06c0-0.89,0.24-1.6,0.72-2.13c0.48-0.52,1.14-0.79,1.96-0.79
	c0.74,0,1.32,0.24,1.75,0.71C98.2,620.14,98.42,620.78,98.42,621.59"/>
<path d="M103.38,619.24v0.85c-0.26-0.12-0.52-0.22-0.79-0.29c-0.28-0.06-0.56-0.1-0.85-0.1c-0.45,0-0.79,0.07-1.01,0.21
	c-0.22,0.14-0.33,0.34-0.33,0.61c0,0.21,0.08,0.37,0.24,0.49c0.16,0.12,0.48,0.24,0.96,0.34l0.31,0.07
	c0.64,0.14,1.09,0.34,1.36,0.58c0.26,0.25,0.4,0.6,0.4,1.04c0,0.51-0.2,0.91-0.6,1.2c-0.4,0.3-0.96,0.44-1.66,0.44
	c-0.3,0-0.6-0.03-0.92-0.08c-0.32-0.05-0.65-0.13-1-0.25v-0.93c0.33,0.18,0.66,0.31,0.98,0.39c0.32,0.09,0.64,0.13,0.96,0.13
	c0.42,0,0.75-0.07,0.98-0.21c0.22-0.14,0.34-0.35,0.34-0.62c0-0.24-0.09-0.43-0.25-0.56c-0.16-0.13-0.52-0.26-1.08-0.38l-0.31-0.07
	c-0.56-0.12-0.97-0.3-1.21-0.54c-0.25-0.24-0.37-0.57-0.37-1c0-0.51,0.18-0.91,0.54-1.19c0.36-0.28,0.88-0.42,1.56-0.42
	c0.33,0,0.64,0.03,0.94,0.08C102.86,619.08,103.13,619.15,103.38,619.24"/>
<path d="M108.59,619.24v0.85c-0.26-0.12-0.52-0.22-0.79-0.29c-0.28-0.06-0.56-0.1-0.85-0.1c-0.45,0-0.79,0.07-1.01,0.21
	c-0.22,0.14-0.33,0.34-0.33,0.61c0,0.21,0.08,0.37,0.24,0.49c0.16,0.12,0.48,0.24,0.96,0.34l0.31,0.07
	c0.64,0.14,1.09,0.34,1.36,0.58c0.26,0.25,0.4,0.6,0.4,1.04c0,0.51-0.2,0.91-0.6,1.2c-0.4,0.3-0.96,0.44-1.66,0.44
	c-0.3,0-0.6-0.03-0.92-0.08c-0.32-0.05-0.65-0.13-1-0.25v-0.93c0.33,0.18,0.66,0.31,0.98,0.39c0.32,0.09,0.64,0.13,0.96,0.13
	c0.42,0,0.75-0.07,0.98-0.21c0.22-0.14,0.34-0.35,0.34-0.62c0-0.24-0.09-0.43-0.25-0.56c-0.16-0.13-0.52-0.26-1.08-0.38l-0.31-0.07
	c-0.56-0.12-0.97-0.3-1.21-0.54c-0.25-0.24-0.37-0.57-0.37-1c0-0.51,0.18-0.91,0.54-1.19c0.36-0.28,0.88-0.42,1.56-0.42
	c0.33,0,0.64,0.03,0.94,0.08C108.07,619.08,108.34,619.15,108.59,619.24"/>
<path d="M110.31,616.95h0.9v1.14h-0.9V616.95z M110.31,619.08h0.9v5.47h-0.9V619.08z"/>
<path d="M115.21,618.95c0.78,0,1.39,0.26,1.84,0.76c0.44,0.51,0.67,1.21,0.67,2.11c0,0.9-0.23,1.6-0.67,2.1
	c-0.45,0.51-1.06,0.76-1.84,0.76c-0.79,0-1.41-0.25-1.85-0.76c-0.44-0.5-0.66-1.2-0.66-2.1c0-0.9,0.22-1.6,0.66-2.11
	C113.8,619.21,114.42,618.95,115.21,618.95 M115.21,619.71c-0.48,0-0.86,0.19-1.14,0.57c-0.28,0.38-0.42,0.89-0.42,1.54
	c0,0.66,0.13,1.17,0.41,1.55s0.66,0.56,1.15,0.56c0.48,0,0.86-0.18,1.14-0.56c0.28-0.38,0.42-0.89,0.42-1.55
	c0-0.64-0.14-1.16-0.42-1.54C116.07,619.9,115.69,619.71,115.21,619.71"/>
<path d="M123.76,621.25v3.3h-0.9v-3.27c0-0.52-0.11-0.9-0.31-1.16c-0.2-0.26-0.5-0.39-0.9-0.39c-0.49,0-0.87,0.16-1.15,0.47
	c-0.28,0.31-0.42,0.73-0.42,1.26v3.09h-0.9v-5.47h0.9v0.85c0.21-0.32,0.46-0.57,0.76-0.73c0.29-0.16,0.63-0.25,1.01-0.25
	c0.62,0,1.1,0.2,1.42,0.59C123.59,619.93,123.76,620.5,123.76,621.25"/>
<path d="M129.04,619.24v0.85c-0.26-0.12-0.52-0.22-0.79-0.29c-0.28-0.06-0.56-0.1-0.85-0.1c-0.45,0-0.79,0.07-1.01,0.21
	c-0.22,0.14-0.33,0.34-0.33,0.61c0,0.21,0.08,0.37,0.24,0.49c0.16,0.12,0.48,0.24,0.96,0.34l0.31,0.07
	c0.64,0.14,1.09,0.34,1.36,0.58c0.26,0.25,0.4,0.6,0.4,1.04c0,0.51-0.2,0.91-0.6,1.2c-0.4,0.3-0.96,0.44-1.66,0.44
	c-0.3,0-0.6-0.03-0.92-0.08c-0.32-0.05-0.65-0.13-1-0.25v-0.93c0.33,0.18,0.66,0.31,0.98,0.39c0.32,0.09,0.64,0.13,0.96,0.13
	c0.42,0,0.75-0.07,0.98-0.21c0.22-0.14,0.34-0.35,0.34-0.62c0-0.24-0.09-0.43-0.25-0.56c-0.16-0.13-0.52-0.26-1.08-0.38l-0.31-0.07
	c-0.56-0.12-0.97-0.3-1.21-0.54c-0.25-0.24-0.37-0.57-0.37-1c0-0.51,0.18-0.91,0.54-1.19c0.36-0.28,0.88-0.42,1.56-0.42
	c0.33,0,0.64,0.03,0.94,0.08C128.52,619.08,128.79,619.15,129.04,619.24"/>
<rect x="9" y="632.23" class="st11" width="20" height="7"/>
<polygon points="37.98,631.93 38.97,631.93 38.97,634.92 42.55,634.92 42.55,631.93 43.54,631.93 43.54,639.22 42.55,639.22 
	42.55,635.75 38.97,635.75 38.97,639.22 37.98,639.22 "/>
<path d="M47.63,633.62L47.63,633.62 M45.37,637.06v-3.31h0.9v3.28c0,0.52,0.1,0.9,0.3,1.16c0.2,0.26,0.5,0.39,0.91,0.39
	c0.48,0,0.87-0.15,1.15-0.46s0.42-0.73,0.42-1.27v-3.1h0.9v5.47h-0.9v-0.84c-0.22,0.34-0.48,0.58-0.76,0.74
	c-0.29,0.15-0.62,0.23-1,0.23c-0.63,0-1.11-0.19-1.43-0.58C45.53,638.39,45.37,637.82,45.37,637.06"/>
<path d="M56.06,634.8c0.22-0.4,0.49-0.69,0.8-0.89c0.31-0.19,0.68-0.29,1.11-0.29c0.56,0,1,0.2,1.31,0.6
	c0.31,0.4,0.47,0.97,0.47,1.7v3.3h-0.9v-3.27c0-0.52-0.1-0.91-0.28-1.17c-0.19-0.25-0.47-0.38-0.85-0.38
	c-0.47,0-0.84,0.16-1.11,0.47c-0.27,0.31-0.4,0.73-0.4,1.26v3.09h-0.9v-3.27c0-0.52-0.1-0.91-0.28-1.17
	c-0.19-0.25-0.48-0.38-0.86-0.38c-0.46,0-0.83,0.16-1.1,0.47c-0.27,0.31-0.4,0.73-0.4,1.26v3.09h-0.9v-5.47h0.9v0.85
	c0.2-0.33,0.45-0.58,0.74-0.74c0.28-0.16,0.62-0.24,1.02-0.24s0.73,0.1,1.01,0.3C55.72,634.12,55.92,634.42,56.06,634.8"/>
<path d="M65.82,636.1v3.12h-0.9v-0.83c-0.21,0.34-0.47,0.58-0.77,0.73c-0.3,0.15-0.68,0.23-1.12,0.23c-0.56,0-1.01-0.15-1.34-0.46
	c-0.33-0.31-0.49-0.73-0.49-1.26c0-0.61,0.2-1.07,0.62-1.39c0.41-0.31,1.02-0.47,1.84-0.47h1.26v-0.09c0-0.41-0.14-0.73-0.41-0.96
	c-0.27-0.22-0.65-0.34-1.14-0.34c-0.32,0-0.62,0.04-0.92,0.12c-0.3,0.08-0.58,0.19-0.85,0.33V634c0.32-0.12,0.64-0.22,0.95-0.28
	c0.31-0.06,0.61-0.1,0.91-0.1c0.79,0,1.38,0.21,1.77,0.62C65.62,634.65,65.82,635.27,65.82,636.1 M64.03,636.47
	c-0.73,0-1.23,0.09-1.51,0.25c-0.28,0.17-0.42,0.45-0.42,0.85c0,0.32,0.1,0.58,0.31,0.76c0.21,0.19,0.5,0.28,0.86,0.28
	c0.5,0,0.9-0.17,1.2-0.53c0.3-0.35,0.45-0.82,0.45-1.41v-0.2H64.03"/>
<path d="M72.22,635.92v3.3h-0.9v-3.27c0-0.52-0.11-0.9-0.31-1.16c-0.2-0.26-0.5-0.39-0.9-0.39c-0.49,0-0.87,0.16-1.15,0.47
	c-0.28,0.31-0.42,0.73-0.42,1.26v3.09h-0.9v-5.47h0.9v0.85c0.21-0.32,0.46-0.57,0.76-0.73c0.29-0.16,0.63-0.25,1.01-0.25
	c0.62,0,1.1,0.2,1.42,0.59C72.05,634.61,72.22,635.17,72.22,635.92"/>
<path d="M74.01,631.62h0.9v1.14h-0.9V631.62z M74.01,633.75h0.9v5.47h-0.9V633.75z"/>
<path d="M77.68,632.2v1.55h1.85v0.7h-1.85v2.97c0,0.45,0.06,0.74,0.18,0.86c0.12,0.13,0.37,0.19,0.75,0.19h0.92v0.75h-0.92
	c-0.7,0-1.18-0.13-1.44-0.39c-0.26-0.26-0.39-0.73-0.39-1.41v-2.97h-0.66v-0.7h0.66v-1.55H77.68"/>
<path d="M80.71,631.62h0.9v1.14h-0.9V631.62z M80.71,633.75h0.9v5.47h-0.9V633.75z"/>
<path d="M87.27,636c-0.01-0.49-0.15-0.88-0.41-1.18c-0.27-0.29-0.63-0.44-1.07-0.44c-0.5,0-0.9,0.15-1.2,0.43
	c-0.3,0.28-0.48,0.68-0.52,1.19H87.27 M88.17,636.27v0.44h-4.13c0.04,0.62,0.22,1.1,0.56,1.42c0.33,0.32,0.79,0.48,1.39,0.48
	c0.34,0,0.68-0.04,1-0.12c0.32-0.08,0.65-0.21,0.97-0.39v0.85c-0.32,0.14-0.65,0.25-0.99,0.31c-0.34,0.06-0.69,0.1-1.03,0.1
	c-0.88,0-1.57-0.25-2.08-0.75s-0.76-1.19-0.76-2.06c0-0.89,0.24-1.6,0.72-2.13c0.48-0.52,1.14-0.79,1.96-0.79
	c0.74,0,1.32,0.24,1.75,0.71C87.95,634.82,88.17,635.45,88.17,636.27"/>
<path d="M93.13,633.91v0.85c-0.26-0.12-0.52-0.22-0.79-0.29c-0.28-0.06-0.56-0.1-0.85-0.1c-0.45,0-0.79,0.07-1.01,0.21
	c-0.22,0.14-0.33,0.34-0.33,0.61c0,0.21,0.08,0.37,0.24,0.49c0.16,0.12,0.48,0.24,0.96,0.34l0.31,0.07
	c0.64,0.14,1.09,0.34,1.36,0.58c0.26,0.25,0.4,0.6,0.4,1.04c0,0.51-0.2,0.91-0.6,1.2c-0.4,0.3-0.96,0.44-1.66,0.44
	c-0.3,0-0.6-0.03-0.92-0.08c-0.32-0.05-0.65-0.13-1-0.25v-0.93c0.33,0.18,0.66,0.31,0.98,0.39c0.32,0.09,0.64,0.13,0.96,0.13
	c0.42,0,0.75-0.07,0.98-0.21c0.22-0.14,0.34-0.35,0.34-0.62c0-0.24-0.09-0.43-0.25-0.56c-0.16-0.13-0.52-0.26-1.08-0.38l-0.31-0.07
	c-0.56-0.12-0.97-0.3-1.21-0.54c-0.25-0.24-0.37-0.57-0.37-1c0-0.51,0.18-0.91,0.54-1.19c0.36-0.28,0.88-0.42,1.56-0.42
	c0.33,0,0.64,0.03,0.94,0.08C92.61,633.75,92.88,633.82,93.13,633.91"/>
<rect x="-10.7" y="-145.62" class="st16" width="761" height="835"/>
<text transform="matrix(1 0 0 1 207.56 28.7629)" class="st17 st18">2.3%</text>
<text transform="matrix(1 0 0 1 254.9036 28.7629)" class="st17 st18">2.1%</text>
<text transform="matrix(1 0 0 1 302.2471 28.7629)" class="st17 st18">1.8%</text>
<text transform="matrix(1 0 0 1 349.5905 28.7629)" class="st17 st18">1.4%</text>
<text transform="matrix(1 0 0 1 396.934 28.7629)" class="st17 st18">1.1%</text>
<g>
	<g>
		<line class="st19" x1="226.03" y1="34.16" x2="226.83" y2="34.76"/>
		<polyline class="st20" points="228.46,36 278.36,73.7 290.93,92.19 		"/>
		<line class="st19" x1="291.51" y1="93.03" x2="292.07" y2="93.86"/>
	</g>
</g>
<g>
	<g>
		<line class="st19" x1="269.37" y1="34.16" x2="270.19" y2="34.74"/>
		<polyline class="st21" points="271.81,35.88 311.67,64.01 318.86,80.2 		"/>
		<line class="st19" x1="319.26" y1="81.1" x2="319.67" y2="82.02"/>
	</g>
</g>
<g>
	<g>
		<line class="st19" x1="316.65" y1="34.16" x2="317.35" y2="34.88"/>
		<polyline class="st22" points="318.72,36.29 341.96,60.21 344.85,72.86 		"/>
		<line class="st19" x1="345.07" y1="73.82" x2="345.29" y2="74.79"/>
	</g>
</g>
<g>
	<g>
		<line class="st19" x1="365.19" y1="34.16" x2="365.24" y2="35.16"/>
		<line class="st23" x1="365.36" y1="37.23" x2="367.13" y2="69.35"/>
		<line class="st19" x1="367.19" y1="70.38" x2="367.24" y2="71.38"/>
	</g>
</g>
<g>
	<g>
		<line class="st19" x1="411.64" y1="34.16" x2="410.87" y2="34.79"/>
		<polyline class="st24" points="409.33,36.06 386.7,54.65 384.24,68.01 		"/>
		<line class="st19" x1="384.06" y1="68.99" x2="383.88" y2="69.98"/>
	</g>
</g>
</svg>
